<svg width="68" height="72" viewBox="0 0 68 72" fill="none" xmlns="http://www.w3.org/2000/svg">
<path d="M31.892 51.2468C32.8039 49.8538 33.9433 48.6488 35.2461 47.6994C35.9336 47.1837 36.6828 46.783 37.4665 46.5118C38.2754 46.2378 39.1392 46.1489 39.9753 45.9538C42.5625 45.389 44.929 43.7779 46.5898 41.4505C47.827 39.6718 49.2575 37.7409 49.8424 35.6237C50.2582 34.0846 50.2876 29.0035 49.6924 27.0802C48.7355 23.9912 46.4173 21.041 43.9314 19.0365C41.455 17.0202 38.4001 15.9564 35.1987 15.9956C33.2644 16.05 31.3333 16.5875 29.5533 17.5669C27.7732 18.5463 26.1913 19.9417 24.9284 21.6464C23.7467 23.3553 22.8843 25.2871 22.3959 27.3199C21.9074 29.3526 21.8034 31.4421 22.0904 33.4565C22.3131 35.1737 22.7747 36.8557 22.9879 38.5761C23.2915 40.9088 23.1278 43.3238 22.5079 45.6584C23.5366 46.5067 24.6352 47.254 25.7921 47.8924L28.6654 49.62C29.6857 50.2726 30.7657 50.8172 31.892 51.2468Z" fill="white"/>
<path d="M32.3432 51.8495C28.709 50.1253 25.2453 48.0428 21.9921 45.6261C20.1522 48.5006 18.9616 50.2089 18.1546 53.5702C17.9052 54.3959 17.8087 55.2557 17.871 56.0974C17.9332 56.9392 18.153 57.7452 18.5168 58.4664C19.5362 60.1885 21.587 60.8759 23.451 61.433C24.1529 61.682 24.9048 61.7689 25.6611 61.6883C27.1679 61.4135 28.0921 59.8759 28.8303 58.477C30.3051 55.7677 31.0531 54.2942 32.3432 51.8495Z" fill="#ADADAD"/>
<g opacity="0.13">
<path opacity="0.13" d="M23.2737 22.9565C23.3843 22.9344 23.4983 22.9364 23.6086 22.9625C23.7189 22.9885 23.8231 23.0381 23.9146 23.1081C24.0061 23.1781 24.0829 23.2669 24.1403 23.3691C24.1976 23.4712 24.2342 23.5844 24.2478 23.7016C24.2501 23.9672 24.1855 24.228 24.0603 24.4578C24.0245 24.5232 23.9888 24.5885 23.953 24.6539C23.8899 24.8766 23.6771 25.6177 23.6488 25.7919C23.6644 25.5491 23.6671 25.5594 23.6488 25.7919C23.4553 26.9209 23.3883 28.071 23.449 29.219C23.4198 30.0204 23.4869 30.8234 23.6488 31.6093C23.8604 32.9372 24.8622 35.8207 25.2051 37.9496C25.3035 38.5656 25.509 39.9506 25.5203 40.1748C25.6869 40.9162 25.7897 41.6709 25.8275 42.43C25.8348 43.9475 25.7764 43.8861 25.7117 44.9688C25.709 45.7101 25.565 46.4419 25.2879 47.1215C25.2629 47.1672 25.2414 47.2064 25.2164 47.2522C25.2342 47.4911 25.2006 47.7306 25.118 47.9531C25.0355 48.1756 24.906 48.3754 24.7393 48.5378C23.7791 49.436 23.0749 50.7236 22.0476 52.8161C21.0204 54.9086 21.3012 54.1043 20.8454 56.3768C20.7276 56.9026 20.6934 57.446 20.7443 57.9853C20.7853 58.2655 20.7664 58.551 20.6889 58.8214C20.5979 59.0887 20.4166 59.3114 20.1787 59.4477C19.9408 59.584 19.6626 59.6247 19.3962 59.5621C19.3182 59.4306 19.2471 59.2948 19.1833 59.1552C18.9125 58.5481 18.6345 57.9541 18.3618 57.3198C18.2084 57.0185 18.0649 56.7144 17.9214 56.4103C17.9666 55.4327 18.1169 54.4647 18.3695 53.5244C19.0057 51.5957 19.1026 51.2195 19.8255 49.1171C20.1749 48.2256 20.634 47.3863 21.1911 46.6203C21.4951 46.0664 21.9557 45.6253 22.5104 45.3564L22.7973 45.582L23.3037 45.9575C23.8598 43.5768 23.9392 41.0968 23.537 38.6723C23.1838 37.0676 22.6799 35.4936 22.2513 33.9042C21.8098 32.4644 21.5593 30.97 21.5069 29.4631C21.5825 28.4827 21.5999 28.5888 21.6771 27.8964C21.6957 27.7858 21.6772 27.8964 21.6802 28.0286C21.6982 27.6743 21.7323 27.321 21.7691 26.978C21.7922 26.428 21.8842 25.8842 22.0426 25.3606C22.383 24.3401 22.5525 23.173 23.2737 22.9565Z" fill="black"/>
</g>
<g opacity="0.13">
<path opacity="0.13" d="M25.3555 44.9625L25.3658 44.7578C25.3742 44.7366 25.3851 44.7166 25.3983 44.6984L25.3555 44.9625Z" fill="black"/>
</g>
<path d="M20.1124 60.7227C18.9348 60.0147 17.5475 58.8049 17.2601 56.9772C17.1591 55.7511 17.3718 54.4926 17.8747 53.3392C18.7815 50.5303 20.0927 47.8679 21.7563 45.4574C21.8007 45.3935 21.8646 45.3487 21.9349 45.3322C21.9682 45.3247 22.0021 45.3245 22.0345 45.3317C22.0669 45.3389 22.0971 45.3533 22.1234 45.374C25.5417 47.6448 29.0864 49.6984 32.7414 51.5253C32.7748 51.5418 32.8043 51.5655 32.8283 51.5953C32.8522 51.6251 32.8702 51.6602 32.8811 51.6987C32.8903 51.7364 32.8922 51.7763 32.8865 51.816C32.8809 51.8557 32.8678 51.8943 32.8482 51.9294C32.1086 53.2738 31.5169 54.3493 30.9363 55.4046C30.3557 56.46 29.7714 57.5221 29.0244 58.8799C28.6233 59.7136 28.0779 60.4628 27.4209 61.0825C25.4464 62.7489 22.6214 61.8734 21.4986 61.4219C21.0197 61.2258 20.5565 60.9921 20.1124 60.7227ZM21.994 45.9939C20.4386 48.3043 19.2133 50.8442 18.3643 53.5173C17.8965 54.5667 17.6957 55.7158 17.7843 56.8362C18.1429 59.1897 20.6075 60.421 21.6523 60.8434C22.6971 61.2658 25.2982 62.0783 27.0513 60.6008C27.65 60.0275 28.1467 59.3378 28.5122 58.5719C29.2518 57.2275 29.8435 56.152 30.4241 55.0967C31.0046 54.0413 31.5039 53.1339 32.1806 51.9037C29.9036 50.8299 23.91 47.3963 21.994 45.9939Z" fill="black"/>
<path d="M22.5327 46.2108C22.4796 46.1781 22.44 46.1253 22.4208 46.0615C22.4016 45.9977 22.4039 45.9269 22.4273 45.8612C23.5358 42.8064 22.9208 39.3952 22.318 36.0898C21.7153 32.7844 21.1448 29.5342 22.0759 26.4175C23.2243 23.4616 25.0406 20.8279 27.3439 18.7789C29.1248 17.1117 31.2952 16.0533 33.5546 15.7503C37.3548 15.3515 42.8029 16.6859 45.8388 20.0408C48.7077 23.2149 50.42 26.9816 50.6602 30.6326C50.8694 34.0434 49.8716 37.5124 47.87 40.3334C45.8171 43.1472 43.0787 45.28 40.0142 46.452C39.5739 46.6256 39.1144 46.8056 38.6889 46.9523C37.793 47.2468 36.9142 47.6157 36.0605 48.0556C34.6178 48.8433 33.3857 50.0582 32.5156 51.5509C32.4783 51.6186 32.419 51.6694 32.3507 51.6921C32.2824 51.7148 32.2107 51.7075 32.1513 51.6718C32.092 51.6361 32.0499 51.575 32.0343 51.5019C32.0187 51.4287 32.0308 51.3496 32.0681 51.2818C32.996 49.6889 34.311 48.3929 35.8507 47.5538C36.7307 47.0952 37.6369 46.7099 38.5611 46.4013C38.994 46.2412 39.4365 46.0778 39.8671 45.9074C42.8145 44.7976 45.4538 42.765 47.4401 40.075C49.3689 37.3706 50.3325 34.0396 50.1339 30.7634C49.9044 27.2352 48.2397 23.5955 45.4502 20.505C42.5276 17.2718 37.2563 15.9721 33.5681 16.3667C31.4166 16.6501 29.3475 17.6497 27.6451 19.2283C25.4299 21.1998 23.6843 23.7345 22.5826 26.579C21.7217 29.568 22.2863 32.8147 22.8385 35.9555C23.447 39.3359 24.0759 42.8359 22.9095 46.0527C22.8964 46.0889 22.877 46.1224 22.8525 46.1513C22.828 46.1802 22.799 46.204 22.7669 46.2213C22.7348 46.2386 22.7004 46.249 22.6656 46.252C22.6309 46.255 22.5964 46.2505 22.5643 46.2387L22.5327 46.2108Z" fill="black"/>
<path d="M25.4425 47.7447C25.4129 47.7281 25.3871 47.7049 25.3666 47.6765C25.3462 47.6481 25.3314 47.615 25.3233 47.5793C25.3152 47.5436 25.3139 47.5059 25.3194 47.4685C25.325 47.4311 25.3372 47.3947 25.3555 47.3614L25.3814 47.3144C26.9198 44.518 28.3834 41.5158 29.8023 38.4239C30.4231 37.1838 30.8973 35.8718 31.2125 34.5218C30.7342 34.3186 30.3105 33.9998 29.9712 33.5877C29.2566 32.6191 28.9292 31.36 29.0557 30.0674C29.0609 29.7919 29.1225 29.5164 29.2358 29.2611C29.3491 29.0058 29.5114 28.7772 29.7108 28.5918C29.8262 28.5073 29.9568 28.4538 30.0909 28.4361C30.2251 28.4185 30.3586 28.4371 30.4796 28.4904C30.755 28.6368 30.9692 28.8855 31.0869 29.1954C31.7597 30.6274 32.0187 32.2755 31.8319 33.9371C31.8277 34.0007 31.8189 34.0642 31.8057 34.1271C32.3254 34.2847 32.8767 34.3243 33.4272 34.2435C33.9776 34.1627 34.516 33.9632 35.0107 33.6567C35.1272 32.3125 35.4105 30.978 35.8528 29.6904C36.2021 28.3949 36.9984 27.265 38.0669 26.5489C38.2525 26.4275 38.4673 26.3816 38.6706 26.4199C38.8354 26.4825 38.9755 26.5993 39.0728 26.755C39.17 26.9107 39.2201 27.0983 39.2164 27.2937C39.2484 28.6931 38.8107 30.0961 37.9852 31.2408C37.3414 32.3308 36.4956 33.27 35.5081 33.9916C35.4808 34.3687 35.4712 34.7565 35.4712 35.1412C35.4979 36.5169 35.7945 37.4019 36.4089 37.8518C36.7125 38.0522 37.0541 38.1815 37.414 38.2325C38.5263 37.1571 39.8092 36.322 41.186 35.7772C41.6231 35.5863 42.0895 35.5185 42.54 35.5805C42.8 35.6177 43.0382 35.739 43.2249 35.9292C43.4116 36.1195 43.5384 36.3701 43.5894 36.6497C43.5903 36.9589 43.4998 37.2677 43.3312 37.5305C43.1627 37.7932 42.925 37.996 42.6536 38.1087C41.2023 38.9805 39.4721 38.9779 37.9654 38.8682C37.8298 38.8582 37.6788 38.8479 37.5351 38.8242C36.7929 39.5491 36.0903 40.3219 35.4318 41.1377C33.2585 43.8036 31.3506 46.7078 29.7447 49.7946C29.727 49.8286 29.7037 49.859 29.6759 49.884C29.6481 49.909 29.6165 49.9281 29.5829 49.9403C29.5493 49.9525 29.5143 49.9575 29.4799 49.955C29.4456 49.9525 29.4125 49.9426 29.3826 49.9258C29.3237 49.8904 29.2812 49.8306 29.2639 49.7586C29.2466 49.6866 29.2559 49.608 29.2898 49.539C30.9182 46.4146 32.8511 43.4746 35.0516 40.7749C35.6364 40.0485 36.254 39.3538 36.9017 38.6938C36.6092 38.6169 36.3337 38.4875 36.086 38.3107C35.3141 37.7482 34.9367 36.7252 34.9362 35.1594C34.9309 34.87 34.941 34.5809 34.9586 34.2784C34.813 34.3594 34.6638 34.431 34.5116 34.4927C33.5904 34.8528 32.613 34.9155 31.7014 34.6727C31.3734 36.0373 30.8887 37.3634 30.2595 38.6183C28.8369 41.7169 27.3482 44.722 25.8112 47.5728L25.7817 47.6266C25.7444 47.6943 25.6851 47.7451 25.6168 47.7678C25.5485 47.7905 25.4768 47.7832 25.4174 47.7475L25.4425 47.7447ZM42.7236 36.2723C42.6321 36.2162 42.532 36.1771 42.4268 36.1565C42.0637 36.1166 41.6904 36.1745 41.3389 36.3253C40.1828 36.7742 39.0961 37.4459 38.1331 38.307C39.5411 38.4111 41.1453 38.4006 42.4342 37.6101C42.6401 37.4923 43.1279 37.1326 43.0682 36.7568C43.0483 36.6508 43.0072 36.5526 42.9477 36.4689C42.8882 36.3853 42.8117 36.3182 42.7236 36.2723ZM30.3024 29.0547L30.2612 29.03C30.2185 29.0086 30.1707 29.0003 30.1223 29.0057C30.074 29.0112 30.0268 29.0302 29.9855 29.061C29.8592 29.1904 29.7578 29.3458 29.688 29.5168C29.6183 29.6878 29.5818 29.8705 29.5811 30.0524C29.4593 31.2062 29.7404 32.3343 30.3677 33.2088C30.628 33.522 30.9446 33.7731 31.3006 33.9486C31.4693 32.4007 31.224 30.8668 30.5947 29.5346C30.5428 29.3442 30.4415 29.1779 30.3024 29.0547ZM38.5457 26.9888C38.4869 26.9534 38.3821 27.0157 38.3098 27.0617C37.516 27.479 36.8893 28.3903 36.3898 29.8253C35.9995 30.9448 35.7362 32.1028 35.6061 33.2722C36.3823 32.6218 37.0553 31.8327 37.5931 30.9424C38.3503 29.9196 38.7533 28.6541 38.724 27.3912C38.6852 27.2337 38.6341 27.0419 38.5457 26.9888Z" fill="black"/>
<path d="M27.1842 13.2436C27.146 13.2339 27.1115 13.2131 27.0842 13.1834C24.7452 9.17412 24.7563 9.15394 24.8659 8.89779C24.8881 8.84703 24.9212 8.80223 24.9623 8.76749C25.0033 8.73276 25.0509 8.70922 25.1007 8.69901C25.2155 8.67951 25.3303 8.70065 25.4279 8.75933C25.5255 8.818 25.6007 8.91107 25.6423 9.02469L27.5476 12.8538C27.5784 12.9065 27.5907 12.9707 27.5824 13.0355C27.5741 13.1002 27.5457 13.1615 27.5021 13.209C27.4584 13.2565 27.4022 13.2872 27.3429 13.296C27.2836 13.3047 27.225 13.291 27.1768 13.257L27.1842 13.2436Z" fill="white"/>
<path d="M50.0102 18.0851C49.9775 18.074 49.9475 18.0559 49.9218 18.032C49.8835 17.9717 49.8691 17.8958 49.8816 17.8201C49.8941 17.7443 49.9326 17.6745 49.989 17.6251L53.5799 14.6585C53.6085 14.6345 53.6407 14.6167 53.6747 14.6059C53.7087 14.5951 53.7438 14.5915 53.778 14.5955C53.8122 14.5994 53.8449 14.6108 53.8741 14.6289C53.9033 14.647 53.9285 14.6715 53.9483 14.701C53.968 14.7305 53.982 14.7645 53.9894 14.8009C53.9967 14.8373 53.9972 14.8755 53.991 14.9133C53.9848 14.9511 53.9719 14.9877 53.953 15.0211C53.9342 15.0545 53.9097 15.084 53.8811 15.1079L50.2865 18.0813C50.2435 18.1107 50.1947 18.1267 50.1457 18.1274C50.0968 18.1281 50.0497 18.1134 50.0102 18.0851Z" fill="white"/>
<path d="M55.169 32.6358C55.1187 32.6057 55.0805 32.5572 55.0604 32.4981C55.0403 32.439 55.0396 32.3727 55.0584 32.3098C55.0676 32.2737 55.0834 32.2394 55.1046 32.2091C55.1259 32.1788 55.1522 32.153 55.1821 32.1334C55.2119 32.1137 55.2447 32.1005 55.2783 32.0947C55.3119 32.0889 55.3458 32.0905 55.3779 32.0994C59.5578 33.0471 59.5826 33.1872 59.6388 33.4268C59.6506 33.4821 59.6485 33.5411 59.6326 33.5975C59.6166 33.654 59.5876 33.7059 59.5483 33.748C59.343 33.9645 59.0565 33.8728 58.9593 33.8501L55.2197 32.6573L55.169 32.6358Z" fill="white"/>
<path d="M51.3316 50.2499C51.2989 50.2388 51.269 50.2208 51.2433 50.1969L48.778 46.3888C48.7581 46.3594 48.7441 46.3254 48.7367 46.289C48.7294 46.2526 48.7288 46.2144 48.735 46.1766C48.7413 46.1387 48.7542 46.1021 48.7731 46.0687C48.792 46.0353 48.8165 46.0058 48.8451 45.9819C48.9033 45.9353 48.9742 45.9144 49.0425 45.9236C49.1108 45.9328 49.1709 45.9715 49.2098 46.0312L51.681 49.8428C51.7117 49.8951 51.7247 49.9585 51.7179 50.0229C51.7111 50.0873 51.6848 50.149 51.6434 50.1981C51.6019 50.2473 51.5476 50.2811 51.4891 50.2941C51.4306 50.3072 51.3712 50.2987 51.3205 50.2701L51.3316 50.2499Z" fill="white"/>
<path d="M39.9531 11.9392C39.9088 11.912 39.874 11.8704 39.8531 11.8196C39.8322 11.7688 39.8262 11.7111 39.8358 11.654L40.6346 7.26804C40.65 7.19292 40.6908 7.12493 40.7486 7.07813C40.8064 7.03133 40.8768 7.00929 40.9453 7.01653C40.9796 7.02153 41.0121 7.03402 41.0409 7.05327C41.0698 7.07253 41.0944 7.09817 41.1133 7.12869C41.1322 7.15922 41.1451 7.19401 41.1512 7.23108C41.1573 7.26815 41.1565 7.30673 41.1488 7.34459L40.3537 11.7239C40.3383 11.799 40.2975 11.8669 40.2396 11.9137C40.1818 11.9605 40.1114 11.9826 40.0429 11.9754L39.9531 11.9392Z" fill="white"/>
<path d="M15.1327 24.7387C15.0808 24.7079 15.0417 24.6575 15.022 24.5962C15.0022 24.5348 15.0032 24.4663 15.0246 24.4022C15.046 24.3381 15.0866 24.2824 15.1394 24.2446C15.1922 24.2068 15.254 24.1892 15.3143 24.1949L19.4975 24.6525C19.5666 24.6612 19.6278 24.6993 19.6683 24.7586C19.7087 24.818 19.7252 24.894 19.7142 24.9707C19.7087 25.0083 19.6963 25.045 19.6778 25.0784C19.6593 25.1118 19.6351 25.1413 19.6067 25.1651C19.5782 25.1889 19.5461 25.2065 19.5122 25.217C19.4783 25.2274 19.4433 25.2303 19.4094 25.2257L15.2262 24.7681L15.1327 24.7387Z" fill="white"/>
</svg>
