<svg width="75" height="35" viewBox="0 0 75 35" fill="none" xmlns="http://www.w3.org/2000/svg">
<path d="M28.1455 1.97489L26.8756 1.97363L25.6019 2.00076C25.1731 2.01112 24.7588 2.02483 24.3383 2.05602C23.9178 2.08722 23.4973 2.11841 23.072 2.15885C19.6808 2.49745 16.307 3.04031 12.965 3.78511C11.2958 4.15542 9.63783 4.58854 8.01665 5.11954C6.40786 5.61217 4.84837 6.29432 3.36384 7.15475C2.75048 7.51513 2.19331 7.98711 1.71474 8.55174C1.68448 8.56846 1.6517 8.57849 1.61817 8.58128C1.206 8.63331 0.923987 8.56367 0.757548 8.36904C0.689309 8.2644 0.642145 8.14406 0.619336 8.01641C0.596526 7.88876 0.598619 7.75687 0.625477 7.62994C0.625568 7.58531 0.639954 7.54214 0.665965 7.50842C1.25124 6.80445 1.93677 6.21658 2.6937 5.76955C4.23908 4.86982 5.86215 4.15389 7.5367 3.63329C9.18364 3.09441 10.8463 2.65205 12.5147 2.2781C15.85 1.52771 19.2167 0.975274 22.6012 0.62305C23.4484 0.54316 24.2892 0.465243 25.1662 0.438613C26.0433 0.411982 26.8782 0.382614 27.7178 0.402495C28.5575 0.422381 29.4196 0.435375 30.2715 0.463213L31.5489 0.540163C31.9725 0.566469 32.3987 0.603678 32.8226 0.645515C34.521 0.796348 36.215 1.04596 37.8954 1.3699C39.5757 1.69384 41.2444 2.1149 42.8948 2.61952C44.544 3.12079 46.1682 3.7207 47.7605 4.41672C48.1481 4.59825 48.5613 4.75638 48.9515 4.94882L50.1212 5.52251C50.5114 5.71495 50.9058 5.92558 51.2977 6.12529C51.6896 6.32501 52.0656 6.54518 52.4457 6.76801C53.2112 7.19251 53.9548 7.6705 54.7031 8.13924C55.0705 8.38154 55.4332 8.63307 55.8014 8.879C56.1696 9.12493 56.5276 9.38571 56.8863 9.65012C58.3231 10.6928 59.7121 11.8172 61.0479 13.019C62.3949 14.2011 63.6673 15.4917 64.9078 16.8077L65.8341 17.8144C66.1428 18.1448 66.43 18.5012 66.7276 18.8428C67.33 19.5277 67.8956 20.2472 68.4692 20.9565L69.9181 22.8518L70.3431 23.4428L70.6992 24.0043L71.0651 24.5783L71.4611 25.2367C71.7212 25.6833 71.9787 26.119 72.1686 26.4429C72.1492 26.1838 72.1289 25.921 72.1127 25.661C72.092 25.2347 72.0649 24.8103 72.0579 24.3837C72.0579 24.3837 72.0784 23.2511 72.1697 22.1552C72.2136 21.4612 72.2935 20.7705 72.4088 20.0866C72.5463 19.2026 72.7482 18.49 72.8968 18.3588C72.9703 18.2895 73.0343 18.3713 73.0814 18.6453C73.1411 19.1259 73.1742 19.6105 73.1804 20.0961C73.2224 20.9368 73.2699 21.9473 73.3291 22.7438C73.3884 23.5402 73.4353 24.1222 73.4353 24.1222C73.4469 24.598 73.4682 25.0709 73.4968 25.5455C73.5551 26.4994 73.652 27.4467 73.7877 28.3874L73.8398 28.7417L73.9228 29.2425C73.9999 29.7178 74.1014 30.209 74.2128 30.7128L74.8742 33.7221L74.9527 34.0566L74.986 34.1984L74.8506 34.0333L74.2459 33.2945L73.6265 32.5369L73.3172 32.1599L73.0359 31.8289C72.865 31.6112 72.6811 31.407 72.4854 31.2179C72.3129 31.0563 72.1402 30.8791 71.9671 30.7294C71.8829 30.6499 71.794 30.5797 71.7082 30.5085L71.5801 30.4035L71.3231 30.2054C69.8951 29.1721 68.3958 28.2701 66.8395 27.5079L65.7897 26.9599C65.4343 26.7685 65.0846 26.587 64.705 26.3368C64.6719 26.2981 64.6441 26.2541 64.6226 26.2061C64.5224 25.9916 64.4899 25.7444 64.5306 25.5054C64.5562 25.4377 64.594 25.3768 64.6417 25.3267C64.6893 25.2765 64.7458 25.2382 64.8073 25.2142C64.9212 25.1559 64.9906 25.0841 65.0846 25.0436C65.1272 25.0248 65.1715 25.0112 65.2166 25.0032C65.2564 24.987 65.2973 24.9745 65.3389 24.9658C65.3872 24.951 65.3937 24.9491 65.4207 24.9759C65.7034 25.1661 66.0539 25.3512 66.3898 25.533L67.4315 26.0757C69.0557 26.8748 70.6203 27.8194 72.1106 28.9005L72.5323 29.2274L72.4432 28.6272C72.4031 28.4563 72.3952 28.2755 72.3712 28.0997C72.231 27.9438 72.0655 27.7528 71.8896 27.5182L71.0647 26.5467C70.7835 26.2157 70.5119 25.8817 70.2699 25.5855L69.3849 24.5934L68.9607 24.006C68.8891 23.9071 68.8176 23.8081 68.7437 23.7138L68.2366 23.0232C66.034 20.1096 63.6149 17.4152 61.0053 14.9691C59.697 13.7558 58.3416 12.6114 56.9391 11.536C55.5366 10.4605 54.0862 9.47512 52.588 8.57969C51.0952 7.6878 49.5583 6.88736 47.9957 6.1688C46.4282 5.45924 44.8296 4.83993 43.206 4.31327C39.9492 3.26949 36.6115 2.57327 33.2367 2.23373C31.5398 2.07465 29.8424 2.00148 28.1455 1.97489Z" fill="#EDEDED"/>
</svg>
