<svg width="50" height="54" viewBox="0 0 50 54" fill="none" xmlns="http://www.w3.org/2000/svg">
<rect x="0.281738" y="0.489258" width="48.9011" height="53.3466" rx="9.63203" fill="#F15A2B"/>
<path d="M31.4007 27.1628C31.4007 26.0514 30.5116 25.0882 29.4002 24.94C28.5852 23.1618 26.807 21.9763 24.7324 21.9763C24.5842 21.9763 24.3619 21.9763 24.2137 22.0504C23.7692 21.5317 23.1764 21.2354 22.5096 21.2354C21.25 21.2354 20.2868 22.1986 20.2868 23.4581C20.2868 23.7545 20.3609 23.9768 20.435 24.2731C19.8423 25.0882 19.5459 26.0514 19.5459 27.1628C19.5459 28.2741 19.8423 29.2373 20.435 30.0524C20.3609 30.3487 20.2868 30.571 20.2868 30.8674C20.2868 32.127 21.25 33.0902 22.5096 33.0902C23.1764 33.0902 23.7692 32.7938 24.2137 32.2751C24.3619 32.2751 24.5842 32.3492 24.7324 32.3492C26.807 32.3492 28.5852 31.0897 29.4002 29.3855C30.5116 29.2373 31.4007 28.2741 31.4007 27.1628ZM22.5096 22.7172C22.9542 22.7172 23.2505 23.0136 23.2505 23.4581C23.2505 23.9027 22.9542 24.1991 22.5096 24.1991C22.065 24.1991 21.7687 23.9027 21.7687 23.4581C21.7687 23.0136 22.065 22.7172 22.5096 22.7172ZM22.5096 31.6083C22.065 31.6083 21.7687 31.3119 21.7687 30.8674C21.7687 30.4228 22.065 30.1265 22.5096 30.1265C22.9542 30.1265 23.2505 30.4228 23.2505 30.8674C23.2505 31.3119 22.9542 31.6083 22.5096 31.6083ZM24.7324 30.8674C24.7324 29.6078 23.7692 28.6446 22.5096 28.6446C22.1391 28.6446 21.7687 28.7187 21.4723 28.941C21.1759 28.4223 21.0277 27.8296 21.0277 27.1628C21.0277 26.4959 21.1759 25.9032 21.4723 25.3845C21.7687 25.6068 22.1391 25.6809 22.5096 25.6809C23.7692 25.6809 24.7324 24.7177 24.7324 23.4581C26.1401 23.4581 27.2515 24.1991 27.9184 25.3104C27.3256 25.755 26.9552 26.4218 26.9552 27.1628C26.9552 27.9037 27.3256 28.5705 27.9184 29.0151C27.2515 30.1265 26.1401 30.8674 24.7324 30.8674ZM29.1779 27.9037C28.7334 27.9037 28.437 27.6073 28.437 27.1628C28.437 26.7182 28.7334 26.4218 29.1779 26.4218C29.6225 26.4218 29.9189 26.7182 29.9189 27.1628C29.9189 27.6073 29.6225 27.9037 29.1779 27.9037Z" fill="white"/>
<path d="M24.7321 38.2765C24.5839 38.2765 24.5099 38.2765 24.3617 38.2024L15.4706 33.016C15.2483 32.8678 15.1001 32.6455 15.1001 32.3491V21.9762C15.1001 21.6798 15.2483 21.4575 15.4706 21.3093L24.3617 16.1229C24.5839 15.9747 24.8803 15.9747 25.1026 16.1229L33.9937 21.3093L33.2528 22.5689L24.7321 17.6788L16.5819 22.4207V31.9787L24.7321 36.7206L32.8823 31.9787V26.4217H34.3642V32.3491C34.3642 32.6455 34.216 32.8678 33.9937 33.016L25.1026 38.2024C24.9544 38.2765 24.8803 38.2765 24.7321 38.2765Z" fill="white"/>
</svg>
