<svg width="48" height="53" viewBox="0 0 48 53" fill="none" xmlns="http://www.w3.org/2000/svg">
<rect x="0.281738" y="0.835938" width="47.4192" height="51.8648" rx="9.63203" fill="#006380"/>
<path d="M18.064 22.3219H23.9914V23.8038H18.064V22.3219ZM18.064 19.3582H26.9551V20.8401H18.064V19.3582ZM18.064 16.3945H26.9551V17.8764H18.064V16.3945Z" fill="white"/>
<path d="M15.6273 35.6586L19.7995 28.2523L25.3075 33.0609C25.474 33.2091 25.6718 33.3178 25.8861 33.3789C26.1004 33.44 26.3258 33.452 26.5454 33.414C26.765 33.376 26.9732 33.2889 27.1545 33.1593C27.3358 33.0296 27.4855 32.8608 27.5925 32.6653L32.7568 24.9574L31.5261 24.132L26.3396 31.8732L26.2877 31.9495L20.779 27.1409C20.6125 26.9936 20.4151 26.8856 20.2013 26.8248C19.9875 26.764 19.7628 26.752 19.5437 26.7897C19.3246 26.8274 19.1169 26.9138 18.9357 27.0425C18.7545 27.1713 18.6045 27.3391 18.4969 27.5336L15.1005 33.5714V16.3945H13.6187V35.6586C13.619 36.0515 13.7753 36.4282 14.0531 36.706C14.3309 36.9838 14.7076 37.1401 15.1005 37.1405H34.3646V35.6586H15.6273Z" fill="white"/>
</svg>
