<svg width="156" height="88" viewBox="0 0 156 88" fill="none" xmlns="http://www.w3.org/2000/svg">
<path fill-rule="evenodd" clip-rule="evenodd" d="M55.6534 2.90045C55.523 2.74526 55.343 2.58876 55.2035 2.45443C55.0196 2.30967 54.3245 2.07231 53.6502 1.92234C53.0164 1.79192 52.3813 1.6615 51.7018 1.54413C51.0223 1.42676 50.4968 1.43589 50.6063 1.565C50.7171 1.6898 50.8094 1.82991 50.8802 1.98102C51.0184 2.16752 51.7448 2.42183 52.5391 2.55224C53.2472 2.68266 53.9541 2.81307 54.6257 2.95262C55.3717 3.11824 55.8647 3.10259 55.6586 2.90045H55.6534ZM61.1947 4.61671C60.9874 4.44718 60.7761 4.28546 60.6 4.14852C60.1342 3.88562 59.6458 3.66478 59.1407 3.48862C58.6086 3.30343 58.0743 3.12563 57.5379 2.95522C56.9171 2.76743 56.5246 2.71526 56.7071 2.8548C56.8897 2.99435 57.0632 3.14563 57.2288 3.30474C57.3944 3.4834 58.0961 3.80162 58.7507 3.99855C59.3624 4.19417 59.9323 4.38327 60.4996 4.5802C61.1126 4.79799 61.4334 4.82016 61.1947 4.61671ZM65.904 6.79204C65.6967 6.63163 65.4489 6.45557 65.2337 6.30689C64.9729 6.14257 64.4121 5.81914 63.9517 5.57527C63.5257 5.35878 63.0975 5.1475 62.6671 4.94145C62.1533 4.7054 61.942 4.64671 62.1598 4.79408C62.3359 4.92449 62.5511 5.0823 62.7558 5.24662C63.1917 5.55462 63.6564 5.81973 64.1434 6.03824C64.6116 6.26125 65.0772 6.48948 65.5023 6.70466C65.9992 6.9694 66.1792 7.00853 65.904 6.79204ZM46.4917 2.68005C46.5126 2.95262 46.5713 3.24735 46.6221 3.56426C46.673 3.93595 45.8527 4.21634 44.8224 4.19156C43.866 4.17678 42.914 4.17678 41.9663 4.19156C40.8943 4.22547 40.1144 3.93073 40.1653 3.56426C40.2214 3.24866 40.2396 2.95653 40.2957 2.68135C40.3518 2.40618 41.1773 2.15969 42.0954 2.12578C42.9705 2.11274 43.8052 2.11274 44.6816 2.12578C45.6114 2.15317 46.4291 2.40096 46.4917 2.68005ZM53.4037 3.48601C53.5498 3.75597 53.6893 4.04289 53.8224 4.34415C53.9802 4.70148 53.3477 4.88537 52.4295 4.74843C51.554 4.62671 50.678 4.51934 49.8017 4.42631C48.847 4.33763 48.0058 3.97116 47.925 3.61904C47.8754 3.32299 47.7828 3.03999 47.7281 2.77916C47.6733 2.51833 48.3593 2.36966 49.2331 2.45312C50.0234 2.54007 50.8128 2.63962 51.6014 2.75178C52.4282 2.87958 53.2537 3.21084 53.4011 3.48601H53.4037ZM59.7589 5.03665C59.9649 5.30531 60.1631 5.58439 60.3914 5.89087C60.6026 6.22995 60.1853 6.35124 59.3898 6.12431C58.6725 5.9326 57.9148 5.73959 57.1949 5.57266C56.3576 5.38616 55.5165 4.94666 55.3691 4.61411C55.1995 4.31937 55.0639 4.05071 54.8813 3.78467C54.7379 3.52383 55.2374 3.45602 56.0199 3.63469C56.7176 3.80553 57.3736 3.97377 58.0687 4.16548C58.7638 4.35719 59.5489 4.76669 59.7563 5.03665H59.7589ZM65.2441 7.14547C65.5193 7.43238 65.7514 7.70495 65.9758 7.98534C66.2588 8.32963 65.9758 8.38571 65.385 8.13793C64.7942 7.89014 64.2112 7.65669 63.6205 7.43107C62.9488 7.18589 62.2107 6.7151 61.959 6.37862C61.7668 6.10475 61.5677 5.84001 61.3617 5.5844C61.1165 5.30922 61.4543 5.28835 62.0946 5.52832C62.6528 5.74611 63.2096 5.97173 63.7248 6.18691C64.3117 6.44644 65.0003 6.88072 65.2415 7.14547H65.2441ZM69.7734 9.64031C70.0147 9.89331 70.2847 10.1776 70.5142 10.4411C70.8011 10.7697 70.6603 10.8062 70.2169 10.5363C69.8074 10.2963 69.3613 10.0368 68.9127 9.78637C68.4197 9.52554 67.7781 9.03257 67.5264 8.72349C67.2982 8.45353 67.0269 8.16662 66.8222 7.93317C66.5431 7.65278 66.7439 7.6593 67.2369 7.93317C67.6516 8.16531 68.0637 8.40397 68.4732 8.64915C68.9356 8.93855 69.37 9.27037 69.7708 9.64031H69.7734ZM73.2594 12.2943C73.5038 12.542 73.7433 12.7937 73.978 13.0494C74.2689 13.3728 74.2389 13.4041 73.9076 13.1198C73.6389 12.9007 73.3346 12.6559 72.9947 12.3856C72.5954 12.0771 72.2228 11.7355 71.881 11.3644C71.6475 11.1036 71.4089 10.8532 71.1663 10.6028C70.8872 10.3289 70.9811 10.3524 71.3254 10.6145C71.6332 10.8571 71.937 11.1036 72.2044 11.3253C72.5265 11.6096 72.9751 12.0204 73.2594 12.2943ZM51.1071 7.3137C51.0202 6.82508 50.9211 6.35906 50.8098 5.91565C50.7002 5.45528 49.8225 5.0197 48.8418 4.93232C47.9393 4.8645 47.0003 4.8019 46.1031 4.76408C45.0858 4.73017 44.2955 5.06925 44.2851 5.52571C44.3125 5.96781 44.3007 6.43862 44.3268 6.92115C44.349 7.48976 45.2684 7.99447 46.347 8.02707C47.3538 8.07054 48.3627 8.12836 49.3739 8.20052C50.4563 8.29442 51.2493 7.89274 51.1071 7.3137ZM58.8277 8.52526C58.6477 8.06359 58.4912 7.63191 58.2865 7.19893C58.1156 6.76856 57.2432 6.25864 56.3746 6.07345C55.5921 5.91695 54.7979 5.7735 53.971 5.63134C53.0672 5.48919 52.4413 5.72785 52.5769 6.16735C52.6734 6.58207 52.7973 7.02548 52.9121 7.48715C53.0425 8.02186 53.9554 8.58655 54.9165 8.72349C55.8073 8.86695 56.6641 9.01301 57.5248 9.17342C58.4625 9.36644 59.0442 9.0717 58.8277 8.52917V8.52526ZM70.9341 12.7494C70.6824 12.3425 70.4529 11.9669 70.1842 11.5757C69.9156 11.1844 69.3027 10.6628 68.7719 10.3863C68.2763 10.1385 67.7772 9.90027 67.2747 9.67161C66.6956 9.41078 66.4218 9.52163 66.6552 9.91027C66.8887 10.2989 67.1156 10.6823 67.3634 11.1023C67.589 11.5457 68.2984 12.1456 68.9127 12.4064C69.4187 12.6203 69.956 12.8707 70.4529 13.1067C70.9889 13.3728 71.1976 13.2046 70.9341 12.7533V12.7494ZM75.054 15.2821C74.8192 14.9195 74.5784 14.5604 74.3315 14.2048C74.0032 13.7696 73.6166 13.3817 73.1825 13.052C72.8591 12.8329 72.5017 12.589 72.1392 12.3529C71.7049 12.0712 71.5732 12.156 71.8497 12.5447C72.0931 12.9046 72.3296 13.268 72.5591 13.6349C72.8781 14.1186 73.291 14.5333 73.7733 14.8543C74.1645 15.1151 74.5023 15.3251 74.8609 15.5703C75.2483 15.8533 75.3057 15.689 75.054 15.286V15.2821ZM77.9844 17.8186C77.7692 17.4939 77.5488 17.1666 77.3506 16.8849C77.0775 16.5115 76.7814 16.1556 76.4637 15.8194C76.2459 15.6068 75.9969 15.3642 75.7712 15.1595C75.4817 14.8987 75.4582 14.9756 75.7113 15.3277C75.9347 15.6468 76.1521 15.9702 76.3633 16.298C76.6302 16.7071 76.944 17.0835 77.2984 17.4196C77.5527 17.6569 77.777 17.8656 77.9974 18.0716C78.2452 18.3286 78.2452 18.2216 77.9844 17.8226V17.8186ZM46.9886 80.7231C46.9625 81.2344 46.8947 81.7221 46.8582 82.1799C46.7838 82.6572 45.9114 83.0589 44.8511 83.0928C43.8691 83.1071 42.887 83.1071 41.9441 83.0928C40.8839 83.0615 39.9736 82.6572 39.8992 82.1799C39.8653 81.7221 39.7975 81.2344 39.7688 80.7231C39.718 80.1258 40.597 79.6485 41.7824 79.6798C42.8584 79.6942 43.8978 79.6942 44.9737 79.6798C46.1631 79.6472 47.046 80.1258 46.9886 80.7231ZM62.2928 78.3404C62.0885 78.7934 61.8711 79.2333 61.6407 79.6602C61.4086 80.0971 60.5831 80.6253 59.7549 80.8614C59.0429 81.0457 58.2921 81.2322 57.5027 81.4208C56.6719 81.6008 56.1007 81.4091 56.2833 80.9696C56.4294 80.5575 56.6002 80.1154 56.7593 79.6576C56.9262 79.136 57.8248 78.5361 58.7312 78.3535C59.5619 78.1683 60.3601 77.9857 61.1608 77.7862C62.0437 77.5527 62.5354 77.8096 62.2928 78.3404ZM49.9973 84.7308C50.0807 84.47 50.1603 84.1961 50.2751 83.8961C50.3781 83.5479 49.6504 83.3314 48.6944 83.4175C47.818 83.484 46.9417 83.5388 46.0261 83.5831C45.0702 83.6144 44.2407 83.9313 44.2081 84.2769C44.2207 84.5519 44.2124 84.8274 44.1834 85.1012C44.1834 85.362 44.9007 85.5472 45.777 85.5172C46.6104 85.4755 47.4033 85.4246 48.1949 85.3633C49.07 85.2772 49.8721 84.9968 49.9973 84.7269V84.7308ZM56.6485 83.5401C56.8223 83.2793 56.9923 83.0067 57.1584 82.7224C57.3449 82.3885 56.8597 82.2425 56.0199 82.425C55.2608 82.5776 54.4549 82.7289 53.6619 82.8685C52.7829 83.008 51.9665 83.3966 51.8635 83.7201C51.7553 84.0018 51.6418 84.2665 51.5244 84.5169C51.4071 84.7673 51.9783 84.869 52.766 84.7412C53.5107 84.6108 54.2136 84.4804 54.9165 84.3291C55.6925 84.1504 56.4646 83.7996 56.6419 83.5362L56.6485 83.5401ZM62.5823 81.6882C62.8249 81.4195 63.0245 81.1665 63.2527 80.8757C63.5044 80.5458 63.1731 80.4623 62.5002 80.701C61.8664 80.9174 61.2308 81.1235 60.5935 81.3191C59.8749 81.5304 59.0833 81.9829 58.8981 82.2946C58.6973 82.5763 58.5277 82.8319 58.353 83.0771C58.1378 83.338 58.5564 83.3732 59.2476 83.1632C59.8567 82.9702 60.4214 82.785 61.0278 82.575C61.6642 82.3364 62.3685 81.936 62.5758 81.6843L62.5823 81.6882ZM67.5994 79.3616C67.842 79.1073 68.078 78.8465 68.3441 78.5556C68.6101 78.2648 68.4054 78.2035 67.9085 78.4578C67.4116 78.7121 66.9487 78.9299 66.4466 79.166C65.8662 79.4268 65.2089 79.8898 64.9546 80.2093C64.7225 80.4832 64.5216 80.7309 64.3143 80.9683C64.0691 81.2291 64.3143 81.2291 64.8281 81.0048C65.3419 80.7805 65.7971 80.5353 66.2627 80.3006C66.7436 80.0429 67.1905 79.7261 67.5929 79.3577L67.5994 79.3616ZM71.594 76.7728C71.8375 76.5251 72.077 76.2729 72.3126 76.0164C72.5735 75.7243 72.5226 75.6682 72.1379 75.9499C71.8171 76.1729 71.4597 76.4168 71.0946 76.6568C70.6481 76.947 70.2367 77.2879 69.8686 77.6727C69.6356 77.9335 69.3965 78.1879 69.1514 78.4356C68.9062 78.6847 69.0496 78.6613 69.4122 78.4278C69.7747 78.1944 70.1282 77.9401 70.4477 77.7144C70.8461 77.4222 71.2267 77.1064 71.5875 76.7689L71.594 76.7728ZM46.2374 86.1497C46.215 86.3044 46.167 86.4543 46.0953 86.5931C46.0614 86.7235 45.378 86.8461 44.5172 86.8735C43.7856 86.8839 43.0109 86.8839 42.2793 86.8735C41.4186 86.8461 40.7365 86.7222 40.6582 86.5905C40.6243 86.4601 40.5917 86.3114 40.5591 86.1497C40.4874 85.9515 41.2112 85.8119 42.1385 85.8406C42.9783 85.8537 43.8186 85.8537 44.6594 85.8406C45.5827 85.8119 46.3091 85.9541 46.2374 86.1497ZM52.6121 85.4324C52.492 85.5888 52.3636 85.7385 52.2274 85.881C52.123 86.0115 51.3732 86.2201 50.6063 86.3401C49.9242 86.4366 49.2396 86.5227 48.5118 86.6009C47.7398 86.6753 47.1751 86.6335 47.2077 86.5097C47.2894 86.3795 47.3489 86.2367 47.3838 86.0871C47.4503 85.9006 48.191 85.6802 49.0726 85.5954C49.8264 85.512 50.622 85.4116 51.3758 85.3059C52.2104 85.1716 52.7438 85.2381 52.6121 85.4324ZM58.4808 84.0174C58.3047 84.1864 58.1173 84.3432 57.92 84.4869C57.7387 84.6251 57.0541 84.8951 56.3902 85.0881C55.7642 85.2616 55.1787 85.4129 54.5488 85.5667C53.8758 85.7206 53.4363 85.7428 53.5811 85.6098C53.6841 85.4794 53.8237 85.3411 53.9619 85.1859C54.1328 84.9955 54.8878 84.6969 55.6338 84.526C56.2963 84.3652 56.9567 84.1943 57.6148 84.0135C58.3073 83.8114 58.7168 83.8061 58.4756 84.0161L58.4808 84.0174ZM63.6283 82.0416C63.3831 82.2268 63.1718 82.3846 62.9566 82.5346C62.4931 82.8042 62.0141 83.0463 61.5221 83.2597C61.0421 83.4618 60.5205 83.6757 60.0353 83.8648C59.4667 84.0774 59.1655 84.1374 59.3441 84.0031C59.5619 83.8505 59.7354 83.7057 59.9467 83.5362C60.1579 83.3666 60.8374 83.0015 61.4425 82.7759C62.0033 82.5568 62.5224 82.3468 63.0766 82.1094C63.6309 81.8721 63.8695 81.8434 63.6283 82.0416ZM37.347 1.81018C37.4335 1.65836 37.528 1.51122 37.63 1.36937C37.6991 1.23896 38.4125 1.07464 39.1872 1.00291C39.9162 0.945526 40.6035 0.902489 41.3338 0.872493C42.1085 0.84641 42.754 0.925963 42.7566 1.05116C42.7592 1.17636 42.7175 1.32112 42.7201 1.47501C42.7201 1.6615 41.9702 1.84148 41.1304 1.86626C40.3322 1.90364 39.5345 1.95407 38.7372 2.01754C37.8987 2.09709 37.2883 1.99667 37.347 1.81018ZM31.1797 2.89263C31.3531 2.72569 31.4901 2.58093 31.6726 2.43487C31.8135 2.30445 32.5099 2.06579 33.2259 1.90538C33.8597 1.77497 34.4953 1.65281 35.1326 1.53891C35.8551 1.42154 36.3376 1.43197 36.228 1.55978C36.1628 1.68237 36.0572 1.82061 35.9542 1.97581C35.8564 2.15448 35.0882 2.41661 34.337 2.5379C33.6276 2.66309 32.9198 2.79916 32.2139 2.94609C31.4666 3.11172 31.014 3.08303 31.1797 2.89263ZM25.6422 4.60628C25.8509 4.43674 26.0622 4.27633 26.2774 4.12244C26.7296 3.86422 27.2051 3.64897 27.6976 3.47949C28.2297 3.2943 28.8048 3.10259 29.3421 2.93305C29.9629 2.74526 30.3137 2.70744 30.1324 2.84698C29.9512 2.98652 29.8155 3.12476 29.6434 3.28257C29.4373 3.47428 28.7305 3.79249 28.0784 3.98942C27.5059 4.16939 26.936 4.35719 26.3282 4.56977C25.7205 4.78234 25.4036 4.80973 25.6422 4.60628ZM20.9316 6.78161C21.1768 6.59902 21.3881 6.44513 21.6411 6.27559C21.8589 6.13214 22.4627 5.78784 22.9244 5.54527C23.3495 5.32878 23.7782 5.11838 24.2103 4.91406C24.6837 4.69757 24.9354 4.61932 24.7163 4.76669C24.4972 4.91406 24.2885 5.07447 24.0812 5.23749C23.6461 5.54646 23.1812 5.81121 22.6936 6.02781C22.2632 6.22995 21.7963 6.45818 21.3346 6.69423C20.873 6.93028 20.693 6.97201 20.9316 6.78161ZM33.4372 3.4808C33.3141 3.7746 33.1743 4.06111 33.0185 4.33893C32.8607 4.69627 33.4932 4.87885 34.4531 4.73018C35.2904 4.61802 36.1668 4.51108 37.0418 4.41848C37.9978 4.3311 38.8781 3.96072 38.9198 3.61252C39.0098 3.31126 39.062 3.03347 39.1167 2.77264C39.1715 2.51181 38.5233 2.35792 37.6561 2.444C36.8658 2.53094 36.0763 2.62919 35.2878 2.73873C34.4101 2.87958 33.5845 3.20562 33.4372 3.4808ZM27.0807 5.02752C26.876 5.29487 26.6764 5.57396 26.486 5.86479C26.2369 6.21952 26.6908 6.32385 27.4876 6.09823C28.2062 5.90913 28.9222 5.73046 29.6825 5.55049C30.5211 5.3653 31.3231 4.94014 31.5174 4.59454C31.6479 4.31285 31.8239 4.03245 31.9661 3.77814C32.1082 3.52383 31.61 3.4495 30.868 3.61512C30.1703 3.78466 29.4738 3.96464 28.8179 4.13679C28.0836 4.35328 27.3272 4.74061 27.0807 5.02752ZM21.5955 7.13242C21.3555 7.39325 21.1234 7.66973 20.8625 7.9723C20.5795 8.31659 20.8625 8.37267 21.4885 8.10271C22.0389 7.8797 22.627 7.64495 23.2178 7.41934C23.8895 7.17416 24.6289 6.70336 24.8806 6.36819C25.0723 6.09432 25.3097 5.81132 25.5157 5.5557C25.7218 5.30009 25.3853 5.27792 24.7841 5.49832C24.2242 5.71481 23.6678 5.93999 23.1148 6.17387C22.5279 6.4334 21.8759 6.84681 21.5955 7.13242ZM17.0974 9.59858C16.8223 9.87766 16.5862 10.1359 16.3228 10.4254C16.0359 10.7527 16.1767 10.7893 16.6201 10.5206C17.0635 10.252 17.4769 10.0224 17.9243 9.77072C18.4504 9.48325 18.9297 9.11738 19.3458 8.68567C19.5753 8.41571 19.8114 8.15358 20.0526 7.89535C20.2939 7.63713 20.0944 7.64626 19.6379 7.89535C19.1815 8.14445 18.7733 8.38963 18.3651 8.6335C17.9127 8.91404 17.4882 9.2372 17.0974 9.59858ZM13.5762 12.276C13.3319 12.5238 13.0919 12.7755 12.8563 13.0311C12.5955 13.3232 12.6281 13.3545 12.9268 13.1015C13.2254 12.8485 13.5332 12.6086 13.8397 12.3686C14.239 12.0601 14.6115 11.7185 14.9534 11.3474C15.2208 11.0605 15.4594 10.8075 15.702 10.565C15.9446 10.3224 15.8885 10.3132 15.5429 10.5754C15.2351 10.8171 14.9308 11.0631 14.63 11.3135C14.3392 11.5639 13.8579 12.0086 13.5788 12.276H13.5762ZM35.7286 7.3137C35.8155 6.82595 35.915 6.35993 36.0272 5.91565C36.1368 5.45659 37.0158 5.021 38.0356 4.92841C38.9363 4.86233 39.8371 4.80842 40.7378 4.76669C41.7563 4.73409 42.5845 5.07317 42.5571 5.53092C42.5662 5.97173 42.5388 6.43601 42.5141 6.92637C42.5271 7.49367 41.6011 7.99708 40.4926 8.02968C39.4858 8.07402 38.4777 8.1301 37.5009 8.19531C36.4145 8.28399 35.6229 7.8797 35.7286 7.3137ZM28.0054 8.52004C28.1866 8.05837 28.3797 7.60713 28.5492 7.19372C28.7553 6.749 29.5925 6.25473 30.4611 6.06954C31.2501 5.91435 32.0756 5.75915 32.8646 5.62874C33.7684 5.48789 34.4296 5.71742 34.2992 6.1504C34.1688 6.58338 34.0762 7.00723 33.9614 7.46889C33.831 8.0036 32.9181 8.56699 31.9191 8.71436C31.0649 8.84478 30.1716 9.00258 29.3108 9.16299C28.407 9.34296 27.8215 9.04692 28.0054 8.52004ZM21.3411 10.3928C21.5472 9.97417 21.8002 9.5425 22.0297 9.14212C22.2593 8.74175 23.0365 8.19139 23.7017 7.96578C24.3668 7.74016 25.0058 7.54193 25.6709 7.33717C26.4195 7.11938 26.8877 7.27066 26.683 7.68799C26.4782 8.10532 26.2852 8.51222 26.1039 8.94259C25.9161 9.43164 25.0606 10.0394 24.2898 10.2402C23.5621 10.4541 22.8696 10.6628 22.1771 10.8845C21.4468 11.1231 21.0621 10.9066 21.3425 10.3928H21.3411ZM15.8976 12.7403C16.1493 12.3334 16.4101 11.9317 16.6475 11.5665C16.9188 11.1675 17.5604 10.6262 18.0951 10.3524C18.5568 10.1307 19.0558 9.89288 19.5923 9.639C20.1387 9.40426 20.4126 9.51511 20.1778 9.89983C19.9431 10.2846 19.7175 10.6706 19.5023 11.0736C19.2415 11.5405 18.5333 12.1391 17.9503 12.3777C17.413 12.6164 16.8783 12.8668 16.3788 13.1015C15.8441 13.3571 15.6355 13.1889 15.8989 12.7377L15.8976 12.7403ZM11.7765 15.269C12.013 14.9047 12.2547 14.5457 12.5016 14.1918C12.8299 13.7566 13.2165 13.3687 13.6506 13.0389C14.0036 12.7911 14.3618 12.549 14.7252 12.3125C15.1282 12.0595 15.2599 12.1443 15.0147 12.5055C14.7695 12.8668 14.5335 13.2267 14.3026 13.5945C13.9732 14.0876 13.5505 14.5116 13.0585 14.8426C12.6907 15.073 12.3282 15.3112 11.9708 15.5572C11.6109 15.8024 11.5248 15.6707 11.7765 15.269ZM8.84606 17.803C9.06081 17.4778 9.28078 17.1557 9.50597 16.8366C9.77097 16.4751 10.0585 16.1305 10.3667 15.805C10.6132 15.5599 10.8349 15.3512 11.0892 15.1138C11.3435 14.8765 11.3735 14.9626 11.1479 15.2821C10.9223 15.6016 10.7071 15.9237 10.4658 16.2837C10.1986 16.6925 9.88482 17.0688 9.53074 17.4052C9.30121 17.6087 9.05082 17.8499 8.83041 18.0573C8.61001 18.2647 8.61001 18.1669 8.84606 17.8017V17.803ZM30.9149 11.1662C30.7649 11.8326 30.6358 12.5186 30.4976 13.2346C30.3189 14.0679 31.1262 14.6456 32.2921 14.5061C33.3485 14.3966 34.4244 14.2961 35.4886 14.2127C36.6949 14.1266 37.7291 13.3624 37.8008 12.529C37.8687 11.8013 37.9156 11.1049 38.0082 10.4293C38.0695 9.72508 37.2114 9.23732 36.1159 9.3247C35.1221 9.41773 34.1244 9.52641 33.1229 9.65074C32.0769 9.79159 31.0675 10.4671 30.9149 11.1649V11.1662ZM23.18 12.7833C22.97 13.3989 22.7483 14.0457 22.5488 14.7017C22.3127 15.4633 22.9009 15.9068 23.819 15.7098C24.685 15.5299 25.5757 15.3512 26.4586 15.196C27.4654 15.0225 28.4631 14.2231 28.6092 13.4628C28.7744 12.7837 28.9296 12.1317 29.0748 11.5065C29.2508 10.8427 28.6131 10.4632 27.6532 10.6575C26.8003 10.8401 25.9778 11.0227 25.1858 11.2053C24.2885 11.4453 23.3965 12.1391 23.18 12.7833ZM16.7531 14.9534C16.521 15.509 16.2758 16.0959 16.045 16.6866C15.7959 17.3557 16.1337 17.73 16.8405 17.477C17.4778 17.2726 18.1442 17.0601 18.8398 16.8392C19.6118 16.6136 20.4361 15.8507 20.6656 15.1438C20.8812 14.5231 21.0851 13.9318 21.2772 13.3702C21.5289 12.7455 21.0934 12.4638 20.3643 12.7025C19.7123 12.9281 19.0537 13.1693 18.4342 13.4015C17.7756 13.6636 17.0179 14.3561 16.7584 14.9534H16.7531ZM11.7974 17.4039C11.5613 17.9034 11.3357 18.4055 11.0957 18.9428C10.8519 19.5245 11.0083 19.8427 11.487 19.5949C11.9656 19.3471 12.3999 19.1463 12.8811 18.9233C13.4367 18.6624 14.0979 17.9478 14.3444 17.327C14.5674 16.7818 14.776 16.2693 15.0238 15.7307C15.2716 15.1921 15.0408 14.9482 14.5022 15.2156C14.0396 15.4477 13.5823 15.6898 13.1302 15.942C12.6829 16.1963 12.0699 16.8679 11.8078 17.4039H11.7974ZM8.23703 19.9066C8.03097 20.3304 7.80666 20.7934 7.58495 21.2577C7.35933 21.765 7.39715 22.0402 7.71536 21.7794C8.00576 21.5672 8.30267 21.3603 8.6061 21.1586C8.9517 20.9395 9.4538 20.2809 9.68985 19.7397C9.89591 19.2741 10.1359 18.7785 10.3576 18.3181C10.6067 17.8239 10.5076 17.6374 10.1489 17.8917C9.832 18.1264 9.54639 18.3338 9.23601 18.5816C8.83296 18.9633 8.49857 19.4115 8.24746 19.9066H8.23703ZM5.8739 22.3115C5.68089 22.6983 5.49179 23.0896 5.3066 23.4852C5.10967 23.9182 5.07446 24.1373 5.24921 23.9416C5.42397 23.746 5.58568 23.5856 5.77087 23.3926C6.0861 23.0203 6.34652 22.6048 6.54424 22.1589C6.74638 21.7311 6.95504 21.3059 7.14545 20.9199C7.36064 20.4974 7.37889 20.3044 7.14545 20.5613C6.96287 20.7517 6.7855 20.946 6.61336 21.1442C6.33415 21.5116 6.08677 21.9021 5.8739 22.3115ZM17.1939 22.4771C17.3713 21.6946 17.5474 20.9395 17.7443 20.1818C17.9373 19.3993 18.7589 18.5751 19.5701 18.356C20.303 18.1799 21.0868 17.9778 21.8693 17.7978C22.7235 17.6269 23.3261 18.1264 23.1331 18.9715C22.987 19.741 22.8409 20.5365 22.6766 21.3607C22.5331 22.2671 21.6424 23.1592 20.7125 23.3313C19.9014 23.4774 19.1097 23.6269 18.3377 23.7799C17.5069 23.9586 16.9827 23.3874 17.1939 22.4823V22.4771ZM11.2288 24.209C11.4179 23.5256 11.5991 22.8735 11.7934 22.2215C12.0282 21.4964 12.6516 20.7595 13.228 20.5261C13.7627 20.3174 14.3039 20.1244 14.8739 19.9157C15.5259 19.6888 15.8885 20.1022 15.6642 20.8599C15.4829 21.5446 15.2951 22.2567 15.1243 22.9674C14.9325 23.7773 14.2453 24.5755 13.5788 24.7724C12.9946 24.9511 12.4377 25.1167 11.9069 25.2654C11.3122 25.4792 11.0136 25.0045 11.2288 24.2142V24.209ZM6.98374 26.0805C7.16371 25.4897 7.35151 24.9067 7.53018 24.3485C7.74797 23.7212 8.21746 23.0444 8.58263 22.8396C8.94779 22.6349 9.28296 22.4614 9.67551 22.2358C10.0954 22.0311 10.2728 22.3832 10.0759 23.0053C9.87895 23.6273 9.68464 24.2364 9.51509 24.8519C9.32469 25.5431 8.82389 26.2435 8.38048 26.456C8.00619 26.6217 7.65798 26.7612 7.30195 26.9451C6.94592 27.129 6.80507 26.7117 6.98374 26.0805ZM4.22024 27.8841C4.37239 27.3972 4.53062 26.9116 4.69495 26.4274C4.87883 25.9057 5.21661 25.311 5.42658 25.1323C5.63655 24.9537 5.85434 24.7802 6.09561 24.5728C6.33688 24.415 6.40339 24.685 6.21037 25.2406C6.03649 25.757 5.86999 26.2748 5.71088 26.7938C5.54786 27.3546 5.18922 27.9676 4.94274 28.1332C4.7106 28.3092 4.50193 28.4514 4.3011 28.5975C4.10026 28.7435 4.06243 28.4136 4.22024 27.8841ZM2.6057 29.5599C2.73698 29.1478 2.87218 28.7366 3.01129 28.3262C3.14044 27.9427 3.30594 27.5723 3.50556 27.2203C3.6125 27.0781 3.72335 26.9373 3.83942 26.799C3.98288 26.6269 3.96984 26.8551 3.79769 27.3416C3.66728 27.7485 3.51208 28.1971 3.38428 28.6066C3.23299 29.0996 2.99303 29.6499 2.86262 29.7803C2.75828 29.8807 2.64482 30.0242 2.55092 30.1285C2.44398 30.2785 2.46615 30.0151 2.6057 29.5599ZM12.8355 28.857C12.7051 29.6982 12.5668 30.5941 12.4442 31.4836C12.3138 32.4669 12.8094 33.1985 13.5514 33.0864C14.2544 32.9768 14.973 32.8855 15.7163 32.789C16.5575 32.686 17.3491 31.7457 17.4704 30.6737C17.5774 29.7386 17.6895 28.8166 17.8252 27.8828C17.9686 26.8916 17.4052 26.2148 16.5745 26.3856C15.8468 26.5343 15.1399 26.6791 14.45 26.846C13.721 27.0129 13.0076 27.9076 12.8355 28.857ZM7.68015 30.3242C7.53496 31.0832 7.40107 31.8409 7.27847 32.5973C7.15588 33.428 7.43497 34.0514 7.93055 33.9171C8.38831 33.818 8.86172 33.7293 9.36512 33.6158C9.93373 33.4946 10.5102 32.6534 10.6275 31.7718C10.7501 30.9554 10.8884 30.1364 11.0188 29.346C11.1635 28.5127 10.8258 27.9493 10.2611 28.1241C9.77593 28.2623 9.30208 28.414 8.83954 28.5792C8.35309 28.7422 7.83795 29.5234 7.68015 30.3242ZM4.22285 31.8187C4.09243 32.463 3.98158 33.0694 3.86812 33.715C3.74813 34.4414 3.88507 34.9317 4.16937 34.8313C4.45368 34.7309 4.72886 34.6331 5.0249 34.5418C5.3718 34.4244 5.75392 33.715 5.87781 32.939C5.98736 32.2778 6.11648 31.5788 6.24298 30.9162C6.38252 30.212 6.22341 29.7295 5.8726 29.8964C5.56873 30.0425 5.2766 30.1937 5.00664 30.3137C4.71451 30.4715 4.36891 31.1327 4.22285 31.8187ZM2.1362 33.2272C2.03578 33.7293 1.93015 34.2705 1.84146 34.7765C1.74235 35.3634 1.78278 35.7612 1.92362 35.7025C2.0631 35.5996 2.21519 35.515 2.37617 35.4508C2.56005 35.3595 2.80654 34.7309 2.90957 34.114C3.00346 33.5793 3.11301 33.0042 3.22908 32.4304C3.34515 31.8565 3.30211 31.447 3.09867 31.6061C2.93304 31.7366 2.78567 31.8213 2.63308 31.953C2.4805 32.0848 2.25749 32.6429 2.13229 33.2272H2.1362ZM1.08245 34.4779C0.995503 34.903 0.914212 35.3286 0.838571 35.7546C0.757713 36.2254 0.734239 36.5724 0.790318 36.4941C0.846396 36.4159 0.911604 36.3402 0.97942 36.2646C1.04724 36.1889 1.19069 35.7338 1.27677 35.2213C1.36371 34.7552 1.45065 34.2905 1.5376 33.8271C1.64584 33.3211 1.65888 33.0133 1.57281 33.1242C1.48674 33.235 1.43587 33.3133 1.36806 33.4307C1.24007 33.7703 1.14317 34.1208 1.07853 34.4779H1.08245ZM8.83433 40.6609C8.87345 39.791 8.91649 38.955 8.96474 38.1165C9.03647 37.1697 9.56465 36.3546 10.1528 36.275C10.7097 36.1955 11.2835 36.125 11.8808 36.035C12.5538 35.9724 13.065 36.7132 12.9972 37.7174C12.9476 38.6212 12.9059 39.5197 12.8668 40.4457C12.8381 41.4603 12.2486 42.2898 11.5626 42.3198C10.9671 42.3198 10.3902 42.3263 9.832 42.3393C9.25166 42.3811 8.80303 41.5986 8.83433 40.6609ZM4.58149 40.8956C4.6154 40.1953 4.65713 39.4937 4.7119 38.7542C4.77581 37.9717 5.11749 37.2792 5.47744 37.2231C5.83739 37.167 6.18168 37.0771 6.55076 37.0301C6.98374 36.9219 7.28239 37.5752 7.2237 38.3825C7.17153 39.1502 7.12806 39.9175 7.09328 40.6843C7.06198 41.5581 6.68117 42.2715 6.25341 42.2898C5.89488 42.28 5.53607 42.2909 5.17879 42.3224C4.81493 42.3458 4.54888 41.7133 4.58018 40.8956H4.58149ZM1.95362 41.1565C1.98405 40.5748 2.02013 39.994 2.06187 39.4141C2.11794 38.7503 2.3227 38.1895 2.51701 38.1334C2.71133 38.0774 2.90826 37.9821 3.11953 37.93C3.35819 37.883 3.51078 38.3943 3.45861 39.0776C3.41166 39.7193 3.37645 40.3218 3.34385 40.9647C3.31385 41.6872 3.09084 42.2806 2.85218 42.2689C2.64482 42.3015 2.44789 42.295 2.25879 42.3289C2.06187 42.3224 1.92232 41.819 1.95232 41.1551L1.95362 41.1565ZM0.543831 41.4095C0.56861 40.9374 0.598606 40.4665 0.636427 39.9527C0.674247 39.4389 0.786404 38.9746 0.878999 38.899C0.978414 38.8661 1.07278 38.8196 1.15939 38.7607C1.27285 38.732 1.33415 39.1233 1.28981 39.7141C1.25329 40.2201 1.22199 40.7269 1.19591 41.2347C1.16982 41.8255 1.05506 42.2871 0.935077 42.325C0.842389 42.3143 0.748492 42.3259 0.661206 42.3589C0.572524 42.3537 0.520357 41.9233 0.542528 41.4081L0.543831 41.4095ZM0.0339092 41.6416C0.0547757 41.2503 0.0795535 40.8591 0.108245 40.4679C0.125411 40.1791 0.157188 39.8914 0.203449 39.6058C0.224568 39.5627 0.248984 39.5213 0.276482 39.4819C0.31039 39.4415 0.309085 39.7897 0.26996 40.2644C0.242573 40.6557 0.215185 41.0847 0.191711 41.5164C0.168236 41.9481 0.127808 42.338 0.0952045 42.3367C0.0678173 42.3784 0.0456455 42.3784 0.0286915 42.3771C0.0104334 42.4215 0.0130415 42.0746 0.0326038 41.6403L0.0339092 41.6416ZM11.6956 47.2951C11.7348 48.2563 11.7856 49.22 11.8417 50.1642C11.916 51.2076 12.5785 52.1309 13.3258 52.2209C14.0235 52.2809 14.7604 52.3826 15.4946 52.4361C16.3462 52.5313 16.9931 51.6862 16.9292 50.5933C16.8744 49.5708 16.8314 48.5588 16.7988 47.5285C16.7701 46.3991 16.0346 45.4497 15.1816 45.4419C14.4291 45.4262 13.6988 45.4067 12.9933 45.4132C12.2382 45.3832 11.6617 46.2413 11.6943 47.2938L11.6956 47.2951ZM6.48685 47.0408C6.52598 47.8572 6.57554 48.6736 6.62901 49.4548C6.70334 50.3481 7.15067 51.1332 7.63712 51.2206C8.09879 51.3093 8.57089 51.351 9.07168 51.4632C9.64029 51.5492 10.0524 50.8267 9.98459 49.8708C9.93112 49.0192 9.88287 48.1376 9.84765 47.2912C9.81375 46.3131 9.31034 45.4954 8.74173 45.4875C8.24355 45.4762 7.76536 45.4628 7.30716 45.4471C6.8168 45.4328 6.45555 46.1527 6.48685 47.0408ZM3.09606 46.7682C3.13257 47.4542 3.17431 48.1011 3.22647 48.787C3.28907 49.5148 3.56816 50.1668 3.85247 50.2438C4.13677 50.3207 4.40934 50.3938 4.70538 50.4642C5.04446 50.5242 5.28051 49.9738 5.2127 49.16C5.15923 48.4284 5.11488 47.6981 5.08228 47.0056C5.04968 46.1983 4.73799 45.5188 4.3976 45.4954C4.11671 45.4624 3.834 45.4476 3.55121 45.451C3.2669 45.4262 3.06476 46.0001 3.09606 46.7682ZM1.12418 46.4865C1.15418 47.0369 1.1933 47.629 1.23503 48.1819C1.2872 48.774 1.445 49.3087 1.59107 49.3752C1.73713 49.4417 1.88059 49.5056 2.03709 49.5682C2.21836 49.6282 2.324 49.1522 2.26662 48.4923C2.21836 47.8728 2.18185 47.2951 2.15055 46.7161C2.12186 46.0548 1.94841 45.4823 1.76843 45.4484C1.61585 45.4484 1.46978 45.4171 1.33284 45.4223C1.18939 45.3819 1.0981 45.8944 1.12418 46.4865ZM0.194319 46.2413C0.220402 46.716 0.249093 47.1543 0.28561 47.6237C0.322126 48.0932 0.405593 48.5679 0.457759 48.6058C0.509925 48.6436 0.568612 48.6801 0.631211 48.7166C0.710764 48.7936 0.736848 48.4023 0.692506 47.8885C0.648165 47.3746 0.623386 46.9052 0.595998 46.4331C0.57122 45.8762 0.490362 45.451 0.416025 45.4106C0.35473 45.4106 0.296043 45.3715 0.245181 45.3728C0.194319 45.3741 0.172149 45.7653 0.194319 46.2413ZM10.0524 58.2395C9.92199 57.4714 9.77984 56.6746 9.66116 55.8751C9.53857 55.0105 9.90504 54.3714 10.4893 54.4784C11.044 54.5853 11.6135 54.6792 12.1977 54.7601C12.8811 54.8996 13.5371 55.7564 13.6532 56.6863C13.7679 57.5262 13.897 58.3726 14.0275 59.1955C14.1827 60.0953 13.7536 60.6848 13.0833 60.5088C12.4964 60.351 11.9356 60.2088 11.3879 60.0497C10.8062 59.8906 10.2141 59.0885 10.0524 58.2382V58.2395ZM5.77609 56.7098C5.64307 56.042 5.51917 55.3747 5.40441 54.7079C5.28442 53.9619 5.48527 53.4637 5.84782 53.572C6.21037 53.6802 6.54554 53.7467 6.92766 53.8785C7.34759 53.9567 7.80796 54.717 7.92533 55.5008C8.04097 56.2129 8.16617 56.9258 8.30093 57.6396C8.4496 58.3947 8.20964 58.8681 7.77927 58.7143C7.40759 58.5747 7.04503 58.426 6.69421 58.2695C6.3434 58.113 5.92216 57.4166 5.77609 56.7085V56.7098ZM3.05172 55.2504C2.94347 54.7144 2.83131 54.138 2.73481 53.6007C2.62917 52.9812 2.7022 52.5391 2.91087 52.6643C3.10301 52.7512 3.30342 52.833 3.51208 52.9095C3.75987 53.0203 4.04679 53.6202 4.16416 54.3023C4.2724 54.9048 4.37543 55.4682 4.49802 56.0707C4.62844 56.7124 4.53063 57.0932 4.28284 56.9602C4.06113 56.8154 3.85899 56.7072 3.66597 56.595C3.45209 56.4411 3.18604 55.8647 3.05172 55.2491V55.2504ZM1.52064 53.9371C1.42587 53.4729 1.33545 53.0077 1.24938 52.5417C1.1607 52.0318 1.16461 51.681 1.26372 51.7944C1.35371 51.8635 1.45022 51.9327 1.55064 52.0005C1.68105 52.1061 1.84668 52.5913 1.94188 53.1364C2.03448 53.6385 2.12186 54.0989 2.22489 54.5997C2.34226 55.1409 2.3253 55.4552 2.19358 55.3156C2.08534 55.2113 1.98362 55.1057 1.8858 54.9987C1.78799 54.8918 1.61976 54.3936 1.52064 53.9358V53.9371ZM14.0249 64.4877C14.2153 65.2376 14.4031 65.9601 14.6078 66.6826C14.8321 67.4508 15.5872 68.2672 16.3032 68.5163C16.9518 68.7119 17.6278 68.9149 18.3312 69.1253C19.1137 69.3379 19.6053 68.8645 19.3927 68.0546C19.2023 67.2904 19.0341 66.5261 18.8711 65.7384C18.6924 64.8542 17.8486 63.9491 17.0453 63.7822C16.3241 63.6126 15.6277 63.447 14.9391 63.2605C14.214 63.0714 13.8136 63.6335 14.0249 64.4864V64.4877ZM8.93866 62.6502C9.13298 63.3023 9.33903 63.9635 9.53727 64.5842C9.75375 65.2467 10.3393 66.0071 10.8036 66.2196C11.2679 66.4322 11.7165 66.6331 12.2069 66.8548C12.7507 67.0752 13.0428 66.71 12.8133 65.9849C12.6255 65.3328 12.4286 64.6507 12.2473 63.9687C12.0386 63.1862 11.4152 62.3933 10.8558 62.1989C10.3558 62.0042 9.88417 61.8303 9.44076 61.6773C8.94518 61.4543 8.7326 61.9146 8.93866 62.6489V62.6502ZM5.47874 60.8022C5.65481 61.3617 5.83869 61.9199 6.01084 62.4402C6.22342 63.0349 6.6277 63.6726 6.93026 63.8878C7.23283 64.103 7.50931 64.2791 7.8197 64.4786C8.17443 64.699 8.29963 64.3886 8.08053 63.7626C7.8849 63.1771 7.71667 62.6254 7.53931 62.0372C7.34499 61.3721 6.88723 60.6561 6.5338 60.4631C6.24298 60.3327 5.94433 60.1462 5.67045 59.9962C5.37441 59.8084 5.28443 60.1606 5.47874 60.8009V60.8022ZM3.32298 59.0442C3.46644 59.4941 3.62946 59.9832 3.78335 60.4318C3.9568 60.9183 4.24762 61.4947 4.40803 61.6577C4.56845 61.8207 4.74972 62.0177 4.91926 62.1729C5.12141 62.3594 5.1501 62.1103 4.96491 61.5886C4.79928 61.1061 4.62452 60.5831 4.47063 60.098C4.29718 59.5307 4.00505 58.966 3.81856 58.8134C3.63206 58.6608 3.47296 58.4899 3.32428 58.3621C3.15214 58.1939 3.15866 58.5095 3.32298 59.0429V59.0442ZM2.18315 57.4336C2.30313 57.8066 2.44398 58.2161 2.5744 58.5877C2.71916 58.9959 2.90956 59.4811 2.98651 59.6389C3.05041 59.7537 3.13388 59.8997 3.22256 60.0575C3.31124 60.2153 3.27734 59.9897 3.11692 59.5359C2.97608 59.1264 2.83958 58.716 2.70742 58.3047C2.60036 57.9292 2.4571 57.5649 2.27966 57.2171C2.20532 57.1049 2.1349 56.9915 2.06839 56.8754C1.98231 56.7228 2.03839 56.9784 2.18315 57.4336ZM26.9216 75.8756C26.7573 75.267 26.5834 74.6253 26.4 73.9507C26.2056 73.189 26.8773 72.7 27.8828 72.8656C28.8348 73.0208 29.7803 73.1551 30.7519 73.2842C31.8344 73.4146 32.8177 74.1698 32.9311 74.9392C33.0224 75.6082 33.1646 76.2694 33.2585 76.8954C33.3889 77.5579 32.6651 77.9727 31.6544 77.8292C30.748 77.6871 29.8703 77.5436 28.99 77.3858C28.0549 77.2058 27.1198 76.5303 26.9216 75.8756ZM19.8283 73.9559C19.6014 73.3847 19.3914 72.8056 19.1684 72.1979C18.9298 71.5106 19.3693 71.122 20.1426 71.3345C20.8677 71.5275 21.6202 71.724 22.4001 71.924C23.2517 72.1183 24.1281 72.8708 24.3342 73.5816C24.4959 74.1893 24.6772 74.7892 24.8767 75.3774C25.0749 75.9891 24.5533 76.2994 23.7551 76.0947C23.0313 75.8939 22.3075 75.68 21.6163 75.47C20.8521 75.217 20.05 74.5427 19.8283 73.9559ZM14.1527 71.6201C13.8983 71.0867 13.6819 70.5768 13.451 70.0369C13.1902 69.42 13.4406 69.1083 14.0001 69.3496C14.5217 69.5622 15.0747 69.7904 15.6316 70.0017C16.2654 70.2377 16.9879 70.9602 17.1966 71.5667C17.4091 72.1235 17.6374 72.6752 17.8486 73.1969C18.0886 73.7576 17.7769 74.0028 17.19 73.772C16.6488 73.5412 16.1102 73.2986 15.6055 73.0717C14.9887 72.741 14.4833 72.2356 14.1527 71.6188V71.6201ZM9.91808 69.1162C9.69246 68.6584 9.47336 68.2033 9.23862 67.6986C9.00387 67.1939 9.11472 66.9278 9.49162 67.1691C9.83983 67.3777 10.1933 67.5799 10.5767 67.8042C10.981 68.0103 11.5522 68.6923 11.7791 69.2388C12.0021 69.7383 12.2082 70.2038 12.4507 70.6968C12.6933 71.1898 12.5368 71.3893 12.1221 71.1467C11.7504 70.9185 11.3839 70.6812 11.0488 70.4699C10.5813 70.1023 10.1961 69.6407 9.91808 69.1149V69.1162ZM6.98374 66.6526C6.76855 66.2301 6.58075 65.8428 6.376 65.415C6.16081 64.9468 6.17255 64.7433 6.40208 64.9572C6.60684 65.1333 6.83898 65.3485 7.07633 65.5454C7.31369 65.7423 7.73884 66.3279 7.9475 66.7961C8.14573 67.2221 8.35049 67.6455 8.56176 68.0663C8.79912 68.5241 8.74304 68.6688 8.47569 68.4393C8.24355 68.2367 8.01575 68.0294 7.79231 67.8172C7.47261 67.4664 7.20073 67.0748 6.98374 66.6526ZM5.11097 64.2921C4.93709 63.9443 4.7632 63.594 4.58931 63.241C4.40673 62.8497 4.35848 62.6776 4.47976 62.8601C4.60105 63.0427 4.7119 63.1797 4.84362 63.3557C5.08199 63.6996 5.28847 64.0646 5.46049 64.446C5.62742 64.7981 5.81913 65.1855 5.99388 65.5337C6.19342 65.9249 6.22081 66.0553 6.0617 65.8454C5.93216 65.6715 5.80609 65.4941 5.6835 65.3133C5.57395 65.1307 5.31312 64.6781 5.11097 64.2921ZM31.7965 79.9341C31.9609 80.4245 32.1004 80.8848 32.253 81.3243C32.4056 81.7638 33.2963 82.2568 34.2483 82.3977C35.1534 82.5215 36.0194 82.6233 36.9245 82.7198C37.9065 82.8085 38.6564 82.5189 38.5951 82.0677C38.5338 81.6165 38.4425 81.1678 38.3942 80.6853C38.3238 80.1232 37.3757 79.5768 36.2854 79.4842C35.3008 79.3864 34.3488 79.2833 33.3941 79.1647C32.3247 79.0121 31.6244 79.3681 31.7965 79.9341ZM24.5767 78.3691C24.7815 78.8204 25.0006 79.2599 25.1949 79.6733C25.4271 80.1115 26.2904 80.6553 27.0807 80.8744C27.8319 81.0726 28.5831 81.2587 29.3343 81.4326C30.2029 81.6243 30.7363 81.4182 30.5902 80.9931C30.4063 80.5679 30.272 80.1389 30.1116 79.6811C29.9446 79.1594 29.0096 78.5478 28.1045 78.3652C27.2724 78.1813 26.4743 77.9987 25.6748 77.8005C24.8311 77.5827 24.3329 77.8396 24.5767 78.3704V78.3691ZM18.5124 76.2316C18.755 76.6555 19.0093 77.0728 19.2415 77.4562C19.5023 77.8709 20.2352 78.4265 20.8586 78.6913C21.4429 78.9312 22.065 79.1816 22.6544 79.4007C23.3235 79.6381 23.7173 79.5194 23.4839 79.1047C23.2504 78.6899 23.0287 78.2831 22.8174 77.8579C22.567 77.3584 21.7846 76.7533 21.0516 76.499C20.4282 76.2825 19.8075 76.0529 19.1893 75.8104C18.532 75.5456 18.2242 75.736 18.5124 76.2329V76.2316ZM13.7327 73.7537C13.9936 74.1541 14.2544 74.5493 14.4996 74.9105C14.8762 75.3935 15.3322 75.8089 15.8481 76.139C16.2602 76.3764 16.7075 76.632 17.1587 76.8798C17.653 77.1406 17.876 77.0545 17.6048 76.6542C17.3661 76.2838 17.1366 75.9082 16.8836 75.5C16.6227 75.0462 15.9498 74.4358 15.419 74.1632C14.9625 73.9259 14.5104 73.6785 14.0627 73.4212C13.6114 73.1734 13.4615 73.3181 13.7327 73.7603V73.7537ZM10.2206 71.1963C10.4606 71.5571 10.7062 71.914 10.9575 72.267C11.2592 72.6715 11.6014 73.0443 11.9786 73.3794C12.2795 73.6281 12.5838 73.872 12.8915 74.1111C13.2398 74.3719 13.318 74.2897 13.0676 73.935C12.8172 73.5803 12.5772 73.2216 12.3412 72.8591C12.0336 72.3955 11.6552 71.9832 11.2196 71.6371C10.9066 71.401 10.5975 71.1598 10.3211 70.9446C9.99372 70.6681 9.96372 70.8024 10.2206 71.2028V71.1963ZM7.81187 68.6858C8.03097 69.0105 8.2279 69.2961 8.45482 69.6157C8.68174 69.9352 9.05473 70.4138 9.24644 70.6499C9.43815 70.8859 9.61291 71.0789 9.81635 71.3019C10.0524 71.5562 10.0537 71.5002 9.79679 71.1493C9.57161 70.8311 9.35034 70.5094 9.13298 70.1843C8.88001 69.798 8.59885 69.431 8.2918 69.0862C8.08835 68.8592 7.9136 68.6649 7.71797 68.4341C7.54974 68.2411 7.57452 68.3298 7.81187 68.6923V68.6858ZM36.8814 84.7269C36.798 84.466 36.678 84.1856 36.6036 83.8935C36.4993 83.544 37.1866 83.321 38.1438 83.4071C39.0202 83.4723 39.9357 83.5297 40.8121 83.5701C41.8072 83.6027 42.638 83.9183 42.6301 84.2626C42.6301 84.556 42.6601 84.8312 42.6562 85.0868C42.6927 85.3476 41.9389 85.5328 41.0625 85.5041C40.2696 85.4663 39.4363 85.4129 38.6446 85.3516C37.7696 85.2811 36.9662 85.0007 36.8814 84.7373V84.7269ZM30.195 83.5336C30.019 83.2727 29.8481 83.0015 29.6851 82.7172C29.4986 82.382 30.0229 82.249 30.8589 82.4303C31.6192 82.5815 32.3795 82.7211 33.1789 82.8606C34.0579 82.9989 34.8809 83.3823 35.0178 83.7201C35.1273 84.0005 35.2408 84.2652 35.319 84.5026C35.4377 84.7634 34.8639 84.8547 34.0762 84.7282C33.3719 84.5978 32.6286 84.4608 31.9256 84.3161C31.1458 84.1583 30.3737 83.8074 30.195 83.544V83.5336ZM24.2611 81.6856C24.0551 81.4365 23.819 81.1639 23.5895 80.8731C23.3391 80.5431 23.7056 80.4819 24.3785 80.7166C24.9758 80.9131 25.6122 81.1183 26.2878 81.3322C27.0051 81.5421 27.7602 81.9842 27.9832 82.3051C28.146 82.5789 28.3286 82.8404 28.5296 83.0876C28.7057 83.3366 28.2871 83.3692 27.635 83.1762C27.0259 82.9832 26.4195 82.785 25.8535 82.5894C25.2119 82.3664 24.5063 81.966 24.2611 81.696V81.6856ZM19.2415 79.372C19.0002 79.1177 18.7628 78.8569 18.532 78.5895C18.2438 78.2596 18.4355 78.2139 18.9676 78.4917C19.428 78.7199 19.9274 78.9625 20.4309 79.1973C20.976 79.4398 21.6685 79.9198 21.8876 80.2119C22.1067 80.504 22.3584 80.7518 22.5657 80.9944C22.8109 81.2552 22.5657 81.2552 22.0154 81.0113C21.5476 80.7905 21.0825 80.5636 20.6199 80.3306C20.1233 80.0681 19.6604 79.7463 19.2415 79.372ZM15.2468 76.7846C15.0017 76.5381 14.763 76.2864 14.527 76.0295C14.2661 75.7374 14.3496 75.7113 14.7017 75.963C15.0538 76.2147 15.4125 76.4585 15.7737 76.6972C16.2184 76.9886 16.628 77.3304 16.9944 77.7158C17.2279 77.9766 17.4339 78.2022 17.6778 78.4513C17.9217 78.7004 17.8147 78.7017 17.417 78.4435C17.0557 78.2022 16.7336 77.9818 16.3736 77.7301C15.9794 77.4378 15.6031 77.1221 15.2468 76.7846ZM34.2262 85.4324C34.3657 85.5967 34.5079 85.7493 34.6174 85.881C34.7635 86.0115 35.4716 86.2188 36.2385 86.3388C36.9205 86.4353 37.6483 86.5266 38.3329 86.5996C39.105 86.674 39.7127 86.6348 39.6371 86.5083C39.5615 86.3818 39.5328 86.2475 39.461 86.0858C39.3932 85.8993 38.6525 85.6802 37.7722 85.5954C37.0171 85.512 36.2633 85.4194 35.469 85.3059C34.6292 85.182 34.0958 85.2446 34.2262 85.4324ZM28.3575 84.0213C28.527 84.1817 28.7409 84.3474 28.9196 84.4895C29.14 84.6421 29.826 84.9108 30.4846 85.1038C31.0688 85.2629 31.6974 85.4259 32.2856 85.568C33.0003 85.7324 33.4398 85.7532 33.295 85.6215C33.1502 85.4898 33.0094 85.3424 32.8725 85.1872C32.7016 84.9968 31.9869 84.7099 31.2397 84.5352C30.5372 84.3613 29.8768 84.1917 29.2587 84.0265C28.527 83.8192 28.1619 83.8296 28.3627 84.0252L28.3575 84.0213ZM23.2035 82.0494C23.4487 82.2333 23.6599 82.3911 23.9142 82.5607C24.3643 82.8234 24.8298 83.0586 25.3084 83.2649C25.787 83.4671 26.31 83.6796 26.8342 83.8857C27.4028 84.0983 27.7054 84.157 27.4863 84.007C27.3076 83.8766 27.0951 83.7096 26.9242 83.5583C26.6816 83.3562 25.9918 83.0067 25.3879 82.7759C24.8271 82.5568 24.3068 82.3481 23.7903 82.1238C23.2035 81.8773 22.9713 81.8551 23.2087 82.0534L23.2035 82.0494ZM39.2211 87.073C39.7914 87.1278 40.3644 87.1713 40.9399 87.2035C41.0612 87.2113 41.1747 87.2165 41.3573 87.2256L41.9155 87.2465C42.2221 87.2637 42.5295 87.2637 42.8362 87.2465C42.838 87.2257 42.8352 87.2047 42.828 87.1851C42.8208 87.1655 42.8093 87.1477 42.7945 87.133C42.7945 87.0665 42.1489 86.9909 41.416 86.9661C40.683 86.9413 39.9931 86.8866 39.3032 86.8357C38.5729 86.7679 38.0069 86.7666 38.0852 86.8357C38.1624 86.8878 38.2451 86.9316 38.3316 86.9661C38.3708 86.9778 38.7503 87.0248 39.2211 87.073ZM33.0746 86.0297C34.3083 86.3305 35.5616 86.5788 36.8345 86.7744C37.0431 86.8005 37.167 86.8135 37.0836 86.7953C36.9982 86.762 36.9162 86.721 36.8384 86.6727C36.7601 86.6088 36.0846 86.4549 35.4038 86.344C34.7648 86.2306 34.1701 86.1158 33.5337 85.9841C32.8568 85.8328 32.4669 85.7832 32.6208 85.8615C32.7544 85.9205 32.8916 85.9711 33.0316 86.0128C33.0316 86.0128 33.0733 86.0284 33.072 86.0349L33.0746 86.0297ZM24.8584 83.1175C25.1732 83.2662 25.4888 83.411 25.8053 83.5518C25.5718 83.4371 25.2549 83.291 24.9406 83.1475C24.9131 83.1356 24.8842 83.1272 24.8545 83.1228L24.8584 83.1175ZM18.8307 79.6485L18.905 79.6994L18.9598 79.7111C18.7185 79.5233 18.8098 79.5442 19.2519 79.8194C19.6614 80.0663 20.0739 80.3058 20.4895 80.5379C20.9472 80.7846 21.3881 81.0613 21.8093 81.3661C22.018 81.5265 22.2684 81.7012 22.4836 81.8486C22.7444 82.0116 22.5423 81.9216 22.0845 81.6725L21.4794 81.3309C20.8664 80.9726 20.263 80.5992 19.6692 80.2106C19.3106 79.9654 19.3106 79.9654 18.9598 79.7111L18.8307 79.6485ZM16.4284 77.8814C16.8466 78.2135 17.2713 78.5378 17.7026 78.8543L17.6687 78.8282C17.4261 78.6443 16.907 78.2505 16.5627 77.9857L16.4284 77.8814ZM0.849004 52.5808C0.886825 52.766 0.928557 52.9486 0.968986 53.1325C1.03028 53.3933 1.07071 53.555 1.09288 53.6398C1.11505 53.7246 1.14896 53.8041 1.18287 53.8863C1.21677 53.9684 1.18287 53.7063 1.09679 53.2825C1.01854 52.9003 0.944207 52.5169 0.864654 52.0905C0.817216 51.7757 0.7466 51.4649 0.653382 51.1606C0.624717 51.1075 0.599453 51.0526 0.57774 50.9963C0.591865 51.1992 0.621954 51.4006 0.667727 51.5988C0.76293 52.1113 0.76293 52.1113 0.849004 52.5808ZM0 45.408C0.0312997 46.287 0.0882493 47.159 0.170846 48.0241C0.170846 48.0241 0.149979 47.7215 0.117375 47.3316C0.0847711 46.9417 0.0612956 46.5491 0.039125 46.1579C0.0234751 45.824 0.00782491 45.5384 0 45.4093V45.408ZM0.867262 35.0087C0.742064 35.6173 0.63034 36.2285 0.532094 36.8423C0.563394 36.6715 0.607735 36.4159 0.652076 36.1615C0.714675 35.8199 0.789012 35.4351 0.865957 35.0517C0.865957 35.053 0.871175 35.0113 0.867262 35.01V35.0087ZM12.0047 13.8227C11.6265 14.214 11.2574 14.6222 10.8949 15.0317C11.1309 14.7708 11.5039 14.3666 11.7621 14.0822C11.8978 13.9375 11.9291 13.9023 12.0047 13.824V13.8227ZM34.384 1.33677C33.0303 1.62368 31.7 1.97146 30.3933 2.38009C30.1898 2.45965 30.1898 2.45965 29.989 2.54181C29.8312 2.61875 30.1729 2.54181 30.7976 2.36836C31.3831 2.20794 31.9713 2.05536 32.6012 1.90017C33.2767 1.74628 33.9445 1.55717 34.0618 1.48544C34.181 1.42817 34.3039 1.37894 34.4296 1.33807C34.4714 1.32895 34.4714 1.32764 34.384 1.33807V1.33677ZM38.9316 0.624705C37.9873 0.721212 37.0527 0.848583 36.1276 1.00682C35.8746 1.05507 35.6647 1.0955 35.6229 1.10724C35.4963 1.14944 35.3729 1.20087 35.2538 1.26113C35.1365 1.33807 35.6594 1.30417 36.3845 1.19071C37.0697 1.0942 37.7556 1.00726 38.4425 0.929876C39.1741 0.860756 39.8575 0.740774 39.9384 0.669046C39.9729 0.623222 40.0133 0.582022 40.0583 0.546455C40.1444 0.52298 39.6241 0.558193 38.9316 0.622096V0.624705ZM50.7485 1.01595C49.8208 0.858583 48.884 0.728168 47.938 0.624705C47.252 0.560802 46.7395 0.524285 46.7812 0.545152C46.8419 0.580709 46.8972 0.62461 46.9456 0.675567C46.9834 0.743383 47.6668 0.863365 48.4401 0.936397C49.1274 1.01334 49.8121 1.10072 50.455 1.19723C51.2232 1.31851 51.7031 1.3446 51.5857 1.26765C51.4684 1.19071 51.3419 1.15549 51.2597 1.12289C51.1775 1.09029 50.9989 1.06942 50.7485 1.01986V1.01595ZM56.4463 2.38792C55.1422 1.97667 53.8115 1.6289 52.4543 1.3446C52.4113 1.3446 52.3682 1.33416 52.41 1.3446C52.5359 1.38534 52.6588 1.43502 52.7777 1.49327C53.2678 1.67087 53.7698 1.81339 54.2801 1.91973C54.8683 2.06318 55.4538 2.21577 56.0407 2.37748C56.7071 2.5718 57.0488 2.63831 56.8506 2.55094L56.4463 2.38792ZM74.9431 13.9649C74.9001 13.9192 74.8583 13.8736 74.8127 13.8345C74.8714 13.8879 74.9053 13.9244 74.9431 13.9649ZM75.9695 15.0891C75.6539 14.7317 75.3326 14.3792 75.0057 14.0314L75.0996 14.1331C75.3291 14.3887 75.7373 14.8321 75.9695 15.0891ZM69.1318 78.8386C69.5604 78.523 69.983 78.2005 70.3994 77.8709L70.269 77.9701C69.9234 78.2309 69.4396 78.6039 69.1631 78.8125L69.1279 78.8386H69.1318ZM65.3576 81.3256C65.9862 80.9561 66.6044 80.5723 67.2121 80.1741C67.529 79.9563 67.5303 79.955 67.8798 79.7007L68.0102 79.6394L67.9359 79.6902L67.8824 79.7007C68.1589 79.4894 68.0324 79.535 67.5903 79.8102C67.1808 80.0567 66.8078 80.2732 66.3526 80.5301C65.8953 80.7772 65.4549 81.0543 65.0342 81.3596C64.8255 81.5187 64.6133 81.6721 64.3977 81.8199C64.1369 81.9842 64.3012 81.9151 64.759 81.6647L65.3576 81.3256ZM61.0356 83.5427C61.3538 83.4019 61.6694 83.2558 61.9837 83.1071C61.9552 83.1136 61.9276 83.1236 61.9016 83.1371C61.6251 83.2675 61.3095 83.4097 61.0356 83.5427ZM50.0547 86.7653C51.3119 86.5722 52.5495 86.3253 53.7676 86.0245L53.808 86.0075C53.9618 85.9624 54.1129 85.9084 54.2606 85.8458C54.4184 85.7676 53.9867 85.8276 53.3111 85.9762C52.7177 86.1001 52.08 86.224 51.4853 86.3297C50.7589 86.4497 50.1264 86.597 50.0051 86.6674C49.9276 86.7155 49.846 86.7565 49.7612 86.79C49.7182 86.8096 49.8017 86.8005 50.0547 86.7692V86.7653ZM44.9189 87.2426L45.464 87.2217L45.8762 87.1995C46.47 87.1674 47.0603 87.1239 47.6472 87.0691C48.1219 87.0196 48.4675 86.9765 48.5523 86.9557C48.6245 86.9227 48.6928 86.8816 48.7557 86.8331C48.834 86.7626 48.311 86.76 47.5377 86.8331C46.8491 86.8878 46.1596 86.9313 45.4693 86.9635C44.6985 86.9974 44.0464 87.0678 44.0464 87.1278C44.0464 87.1878 44.0464 87.2139 44.0047 87.2413C44.3091 87.2615 44.6143 87.2632 44.9189 87.2465V87.2426ZM45.8318 0.48516C45.8318 0.515155 45.8709 0.558192 45.9114 0.615575C45.9518 0.672958 45.3428 0.731645 44.5238 0.705562C43.7908 0.695129 43.0135 0.695129 42.2806 0.705562C41.4616 0.731645 40.8539 0.689912 40.893 0.615575C40.9273 0.566386 40.9686 0.522454 41.0156 0.48516C41.0573 0.464293 41.6403 0.43169 42.3576 0.408215C42.5623 0.408215 42.7671 0.408216 42.9718 0.400391H43.8391C44.0451 0.400391 44.2512 0.40039 44.4572 0.408215C45.168 0.434298 45.7875 0.468206 45.8279 0.489072L45.8318 0.48516ZM49.4952 1.81018C49.4078 1.66917 49.3277 1.52378 49.2552 1.37459C49.1444 1.24418 48.4284 1.07464 47.6563 1.0016C46.9703 0.948135 46.24 0.901185 45.5097 0.87119C44.735 0.843802 44.0895 0.923356 44.0869 1.04855C44.1208 1.18712 44.1331 1.33008 44.1234 1.4724C44.1625 1.6602 44.8733 1.84017 45.7549 1.87017C46.553 1.9106 47.3081 1.95885 48.1023 2.02145C48.9826 2.09709 49.5917 2.0058 49.4913 1.81409L49.4952 1.81018Z" fill="url(#paint0_linear_2_7654)"/>
<path fill-rule="evenodd" clip-rule="evenodd" d="M72.9986 59.0816C71.5088 60.3646 69.8282 61.408 68.0171 62.1742C67.7654 62.2809 67.5108 62.3823 67.2533 62.4784C67.4831 62.0496 67.0089 61.1641 65.4629 59.6227L54.4221 48.5883C54.1304 48.8326 53.8371 49.0769 53.5422 49.3212L54.2815 50.0601V57.5023C52.9655 56.9091 51.7312 56.1492 50.609 55.2414C50.1788 54.8929 49.767 54.5265 49.3734 54.1421C49.096 53.8685 48.8284 53.5839 48.5705 53.2871V53.1235C48.3676 53.2627 48.1635 53.4007 47.9594 53.5351C43.919 56.2002 39.6941 58.0324 35.1539 58.0617C32.3552 58.0952 29.6112 57.2866 27.2784 55.741C18.798 50.0332 18.8579 37.7188 27.4593 32.1051C28.825 31.2139 30.3428 30.5809 31.9372 30.2376C36.0277 29.3569 40.0815 30.2474 43.2872 32.5668C43.8963 33.0061 44.4685 33.4942 44.9982 34.0264C45.5331 34.5576 46.0216 35.1334 46.4586 35.7474L43.2237 38.9806L33.3586 48.8399C32.9339 49.2446 32.3676 49.4672 31.7809 49.4602C31.1941 49.4533 30.6334 49.2172 30.2184 48.8025C29.8035 48.3878 29.5673 47.8274 29.5603 47.241C29.5533 46.6546 29.7761 46.0887 30.181 45.6642L40.0498 35.8012C37.9163 34.5172 35.3672 34.112 32.9404 34.6711C30.5137 35.2301 28.3992 36.7097 27.0434 38.7975C25.6876 40.8852 25.1965 43.4178 25.6739 45.8606C26.1512 48.3034 27.5596 50.4653 29.6017 51.8898C31.2107 53.0038 33.1257 53.5919 35.083 53.5729C38.9181 53.5595 42.7165 51.7298 46.4623 49.1123C46.9634 48.7605 47.4584 48.3941 47.9594 48.0203L48.5705 47.5489V30.1203C50.2705 28.7144 52.2033 27.6161 54.2815 26.875V42.0549L55.7017 41.5175C57.508 39.9125 59.2947 38.3417 61.0693 36.8858L66.0092 31.9488C66.1778 32.005 66.3453 32.0624 66.5127 32.1235C68.2209 32.7473 69.8104 33.6572 71.213 34.8143L59.9694 46.0514L72.9986 59.0816Z" fill="url(#paint1_linear_2_7654)"/>
<path d="M82.9126 39.3108H87.0768L89.4649 45.6302L90.3058 48.1095H90.4001L91.2437 45.6302L93.5347 39.3108H97.7017V54.5205H93.9579V50.0282C93.9579 48.4841 94.284 46.1207 94.4727 44.6008H94.3784L93.1143 48.1553L91.0093 53.2755H89.5107L87.4056 48.1553L86.1874 44.6008H86.093C86.2817 46.1207 86.6078 48.4841 86.6078 50.0282V54.5205H82.9126V39.3108ZM106.734 46.9399C106.639 46.0964 106.124 45.7219 105.095 45.7219C104.251 45.7219 103.362 46.0506 102.146 46.7055L100.742 44.0834C102.381 43.1025 104.065 42.5392 105.89 42.5392C108.933 42.5392 110.758 44.1777 110.758 48.0152V54.5205H107.48L107.211 53.3968H107.119C106.181 54.2403 105.151 54.8008 103.885 54.8008C101.685 54.8008 100.381 53.1165 100.381 51.1978C100.367 48.7643 102.241 47.4061 106.734 46.9399ZM105.281 51.7125C105.936 51.7125 106.31 51.3837 106.734 50.9175V49.3249C104.815 49.6078 104.205 50.2142 104.205 50.869C104.205 51.408 104.58 51.7125 105.281 51.7125ZM113.423 42.8195H116.701L116.97 44.8299H117.065C117.93 43.2399 119.24 42.5366 120.388 42.5366C120.882 42.5107 121.377 42.5907 121.838 42.771L121.202 46.2366C120.774 46.1232 120.334 46.0608 119.892 46.0506C119.048 46.0506 118.019 46.5653 117.466 48.0152V54.5205H113.423V42.8195ZM123.205 38.2383H127.132V46.8941H127.226L130.46 42.8249H134.813L130.635 47.6891L135.034 54.5205H130.695L128.353 50.3543L127.137 51.7017V54.5098H123.205V38.2383ZM140.754 42.55C144.22 42.55 145.856 45.0778 145.856 48.2092C145.86 48.7435 145.806 49.2767 145.694 49.7992H139.023C139.398 51.2975 140.427 51.7637 141.737 51.7637C142.581 51.7429 143.404 51.5013 144.125 51.063L145.435 53.448C144.175 54.2982 142.696 54.7661 141.177 54.7954C137.759 54.7954 135.139 52.5479 135.139 48.6646C135.139 44.8811 137.913 42.5392 140.754 42.5392V42.55ZM142.441 47.3711C142.441 46.3875 142.066 45.5925 140.848 45.5925C139.958 45.5925 139.212 46.083 138.977 47.3711H142.441ZM148.101 45.9671H146.557V42.9623L148.335 42.8222L148.804 39.7797H152.128V42.8222H154.796V45.9563H152.128V49.9582C152.128 51.2436 152.783 51.664 153.532 51.664C153.883 51.6565 154.23 51.5937 154.562 51.4781L155.163 54.3804C154.271 54.6654 153.339 54.8073 152.403 54.8008C149.36 54.8008 148.09 52.8821 148.09 50.0282L148.101 45.9671Z" fill="url(#paint2_linear_2_7654)"/>
<path d="M80.9567 35.5953C80.9525 34.8517 80.6554 34.1398 80.1298 33.6139C79.6042 33.088 78.8924 32.7906 78.1488 32.7861C77.409 32.7916 76.7015 33.0906 76.1819 33.6173C75.6623 34.144 75.373 34.8554 75.3775 35.5953C75.3756 35.9599 75.446 36.3212 75.5845 36.6585C75.7231 36.9957 75.9271 37.3021 76.1848 37.5601C76.4425 37.818 76.7487 38.0223 77.0858 38.1612C77.4229 38.3001 77.7842 38.3708 78.1488 38.3692H78.1684C78.2362 38.3692 78.2988 38.3692 78.3692 38.3601H78.4305C78.4896 38.3531 78.547 38.3453 78.6027 38.3366L78.7031 38.3197L78.8126 38.2949C78.8674 38.2818 78.9196 38.2675 78.973 38.2518L78.9939 38.2453C79.3443 38.1376 79.6703 37.9626 79.9538 37.7302H79.9446C80.2615 37.472 80.5168 37.1464 80.6919 36.7771C80.867 36.4078 80.9574 36.004 80.9567 35.5953Z" fill="url(#paint3_linear_2_7654)"/>
<path d="M77.0714 55.7966L79.7253 41.5983C78.8166 41.5349 77.9045 41.5349 76.9958 41.5983H73.3441L73.2672 42.2908H74.8843L73.6141 49.1793C73.3441 50.7952 72.9985 52.1789 72.9985 53.3735C72.9985 55.2202 74.3027 56.5674 76.6919 56.5674C77.2464 56.5697 77.7941 56.4463 78.294 56.2064C78.7939 55.9665 79.2329 55.6164 79.578 55.1824L79.0015 54.7207C78.7699 55.0208 78.48 55.2709 78.1492 55.456C77.8184 55.6412 77.4535 55.7575 77.0766 55.7979L77.0714 55.7966Z" fill="url(#paint4_linear_2_7654)"/>
<defs>
<linearGradient id="paint0_linear_2_7654" x1="39.1572" y1="0.392566" x2="38.9746" y2="87.2504" gradientUnits="userSpaceOnUse">
<stop stop-color="#00DC39"/>
<stop offset="1" stop-color="#002C51"/>
</linearGradient>
<linearGradient id="paint1_linear_2_7654" x1="20.9624" y1="44.6761" x2="72.9986" y2="44.6761" gradientUnits="userSpaceOnUse">
<stop stop-color="#00DC39"/>
<stop offset="1" stop-color="#002C51"/>
</linearGradient>
<linearGradient id="paint2_linear_2_7654" x1="82.9126" y1="46.5168" x2="155.168" y2="46.5168" gradientUnits="userSpaceOnUse">
<stop stop-color="#00DC39"/>
<stop offset="1" stop-color="#002C51"/>
</linearGradient>
<linearGradient id="paint3_linear_2_7654" x1="79.0395" y1="38.064" x2="76.7873" y2="31.7037" gradientUnits="userSpaceOnUse">
<stop stop-color="#00DC39"/>
<stop offset="1" stop-color="#002C51"/>
</linearGradient>
<linearGradient id="paint4_linear_2_7654" x1="79.0915" y1="55.5032" x2="72.8577" y2="37.9023" gradientUnits="userSpaceOnUse">
<stop stop-color="#00DC39"/>
<stop offset="1" stop-color="#002C51"/>
</linearGradient>
</defs>
</svg>
