<svg width="84" height="76" viewBox="0 0 84 76" fill="none" xmlns="http://www.w3.org/2000/svg">
<g clip-path="url(#clip0_342_1870)">
<path d="M70.4628 64.5463L63.8304 53.0701C67.1768 50.4524 69.7393 46.7807 70.9223 42.3657C73.814 31.5737 67.3707 20.4249 56.5563 17.5272C45.7419 14.6295 34.6005 21.0664 31.7087 31.8585C28.817 42.6506 35.2603 53.7994 46.0617 56.6936C50.3126 57.8326 54.6036 57.5296 58.4399 56.0809L65.1102 67.6226C65.536 68.3593 66.2187 68.8605 66.981 69.0647C67.7433 69.269 68.5852 69.1763 69.3223 68.7512C70.8093 67.9044 71.3144 66.0197 70.4628 64.5463ZM37.678 33.458C39.6911 25.9448 47.455 21.4669 54.9747 23.4818C62.4944 25.4967 66.9791 33.2566 64.9659 40.7697C62.9528 48.2829 55.1889 52.7608 47.6693 50.7459C40.1366 48.7276 35.6614 40.984 37.678 33.458Z" fill="url(#paint0_linear_342_1870)"/>
</g>
<g filter="url(#filter0_b_342_1870)">
<path d="M37.0477 59.4709C49.7854 58.8999 59.6486 48.1122 59.0777 35.3758C58.5068 22.6394 47.718 12.7774 34.9803 13.3484C22.2426 13.9194 12.3795 24.7071 12.9504 37.4435C13.5213 50.1798 24.31 60.0419 37.0477 59.4709Z" fill="url(#paint1_linear_342_1870)"/>
<path d="M58.4807 35.4026C59.0368 47.8092 49.429 58.3177 37.021 58.8739C24.6129 59.4301 14.1035 49.8233 13.5473 37.4167C12.9912 25.0101 22.599 14.5016 35.0071 13.9454C47.4151 13.3892 57.9246 22.996 58.4807 35.4026Z" stroke="url(#paint2_linear_342_1870)" stroke-opacity="0.3" stroke-width="1.19513"/>
</g>
<defs>
<filter id="filter0_b_342_1870" x="-0.618002" y="-0.219992" width="73.264" height="73.2593" filterUnits="userSpaceOnUse" color-interpolation-filters="sRGB">
<feFlood flood-opacity="0" result="BackgroundImageFix"/>
<feGaussianBlur in="BackgroundImage" stdDeviation="6.7724"/>
<feComposite in2="SourceAlpha" operator="in" result="effect1_backgroundBlur_342_1870"/>
<feBlend mode="normal" in="SourceGraphic" in2="effect1_backgroundBlur_342_1870" result="shape"/>
</filter>
<linearGradient id="paint0_linear_342_1870" x1="59.5563" y1="18.331" x2="47.3702" y2="63.81" gradientUnits="userSpaceOnUse">
<stop stop-color="#49A8FF"/>
<stop offset="1" stop-color="#FF008A"/>
</linearGradient>
<linearGradient id="paint1_linear_342_1870" x1="33.075" y1="29.5042" x2="38.382" y2="55.438" gradientUnits="userSpaceOnUse">
<stop stop-color="white" stop-opacity="0.15"/>
<stop offset="1" stop-color="white" stop-opacity="0.12"/>
</linearGradient>
<linearGradient id="paint2_linear_342_1870" x1="34.9803" y1="13.3484" x2="37.0477" y2="59.4709" gradientUnits="userSpaceOnUse">
<stop/>
<stop offset="0.0001" stop-color="white" stop-opacity="0.984375"/>
<stop offset="1" stop-color="white" stop-opacity="0.32"/>
</linearGradient>
<clipPath id="clip0_342_1870">
<rect width="46.79" height="47.0833" fill="white" transform="translate(36.956 12.2752) rotate(15)"/>
</clipPath>
</defs>
</svg>
