<svg width="54" height="55" viewBox="0 0 54 55" fill="none" xmlns="http://www.w3.org/2000/svg">
<path d="M37.346 19.158C37.989 20.0346 38.5525 20.9672 39.0297 21.9445C39.4855 22.9549 39.7934 24.026 39.9438 25.1246C40.2145 27.2946 40.033 29.4974 39.4107 31.5934C38.7884 33.6894 37.7389 35.633 36.3286 37.3012C34.8879 39.0011 32.9661 40.2221 30.818 40.8024C30.55 40.8772 30.2774 40.9343 30.002 40.9733C29.8625 40.9992 29.7282 41.0251 29.5888 41.0406L29.1756 41.0769L28.7573 41.108H28.2873L27.5643 42.4183L26.7896 43.7857C26.4074 44.4383 26.0356 45.0805 25.5759 45.7383C25.5385 45.7629 25.4987 45.7837 25.4571 45.8004L25.3177 45.8367C25.3399 45.8459 25.3607 45.8581 25.3797 45.8729C25.8045 46.2238 26.0753 46.7277 26.1337 47.2765C26.1466 47.4126 26.1466 47.5496 26.1337 47.6857C26.1247 47.8235 26.0969 47.9594 26.0511 48.0897C26.0046 48.214 25.9581 48.3383 25.9064 48.4626C25.8374 48.5842 25.7615 48.7018 25.6792 48.8148C25.5742 48.9372 25.4584 49.0499 25.3332 49.1514C25.1976 49.2375 25.0561 49.3136 24.9097 49.3793L24.8219 49.4052C24.8443 49.4323 24.8603 49.4642 24.8684 49.4984C24.9746 49.7751 24.9746 50.0815 24.8684 50.3582C24.771 50.7084 24.6249 51.0432 24.4345 51.3526C24.3678 51.4561 24.2918 51.5532 24.2073 51.6427C24.132 51.7423 24.0454 51.8327 23.9491 51.912L23.6392 52.1399C23.5305 52.203 23.4184 52.2601 23.3035 52.3108C23.1095 52.3939 22.9068 52.4547 22.6992 52.4921C22.5058 52.5213 22.311 52.5403 22.1156 52.5491C21.9297 52.5491 21.7438 52.5491 21.563 52.5491L21.1912 52.4973C21.1912 52.4973 21.1912 52.5335 21.1912 52.5542C21.2038 52.5947 21.2038 52.6381 21.1912 52.6785C21.0599 53.184 20.7635 53.6308 20.3494 53.9475C19.982 54.2284 19.5623 54.4326 19.115 54.5483C18.192 54.7736 17.2285 54.7736 16.3055 54.5483C15.9203 54.4587 15.5435 54.3356 15.1796 54.1805C14.9823 54.0812 14.7909 53.9705 14.6063 53.8491C14.1965 53.583 13.8306 53.2544 13.5217 52.8754C13.2209 52.4928 12.998 52.0546 12.8658 51.5857C12.8035 51.4026 12.7772 51.2091 12.7884 51.016C12.7431 50.5191 12.8456 50.0199 13.0828 49.5813C12.9406 49.4712 12.8044 49.3537 12.6747 49.2291C12.3146 48.902 12.0262 48.5034 11.8278 48.0586C11.7358 47.8729 11.683 47.6701 11.6728 47.463C11.6289 47.0608 11.712 46.655 11.9104 46.3028C11.9901 46.1396 12.1112 46.0003 12.2616 45.8988C12.1789 45.7434 12.148 45.645 12.1686 45.6709C12.0157 45.2851 12.0157 44.8552 12.1686 44.4693C12.2335 44.2731 12.3676 44.1074 12.5456 44.0032C12.6334 44.0032 12.6541 44.0757 12.6283 44.2984C12.5673 44.6568 12.6389 45.0251 12.8297 45.3343C13.2617 45.8602 13.8123 46.2756 14.4359 46.5462C15.0195 46.8363 15.4688 47.0124 15.4688 47.0124C15.8252 47.1833 16.1867 47.349 16.5585 47.5044C17.5914 47.9239 18.6244 48.2761 19.6573 48.6335C19.9207 48.7215 20.1737 48.8096 20.4681 48.9132L20.8606 49.0634L21.2428 49.2032C21.7493 49.3818 22.2669 49.5271 22.7922 49.6383C22.9523 49.6751 23.1144 49.7028 23.2777 49.7212H23.5049H23.5617C23.5939 49.7071 23.6236 49.6879 23.6495 49.6642C23.6688 49.6272 23.6861 49.5892 23.7012 49.5502V49.5192C23.3496 49.4755 23.0035 49.3956 22.6683 49.2809C22.2613 49.1478 21.8614 48.994 21.4701 48.8199C21.0827 48.649 20.7522 48.504 20.3597 48.3486C18.8464 47.7168 17.3539 47.0486 15.882 46.2769L14.9265 45.759C14.9265 45.759 14.1105 45.241 13.3771 44.661C13.0226 44.3921 12.6925 44.0923 12.3907 43.7649C12.253 43.6269 12.1379 43.4678 12.0498 43.2936C11.9881 43.19 11.9362 43.0807 11.8949 42.9673C11.8525 42.8421 11.8299 42.7111 11.8278 42.5789C11.8287 42.4681 11.8521 42.3586 11.8965 42.2571C11.9408 42.1556 12.0053 42.0642 12.086 41.9884C12.1612 41.9052 12.2556 41.8418 12.361 41.8039C12.4664 41.7659 12.5795 41.7546 12.6902 41.7709C12.778 41.802 12.7367 41.8848 12.5921 42.0558C12.5051 42.145 12.4474 42.2589 12.4268 42.3821C12.4164 42.4566 12.429 42.5325 12.463 42.5996C12.5069 42.686 12.5644 42.7647 12.6334 42.8327C13.1661 43.2963 13.7606 43.6833 14.3997 43.9825C14.9885 44.288 15.4326 44.5004 15.4326 44.5004C15.7838 44.6972 16.1454 44.8837 16.5069 45.0701C17.9272 45.7952 19.3991 46.4582 20.8865 47.0745C21.248 47.2195 21.6612 47.3956 22.0175 47.5562C22.3739 47.7168 22.7354 47.8566 23.0866 47.9705C23.4058 48.0834 23.74 48.148 24.0782 48.1622H24.2796C24.3364 48.1622 24.3829 48.1259 24.4345 48.1207L24.5481 48.0586C24.5481 48.0223 24.6101 48.0068 24.636 47.9705C24.657 47.9295 24.683 47.8912 24.7134 47.8566C24.7269 47.8046 24.746 47.7543 24.7702 47.7064C24.8024 47.6133 24.8113 47.5137 24.7961 47.4164C24.7889 47.3157 24.7608 47.2176 24.7137 47.1284C24.6666 47.0392 24.6014 46.9609 24.5223 46.8984C24.5199 46.8709 24.5199 46.8431 24.5223 46.8156C24.4822 46.5604 24.5035 46.2994 24.5843 46.0542L24.011 45.8729C23.3293 45.6709 22.503 45.4482 21.8419 45.2825L20.6902 44.9821L18.8878 44.3709C18.3713 44.2 17.8962 44.0136 17.4055 43.8167C16.9149 43.6199 16.4552 43.4904 15.9646 43.2988C15.4739 43.1072 14.9627 42.9362 14.4565 42.7032C14.1929 42.5822 13.9375 42.4438 13.6922 42.2888C13.5529 42.2022 13.4216 42.1034 13.2997 41.9936C13.2043 41.9166 13.1207 41.8258 13.0518 41.7243C12.9746 41.6259 12.9104 41.518 12.8607 41.4032C12.7887 41.1563 12.7887 40.8939 12.8607 40.647C12.9004 40.4929 12.9522 40.3423 13.0156 40.1964C13.1241 39.9219 13.2429 39.6785 13.3668 39.435C13.6095 38.9534 13.8833 38.4924 14.1157 38.0366C14.2396 37.8139 14.3584 37.586 14.472 37.3685L14.6166 37.0629V37.0163L14.5547 36.8609C14.5162 36.7648 14.4713 36.6714 14.4204 36.5812C14.3056 36.3885 14.1761 36.205 14.033 36.0322C12.6846 34.296 11.7553 32.2703 11.3181 30.1137C10.8808 27.9571 10.9474 25.7283 11.5127 23.6019C12.0572 21.4717 13.092 19.4992 14.534 17.8425C15.9864 16.1913 17.8249 14.9278 19.8845 14.1652C20.1376 14.0616 20.401 13.9891 20.6592 13.9114L21.4339 13.6783L22.2241 13.5074C22.4875 13.4504 22.7406 13.3883 23.0194 13.3572L23.8199 13.2484C24.0885 13.207 24.3622 13.207 24.6308 13.1863C24.8994 13.1656 25.1473 13.1397 25.4416 13.15H26.2525C28.4342 13.2272 30.5693 13.8053 32.4933 14.8396C34.4174 15.874 36.0793 17.3372 37.3512 19.1166L37.346 19.158ZM19.9103 52.3056C19.9309 52.2839 19.9555 52.2663 19.9827 52.2538L20.0343 52.2228C19.9948 52.2264 19.955 52.2264 19.9155 52.2228L19.8742 52.4351C19.8909 52.4006 19.903 52.364 19.9103 52.3263V52.3056ZM13.4133 50.1303C13.4168 50.2259 13.4271 50.3211 13.4443 50.4152L13.656 50.3271L13.7903 50.2702L13.8987 50.2339L14.0279 50.1976L13.7851 50.0475C13.6612 49.9646 13.5166 49.8713 13.372 49.7626C13.3875 49.8817 13.3926 50.0008 13.4133 50.151V50.1303ZM22.5185 50.9642C21.9447 50.8356 21.3791 50.673 20.8245 50.4773L20.4165 50.3323L20.024 50.1769L19.2544 49.9128C18.1905 49.5554 17.1111 49.1877 16.0524 48.7474C15.7167 48.6076 15.381 48.4574 15.0505 48.302C15.0505 48.302 14.8336 48.1829 14.534 47.9913C14.1452 47.7616 13.7724 47.5055 13.4184 47.2247C13.0401 46.9329 12.7061 46.5874 12.4268 46.1992L12.37 46.1164C12.3726 46.1335 12.3726 46.151 12.37 46.1681C12.2937 46.5295 12.3025 46.9037 12.3959 47.261C12.678 47.8541 13.1535 48.3328 13.7438 48.618C14.0175 48.7733 14.2603 48.8873 14.4514 48.9701L14.7457 49.0996C15.0918 49.2757 15.4533 49.4311 15.82 49.5761C16.3933 49.7988 16.9872 49.9905 17.5863 50.1614C18.1854 50.3323 18.8413 50.5084 19.4404 50.6793C20.0311 50.8601 20.631 51.0088 21.2376 51.1247C21.7392 51.2481 22.2651 51.2284 22.756 51.0678C22.8077 51.0514 22.8566 51.0269 22.9007 50.9953C22.787 50.9642 22.6476 50.9642 22.5185 50.9642ZM19.3784 43.159L20.0188 43.3817L20.3235 43.4853L20.716 43.6147C20.716 43.5681 20.716 43.5215 20.716 43.4801C20.7102 43.4661 20.7072 43.4512 20.7072 43.4361C20.7072 43.4209 20.7102 43.406 20.716 43.392C21.0311 42.7291 21.3306 42.0558 21.6405 41.3721C22.2072 40.0587 22.8486 38.779 23.5617 37.5394C24.288 36.2213 25.2842 35.0722 26.4849 34.1677L27.0013 33.8517L27.4713 33.5876L28.3958 33.0697C28.9604 32.7705 29.4934 32.4148 29.9865 32.0079C30.1843 31.8494 30.3477 31.652 30.4668 31.4278C30.5011 31.3568 30.5188 31.2788 30.5184 31.1999C30.5171 31.1173 30.4977 31.036 30.4616 30.9617C30.1596 30.4911 29.7392 30.1088 29.2428 29.8533C29.0778 29.7632 28.905 29.6887 28.7263 29.6306C28.7686 29.8163 28.7962 30.0051 28.8089 30.1951C28.8218 30.3969 28.8218 30.5993 28.8089 30.8011V30.9513V31.1326C28.7916 31.2619 28.7657 31.39 28.7315 31.5159C28.6419 31.8199 28.4617 32.0892 28.215 32.2876C27.9581 32.4931 27.6399 32.6062 27.3112 32.6087C26.7739 32.601 26.2607 32.3836 25.8806 32.0027C25.6833 31.8144 25.5275 31.5866 25.4234 31.3342C25.3193 31.0817 25.2692 30.8101 25.2764 30.537C25.3146 30.0325 25.5159 29.5542 25.8496 29.1748C25.9898 29.0033 26.1492 28.8486 26.3248 28.7139C26.126 28.6624 25.9202 28.6432 25.7153 28.6569C25.436 28.6758 25.1601 28.7297 24.8942 28.8174C24.9322 29.181 24.9113 29.5483 24.8322 29.9051C24.8065 30.0272 24.7702 30.1468 24.7238 30.2625C24.6566 30.4255 24.568 30.5788 24.4604 30.7183C24.3548 30.8526 24.2209 30.9618 24.0682 31.038C23.9154 31.1141 23.7478 31.1553 23.5772 31.1585C23.412 31.1585 23.2519 31.0756 23.0608 31.0394C22.9747 31.0161 22.8928 30.9794 22.818 30.9306L22.6218 30.8115C22.3351 30.6054 22.1405 30.2949 22.0795 29.9465C22.0519 29.6057 22.1372 29.2653 22.3222 28.978C22.4567 28.7832 22.6185 28.6087 22.8025 28.4601C22.9652 28.3215 23.1378 28.1951 23.319 28.082C23.2652 27.9671 23.1975 27.8593 23.1176 27.7609C22.9952 27.5934 22.8194 27.4728 22.6194 27.4191C22.4193 27.3654 22.207 27.3818 22.0175 27.4657C21.7691 27.5875 21.5519 27.7646 21.3823 27.9836L21.4597 28.1545C21.5382 28.3787 21.5885 28.6118 21.6095 28.8485C21.6148 28.9192 21.6148 28.9902 21.6095 29.0609C21.6058 29.141 21.5955 29.2207 21.5785 29.2991C21.5617 29.3965 21.5304 29.4908 21.4855 29.5788C21.4353 29.685 21.3691 29.7828 21.2893 29.8688C21.2 29.9573 21.0972 30.0308 20.9846 30.0864C20.8821 30.1294 20.7745 30.159 20.6644 30.1744C20.5749 30.1796 20.4853 30.1796 20.3958 30.1744L20.1737 30.1382H20.1221C20.0724 30.1254 20.024 30.1081 19.9775 30.0864C19.8796 30.0449 19.7916 29.9831 19.7193 29.9051C19.607 29.7897 19.5269 29.6469 19.4868 29.4908C19.4546 29.3196 19.4546 29.144 19.4868 28.9728C19.5421 28.5999 19.6646 28.2401 19.8484 27.9111C19.7906 27.8268 19.7285 27.7456 19.6625 27.6676C19.508 27.4795 19.3117 27.3305 19.0892 27.2326C19.019 27.2036 18.9425 27.1929 18.8671 27.2015C18.7951 27.2093 18.7261 27.2341 18.6657 27.274C18.4719 27.4193 18.3116 27.6048 18.1957 27.8178C18.0795 28.0254 18.0157 28.2584 18.0098 28.4963C18.0439 29.0813 18.2212 29.6488 18.5262 30.1485C18.8722 30.72 19.2498 31.2716 19.6573 31.8007C20.1065 32.3907 20.5105 33.014 20.8658 33.6653C20.9148 33.7628 20.9579 33.8631 20.9949 33.9657C21.032 34.0792 21.0614 34.1952 21.0827 34.3127C21.1309 34.5269 21.1551 34.7457 21.155 34.9653C21.1558 35.3595 21.1212 35.753 21.0517 36.141C21.0517 36.3326 20.9794 36.5087 20.9433 36.69C20.9071 36.8713 20.8606 37.0526 20.8141 37.2079L20.6954 37.6326V37.7103L20.5972 38.0314C20.5353 38.2438 20.4681 38.451 20.401 38.6581C20.401 38.6581 20.0446 39.549 19.6779 40.3984C19.3112 41.2478 18.9601 42.0661 18.9704 41.9884L18.5779 42.8275L19.3784 43.159ZM27.492 30.7286C27.4985 30.3782 27.4515 30.0289 27.3525 29.6928C27.2497 29.7457 27.1542 29.8118 27.0685 29.8896C26.8966 30.0537 26.7596 30.251 26.6656 30.4696C26.638 30.5441 26.6278 30.6239 26.6359 30.703C26.644 30.782 26.67 30.8581 26.7121 30.9254C26.8135 31.0881 26.9662 31.212 27.146 31.2776C27.2122 31.2927 27.2811 31.2927 27.3474 31.2776C27.3887 31.2776 27.3887 31.2776 27.4042 31.2776C27.4388 31.2282 27.4617 31.1715 27.4713 31.1119C27.4745 31.0601 27.4745 31.0082 27.4713 30.9565L27.492 30.7286ZM23.5411 29.6928L23.4997 29.7445L23.4739 29.7912H23.5049C23.4894 29.8067 23.5152 29.729 23.5411 29.641V29.6928ZM32.3725 16.4078C30.7073 15.3876 28.8309 14.7639 26.8877 14.5847C24.9376 14.41 22.9723 14.6211 21.1034 15.2062C19.2371 15.75 17.5339 16.7482 16.1454 18.1118C14.7591 19.4815 13.712 21.1578 13.0879 23.0063C12.4586 24.8599 12.2453 26.8301 12.463 28.776C12.6817 30.7184 13.3349 32.5863 14.3739 34.2402C14.5082 34.4266 14.627 34.6545 14.7664 34.8151C14.9059 34.9757 15.0866 35.2035 15.2829 35.4314C15.4664 35.6731 15.6239 35.9335 15.7528 36.2083C15.82 36.3534 15.8665 36.4776 15.9233 36.633C16.0212 36.8659 16.0375 37.1251 15.9698 37.3685L15.9078 37.5498L15.8561 37.6689L15.7683 37.8657L15.5824 38.2283L15.2106 38.9171C14.9627 39.3625 14.6941 39.8079 14.5082 40.243C14.404 40.4485 14.3109 40.6594 14.2293 40.8749L14.188 41.0095C14.2173 41.0409 14.2503 41.0687 14.2861 41.0924C14.3681 41.1553 14.4544 41.2124 14.5443 41.2633C14.7421 41.3772 14.9455 41.4809 15.1538 41.5741C15.5928 41.7657 16.0576 41.9366 16.5275 42.092C16.9975 42.2474 17.4881 42.4028 18.0046 42.61L18.1079 42.6773C18.1079 42.4546 18.1699 42.1594 18.237 41.8227C18.3713 41.1028 18.5934 40.2689 18.7535 39.5852L19.053 38.4302L19.2493 37.8191L19.3423 37.5135L19.3887 37.3581L19.4146 37.2804L19.5282 36.8506C19.7084 36.2257 19.8039 35.5794 19.8122 34.929V34.7167C19.8122 34.6597 19.7864 34.6027 19.7761 34.5458C19.7462 34.4167 19.6974 34.2928 19.6315 34.178C19.4746 33.8908 19.3022 33.6125 19.115 33.3442C18.7173 32.7745 18.2835 32.1944 17.8755 31.5728C17.4316 30.9369 17.0836 30.2388 16.8426 29.5011C16.7102 29.0743 16.6645 28.6252 16.7083 28.1804C16.771 27.7142 16.9485 27.271 17.2247 26.8907C17.4904 26.4724 17.8756 26.1439 18.33 25.9481C18.6029 25.8507 18.8947 25.8188 19.1821 25.8549C19.4402 25.8962 19.6886 25.9839 19.9155 26.1138C20.2187 26.2887 20.4881 26.5167 20.7108 26.7872L20.7935 26.7095C21.1483 26.3876 21.584 26.1691 22.0537 26.0776C22.5588 25.9879 23.0793 26.0777 23.5256 26.3314C23.9411 26.5783 24.2793 26.9372 24.5017 27.3672C24.5327 27.4242 24.5533 27.476 24.5792 27.533C24.7444 27.4812 24.9149 27.4398 25.0956 27.4035C25.5143 27.3235 25.9424 27.3061 26.3661 27.3517C26.8327 27.4142 27.2764 27.5922 27.6572 27.8696C27.7839 27.9656 27.9015 28.0731 28.0084 28.1908C28.1324 28.1908 28.2512 28.1908 28.37 28.1908C28.7951 28.2418 29.2098 28.3589 29.5991 28.5378C29.9686 28.7103 30.3155 28.9278 30.6321 29.1852C30.9771 29.445 31.2772 29.76 31.5204 30.1175C31.6636 30.3318 31.7668 30.5705 31.8251 30.8218C31.8923 31.0975 31.8923 31.3853 31.8251 31.6609C31.6905 32.1271 31.4294 32.5467 31.071 32.8729C30.4935 33.3847 29.8551 33.823 29.1705 34.178C28.5404 34.5354 27.8793 34.8513 27.3525 35.2139C26.2767 35.9994 25.3863 37.0126 24.7444 38.1816C24.0412 39.3959 23.4118 40.6516 22.8593 41.9418C22.5546 42.6151 22.2499 43.2988 21.9245 43.9825C21.8975 44.0114 21.8662 44.0358 21.8316 44.055L22.6889 44.4227C23.2378 44.6473 23.7695 44.9122 24.2796 45.2151L24.5481 45.3757C24.5117 45.2709 24.4942 45.1604 24.4965 45.0494C24.4965 44.9976 24.4965 44.9976 24.4965 44.9717C24.889 44.4124 25.2712 43.7701 25.6379 43.1383C26.1544 42.2526 26.6295 41.3825 27.1356 40.4554C27.2596 40.2326 27.3784 39.9996 27.5126 39.7872H28.277C28.5183 39.7944 28.7599 39.7857 29.0001 39.7613C29.4723 39.7327 29.9409 39.6599 30.3996 39.5438C32.2603 39.0671 33.9332 38.036 35.1976 36.5864C36.497 35.121 37.469 33.394 38.0484 31.521C38.6559 29.6555 38.8687 27.6833 38.6733 25.7306C38.5742 24.7704 38.3466 23.8279 37.9968 22.9286C37.9141 22.7059 37.8109 22.4883 37.7076 22.276C37.6045 22.0562 37.4872 21.8434 37.3564 21.6389C37.1203 21.2067 36.8599 20.7882 36.5765 20.3855C35.4775 18.7573 34.0441 17.3835 32.3725 16.356V16.4078Z" fill="white"/>
<path d="M48.5789 26.1397H47.8197C47.5792 26.1609 47.3372 26.1609 47.0966 26.1397C46.4614 26.0931 46.0172 25.8652 46.952 25.4146C47.387 25.1869 47.8395 24.9947 48.3051 24.8397C49.9325 24.5511 51.5864 24.4417 53.2374 24.5134H53.3561L53.4491 24.5548L53.5782 24.6118H53.6195L53.6609 24.6377L53.7538 24.6999C53.8182 24.757 53.8739 24.8233 53.9191 24.8967L53.9707 25.0106C54.0098 25.1424 54.0098 25.2828 53.9707 25.4146C53.9349 25.5456 53.8633 25.664 53.7641 25.7564L53.6712 25.8186C53.6142 25.8576 53.5515 25.8873 53.4853 25.9066H53.3768H53.2838H53.227C53.227 25.9066 53.2012 25.8652 53.2012 25.8548C53.1875 25.7501 53.1561 25.6485 53.1082 25.5544L53.0256 25.6943L52.9998 25.7513L53.1547 25.7823C51.6211 25.7395 50.0873 25.8593 48.5789 26.1397Z" fill="white"/>
<path d="M1.22487 11.6325C1.25658 11.621 1.29129 11.621 1.323 11.6325C2.01892 11.9696 2.69027 12.3556 3.33204 12.7875C3.81234 13.1189 4.28747 13.4608 4.73679 13.8233C5.02601 14.0512 5.29456 14.2946 5.56828 14.5381C5.56828 14.5381 6.25518 15.2217 6.8646 15.9261C7.47403 16.6305 8.05246 17.3245 7.99048 17.2779C8.91495 18.4743 9.37459 19.3859 7.47402 17.8269C6.90592 17.3815 6.24487 16.8221 5.71808 16.3923C5.19129 15.9624 4.79359 15.6516 4.79359 15.6516C4.49921 15.3823 4.19453 15.1337 3.88465 14.8695C3.46115 14.5173 3.01698 14.2014 2.57282 13.8958C1.98351 13.5071 1.36737 13.161 0.729058 12.86C0.701266 12.8332 0.678519 12.8016 0.661916 12.7667C0.300394 11.9432 0.858184 11.6635 1.22487 11.6325Z" fill="white"/>
<path d="M41.545 14.3775C40.9975 14.5173 40.5895 14.4034 41.1473 13.7508C41.3935 13.4261 41.6609 13.1181 41.9478 12.8289L42.5107 12.4612C42.8464 12.2384 43.3061 11.9432 43.7864 11.6532C44.2392 11.3823 44.7103 11.1434 45.1963 10.9384C45.4405 10.835 45.6926 10.7518 45.9503 10.6898C45.9503 10.6898 45.9968 10.7209 46.002 10.7313C46.1324 10.9036 46.2255 11.1013 46.2753 11.3118C46.3251 11.5223 46.3305 11.7409 46.2912 11.9536C46.2912 11.9898 46.2912 11.9898 46.2912 11.995L46.1259 12.0364C45.989 12.0791 45.8546 12.1293 45.7231 12.1866C45.3001 12.3606 44.8909 12.5667 44.4991 12.803C44.0601 13.0568 43.6211 13.3209 43.2958 13.554L42.7431 13.9165L42.144 14.1703C41.9524 14.2609 41.7515 14.3304 41.545 14.3775Z" fill="white"/>
<path d="M16.9821 8.55077C16.6467 8.27263 16.3325 7.96965 16.0422 7.64439L15.6703 7.04877C15.4038 6.61898 15.1141 6.20403 14.8027 5.80574C14.5147 5.42348 14.1838 5.07589 13.8162 4.76988C13.7078 4.68079 13.5921 4.6011 13.4702 4.53163C13.4282 4.50539 13.3831 4.48451 13.3359 4.46948C13.3334 4.44884 13.3334 4.42796 13.3359 4.40732C13.3447 4.14158 13.3971 3.87911 13.4909 3.63042C13.5554 3.47262 13.665 3.33748 13.8059 3.24197C13.8369 3.24197 13.8421 3.24197 13.8576 3.24197C14.1414 3.36086 14.4059 3.52146 14.6426 3.71848C15.087 4.08497 15.4874 4.50212 15.8356 4.96151C16.2074 5.43801 16.538 5.92486 16.7704 6.2926L17.1526 6.90375L17.4056 7.55116C17.4978 7.7498 17.5671 7.95832 17.6122 8.17269C17.7516 8.70098 17.6897 9.17229 16.9821 8.55077Z" fill="white"/>
<path d="M42.6193 36.8402C42.9731 37.0647 43.3081 37.3176 43.6212 37.5964C43.6212 37.5964 44.2771 38.4665 44.9433 39.3366C45.2739 39.7717 45.6096 40.2016 45.8678 40.5175C45.9969 40.6781 46.1053 40.8127 46.1776 40.8956L46.2706 40.9992L46.3016 41.0406C46.3038 41.0596 46.3038 41.0787 46.3016 41.0976C46.1873 41.3367 46.0256 41.5499 45.8265 41.7243C45.6987 41.8336 45.5462 41.9101 45.3823 41.947C45.3462 41.947 45.341 41.947 45.3307 41.947C45.3203 41.947 44.5766 41.051 43.9207 40.186L42.6141 38.4613C42.6141 38.4613 42.0047 37.2804 42.0615 37.3063C41.8652 36.7936 41.8652 36.3378 42.6193 36.8402Z" fill="white"/>
<path d="M6.87479 27.7971C7.52553 27.8541 7.98003 28.0768 7.01425 28.5326C6.56489 28.756 6.10069 28.9481 5.62497 29.1075L0.331255 29.9983C0.310634 29.9871 0.292924 29.9711 0.279591 29.9517C0.140972 29.78 0.0498838 29.5748 0.0154343 29.3566C-0.0190153 29.1384 0.00438404 28.9149 0.083333 28.7087C0.083333 28.6724 0.0833321 28.6724 0.114319 28.6673L5.33058 27.7971C5.33058 27.7971 6.93677 27.7609 6.87479 27.7971Z" fill="white"/>
<path d="M31.9644 1.20134C32.2278 0.973455 32.424 0.740374 32.6461 0.719656C32.7042 0.71355 32.7628 0.719119 32.8187 0.736016C32.8745 0.752912 32.9265 0.780799 32.9715 0.818065C33.068 0.894352 33.1502 0.987311 33.2142 1.09257C33.2273 1.10728 33.2372 1.12452 33.2435 1.14323C33.2497 1.16193 33.252 1.1817 33.2504 1.20134C33.2621 1.62488 33.2292 2.04847 33.1522 2.46508C33.0851 2.85353 33.0024 3.23163 32.9095 3.60454V3.63043C32.8234 3.97571 32.7305 4.321 32.6306 4.66629C32.6306 4.66629 32.3156 5.56749 31.9747 6.43244C31.6338 7.29738 31.3033 8.13644 31.3136 8.05875C31.1472 8.5435 30.8953 8.99435 30.5699 9.38983C30.415 9.48306 30.3582 9.08425 30.5699 7.87747C30.6939 7.15754 30.8798 6.32368 31.0244 5.63483C31.169 4.94599 31.2723 4.4643 31.2723 4.4643C31.3859 4.07586 31.4892 3.68223 31.5874 3.28861V3.2627C31.67 2.91051 31.7475 2.56349 31.8095 2.22684C31.8651 1.91051 31.8927 1.58987 31.8921 1.26866C31.9101 1.24041 31.935 1.21725 31.9644 1.20134Z" fill="white"/>
</svg>
