<svg width="113" height="63" viewBox="0 0 113 63" fill="none" xmlns="http://www.w3.org/2000/svg">
<path d="M71.7507 40.9488L72.7979 40.3327L73.8099 39.6797C74.156 39.4588 74.4869 39.2201 74.8009 38.9651C74.9625 38.8419 75.1312 38.7248 75.2858 38.5955L75.7427 38.1889C78.2097 35.9155 80.0132 33.1531 80.9997 30.1371C81.538 28.5779 81.8705 26.9698 81.9907 25.3442C81.9907 24.9314 82.0539 24.5187 82.0399 24.1121V23.496L81.9907 22.88C81.9907 22.461 81.8923 22.0483 81.8291 21.6479C81.7658 21.2474 81.7096 20.81 81.5971 20.4158C80.8351 17.0169 79.0712 13.8523 76.4806 11.2366C73.7847 8.57636 70.4927 6.43107 66.8099 4.93436C63.0837 3.38654 59.139 2.28028 55.0799 1.64467C50.9683 0.968149 46.787 0.672875 42.6049 0.763718C38.3927 0.881801 34.2 1.31877 30.0737 2.06975L28.5345 2.37777C28.0191 2.47634 27.506 2.58722 26.9953 2.71043L25.4702 3.07391L23.9591 3.48666L23.2001 3.69609L22.4552 3.93636L20.9722 4.41074L19.5103 4.95286L18.8075 5.22393L18.1047 5.52579L16.6991 6.14184L15.2935 6.81948C14.3587 7.25072 13.5013 7.79901 12.6157 8.29186C10.8889 9.34785 9.2815 10.5464 7.81548 11.8711C4.87348 14.4952 2.61696 17.6481 1.20199 21.1119C-0.204533 24.5209 -0.381214 28.2265 0.695943 31.7265C1.25365 33.4157 2.0718 35.0303 3.1277 36.5255C4.12039 38.0013 5.27621 39.3879 6.57851 40.6654C7.85874 41.9225 9.31583 43.0321 10.9149 43.9674C12.472 44.8712 14.1185 45.6505 15.8346 46.2961C16.6709 46.6288 17.5143 46.9122 18.3577 47.2017C18.7864 47.3373 19.1871 47.4851 19.6439 47.6083C20.1007 47.7315 20.5224 47.8301 20.9581 47.9163C22.6728 48.2497 24.4066 48.5026 26.152 48.6741C27.8598 48.8527 29.5465 48.9944 31.2122 49.0683L32.6178 49.1176H33.6861C33.6861 49.4565 33.6861 49.7953 33.6229 50.1341C33.3369 53.3054 32.0817 56.3506 29.9893 58.9498C29.7433 59.2825 29.4482 59.5659 29.1811 59.8985C28.914 60.2312 28.6048 60.5146 28.3096 60.8041C28.0144 61.0937 27.7052 61.4202 27.3749 61.6666L26.8829 62.0794L26.7634 62.1841C26.2996 61.6235 27.3819 62.9603 27.2765 62.8001H27.3116H27.3538L27.656 62.6584C29.2795 61.8822 30.8819 61.0875 32.4632 60.2435C35.6859 58.5759 38.7591 56.6956 41.6561 54.619C43.107 53.5691 44.4737 52.4329 45.7464 51.2184L46.8639 50.0663C46.9442 49.9766 47.017 49.8819 47.0818 49.783C47.2154 49.6105 47.384 49.3764 47.5527 49.1669C47.7795 48.8841 47.9748 48.5829 48.136 48.2675C48.5929 47.4605 48.7545 46.9122 47.7425 48.0088C47.5808 48.1689 47.4332 48.3537 47.2575 48.52L46.7585 49.0068L46.3931 49.3764L46.2455 49.5242L45.4934 50.2265C44.2336 51.4745 42.8712 52.6399 41.4171 53.7134C38.4701 55.8424 35.3377 57.7663 32.0486 59.4673C31.163 59.9355 30.2658 60.3934 29.3568 60.8411C29.5255 60.6686 29.6941 60.5023 29.8558 60.3236C30.1369 59.9971 30.4391 59.7076 30.6992 59.3379C32.8811 56.6258 34.1896 53.4487 34.4874 50.1403C34.5366 49.6967 34.5506 49.2593 34.5647 48.8158C34.5672 48.7953 34.5672 48.7746 34.5647 48.7541C34.5034 48.6803 34.4242 48.6193 34.3327 48.5755C34.2858 48.4508 34.1883 48.3456 34.0587 48.2798C34.0404 48.2746 34.0207 48.2746 34.0024 48.2798C34.0024 48.2798 33.4542 48.2798 32.6811 48.2798H31.894C30.2775 48.2244 28.6259 48.1011 26.9743 47.941C25.3226 47.7808 23.6078 47.5652 21.921 47.2695C21.0812 47.1302 20.2543 46.9366 19.4471 46.6904L18.2101 46.2776L16.9802 45.8464C15.3192 45.2534 13.7161 44.5425 12.187 43.721C10.6367 42.8795 9.20687 41.8785 7.92791 40.7393C6.62533 39.5634 5.46426 38.2732 4.46303 36.889C3.41294 35.502 2.55864 34.0084 1.91884 32.4411C1.28879 30.855 0.947264 29.1918 0.906779 27.5127C0.870056 25.8014 1.1235 24.0948 1.6588 22.4487C2.80788 19.0937 4.78229 16.0003 7.44296 13.3866C10.1612 10.741 13.3986 8.54391 17.0013 6.89957C20.6514 5.26351 24.5147 4.02231 28.5064 3.20326C30.4954 2.77818 32.5194 2.46402 34.5436 2.1868C36.5677 1.90957 38.6199 1.7309 40.651 1.62617C44.7074 1.42444 48.7766 1.58547 52.7957 2.10671C56.7484 2.59638 60.6187 3.50451 64.3219 4.81118C67.9299 6.0648 71.2492 7.88061 74.1192 10.1708C76.8502 12.3911 78.8977 15.1796 80.072 18.2781C80.6235 19.7881 80.9749 21.3488 81.1192 22.9293C81.2341 24.4703 81.1326 26.0179 80.817 27.5373C80.2397 30.4639 78.9423 33.2451 77.0148 35.6877C76.1058 36.8451 75.0124 37.8824 73.7678 38.768C72.5561 39.6144 71.2628 40.3667 69.9023 41.0165C67.3209 42.2328 64.606 43.2173 61.7988 43.9551C59.261 44.6349 56.6795 45.1821 54.0678 45.5938L52.1351 45.8834L51.7907 45.9327L50.5818 46.1544C49.9915 46.2653 49.4011 46.3577 49.4573 46.3639C48.4804 46.561 47.8549 46.8013 49.4573 46.7951C50.4202 46.7951 51.7837 46.715 51.7837 46.715L52.1351 46.6657L52.5427 46.6103H52.7606C53.4142 46.5241 54.0749 46.407 54.7425 46.3023C56.0709 46.0743 57.4414 45.8218 58.8329 45.5076C61.7641 44.8755 64.628 44.0243 67.3932 42.9633C68.8979 42.3824 70.354 41.7092 71.7507 40.9488Z" fill="white"/>
<path d="M112.528 59.2517L112.395 59.1654L111.867 58.8451L110.813 58.1921L109.408 57.3543C108.705 56.923 108.002 56.4918 107.299 56.0544C105.895 55.1966 104.559 54.2559 103.3 53.239C102.048 52.2397 100.975 51.0809 100.116 49.8014L99.7649 49.2532L99.4697 48.6802C99.4521 48.6638 99.4305 48.6512 99.4065 48.6433C99.3326 48.6061 99.2516 48.5811 99.1675 48.5693C99.4656 48.5169 99.7557 48.4341 100.032 48.3229C100.482 48.1689 101.002 47.9348 101.438 47.7561L102.14 47.4112L102.506 47.1956L103.117 46.8013C103.595 46.5117 104.031 46.1852 104.481 45.8526C104.931 45.5199 105.352 45.1687 105.746 44.7929C106.139 44.4171 106.519 44.029 106.898 43.6348C107.254 43.2249 107.584 42.7992 107.889 42.3595C108.196 41.9224 108.473 41.4699 108.719 41.0042C108.958 40.5324 109.167 40.049 109.344 39.5565C109.705 38.5739 109.94 37.5595 110.047 36.5317C110.234 34.4892 110.028 32.4336 109.436 30.4513C109.12 29.4623 108.689 28.5045 108.15 27.5928C107.603 26.6875 106.953 25.8329 106.21 25.0423C105.476 24.2527 104.672 23.5152 103.806 22.8368C102.958 22.1435 102.051 21.5072 101.093 20.9333C99.1638 19.8188 97.1047 18.8875 94.9506 18.1549C93.8893 17.7791 92.807 17.4402 91.7177 17.1261L90.0731 16.6763C89.5038 16.5408 88.9556 16.4238 88.3934 16.3129C87.8311 16.202 87.4234 16.1219 86.9244 16.048H86.8471C86.6012 16.1712 86.5238 16.3067 86.5238 16.4237C86.4395 16.3498 86.3833 16.3437 86.3762 16.4237L86.313 16.3745L86.1865 16.2697V16.319V16.4114L86.2919 16.7811L86.5098 17.5326C86.6574 18.044 86.7839 18.5183 86.9174 19.0112C87.0509 19.504 87.1493 19.9907 87.2548 20.4897C87.4305 21.2782 87.5781 22.0729 87.7257 22.8738L87.5992 22.806L87.6835 22.9169L87.7467 23.0032C87.7467 23.1449 87.803 23.2866 87.8241 23.4283L88.07 24.839V25.1224V25.9356C88.0529 26.4223 88.0036 26.9077 87.9224 27.3895C87.8718 27.8749 87.7825 28.3566 87.6554 28.831C87.5359 29.3054 87.4305 29.7798 87.2899 30.2541L86.7768 31.6402L86.6503 31.9914L86.4887 32.3241L86.1584 33.0017L85.8351 33.6732C85.7226 33.895 85.5751 34.1044 85.4486 34.2893C85.1885 34.7205 84.9355 35.1579 84.6544 35.5768L83.7477 36.8089C82.4935 38.4231 81.0366 39.9089 79.4043 41.2383L78.7999 41.7496L78.1603 42.2178L76.8671 43.1604L75.4686 44.066L74.7657 44.4911L74.0629 44.9038L73.3179 45.3043L73.1774 45.1934L73.1071 45.1318V45.1626V45.3166V45.3782C71.5073 46.2319 69.8231 46.9576 68.0749 47.5467C65.9861 48.2409 63.8287 48.7647 61.6301 49.1115C61.1522 49.1977 60.6672 49.2655 60.1893 49.3332C60.1643 49.3425 60.1425 49.3574 60.1261 49.3764L60.0347 49.4811C59.9674 49.5269 59.9151 49.5875 59.883 49.6568C59.8509 49.726 59.8402 49.8014 59.852 49.8754C59.852 49.8754 59.852 49.9123 59.852 49.9247C60.1407 50.2962 60.4577 50.6502 60.8008 50.9843C62.3219 52.3988 64.1756 53.5066 66.2335 54.2309C67.6862 54.7578 69.1954 55.1562 70.7386 55.4198L70.8932 55.4999V55.4383C71.4344 55.5307 71.9826 55.6108 72.5308 55.6724C74.6829 55.9238 76.8575 55.9939 79.0248 55.8819C80.1071 55.8203 81.1895 55.7217 82.2577 55.5862L82.8833 55.4999H83.0941L83.5228 55.4322C83.5228 55.4322 84.1343 55.2966 84.7246 55.1488C85.1037 55.0606 85.4768 54.9536 85.8421 54.8284C86.121 54.7433 86.3893 54.6339 86.6433 54.5019L86.9596 54.6066L87.2478 54.7299C88.0982 55.1303 89.3562 55.58 89.3562 55.58L90.4034 55.8819C91.7669 56.27 93.1444 56.6273 94.5219 56.96L94.796 57.2002L94.9857 57.3604V57.305L94.9436 57.1941L94.8944 57.0709L95.4285 57.2064C97.2066 57.613 99.0059 57.9826 100.819 58.2907L100.967 58.3892L100.911 58.3091C102.492 58.574 104.08 58.7958 105.676 58.9252C106.54 59.0237 107.412 59.0792 108.283 59.1408L108.937 59.1778H109.267H109.675L112.205 59.2455H112.528C112.528 59.2455 112.563 59.2455 112.528 59.2455V59.2517ZM63.4152 49.6413L62.86 49.8322L62.5157 49.9493L62.4524 49.9123C62.3907 49.8818 62.3245 49.859 62.2556 49.8446C62.6211 49.7891 63.0146 49.7214 63.4152 49.6413ZM62.846 50.2019H62.8038H62.846ZM61.5879 50.1341L61.4052 50.3497C61.3068 50.2512 61.2014 50.1464 61.11 50.0417L61.7425 49.9431L61.5879 50.1341ZM62.0799 50.9781L63.1201 51.6742C63.598 51.9946 64.0759 52.2903 64.5679 52.623C63.6678 52.1622 62.8327 51.61 62.0799 50.9781ZM65.3972 50.9781L64.9193 50.7071H65.0598L65.4886 50.7748H65.5588L65.3972 50.9781ZM66.1 49.6782L66.4163 49.5797C66.3179 49.6598 66.2335 49.7214 66.1984 49.7583C66.1633 49.7953 66.1141 49.6906 66.0789 49.6598L66.1 49.6782ZM66.5709 50.0848L66.3249 49.8754C66.2862 49.8456 66.2509 49.8126 66.2195 49.7768L66.353 49.6906V49.7337L66.4092 49.8261L66.5287 50.017L66.5779 50.0848H66.5709ZM68.5177 50.245C68.2225 50.0027 67.9203 49.7686 67.6111 49.5427L67.4424 49.3579L67.3791 49.2901L67.8641 49.1423C67.9273 49.2532 67.9836 49.3641 68.0538 49.4688C68.2085 49.7337 68.3771 49.9924 68.5458 50.2512L68.5177 50.245ZM68.9956 48.8404L68.9464 48.7973L69.2275 48.7049L68.9956 48.8404ZM69.586 48.7419C69.586 48.7419 69.5298 48.6864 69.4946 48.6618C69.8812 48.5262 70.2607 48.3845 70.6402 48.2305C70.6402 48.286 70.6894 48.3414 70.7175 48.3969L69.586 48.7419ZM75.581 51.3662C75.7075 51.588 75.8199 51.8098 75.9324 52.0377C75.7426 51.8036 75.5599 51.5695 75.3913 51.3231L75.581 51.3662ZM71.2727 54.7545C71.271 54.7299 71.271 54.7052 71.2727 54.6806L71.1673 54.3356L71.3501 54.465C71.5268 54.5843 71.7122 54.6934 71.9053 54.7915L72.0388 54.8592L71.2727 54.7545ZM72.4816 54.1384L72.3761 54.0769C72.2087 53.9903 72.0468 53.8957 71.8912 53.7935L71.8139 53.738L71.9685 53.6148L72.4253 53.9783L72.4886 54.1384H72.4816ZM73.0227 47.0477C73.7255 46.6288 72.095 47.6022 72.2637 47.5036L71.7998 47.7746L71.7085 47.8362L71.6241 47.7623H71.6593C72.3027 47.453 72.9225 47.1073 73.5147 46.7274V46.8074L73.0227 47.0477ZM74.5971 53.5286L74.6533 53.5717C74.6533 53.6394 74.6533 53.7134 74.6533 53.7873H74.4424H74.323L74.3792 53.7442L74.344 53.6887L74.2667 53.5779L74.1192 53.3684L73.5569 52.5613C73.8786 52.892 74.2187 53.2087 74.576 53.5101L74.5971 53.5286ZM74.1261 53.9105V53.9968H74.07L74.1261 53.9105ZM73.7255 55.0564C73.7255 54.9455 73.6623 54.8284 73.6342 54.7175C73.7396 54.7668 73.831 54.8161 73.9364 54.8592L74.323 55.0009C74.4916 55.0502 74.7376 55.0995 74.9555 55.1549C74.5197 55.1118 74.1121 55.081 73.7045 55.0379L73.7255 55.0564ZM75.3913 55.1734C75.3913 55.1057 75.4334 55.0317 75.4474 54.964C75.9394 55.0687 76.4314 55.1488 76.9234 55.2104C76.3892 55.1919 75.8551 55.1549 75.3701 55.1549L75.3913 55.1734ZM77.2115 50.6516L77.0358 50.362C77.1061 50.4606 77.1834 50.553 77.2607 50.6516H77.2115ZM77.2607 48.5817L77.0077 48.2798V48.3168L77.2326 48.5755L77.2607 48.5817ZM102.225 54.1261L102.169 54.2062C101.719 53.738 101.269 53.2698 100.812 52.8078L100.573 52.5737C101.093 53.085 101.641 53.6025 102.204 54.1138L102.225 54.1261ZM99.0902 48.5817C98.9782 48.5878 98.8729 48.6303 98.7949 48.701C98.7169 48.7716 98.6718 48.8653 98.6685 48.9636C98.661 48.9815 98.661 49.0012 98.6685 49.019L98.9848 49.6351L99.0832 49.783C98.7247 49.438 98.3803 49.0991 98.0289 48.748L98.303 48.5755C98.303 48.5755 98.303 48.6125 98.303 48.6063H98.3733L98.5068 48.557L99.5189 48.1874C99.1956 48.3414 98.9988 48.5077 99.048 48.557L99.0902 48.5817ZM96.0119 22.3132C96.799 23.0032 97.558 23.7178 98.289 24.4571C99.1253 25.301 99.9125 26.1758 100.686 27.0691L100.285 27.2971C98.9075 25.5762 97.4761 23.9067 95.9908 22.2886L96.0119 22.3132ZM96.4265 33.1434L96.3633 33.0572C96.1032 32.6259 95.8221 32.2008 95.5269 31.7881L95.4215 31.554C95.7589 31.8867 96.1243 32.2193 96.4125 32.5582L96.4265 33.1434ZM100.482 27.5435C100.411 27.4634 100.348 27.3772 100.285 27.2971L100.348 27.2601L100.426 27.4449L100.482 27.5435ZM98.3241 30.6792C98.3241 30.7655 98.3241 30.8517 98.3803 30.9379C97.8813 30.174 97.3753 29.4163 96.8552 28.6647C97.4156 29.282 97.9008 29.9489 98.303 30.6545L98.3241 30.6792ZM98.4155 34.7759L98.3241 34.9176C98.3139 34.8275 98.3139 34.7367 98.3241 34.6466L98.4155 34.7759ZM97.3121 47.8609L97.9587 47.4789L97.9095 47.3557V47.3126C98.1498 47.2209 98.3844 47.1181 98.6123 47.0046C98.6731 46.9796 98.7318 46.9507 98.788 46.9183C98.7385 47.0291 98.6962 47.1422 98.6615 47.2571L98.4366 47.4481C98.1041 47.6996 97.7518 47.9301 97.3824 48.1381L97.2137 47.9656L97.3121 47.8609ZM99.4205 45.218V45.1872L99.554 44.9777L99.5962 45.0147L99.4205 45.218ZM100.039 42.1378C100.023 42.1017 100.004 42.0667 99.9828 42.033L100.025 42.0823L100.039 42.1378ZM100.039 38.5339C100.095 38.1088 100.151 37.6775 100.201 37.2525L100.257 37.3326C100.383 37.5297 100.496 37.7392 100.615 37.9486L100.77 38.2197L100.39 38.9528C100.306 38.7741 100.187 38.6386 100.074 38.5215L100.039 38.5339ZM100.664 40.6592C100.661 40.6838 100.661 40.7086 100.664 40.7332L100.559 40.5607L100.664 40.6592ZM100.461 46.7643L100.587 46.6411L100.847 46.5425C100.756 46.5795 100.629 46.6596 100.496 46.7274L100.461 46.7643ZM100.643 43.7888L100.482 43.2774L100.7 42.8462L101.016 43.3822L100.643 43.7888ZM101.719 42.6121C101.55 42.3164 101.388 41.9961 101.22 41.7312L101.346 41.4354L101.501 41.608L101.993 42.1439L102.063 42.2178L101.719 42.6121ZM101.719 40.5052C101.722 40.4745 101.722 40.4436 101.719 40.4128V40.4744L101.775 40.6284L101.719 40.5052ZM102.056 35.1271L101.993 35.3797L101.93 35.4228C101.93 35.4228 101.93 35.4228 101.93 35.4659L101.775 35.9403L101.712 35.8664C101.304 34.9238 100.918 33.9689 100.496 33.014V32.8231H100.454C100.355 32.5951 100.25 32.3733 100.144 32.1515C100.222 32.2501 100.292 32.3487 100.362 32.4473C100.957 33.2687 101.55 34.1003 102.14 34.9423L102.056 35.1271ZM102.576 39.4394L102.661 39.538V39.692L102.576 39.4394ZM102.906 36.661V36.6241V36.661ZM101.325 30.901C101.796 31.517 102.26 32.1331 102.731 32.7183C102.801 33.0798 102.885 33.4432 102.984 33.8087C102.525 32.798 101.982 31.8179 101.36 30.8763L101.325 30.901ZM104.319 35.0039L104.263 34.8252C104.291 34.8697 104.321 34.9129 104.354 34.9546C104.425 35.1271 104.488 35.2934 104.565 35.4598C104.565 35.5275 104.565 35.6014 104.6 35.6692C104.53 35.4413 104.439 35.2072 104.354 34.9792L104.319 35.0039ZM105.177 41.7804L104.973 42.0022C105.029 41.8914 105.078 41.7804 105.12 41.6696C105.12 41.5895 105.184 41.5094 105.219 41.4354L105.394 41.3246C105.373 41.4355 105.289 41.6018 105.212 41.7373L105.177 41.7804ZM105.451 41.2075V41.1644L105.507 41.1274C105.507 41.1274 105.493 41.1336 105.486 41.1644L105.451 41.2075ZM105.711 40.5915C105.64 40.764 105.556 40.9365 105.486 41.109L105.423 41.1459L105.373 40.9857C105.478 40.6699 105.563 40.349 105.626 40.0247C105.626 39.883 105.669 39.7413 105.683 39.6058L105.795 39.7351L105.95 39.9077C105.893 40.1418 105.823 40.3697 105.746 40.5668L105.711 40.5915ZM105.964 38.2443L105.865 38.0965L105.781 37.9732C105.777 37.9322 105.777 37.891 105.781 37.85L105.985 37.77L105.964 38.2443ZM105.774 37.7638V37.8069C105.774 37.8069 105.816 37.7638 105.809 37.7391L105.774 37.7638ZM107.426 41.4601C107.122 41.9318 106.789 42.3884 106.428 42.8277C106.61 42.5382 106.779 42.2487 106.941 41.9591C107.025 41.7989 107.095 41.6388 107.18 41.4786C107.227 41.463 107.272 41.4423 107.313 41.417C107.381 41.3857 107.447 41.3508 107.51 41.3123C107.517 41.3554 107.482 41.4047 107.482 41.4539L107.426 41.4601ZM105.704 25.837C106.902 27.1633 107.808 28.6738 108.374 30.2911C108.784 31.5285 109.02 32.8048 109.077 34.0921C109 33.8272 108.909 33.5685 108.81 33.3159C108.774 32.8483 108.68 32.3855 108.529 31.9359C108.48 31.8004 108.424 31.671 108.367 31.5417C108.367 31.5417 108.367 31.4739 108.367 31.4431C108.297 31.0119 108.234 30.6915 108.234 30.6915C108.157 30.4389 108.086 30.1802 107.995 29.9338C107.787 29.2876 107.527 28.6555 107.215 28.0425C106.908 27.4072 106.506 26.8105 106.02 26.2682C105.9 26.1377 105.771 26.0143 105.633 25.8986L105.704 25.837ZM105.879 30.9872C106.013 31.2953 106.146 31.6033 106.266 31.9236C106.266 32.0099 106.266 32.09 106.322 32.1762C106.385 32.4534 106.435 32.7306 106.484 33.014C106.442 32.8847 106.4 32.7553 106.35 32.6321L106.083 32.1515C105.851 31.5461 105.661 30.9289 105.514 30.3034C105.669 30.5128 105.795 30.7408 105.915 30.9811L105.879 30.9872ZM105.317 33.0818L105.359 33.1434L105.465 33.1064C105.514 33.2173 105.57 33.3282 105.626 33.4391C105.722 33.744 105.79 34.0551 105.83 34.3693C105.83 34.5973 105.83 34.8314 105.83 35.0593V35.1825L105.669 34.9176C105.528 34.6343 105.387 34.3509 105.24 34.0737L105.17 33.9504C104.966 33.242 104.72 32.5458 104.467 31.862C104.516 31.9359 104.572 32.0037 104.628 32.0776L105.317 33.0818ZM104.79 24.876L104.375 24.6172C103.999 24.2145 103.598 23.8299 103.174 23.4652C103.752 23.9076 104.303 24.3765 104.825 24.8698L104.79 24.876ZM104.087 28.0486C104.087 28.0486 104.087 28.0487 104.087 28.0918L103.778 27.9439H103.736C103.138 27.0691 102.485 26.2251 101.803 25.4119C101.754 25.3442 101.691 25.2826 101.641 25.221C102.56 26.1034 103.397 27.049 104.143 28.0486H104.087ZM97.6424 22.0545C97.5862 22.1038 97.6424 22.0914 97.6424 22.0545L97.7408 22.1161L97.9095 22.3009L98.3733 22.8122L99.294 23.8287C100.369 25.0177 101.402 26.2251 102.351 27.4819L102.169 27.4264C101.353 26.449 100.501 25.49 99.6103 24.5495C98.3812 23.2438 97.0572 22.0091 95.6464 20.8532C96.3422 21.2721 97.0028 21.6417 97.6424 22.0545ZM95.0982 26.0958C95.2669 26.2683 95.4426 26.4284 95.6112 26.6009L95.2669 26.4223L95.0631 26.1389L95.0982 26.0958ZM94.9225 29.5087C95.4004 30.0508 95.8643 30.6053 96.3281 31.1659V31.1967L94.9225 29.8105V29.5642V29.5087ZM95.9065 37.5851C95.2737 36.8579 94.568 36.1817 93.798 35.5645C93.798 35.4598 93.8683 35.355 93.8964 35.2503C94.5992 36.0573 95.2739 36.7966 95.9205 37.5851H95.9065ZM94.0018 28.5169C93.9984 28.5743 93.9984 28.6319 94.0018 28.6893C93.9983 28.7488 93.9983 28.8085 94.0018 28.868L93.8542 28.7202C93.8542 28.6278 93.9104 28.5353 93.9456 28.4429L94.0018 28.5169ZM93.9175 23.8348L93.9737 23.8965L93.9245 23.8595L93.9175 23.8348ZM93.9737 32.4596H93.9245C93.9275 32.4288 93.9275 32.3979 93.9245 32.3672L93.9737 32.4596ZM94.2056 33.1249V33.205V33.1249ZM92.7368 20.1878L92.8 20.2494C93.3271 20.7854 93.8331 21.3275 94.3462 21.8696C94.044 21.5862 93.7277 21.3214 93.4114 21.0441C93.2146 20.8716 93.0108 20.7115 92.8141 20.5451C92.8111 20.5164 92.8111 20.4876 92.8141 20.4589C92.7995 20.4375 92.7877 20.4148 92.7789 20.3911C92.7789 20.3357 92.7789 20.2741 92.7789 20.2186L92.7368 20.1878ZM93.1795 26.0465L93.0671 25.8986C93.0671 25.8432 93.0671 25.7939 93.0671 25.7385L93.1795 26.0465ZM92.6664 29.2438C92.6635 29.2151 92.6635 29.1862 92.6664 29.1575V29.2623V29.2438ZM92.5821 38.1273C92.8211 38.3244 93.0553 38.5297 93.2849 38.7433C94.5139 39.9541 95.5755 41.2878 96.4476 42.7168C96.286 42.5813 96.1313 42.4335 95.9767 42.2856C95.0912 41.2938 94.2127 40.2896 93.3131 39.2978L92.9617 38.8296C92.8211 38.6447 92.6946 38.4538 92.5611 38.2628L92.5821 38.1273ZM92.3713 30.5129C92.3221 30.7593 92.2869 31.0057 92.2448 31.2521L92.1393 31.1535C92.2377 30.9441 92.308 30.7223 92.3713 30.5129ZM94.1283 42.9078C94.4165 43.2158 94.7257 43.5239 95.042 43.7949C95.288 44.1769 95.5269 44.5588 95.7448 44.9531C95.7026 45.0394 95.6604 45.1256 95.6112 45.2119C95.3372 44.8607 95.056 44.5034 94.7679 44.1584C93.9245 43.1173 93.0741 42.0946 92.315 41.035C92.0199 40.6161 91.7458 40.1972 91.4787 39.766L91.556 39.6489C91.6966 39.8707 91.8371 40.0863 91.9847 40.3019C92.6205 41.2183 93.3372 42.0896 94.1283 42.9078ZM92.8281 44.756C93.5309 45.4213 94.1634 46.0928 94.8241 46.7643C94.8241 46.8013 94.8874 46.8321 94.9155 46.8629C94.9436 46.8937 94.9155 46.9738 94.8663 47.023C94.1728 46.3454 93.4841 45.6595 92.8 44.9655C92.8169 44.8943 92.8286 44.8223 92.8351 44.7498L92.8281 44.756ZM90.3542 42.3719C91.057 43.0372 91.7598 43.7148 92.4626 44.3987C92.4626 44.4418 92.3994 44.4849 92.3713 44.5342C91.7669 43.9182 91.1694 43.3021 90.5931 42.6861L90.3542 42.3719ZM90.3542 44.0537C90.2909 44.0968 90.1926 44.1646 90.059 44.2446C90.059 44.1091 90.1152 43.9674 90.1293 43.8257L90.3542 44.0537ZM91.8723 21.537C91.8723 21.6417 91.8723 21.7464 91.9285 21.845L91.6193 21.4323C91.6193 21.3398 91.563 21.2536 91.5279 21.1612L91.8723 21.537ZM91.3171 33.4946V33.5746L91.549 34.1907C91.4295 34.1414 91.303 34.0983 91.1835 34.0613L91.064 33.9504C91.1554 33.8211 91.2397 33.6609 91.3171 33.4946ZM90.4034 18.7709L90.1293 19.0112L90.0871 18.9434L89.9817 18.7832C89.9255 18.697 89.8692 18.6169 89.806 18.5368L90.4034 18.7709ZM89.6303 45.3351L90.0379 45.8341C89.8636 45.7167 89.6804 45.6096 89.4897 45.5137C89.5381 45.4565 89.5827 45.3968 89.6233 45.3351H89.6303ZM89.5319 43.4869L89.5951 43.3144L89.7568 43.4685C89.6833 43.4423 89.6026 43.4358 89.5249 43.45L89.5319 43.4869ZM89.8552 35.7062V35.663V35.6138L89.8973 35.7062H89.8552ZM89.56 38.004C89.6162 38.158 89.6936 38.3121 89.7568 38.4722C89.5741 38.2751 89.3843 38.078 89.1875 37.8562L89.4265 37.6221C89.4686 37.7391 89.5108 37.8562 89.56 37.9732V38.004ZM89.3492 22.0483C89.3913 22.2639 89.4335 22.4857 89.4686 22.7013L89.3843 23.2742C89.3 22.8615 89.2156 22.4426 89.1453 22.0421L89.068 21.6047L89.3492 22.0483ZM88.7799 20.6622L88.9907 20.9333L88.8642 20.8655L88.6815 20.7792C88.658 20.7635 88.632 20.7511 88.6042 20.7423L88.6534 20.8162L88.7307 20.9579H88.5058L88.4495 20.6807C88.4495 20.5574 88.4004 20.4342 88.3652 20.311L88.323 20.1878C88.4791 20.3343 88.6224 20.4908 88.7518 20.656L88.7799 20.6622ZM88.8923 42.5936L88.808 42.7846L88.5972 42.5074L88.6885 42.415L88.8923 42.5936ZM87.803 17.2616C87.6554 17.2616 87.5359 17.163 87.4094 17.1815C87.3623 17.1897 87.3186 17.2088 87.2829 17.2369L86.7768 16.8242C87.1774 16.8858 87.5781 16.9659 87.9787 17.0398L87.803 17.2616ZM88.0489 19.4547L87.9295 19.0913L87.8873 18.9804V19.0112C87.9332 19.0536 87.9755 19.0988 88.0138 19.1467L88.2176 19.4485L88.0771 19.6149L88.0489 19.4547ZM88.4215 43.8196C88.4215 43.8196 88.4215 43.8627 88.4215 43.8874L88.316 44.4295C88.316 44.5589 88.2739 44.6882 88.2598 44.8176V44.7313L88.1684 44.1153C88.1263 43.912 88.0279 43.6779 87.9646 43.4623C87.9415 43.3842 87.911 43.3079 87.8732 43.2343L87.9506 43.1543L88.4215 43.8196ZM87.6624 36.0635C87.7608 35.8048 87.8522 35.5337 87.9506 35.2688L88.0208 35.3489C88.0208 35.4659 87.9716 35.5645 87.9576 35.6507L87.5359 36.39L87.6624 36.0635ZM86.9596 39.7167L87.1423 39.9631L86.9244 39.7906L86.9596 39.7167ZM86.5168 41.2506C86.6082 41.38 86.6925 41.5156 86.7909 41.6511C86.8893 41.7866 87.1142 42.0946 87.2688 42.3164C87.1915 42.2055 87.1212 42.0946 87.0369 41.9899C86.8612 41.7681 86.6714 41.5587 86.4746 41.3739L86.5168 41.2506ZM85.4064 43.3267L85.6172 43.5424L85.5751 43.5732L85.4064 43.3391V43.3267ZM85.2869 36.1128L85.3782 36.2175H85.3009H85.2236L85.2869 36.1128ZM83.5228 39.1376L83.4806 39.1992L83.5228 39.1376ZM82.1172 43.45L82.1875 43.4869L82.3491 43.567C82.4436 43.6139 82.5351 43.6653 82.6232 43.721V43.7703L82.1102 43.9859L82.068 43.9305C82.068 43.795 82.068 43.6656 82.068 43.5362L82.1172 43.45ZM82.2577 44.066L82.1734 43.9613H82.2156V43.9921V44.0722L82.2577 44.066ZM80.9856 42.2178L81.5339 41.7989L81.1825 42.2794L80.8732 42.4396L80.9856 42.2178ZM81.4987 45.7232L81.07 46.0189C80.9986 45.7902 80.9446 45.5577 80.9083 45.3227C80.9083 45.1934 80.9084 45.064 80.8732 44.9346V44.6944H80.9083C81.1122 45.0702 81.316 45.4028 81.5128 45.7416L81.4987 45.7232ZM80.7748 47.7623C80.8591 47.9389 80.9505 48.1176 81.0489 48.2983L80.8802 48.0642L80.7186 47.7993L80.7748 47.7623ZM79.7135 44.8484C79.8611 45.0024 79.9244 45.0702 79.7135 44.8484L79.826 44.7683L79.8682 44.7313V45.0332C79.8682 45.1195 79.8682 45.2057 79.8682 45.2919L79.5378 44.947L79.7135 44.8484ZM77.9635 43.8565C78.329 43.567 78.6664 43.2898 79.074 43.0187L79.1302 43.0742C78.8631 43.3576 78.589 43.6471 78.3009 43.9243L78.0619 44.0537L77.9424 44.1215H77.9073L77.8511 44.0414L77.8089 43.9736L77.9635 43.8565ZM77.8722 49.2778C78.0268 49.4688 78.1674 49.6598 78.3079 49.8507V49.9185L77.8089 49.3024L77.8722 49.2778ZM78.0549 52.1363C77.9425 51.9268 77.8371 51.7112 77.7176 51.5202H77.9776V51.5633L78.2025 51.8098C78.2241 51.8435 78.2429 51.8784 78.2587 51.9145L78.3361 52.0993L78.0549 52.1363ZM78.3079 47.867C78.1744 47.596 78.0409 47.3311 77.9214 47.0538L77.8581 46.9122L77.9003 46.9491L77.9635 47.0169L78.2236 47.3003C78.336 47.4235 78.4344 47.5529 78.5399 47.6822L78.3079 47.867ZM79.7135 50.2758C79.5449 49.9924 79.3551 49.7152 79.1583 49.4441C78.9615 49.1731 78.9264 49.0314 78.821 48.8281L78.8913 48.7911C78.8878 48.8342 78.8878 48.8774 78.8913 48.9205C78.9058 48.9729 78.9246 49.0244 78.9475 49.0745V49.1361L79.2356 49.3456L79.4746 49.3887H79.5519C79.8791 49.8852 80.2357 50.3664 80.6202 50.8302L79.9174 50.781C79.8963 50.6455 79.7979 50.4545 79.6854 50.2758H79.7135ZM80.4164 51.6989L81.3511 51.7667L80.5077 51.8591L80.4164 51.6989ZM81.0278 52.8078L80.9435 52.6476C81.3441 52.6045 81.7377 52.5552 82.1383 52.5182C82.1484 52.6495 82.1484 52.7812 82.1383 52.9125L81.0278 52.8078ZM82.061 47.6699C81.9415 47.5159 81.815 47.368 81.6885 47.2202L82.2085 46.8998C82.2577 46.9861 82.314 47.0723 82.3702 47.1586L82.4756 47.3311C82.3421 47.4604 82.1805 47.5652 82.061 47.6699ZM82.8903 48.1504C83.0449 48.4215 83.1995 48.6864 83.3612 48.9451C83.4455 49.0807 83.5369 49.21 83.6282 49.3456C83.6159 49.4161 83.5995 49.486 83.579 49.555L82.6162 48.3537C82.7104 48.287 82.7996 48.2149 82.8833 48.1381L82.8903 48.1504ZM82.7356 50.8919L82.8622 51.0459H82.7708L82.6724 50.8919H82.7356ZM83.9796 54.1015L83.6985 54.1446L83.0449 54.2555L82.7427 54.2925V54.2124L82.7849 54.1323H83.1011C83.4104 54.1323 83.7267 54.1015 84.0429 54.083L83.9796 54.1015ZM83.7407 42.9386C83.6704 42.8565 83.5931 42.7764 83.5088 42.6984L83.8039 42.5875C83.9586 42.8339 84.1202 43.0865 84.2819 43.3267L84.2046 43.4192L83.7407 42.9386ZM84.1975 50.3312V50.2881C84.2608 50.3867 84.317 50.4914 84.3732 50.5961L84.1975 50.3312ZM84.823 44.1707L84.7809 44.1276L84.823 44.0906L84.8652 44.1399L84.823 44.1707ZM84.8652 37.1416V37.2586C84.8639 37.273 84.8639 37.2874 84.8652 37.3018C84.6868 37.38 84.5132 37.4663 84.3451 37.5605C84.5981 37.2278 84.8512 36.889 85.0901 36.544C84.9917 36.7165 84.9074 36.9198 84.8652 37.1046V37.1416ZM85.1885 41.3615H85.1393L85.069 41.263L85.1885 41.3615ZM85.568 46.906L85.1112 46.1791L85.1744 46.1175C85.3431 46.3331 85.5048 46.5487 85.6594 46.7766L85.568 46.906ZM85.9967 40.4559C86.1513 40.69 86.32 40.9303 86.4817 41.1644H86.313C86.1935 41.0412 86.074 40.9242 85.9405 40.8071L85.7226 40.6284L85.9967 40.4559ZM85.8491 45.4213C86.0108 45.6185 86.1795 45.8156 86.3481 46.0374L86.306 46.0743C86.1724 45.7971 86.0108 45.6 85.8491 45.3967V45.4213ZM86.0038 54.428L86.1935 54.3602L86.2989 54.3972L86.0038 54.428ZM86.1584 47.8547L86.0951 47.7561L86.2005 47.5898L86.3973 47.904L86.1584 47.8547ZM86.0248 42.4273L86.0881 42.2856L86.2779 42.4951C86.3798 42.6261 86.4736 42.7618 86.559 42.9017L86.4817 42.9571L86.0248 42.4273ZM86.4887 44.7375L86.6011 44.6143L87.1915 45.2304C87.0228 45.3905 87.1423 45.292 87.1915 45.2304V45.2611V45.2981L87.2618 45.3659L87.079 45.446L86.4887 44.7375ZM86.819 48.8897L86.9525 48.939C87.0509 49.1361 87.1494 49.3394 87.2337 49.555L86.819 48.8897ZM88.2246 48.5509C87.7748 47.9348 87.325 47.3188 86.8682 46.7397L86.9456 46.6596L87.4797 47.2756C87.9787 47.8363 88.4777 48.3907 88.9696 48.9513C88.7658 48.8342 88.555 48.7172 88.3442 48.6125L88.2246 48.5509ZM88.6182 50.59L89.061 51.1691L88.7518 51.1198C88.7191 50.933 88.6745 50.7478 88.6182 50.5653V50.59ZM89.7638 52.9433L89.5811 52.8509L89.3632 52.7154C89.3969 52.6903 89.4234 52.6587 89.4405 52.623C89.4405 52.5614 89.3773 52.549 89.1524 52.5798L88.9767 52.2842L88.8783 52.1363V51.9823C89.2157 52.0439 89.5811 52.1117 89.8833 52.1979C90.1293 52.5059 90.3753 52.8139 90.6353 53.1158L90.804 53.313C90.4455 53.2069 90.0975 53.075 89.7638 52.9187V52.9433ZM90.4666 51.4833C90.319 51.3046 90.1714 51.1321 90.0309 50.9473L89.6443 50.4483C89.8923 50.6413 90.127 50.847 90.3472 51.0643C90.5139 51.2298 90.671 51.4026 90.818 51.5818L90.4666 51.4833ZM91.4084 52.6414L91.5279 52.6784L91.5701 52.7832C91.5769 52.8116 91.5769 52.8409 91.5701 52.8694C91.5419 52.7646 91.4787 52.6907 91.4084 52.6168V52.6414ZM92.1745 55.5677V55.463L93.1444 55.8265L92.1745 55.5677ZM92.7227 54.0583V54.0953V54.0583ZM93.3482 52.4936L92.6875 52.2102L92.4134 51.8159C92.2167 51.5079 91.9918 51.1999 91.7739 50.9288C91.556 50.6578 91.3311 50.3128 91.0711 50.0663C90.1504 48.9266 89.1664 47.8424 88.1965 46.7581L87.6624 46.1421C87.754 46.1043 87.8509 46.0774 87.9506 46.062C88.6534 46.9306 89.3562 47.8054 90.1082 48.6802C91.1203 49.9123 92.1464 51.0951 93.2428 52.2533L93.6223 52.6414L93.3482 52.4936ZM94.6273 56.1899L94.7398 56.2207L94.6273 56.1899ZM94.304 54.9578L94.1142 54.9024L93.9807 54.6005L94.8241 55.0502L94.304 54.9578ZM95.9275 53.5902C95.8432 53.5163 95.7589 53.4423 95.6816 53.3622C95.3161 53.0357 94.9787 52.6907 94.6273 52.3457C94.6836 52.3026 94.7538 52.2533 94.8452 52.1732C95.2036 52.4505 95.548 52.7092 95.9556 52.9556C96.1032 53.1404 96.2578 53.3253 96.3984 53.5101L96.6093 53.775L95.9275 53.5902ZM96.8552 40.419C96.7709 40.265 96.6936 40.1048 96.6022 39.9446L96.4546 39.7043C96.5952 39.8892 96.7288 40.0863 96.8693 40.2773C96.8623 40.3204 96.8623 40.3697 96.8552 40.4128V40.419ZM97.1504 49.1484C97.7127 49.7275 98.2819 50.3066 98.8512 50.8795C98.2679 50.3128 97.6845 49.7398 97.0942 49.1731L97.1504 49.1484ZM97.7759 51.8775L98.1625 52.278L97.6846 51.9576L97.7759 51.8775ZM98.1344 54.2617L98.2609 54.3294L98.1344 54.2617ZM98.4436 57.0339L99.1464 57.1263L99.2378 57.1879L98.4436 57.0339ZM99.8493 56.2454L99.5119 56.1221L99.1113 55.5739C99.5611 55.7876 99.983 56.0437 100.369 56.3377L100.433 56.387H100.264L99.8493 56.2454ZM100.39 57.3974L100.313 57.2803C100.672 57.3851 101.016 57.4836 101.395 57.576L100.39 57.3974ZM102.942 57.0524C102.639 57.0031 102.337 56.9353 102.028 56.8676L101.937 56.7444L101.719 56.461L101.473 56.1961L101.22 55.9312C101.705 56.2207 102.183 56.5472 102.625 56.8368L102.899 57.0339L102.942 57.0524ZM106.224 58.2167L105.521 58.1367L105.247 57.8902C104.91 57.5945 104.544 57.2742 104.228 57.0031L104.931 57.2557L105.177 57.3419L105.549 57.4466L105.732 57.4898L106.132 57.6684L106.898 57.9888L107.679 58.2722L107.889 58.3523L106.224 58.2167ZM108.747 58.4077H108.466C108.571 58.2352 108.684 58.0319 108.754 57.9025L109.682 58.4631L108.747 58.4077Z" fill="white"/>
</svg>
