<svg width="43" height="43" viewBox="0 0 43 43" fill="none" xmlns="http://www.w3.org/2000/svg">
<circle cx="21.8604" cy="21.1397" r="21.1397" fill="#222222"/>
<circle cx="21.8611" cy="21.4217" r="3.94608" fill="white"/>
<path fill-rule="evenodd" clip-rule="evenodd" d="M18.3401 17.2928C19.3622 16.2706 20.7212 15.7017 22.1667 15.7017C23.6122 15.7017 24.9712 16.2736 25.9934 17.2958C26.6419 17.9443 27.1052 18.7236 27.3575 19.5934H31.4199V14.1333C31.4199 12.8524 30.4298 11.8623 29.1488 11.8623H15.2329C13.9519 11.8623 12.8652 12.8524 12.8652 14.1333V19.5934H16.9759C17.2282 18.7236 17.6915 17.9413 18.3401 17.2928ZM29.8736 15.8825C29.8736 16.224 29.5967 16.501 29.2551 16.501H27.3996C27.0581 16.501 26.7811 16.2241 26.7811 15.8825V14.027C26.7811 13.6854 27.058 13.4085 27.3996 13.4085H29.2551C29.5967 13.4085 29.8736 13.6854 29.8736 14.027V15.8825Z" fill="white"/>
<path fill-rule="evenodd" clip-rule="evenodd" d="M25.9934 24.9462C24.9712 25.9683 23.6122 26.5252 22.1667 26.5252C20.7212 26.5252 19.3622 25.9714 18.3401 24.9492C17.3198 23.929 16.7572 22.5409 16.755 21.1396H12.8652V28.0493C12.8652 29.3303 13.9519 30.417 15.2329 30.417H29.1488C30.4298 30.417 31.4199 29.3303 31.4199 28.0493V21.1396H27.5784C27.5763 22.5409 27.0137 23.9259 25.9934 24.9462Z" fill="white"/>
</svg>
