<svg width="134" height="100" viewBox="0 0 134 100" fill="none" xmlns="http://www.w3.org/2000/svg">
<path d="M132.364 50.541C131.863 50.541 131.362 50.9318 130.938 51.711C127.289 57.9659 122.6 62.2893 116.871 64.681C111.142 67.0727 104.628 68.3529 97.3297 68.5216C93.558 68.6021 89.7864 68.3608 86.0558 67.8001C82.1926 67.2406 77.4793 66.3938 71.9158 65.2597C65.7477 64.0472 60.8206 63.1569 57.1345 62.5891C53.3564 62.0205 49.5409 61.7374 45.7203 61.7423C43.3767 61.7452 41.035 61.8748 38.7054 62.1306C33.162 62.8705 28.3109 64.4313 24.152 66.813C23.9575 67.6339 23.9244 68.4848 24.0543 69.3183C28.143 66.6961 33.0267 64.909 38.7054 63.957C41.384 63.5948 44.0846 63.4198 46.7875 63.4333C50.7554 63.4397 54.7178 63.7269 58.6452 64.2927C62.6311 64.8488 67.3737 65.6956 72.8403 66.8305C78.6659 67.9563 83.335 68.8022 86.8474 69.3684C90.3118 69.9308 93.821 70.1698 97.3297 70.0824C105.059 69.9154 111.963 68.5266 118.041 65.9161C124.119 63.3056 128.984 58.5296 132.637 51.5882C132.888 50.8792 132.797 50.541 132.364 50.541Z" fill="url(#paint0_linear_2_7846)"/>
<path d="M32.334 47.1734C32.1832 46.3488 32.1968 45.5025 32.3741 44.6831C31.2445 45.3445 30.1568 46.0749 29.1172 46.8703C28.2487 34.2786 27.4653 26.158 26.7672 22.5086C26.6895 21.9073 26.2887 21.5967 25.5972 21.5967C24.6402 21.5967 23.5153 22.1203 22.2125 23.1675C22.3573 24.1148 22.441 25.0705 22.4631 26.0286C22.5533 26.8086 22.5984 28.1998 22.5984 30.2024C22.5984 36.8833 22.1641 44.9144 21.2956 54.296C8.43501 66.8125 1.57296 77.7131 0.709461 86.9978C0.363728 90.7391 1.07941 93.7563 2.85651 96.0495C4.63361 98.3427 6.95687 99.4968 9.82629 99.5118C11.6527 99.5118 13.5692 99.0108 15.5609 98.0087C17.5527 97.0065 19.5143 95.5033 21.4284 93.4991C22.2321 92.6448 22.9723 91.7329 23.6431 90.7708C21.2605 90.2698 15.8516 89.1223 13.3713 88.0526C12.9128 88.8442 12.4343 89.6134 11.9107 90.37C9.73943 92.8987 8.00242 94.1605 6.69966 94.1555C5.75516 94.1555 5.03112 93.6093 4.55261 92.5295C4.07409 91.4498 3.8386 89.9791 3.8386 88.1653C3.82586 87.3356 3.87107 86.506 3.97388 85.6825C4.40813 81.173 5.75099 77.1352 8.00242 73.5694C10.2539 70.0035 13.4273 65.9206 17.5226 61.3209L20.9073 57.2798C20.0371 65.372 19.0383 71.8482 17.9109 76.7085C17.2677 79.4622 16.3373 82.1409 15.135 84.7004C18.6263 85.723 22.1828 86.5081 25.7801 87.0504C26.7161 85.0113 27.4373 82.8804 27.9322 80.692C29.1447 75.4358 29.7494 69.5066 29.746 62.9042C29.746 59.3417 29.579 54.8655 29.2449 49.4758C30.2258 48.6449 31.2575 47.8759 32.334 47.1734Z" fill="url(#paint1_linear_2_7846)"/>
<path d="M23.3751 10.0072C24.1543 10.0072 25.1113 9.48359 26.2462 8.44639C26.7508 7.78477 27.1249 7.03317 27.3486 6.2317C27.6473 5.30288 27.8019 4.33377 27.807 3.35811C27.8348 2.64359 27.7012 1.932 27.4162 1.27619C27.0705 0.664899 26.4592 0.364258 25.5898 0.364258C24.8547 0.408768 24.1302 0.562442 23.4403 0.820226C22.5284 1.12086 21.8594 1.32128 21.436 1.41148C21.2583 2.61676 21.1687 3.83339 21.168 5.05169C21.168 8.3587 21.9037 10.0105 23.3751 10.0072Z" fill="#2AB32C"/>
<path d="M47.9743 60.3989C56.5529 60.3989 63.5073 53.4445 63.5073 44.8659C63.5073 36.2873 56.5529 29.333 47.9743 29.333C39.3957 29.333 32.4414 36.2873 32.4414 44.8659C32.4414 53.4445 39.3957 60.3989 47.9743 60.3989Z" stroke="#FFA500" stroke-width="1.25266" stroke-miterlimit="10"/>
<path d="M67.9043 46.3316C68.0214 45.1509 68.2736 43.9875 68.6559 42.8643L67.9043 46.3316Z" fill="#FFA500"/>
<path d="M71.041 33.6797C70.7576 33.7774 70.4932 33.9232 70.2594 34.1106C70.0071 34.3167 69.7785 34.5503 69.5779 34.8071C69.365 35.0777 69.1645 35.3557 68.9791 35.6413C68.5153 36.4097 68.1325 37.2241 67.8367 38.0715C67.5242 38.9638 67.2591 39.872 67.0425 40.7923C66.792 41.8295 66.5832 42.9093 66.4162 44.0316C66.2492 45.154 66.1373 46.2764 66.0805 47.3988C66.023 48.4234 66.0415 49.4509 66.1356 50.4728C66.1903 51.3835 66.3829 52.2805 66.7068 53.1334C66.9047 53.6294 67.1936 54.084 67.5586 54.4738C67.855 54.777 68.2489 54.966 68.671 55.0074C69.0515 55.0203 69.4251 54.9037 69.7307 54.6767C70.0804 54.4256 70.386 54.1183 70.6351 53.7673C70.9163 53.3756 71.1635 52.9608 71.3742 52.5271C71.5964 52.0712 71.7918 51.6277 71.9605 51.1968C72.1258 50.7659 72.2611 50.3801 72.3638 50.0318C72.4665 49.6836 72.5342 49.4381 72.5717 49.2803C72.6003 49.19 72.5997 49.093 72.57 49.003C72.5403 48.9131 72.4831 48.8348 72.4064 48.7792C72.3808 48.7714 72.3569 48.7586 72.3362 48.7416C72.314 48.7271 72.2905 48.7146 72.2661 48.704C72.1183 48.6038 72.0156 48.6364 71.9329 48.8042L71.527 49.9066C71.3316 50.4377 71.1112 50.9789 70.8581 51.5275C70.6318 52.0319 70.3663 52.5178 70.0639 52.9806C69.7858 53.404 69.5253 53.6144 69.2848 53.6144C69.1279 53.6126 68.9751 53.564 68.8461 53.4747C68.7171 53.3854 68.6177 53.2596 68.5608 53.1134C68.37 52.6945 68.2563 52.2447 68.225 51.7856C68.1688 51.1456 68.1646 50.5021 68.2125 49.8615" fill="#FFA500"/>
<path d="M72.6641 46.3316C72.7812 45.1509 73.0333 43.9875 73.4157 42.8643L72.6641 46.3316Z" fill="#FFA500"/>
<path d="M75.8008 33.6797C75.5174 33.7774 75.253 33.9232 75.0191 34.1106C74.7668 34.3167 74.5383 34.5503 74.3377 34.8071C74.1247 35.0777 73.9243 35.3557 73.7389 35.6413C73.2751 36.4097 72.8922 37.2241 72.5965 38.0715C72.284 38.9638 72.0189 39.872 71.8023 40.7923C71.5518 41.8295 71.343 42.9093 71.176 44.0316C71.0089 45.154 70.897 46.2764 70.8403 47.3988C70.7828 48.4234 70.8012 49.4509 70.8954 50.4728C70.9501 51.3835 71.1427 52.2805 71.4666 53.1334C71.6644 53.6294 71.9533 54.084 72.3184 54.4738C72.6148 54.777 73.0087 54.966 73.4307 55.0074C73.8112 55.0203 74.1849 54.9037 74.4905 54.6767C74.8401 54.4256 75.1458 54.1183 75.3949 53.7673C75.676 53.3756 75.9233 52.9608 76.134 52.5271C76.3561 52.0712 76.5515 51.6277 76.7202 51.1968C76.8856 50.7659 77.0208 50.3801 77.1236 50.0318C77.2263 49.6836 77.2939 49.4381 77.3315 49.2803C77.3601 49.19 77.3594 49.093 77.3298 49.003C77.3001 48.9131 77.2429 48.8348 77.1662 48.7792C77.1405 48.7714 77.1167 48.7586 77.096 48.7416C77.0737 48.7271 77.0503 48.7146 77.0259 48.704C76.8781 48.6038 76.7753 48.6364 76.6927 48.8042L76.2868 49.9066C76.0914 50.4377 75.8709 50.9789 75.6179 51.5275C75.3916 52.0319 75.126 52.5178 74.8237 52.9806C74.5456 53.404 74.2851 53.6144 74.0445 53.6144C73.8876 53.6126 73.7349 53.564 73.6059 53.4747C73.4768 53.3854 73.3775 53.2596 73.3205 53.1134C73.1297 52.6945 73.016 52.2447 72.9848 51.7856C72.9285 51.1456 72.9243 50.5021 72.9723 49.8615" fill="#FFA500"/>
<path d="M83.1867 48.776C83.2574 48.8364 83.3104 48.915 83.34 49.0033C83.3695 49.0915 83.3746 49.1861 83.3545 49.277C83.3212 49.5559 83.2651 49.8316 83.1867 50.1013C83.094 50.447 82.9737 50.8228 82.8259 51.2262C82.6696 51.646 82.4881 52.0559 82.2822 52.4538C82.0781 52.8522 81.8356 53.2298 81.5582 53.5812C81.3067 53.9009 81.0056 54.1784 80.6663 54.4029C80.3581 54.609 79.992 54.7108 79.6216 54.6935C79.3403 54.6957 79.0619 54.6358 78.8064 54.518C78.5509 54.4002 78.3245 54.2274 78.1435 54.0121C77.7368 53.4871 77.482 52.8606 77.4069 52.2007C77.2855 51.2855 77.2948 50.3576 77.4345 49.4449C77.5999 48.2686 77.8656 47.1086 78.2287 45.9775C78.2362 45.9177 78.2565 45.8602 78.2882 45.809C78.3199 45.7577 78.3623 45.7138 78.4124 45.6803C78.4625 45.6468 78.5192 45.6245 78.5787 45.6148C78.6382 45.6052 78.6991 45.6084 78.7573 45.6243C79.0711 45.6294 79.3839 45.663 79.6917 45.7245C80.0425 45.7886 80.3781 45.9177 80.6813 46.1053C80.7906 46.1872 80.8769 46.296 80.9319 46.421C80.9872 46.5447 80.997 46.6841 80.9594 46.8143C80.9043 47.0498 80.8191 47.3705 80.7089 47.7738C80.5987 48.1772 80.4884 48.6181 80.3882 49.0916C80.288 49.5651 80.1878 50.0412 80.0951 50.5197C80.0024 50.9982 79.9373 51.4416 79.8997 51.8375C79.8601 52.1661 79.8694 52.4987 79.9272 52.8246C79.9849 53.0751 80.0951 53.2254 80.263 53.2429C80.5135 53.2755 80.744 53.1327 80.987 52.812C81.2586 52.4398 81.4919 52.0411 81.6835 51.622C81.9064 51.1485 82.1094 50.6524 82.2973 50.1188C82.4852 49.5852 82.6205 49.1493 82.7131 48.776C82.7207 48.7453 82.7367 48.7173 82.7593 48.6952C82.7818 48.6731 82.8101 48.6577 82.8409 48.6507C82.911 48.6347 82.9845 48.6436 83.0489 48.6758C83.0896 48.7157 83.1361 48.7495 83.1867 48.776Z" fill="#FFA500"/>
<path d="M79.8991 45.3367C79.6334 45.3139 79.3785 45.2215 79.16 45.0687C79.0737 45.0198 79.0046 44.9454 78.9624 44.8556C78.9203 44.7659 78.907 44.6652 78.9245 44.5676C78.9516 44.4762 79.0018 44.3934 79.0703 44.3271C79.1387 44.2609 79.2231 44.2134 79.3153 44.1893C79.5651 44.1013 79.8325 44.0755 80.0945 44.1141C80.3508 44.1392 80.596 44.2307 80.806 44.3797C80.8924 44.4247 80.9621 44.4961 81.0049 44.5836C81.0477 44.671 81.0614 44.7699 81.044 44.8657C81.0212 44.9619 80.9729 45.0502 80.9041 45.1212C80.8353 45.1922 80.7486 45.2433 80.6532 45.2691C80.4111 45.3528 80.1522 45.376 79.8991 45.3367Z" fill="#FFA500"/>
<path d="M85.3486 44.768C85.3392 44.7875 85.3244 44.804 85.306 44.8156C85.2459 45.2214 85.1807 45.7125 85.1081 46.2962C84.9945 47.1764 84.9018 48.1385 84.83 49.1824C84.7582 50.2262 84.7256 51.3018 84.7323 52.4092C84.7321 53.4318 84.8252 54.4524 85.0104 55.4582C85.1501 56.2859 85.4332 57.0829 85.8472 57.8131V57.8307C85.9411 57.9785 86.0752 58.0965 86.2336 58.1711C86.3921 58.2457 86.5685 58.2737 86.7423 58.2519C86.9161 58.2301 87.0801 58.1594 87.2152 58.048C87.3504 57.9366 87.4511 57.7892 87.5057 57.6227C87.5148 57.5953 87.5257 57.5686 87.5382 57.5426C87.6012 57.4181 87.6323 57.2799 87.6288 57.1405C87.6253 57.001 87.5873 56.8646 87.5182 56.7434C87.3858 56.5141 87.2926 56.2643 87.2426 56.0043C87.1021 55.2565 87.0275 54.4978 87.0196 53.737C87.0029 52.8785 87.0263 51.9549 87.0898 50.9661C87.1524 50.0266 87.2251 49.1247 87.3153 48.2554C87.2821 48.2554 87.2502 48.2422 87.2267 48.2187C87.2032 48.1952 87.19 48.1633 87.19 48.1301C87.19 48.0969 87.2032 48.065 87.2267 48.0415C87.2502 48.018 87.2821 48.0049 87.3153 48.0049C87.3137 47.6267 87.332 47.2487 87.3704 46.8725C87.3505 46.8565 87.3359 46.8349 87.3286 46.8105C87.3213 46.7861 87.3216 46.76 87.3295 46.7358C87.3374 46.7116 87.3525 46.6903 87.3728 46.6749C87.3931 46.6595 87.4176 46.6506 87.443 46.6495C87.4555 46.648 87.4681 46.648 87.4806 46.6495C87.5483 46.1835 87.6109 45.7501 87.671 45.3617C87.7337 44.9308 87.7863 44.5726 87.8239 44.2845C89.8057 44.1279 91.7328 43.5578 93.4809 42.6109C95.221 41.6671 96.7719 40.41 98.0556 38.9031C97.7877 38.5714 97.4291 38.325 97.0234 38.1941C96.356 39.0217 95.5923 39.7669 94.7485 40.4138C93.7989 41.1353 92.765 41.7385 91.6695 42.2101C90.5042 42.7142 89.2678 43.0345 88.0042 43.1596C88.33 41.1323 88.7861 39.128 89.3696 37.1594C89.8093 35.6844 90.3638 34.2461 91.0281 32.8577C91.5137 31.8394 92.1147 30.8802 92.8194 29.9992C93.3237 29.3679 93.9092 28.8061 94.5606 28.3281C95.0222 27.9836 95.5477 27.734 96.1064 27.5941C96.5029 27.4947 96.9156 27.4776 97.319 27.544C97.5777 27.6049 97.8216 27.7167 98.0367 27.8729C98.2517 28.029 98.4336 28.2263 98.5716 28.4534C98.9387 29.0219 99.1852 29.6597 99.2957 30.3274C99.438 31.1465 99.4617 31.9818 99.3658 32.8076L100.841 31.3646C100.816 30.6147 100.68 29.8727 100.438 29.1624C100.226 28.5374 99.8787 27.9668 99.4209 27.4914C98.9775 27.0385 98.4187 26.7154 97.805 26.5569C96.7883 26.3058 95.7216 26.3448 94.726 26.6696C93.5015 27.0723 92.3898 27.7591 91.4816 28.6739C90.2786 29.873 89.2762 31.2577 88.5128 32.7751C87.5925 34.5037 86.8409 36.6591 86.258 39.2413C86.1077 39.9503 85.98 40.6317 85.8672 41.2906C85.767 41.8944 85.6718 42.4731 85.5866 43.0443" fill="#FF3D00"/>
<path d="M95.6704 48.776C95.7403 48.837 95.7925 48.9158 95.8216 49.0039C95.8507 49.092 95.8556 49.1864 95.8358 49.277C95.8036 49.5559 95.7483 49.8316 95.6704 50.1013C95.5752 50.447 95.455 50.8228 95.3072 51.2262C95.1509 51.646 94.9694 52.0559 94.7635 52.4538C94.5594 52.8522 94.3169 53.2298 94.0395 53.5812C93.788 53.9009 93.4869 54.1784 93.1476 54.4029C92.8394 54.609 92.4732 54.7108 92.1029 54.6935C91.8218 54.696 91.5437 54.6362 91.2886 54.5184C91.0334 54.4006 90.8076 54.2276 90.6273 54.0121C90.2142 53.4893 89.954 52.8624 89.8757 52.2007C89.7542 51.2855 89.7635 50.3576 89.9032 49.4449C90.0686 48.2686 90.3343 47.1086 90.6974 45.9775C90.705 45.9177 90.7253 45.8602 90.757 45.809C90.7887 45.7577 90.831 45.7138 90.8811 45.6803C90.9313 45.6468 90.988 45.6245 91.0475 45.6148C91.107 45.6052 91.1679 45.6084 91.226 45.6243C91.5399 45.6294 91.8527 45.663 92.1605 45.7245C92.5156 45.787 92.8556 45.9163 93.1626 46.1053C93.2719 46.1872 93.3582 46.296 93.4132 46.421C93.4685 46.5447 93.4783 46.6841 93.4407 46.8143C93.3856 47.0498 93.3004 47.3705 93.1902 47.7738C93.0799 48.1772 92.9697 48.6181 92.8695 49.0916C92.7693 49.5651 92.6691 50.0412 92.5764 50.5197C92.4837 50.9982 92.4185 51.4416 92.381 51.8375C92.3414 52.1661 92.3507 52.4987 92.4085 52.8246C92.4661 53.0751 92.5764 53.2254 92.7442 53.2429C92.9948 53.2755 93.2278 53.1327 93.4683 52.812C93.7399 52.4398 93.9732 52.0411 94.1647 51.622C94.3877 51.1485 94.5907 50.6524 94.7786 50.1188C94.9665 49.5852 95.1017 49.1493 95.1944 48.776C95.202 48.7453 95.218 48.7173 95.2405 48.6952C95.2631 48.6731 95.2914 48.6577 95.3222 48.6507C95.3923 48.6347 95.4658 48.6436 95.5301 48.6758C95.5715 48.7162 95.6188 48.75 95.6704 48.776Z" fill="#FFA500"/>
<path d="M92.3813 45.3363C92.1114 45.3157 91.8518 45.2231 91.6297 45.0682C91.5434 45.0194 91.4744 44.945 91.4322 44.8552C91.39 44.7654 91.3767 44.6648 91.3942 44.5671C91.4213 44.4758 91.4715 44.393 91.54 44.3267C91.6085 44.2604 91.6929 44.2129 91.7851 44.1888C92.0364 44.1 92.3056 44.0742 92.5692 44.1137C92.8255 44.1387 93.0708 44.2303 93.2807 44.3792C93.3634 44.4236 93.4304 44.4924 93.4726 44.5763C93.5147 44.6601 93.53 44.7549 93.5162 44.8477C93.4935 44.9439 93.4451 45.0322 93.3763 45.1032C93.3076 45.1742 93.2208 45.2253 93.1254 45.2511C92.8879 45.3393 92.6326 45.3685 92.3813 45.3363Z" fill="#FFA500"/>
<path d="M100.183 46.2962C100.172 46.3915 100.135 46.482 100.076 46.5579C100.017 46.6338 99.9389 46.6923 99.8495 46.7271C99.68 46.823 99.4833 46.8591 99.2908 46.8298C99.2239 46.8394 99.1557 46.8241 99.0993 46.7866C99.043 46.7492 99.0023 46.6924 98.9852 46.6269C98.9676 46.6012 98.9559 46.5719 98.9512 46.5411C98.9464 46.5103 98.9486 46.4789 98.9576 46.449C98.9834 46.3701 98.9865 46.2855 98.9666 46.2049C98.9467 46.1243 98.9045 46.0509 98.8449 45.9931C98.7347 45.9104 98.6495 45.8753 98.5944 45.8929C98.5001 45.9153 98.4104 45.9534 98.3288 46.0056C98.1505 46.1203 97.9986 46.2714 97.8829 46.449C97.6865 46.7448 97.5275 47.0638 97.4093 47.3986C97.225 47.9348 97.108 48.4919 97.0611 49.0571C97.0171 49.7093 97.0643 50.3645 97.2014 51.0037C97.2556 51.2377 97.3303 51.4666 97.4244 51.6876C97.5098 51.8978 97.6329 52.0905 97.7877 52.2564C97.9352 52.4186 98.1213 52.541 98.3288 52.6121C98.5771 52.6892 98.8408 52.7021 99.0954 52.6497C99.409 52.5686 99.6818 52.3752 99.862 52.106C100.148 51.752 100.405 51.3749 100.629 50.9786C100.879 50.5578 101.085 50.1394 101.27 49.726C101.455 49.3126 101.586 49.0045 101.658 48.8015C101.669 48.7688 101.687 48.7391 101.712 48.715C101.737 48.691 101.767 48.6732 101.8 48.6634C101.833 48.6535 101.868 48.6518 101.902 48.6584C101.935 48.6651 101.967 48.6798 101.994 48.7013C102.036 48.7325 102.083 48.7578 102.132 48.7765C102.207 48.8334 102.263 48.9117 102.293 49.0011C102.323 49.0905 102.325 49.1868 102.3 49.2775C102.245 49.5155 102.129 49.8938 101.951 50.4175C101.761 50.9728 101.524 51.5109 101.242 52.0259C100.953 52.5612 100.581 53.0474 100.14 53.4664C99.9404 53.6648 99.7035 53.8218 99.4429 53.9284C99.1824 54.035 98.9034 54.0891 98.6219 54.0877C97.8708 54.1216 97.1259 53.9372 96.4774 53.5566C96.1952 53.391 95.9415 53.1813 95.7258 52.9353C95.4752 52.6447 95.273 52.3156 95.127 51.9607C94.9461 51.5203 94.8288 51.0563 94.7788 50.5828C94.7158 49.9546 94.7301 49.321 94.8214 48.6963C94.9324 47.9408 95.158 47.2067 95.4903 46.5192C95.6224 46.2431 95.781 45.9805 95.9638 45.735C96.147 45.4847 96.3617 45.259 96.6026 45.0636C96.8534 44.8654 97.1365 44.712 97.4394 44.6101C97.7804 44.496 98.1402 44.4484 98.4992 44.4699C99.1104 44.5049 99.5564 44.6987 99.837 45.0511C99.9765 45.224 100.079 45.4237 100.139 45.6379C100.198 45.852 100.213 46.0761 100.183 46.2962Z" fill="#6A0DAD"/>
<path d="M113.668 48.7763C113.624 48.7473 113.577 48.7221 113.528 48.7011C113.501 48.6846 113.472 48.6739 113.44 48.6696C113.409 48.6652 113.378 48.6674 113.348 48.676C113.317 48.6832 113.289 48.6987 113.267 48.7208C113.245 48.7429 113.23 48.7708 113.222 48.8013C113.147 49.0034 113.022 49.3241 112.847 49.7634C112.669 50.2043 112.468 50.6377 112.245 51.0686C112.046 51.4618 111.809 51.8344 111.536 52.181C111.286 52.4941 111.035 52.6319 110.785 52.5994C110.617 52.5818 110.507 52.434 110.452 52.1559C110.391 51.8052 110.377 51.4481 110.409 51.0937C110.436 50.6628 110.492 50.1918 110.577 49.6757C110.662 49.1596 110.757 48.656 110.867 48.1575C110.978 47.6589 111.085 47.1954 111.188 46.7645C111.291 46.3336 111.371 46.0129 111.439 45.7624C111.476 45.633 111.466 45.4944 111.411 45.3715C111.356 45.2457 111.27 45.1361 111.161 45.0534C110.853 44.8651 110.513 44.7367 110.158 44.6751C109.85 44.6147 109.538 44.572 109.224 44.5473C109.102 44.5385 108.98 44.5714 108.879 44.6405C108.778 44.7097 108.704 44.8111 108.668 44.9281C108.613 45.1461 108.55 45.359 108.487 45.5594C108.421 45.7669 108.369 45.9786 108.332 46.1933C108.009 45.8948 107.609 45.6934 107.177 45.6121C106.726 45.5268 106.263 45.5268 105.812 45.6121C105.313 45.7032 104.829 45.8652 104.376 46.0931C103.909 46.3183 103.47 46.5984 103.068 46.9273C102.7 47.2307 102.377 47.584 102.106 47.9771C101.821 48.385 101.587 48.8268 101.41 49.2924C101.238 49.7375 101.116 50.2005 101.047 50.6728C100.98 51.0905 101.004 51.5177 101.117 51.9254C101.224 52.2988 101.437 52.6331 101.731 52.8875C102.078 53.1709 102.508 53.3352 102.956 53.356C103.474 53.4053 103.996 53.3044 104.459 53.0653C104.953 52.811 105.407 52.487 105.809 52.1033C106.229 51.7049 106.611 51.2689 106.952 50.8006C107.268 50.3693 107.561 49.921 107.828 49.4577C107.753 50.8256 107.914 51.9304 108.302 52.7747C108.69 53.619 109.304 54.055 110.141 54.09C110.502 54.1106 110.861 54.0234 111.173 53.8395C111.502 53.6405 111.795 53.3862 112.037 53.0879C112.3 52.7684 112.534 52.4254 112.734 52.0632C112.93 51.7056 113.106 51.3376 113.262 50.9609C113.41 50.6001 113.531 50.2644 113.623 49.9588C113.716 49.6531 113.781 49.4276 113.819 49.2748C113.848 49.1864 113.85 49.0909 113.823 49.0016C113.796 48.9124 113.742 48.8336 113.668 48.7763ZM107.656 47.714C107.46 47.9846 107.227 48.2952 106.959 48.651C106.691 49.0067 106.41 49.375 106.097 49.7759C105.784 50.1767 105.489 50.5275 105.193 50.8532C104.939 51.1304 104.669 51.3922 104.384 51.6373C104.143 51.8411 103.958 51.9338 103.827 51.9154C103.736 51.8908 103.655 51.8385 103.595 51.7659C103.535 51.6932 103.499 51.6036 103.492 51.5096C103.464 51.2236 103.497 50.9349 103.589 50.6628C103.778 50.098 104.035 49.5586 104.356 49.0569C104.625 48.5567 104.979 48.1067 105.401 47.7265C105.727 47.4331 106.099 47.1937 106.501 47.0175C106.798 46.8833 107.125 46.8272 107.45 46.8547C107.567 46.8588 107.68 46.8907 107.782 46.9478C107.884 47.0049 107.97 47.0855 108.034 47.1829C107.984 47.2681 107.851 47.4434 107.663 47.714H107.656Z" fill="#6A0DAD"/>
<path d="M133.31 39.6676C133.439 39.8167 133.542 39.986 133.616 40.1687C133.674 40.329 133.697 40.4996 133.686 40.6697C133.662 40.873 133.574 41.0635 133.435 41.2134C133.241 41.3911 133.007 41.5206 132.754 41.5917C132.426 41.6972 132.081 41.7406 131.737 41.7195C131.585 41.7221 131.433 41.6966 131.291 41.6443C131.17 41.605 131.057 41.5448 130.957 41.4664C130.898 41.4167 130.849 41.3547 130.816 41.2847C130.782 41.2147 130.764 41.1382 130.762 41.0606C130.707 40.6046 130.312 40.3766 129.577 40.3766C128.561 40.4092 127.55 40.5324 126.556 40.7449C125.276 40.9871 123.766 41.3111 122.026 41.7169C120.286 42.1228 118.382 42.5045 116.314 42.8619C116.146 43.6135 115.988 44.3851 115.84 45.2043C115.693 46.0236 115.562 46.8328 115.45 47.6345C115.337 48.4362 115.259 49.1953 115.214 49.9118C115.166 50.5439 115.166 51.1787 115.214 51.8108C115.236 52.264 115.34 52.7095 115.52 53.1261C115.572 53.2731 115.668 53.4003 115.796 53.4901C115.923 53.5799 116.075 53.6278 116.231 53.6272C116.482 53.6272 116.732 53.4168 117.01 52.9934C117.313 52.5282 117.583 52.0427 117.82 51.5403C118.078 50.9908 118.306 50.4505 118.501 49.9193C118.696 49.3882 118.832 49.0199 118.904 48.817C118.915 48.7842 118.933 48.7546 118.958 48.7305C118.983 48.7064 119.013 48.6887 119.046 48.6789C119.079 48.669 119.114 48.6673 119.148 48.6739C119.181 48.6805 119.213 48.6952 119.24 48.7168C119.282 48.748 119.329 48.7732 119.378 48.792C119.453 48.8489 119.509 48.9272 119.539 49.0166C119.569 49.1059 119.571 49.2023 119.546 49.293C119.508 49.4458 119.438 49.6964 119.338 50.0446C119.238 50.3928 119.087 50.7787 118.932 51.2096C118.777 51.6405 118.571 52.0839 118.348 52.5399C118.136 52.9754 117.885 53.3905 117.597 53.78C117.341 54.1266 117.035 54.4331 116.69 54.6895C116.39 54.9169 116.021 55.0337 115.645 55.0202C115.222 54.9783 114.828 54.7894 114.53 54.4865C114.164 54.0952 113.871 53.6412 113.666 53.1462C113.331 52.2968 113.134 51.3995 113.082 50.488C112.989 49.3553 112.983 48.2169 113.067 47.0833C113.152 45.8273 113.297 44.5663 113.5 43.3003C112.256 43.4784 110.996 43.5212 109.742 43.4281C108.878 43.3598 108.026 43.1814 107.207 42.897C106.632 42.6984 106.102 42.3885 105.646 41.985C105.32 41.6831 105.049 41.3271 104.845 40.9328C104.737 40.7175 104.693 40.4757 104.719 40.2363C104.747 40.0071 104.833 39.7888 104.97 39.6025C105.119 39.4023 105.315 39.2415 105.541 39.134C105.803 39.0107 106.088 38.9424 106.378 38.9335H106.656C106.807 38.928 106.956 38.9769 107.074 39.0713C107.126 39.1106 107.167 39.1633 107.191 39.2238C107.215 39.2843 107.222 39.3502 107.212 39.4146C107.177 39.7772 107.235 40.1428 107.38 40.4768C107.549 40.8547 107.818 41.1789 108.159 41.4138C108.61 41.7194 109.11 41.9456 109.637 42.0827C110.383 42.2764 111.152 42.3657 111.922 42.3483C112.183 42.3483 112.466 42.3358 112.771 42.3107C113.077 42.2857 113.388 42.2556 113.706 42.223C113.871 41.3612 114.054 40.552 114.247 39.7929C114.44 39.0338 114.643 38.3598 114.846 37.7686C114.887 37.6641 114.961 37.5758 115.057 37.5167C115.153 37.4576 115.265 37.4308 115.377 37.4404C115.635 37.4455 115.891 37.4749 116.143 37.5281C116.469 37.5979 116.771 37.7507 117.02 37.9715C117.161 38.0628 117.265 38.2014 117.313 38.3623C117.359 38.5161 117.353 38.6803 117.298 38.8308C117.207 39.1181 117.096 39.5148 116.965 40.0209C116.835 40.5269 116.695 41.1173 116.547 41.7921C117.494 41.6067 118.464 41.3963 119.458 41.1608C120.452 40.9253 121.426 40.6806 122.382 40.4267L125.183 39.6927C126.085 39.4538 126.897 39.2425 127.62 39.0588C128.502 38.8277 129.412 38.7173 130.324 38.7306C130.916 38.7432 131.505 38.8274 132.077 38.9812C132.535 39.1127 132.957 39.3475 133.31 39.6676Z" fill="#6A0DAD"/>
<path d="M125.927 48.7763C125.882 48.7474 125.835 48.7222 125.787 48.7012C125.76 48.6847 125.73 48.674 125.699 48.6696C125.668 48.6653 125.636 48.6675 125.606 48.6761C125.576 48.6833 125.548 48.6988 125.526 48.7209C125.504 48.743 125.488 48.7709 125.481 48.8014C125.406 49.0035 125.27 49.3117 125.075 49.7259C124.882 50.1392 124.662 50.5576 124.421 50.9785C124.198 51.3753 123.941 51.7525 123.655 52.1059C123.481 52.3689 123.22 52.5616 122.918 52.6496C122.729 52.6915 122.534 52.694 122.344 52.657C122.155 52.6199 121.975 52.544 121.816 52.4341C121.543 52.219 121.332 51.9355 121.204 51.6124C121.063 51.2676 120.968 50.9052 120.924 50.5351C120.882 50.2126 120.86 49.8881 120.856 49.563C121.345 49.5317 121.819 49.3793 122.234 49.1196C122.638 48.8702 122.992 48.5483 123.279 48.1701C123.55 47.8135 123.753 47.4101 123.877 46.98C123.994 46.6034 124.028 46.2059 123.975 45.8151C123.922 45.4654 123.75 45.1445 123.489 44.9056C123.165 44.632 122.756 44.4796 122.332 44.4747C121.973 44.4533 121.613 44.5009 121.272 44.615C120.97 44.7164 120.687 44.8698 120.438 45.0685C120.195 45.2632 119.98 45.4889 119.796 45.7399C119.615 45.9866 119.457 46.249 119.323 46.5241C118.719 47.788 118.477 49.1946 118.624 50.5877C118.675 51.061 118.792 51.5248 118.972 51.9656C119.119 52.32 119.321 52.6489 119.571 52.9402C119.783 53.1851 120.032 53.3948 120.31 53.5615C120.959 53.942 121.705 54.1264 122.457 54.0926C123.025 54.0944 123.571 53.871 123.975 53.4713C124.415 53.0521 124.787 52.5659 125.075 52.0307C125.356 51.5153 125.594 50.9773 125.787 50.4223C125.962 49.8987 126.077 49.5204 126.132 49.2824C126.154 49.1872 126.146 49.0877 126.109 48.9972C126.072 48.9067 126.009 48.8297 125.927 48.7763ZM121.397 47.0552C121.513 46.7787 121.658 46.5157 121.831 46.271C121.919 46.139 122.039 46.0307 122.179 45.9554C122.244 45.9231 122.315 45.9019 122.387 45.8927C122.42 45.8853 122.455 45.8848 122.488 45.8913C122.522 45.8978 122.554 45.911 122.582 45.9303C122.669 45.9886 122.729 46.0786 122.75 46.1808C122.788 46.3305 122.788 46.4872 122.75 46.6368C122.68 46.891 122.567 47.1309 122.414 47.3458C122.221 47.6515 121.971 47.9176 121.678 48.13C121.456 48.2892 121.217 48.4244 120.966 48.5333C121.059 48.0272 121.204 47.532 121.397 47.0552Z" fill="#6A0DAD"/>
<path fill-rule="evenodd" clip-rule="evenodd" d="M42.2795 38.5742C42.9409 37.9128 42.1217 34.9315 40.7212 33.0625C42.5801 34.3832 44.1673 36.0495 45.3961 37.9704C45.8598 39.9885 46.5629 41.944 47.4906 43.7953C45.6382 42.8675 43.682 42.1635 41.6632 41.6983C39.7431 40.4704 38.0776 38.884 36.7578 37.0259C38.6368 38.4289 41.6181 39.2456 42.2695 38.5842L42.2795 38.5742Z" fill="#6A0DAD"/>
<path fill-rule="evenodd" clip-rule="evenodd" d="M39.4562 35.7405C39.8946 35.3021 40.7088 35.4098 41.2926 35.9911C41.8763 36.5723 41.9765 37.389 41.5431 37.8275C41.1097 38.2659 40.2905 38.1607 39.7042 37.5769C39.118 36.9932 39.0228 36.1815 39.4537 35.7405H39.4562Z" fill="#FFA500"/>
<path fill-rule="evenodd" clip-rule="evenodd" d="M54.548 50.8433C55.2094 50.1844 58.1932 51.0011 60.0722 52.4041C58.7502 50.5463 57.0841 48.9593 55.1643 47.7292C53.1455 47.2652 51.1892 46.5621 49.3369 45.6348C50.2665 47.4855 50.9705 49.4411 51.4339 51.4596C52.6626 53.3805 54.2498 55.0468 56.1088 56.3675C54.7058 54.4885 53.8891 51.5047 54.548 50.8558V50.8433Z" fill="#069221"/>
<path fill-rule="evenodd" clip-rule="evenodd" d="M57.3841 53.6789C57.8225 53.2379 57.7123 52.4262 57.1336 51.84C56.5548 51.2537 55.7356 51.1585 55.2972 51.5894C54.8588 52.0203 54.9665 52.8421 55.5477 53.4258C56.1289 54.0096 56.9457 54.1098 57.3866 53.6763L57.3841 53.6789Z" fill="#FFA500"/>
<path fill-rule="evenodd" clip-rule="evenodd" d="M54.548 38.5742C53.8891 37.9128 54.7058 34.9315 56.1088 33.0625C54.2498 34.3832 52.6626 36.0495 51.4339 37.9704C50.9705 39.9889 50.2665 41.9445 49.3369 43.7953C51.1896 42.8682 53.1457 42.1643 55.1643 41.6983C57.0845 40.4697 58.7507 38.8835 60.0722 37.0259C58.1932 38.4289 55.2094 39.2456 54.548 38.5842V38.5742Z" fill="#14FFD5"/>
<path fill-rule="evenodd" clip-rule="evenodd" d="M57.3839 35.7405C56.943 35.3021 56.1313 35.4098 55.545 35.9911C54.9588 36.5723 54.8636 37.389 55.2945 37.8275C55.7254 38.2659 56.5472 38.1607 57.1309 37.5769C57.7146 36.9932 57.8148 36.1815 57.3814 35.7405H57.3839Z" fill="#FFA500"/>
<path fill-rule="evenodd" clip-rule="evenodd" d="M42.2793 50.8433C41.6179 50.1844 38.6365 51.0011 36.7676 52.4041C38.088 50.5459 39.7534 48.9588 41.673 47.7292C43.692 47.266 45.6484 46.5628 47.5003 45.6348C46.5727 47.486 45.8695 49.4415 45.4059 51.4596C44.1771 53.3805 42.5899 55.0468 40.731 56.3675C42.1315 54.4885 42.9507 51.5047 42.2893 50.8558L42.2793 50.8433Z" fill="#FF0000"/>
<path fill-rule="evenodd" clip-rule="evenodd" d="M39.4564 53.6789C39.0179 53.2379 39.1257 52.4262 39.7069 51.84C40.2881 51.2537 41.1049 51.1585 41.5458 51.5894C41.9867 52.0203 41.8765 52.8421 41.2953 53.4258C40.714 54.0096 39.8973 54.1098 39.4589 53.6763L39.4564 53.6789Z" fill="#FFA500"/>
<path fill-rule="evenodd" clip-rule="evenodd" d="M57.0884 44.7071C57.0884 45.644 59.7766 47.1748 62.099 47.513C57.0559 48.3648 52.629 46.9318 48.415 44.7071C52.629 42.4873 57.0559 41.0543 62.099 41.9061C59.7766 42.2418 57.0884 43.7751 57.0884 44.7071Z" fill="#FFA500"/>
<path fill-rule="evenodd" clip-rule="evenodd" d="M61.0965 44.7073C61.0965 45.3312 60.4376 45.8347 59.6259 45.8347C58.8142 45.8347 58.1553 45.3337 58.1553 44.7073C58.1553 44.081 58.8142 43.585 59.6259 43.585C60.4376 43.585 61.0965 44.086 61.0965 44.7073Z" fill="#6A0DAD"/>
<path fill-rule="evenodd" clip-rule="evenodd" d="M39.7391 44.7071C39.7391 45.644 37.0509 47.1748 34.7285 47.513C39.7717 48.3648 44.1986 46.9318 48.4125 44.7071C44.1986 42.4873 39.7717 41.0543 34.7285 41.9061C37.0484 42.2418 39.7391 43.7751 39.7391 44.7071Z" fill="#0047FF"/>
<path fill-rule="evenodd" clip-rule="evenodd" d="M35.7305 44.7073C35.7305 45.3312 36.3894 45.8347 37.2011 45.8347C38.0128 45.8347 38.6742 45.3337 38.6742 44.7073C38.6742 44.081 38.0153 43.585 37.2011 43.585C36.3869 43.585 35.7305 44.086 35.7305 44.7073Z" fill="#6A0DAD"/>
<path fill-rule="evenodd" clip-rule="evenodd" d="M48.4146 36.0341C49.3491 36.0341 50.8798 33.3459 51.2181 31.0234C52.0699 36.0666 50.6343 40.4935 48.4146 44.7049C46.1924 40.4935 44.7594 36.0666 45.6112 31.0234C45.9469 33.3434 47.4801 36.0341 48.4146 36.0341Z" fill="#E91F63"/>
<path fill-rule="evenodd" clip-rule="evenodd" d="M48.4155 32.0254C49.0368 32.0254 49.5404 32.6843 49.5404 33.4985C49.5404 34.3127 49.0393 34.9691 48.4155 34.9691C47.7917 34.9691 47.2881 34.3102 47.2881 33.4985C47.2881 32.6868 47.7891 32.0254 48.4155 32.0254Z" fill="#6A0DAD"/>
<path fill-rule="evenodd" clip-rule="evenodd" d="M48.4146 53.3829C49.3491 53.3829 50.8798 56.0711 51.2181 58.3935C52.0699 53.3504 50.6343 48.9235 48.4146 44.707C46.1924 48.9235 44.7594 53.3504 45.6112 58.3935C45.9469 56.0736 47.4801 53.3829 48.4146 53.3829Z" fill="#A08862"/>
<path fill-rule="evenodd" clip-rule="evenodd" d="M48.4155 57.3914C49.0368 57.3914 49.5404 56.735 49.5404 55.9208C49.5404 55.1066 49.0393 54.4502 48.4155 54.4502C47.7917 54.4502 47.2881 55.1091 47.2881 55.9208C47.2881 56.7325 47.7891 57.3914 48.4155 57.3914Z" fill="#6A0DAD"/>
<path fill-rule="evenodd" clip-rule="evenodd" d="M48.4147 38.7148C49.6004 38.7153 50.7594 39.0674 51.745 39.7266C52.7307 40.3858 53.4987 41.3224 53.952 42.4181C54.4053 43.5138 54.5235 44.7193 54.2917 45.8821C54.0599 47.045 53.4885 48.113 52.6497 48.9511C51.8109 49.7892 50.7424 50.3597 49.5793 50.5906C48.4163 50.8214 47.2109 50.7022 46.1156 50.2479C45.0203 49.7937 44.0843 49.0249 43.426 48.0387C42.7676 47.0525 42.4165 45.8933 42.417 44.7075C42.4173 43.9202 42.5727 43.1407 42.8743 42.4135C43.1759 41.6862 43.6178 41.0255 44.1747 40.469C44.7317 39.9126 45.3927 39.4712 46.1202 39.1702C46.8477 38.8693 47.6274 38.7145 48.4147 38.7148Z" fill="white"/>
<defs>
<linearGradient id="paint0_linear_2_7846" x1="52.1249" y1="65.3877" x2="123.625" y2="62.3877" gradientUnits="userSpaceOnUse">
<stop stop-color="#FF0056"/>
<stop offset="1" stop-color="#FFA500"/>
</linearGradient>
<linearGradient id="paint1_linear_2_7846" x1="0.621775" y1="60.5543" x2="32.3741" y2="60.5543" gradientUnits="userSpaceOnUse">
<stop stop-color="#5D0DAD"/>
<stop offset="1" stop-color="#1EDA0E"/>
</linearGradient>
</defs>
</svg>
