<svg width="43" height="43" viewBox="0 0 43 43" fill="none" xmlns="http://www.w3.org/2000/svg">
<circle cx="21.7129" cy="21.1397" r="21.1397" fill="#222222"/>
<path fill-rule="evenodd" clip-rule="evenodd" d="M30.5189 11.2744H13.5816C12.6565 11.2744 11.8477 11.9405 11.8477 12.855V29.8293C11.8477 30.7492 12.6565 31.5685 13.5816 31.5685H30.5136C31.444 31.5685 32.1417 30.7439 32.1417 29.8293V12.855C32.147 11.9405 31.444 11.2744 30.5189 11.2744ZM18.1382 28.1905H15.2307V19.1509H18.1382V28.1905ZM16.7849 17.7765H16.7638C15.8334 17.7765 15.2307 17.084 15.2307 16.2171C15.2307 15.3343 15.8492 14.6576 16.8008 14.6576C17.7523 14.6576 18.3338 15.329 18.3549 16.2171C18.3549 17.084 17.7523 17.7765 16.7849 17.7765ZM28.7637 28.1906H25.8562V23.2479C25.8562 22.0637 25.4333 21.2549 24.3813 21.2549C23.5778 21.2549 23.1021 21.7994 22.8906 22.328C22.8113 22.5183 22.7902 22.7774 22.7902 23.0417V28.1906H19.8827V19.151H22.7902V20.4091C23.2131 19.8065 23.8739 18.9395 25.4122 18.9395C27.3205 18.9395 28.7637 20.1977 28.7637 22.9095V28.1906Z" fill="white"/>
</svg>
