<svg width="156" height="42" viewBox="0 0 156 42" fill="none" xmlns="http://www.w3.org/2000/svg">
<path d="M150.562 33.5574L141.732 24.7267L141.523 31.6776H137.523V12.1699H141.523V20.2319C142.567 21.2763 152.979 31.688 152.979 31.688L150.562 33.5574Z" fill="white"/>
<path d="M142.461 19.7725L151.527 10.7057L155.408 11.9589L145.028 22.3394L142.461 19.7725Z" fill="white"/>
<path d="M58.0573 31.6964L57.7545 30.0485H57.6542C56.5786 31.3602 54.8952 32.0661 52.9444 32.0661C49.613 32.0661 47.6288 29.6454 47.6288 27.02C47.6288 22.7488 51.4636 20.6957 57.2845 20.7291V20.4931C57.2845 19.62 56.8125 18.3752 54.2895 18.3752C52.693 18.3932 51.1285 18.8249 49.7488 19.6284L48.8068 16.3304C49.9493 15.6913 52.205 14.883 55.198 14.883C60.6827 14.883 62.4309 18.1141 62.4309 21.9843V27.703C62.4309 29.2841 62.4977 30.7983 62.6669 31.7069L58.0573 31.6964ZM57.4516 23.9247C54.7615 23.8912 52.675 24.5304 52.675 26.5167C52.675 27.8283 53.5501 28.4674 54.6947 28.4674C55.2784 28.4711 55.8486 28.2917 56.3252 27.9546C56.8017 27.6174 57.1606 27.1394 57.3514 26.5877C57.4196 26.301 57.4532 26.0072 57.4516 25.7125V23.9247ZM82.4128 7.81094V26.784C82.4128 28.6345 82.4817 30.5874 82.5485 31.6964H77.9974L77.7635 29.2736H77.6967C76.6523 31.1241 74.6682 32.0661 72.5482 32.0661C68.6467 32.0661 65.5179 28.7368 65.5179 23.6218C65.4845 18.0723 68.9495 14.8747 72.8845 14.8747C74.9042 14.8747 76.4853 15.5827 77.2246 16.7252H77.2915V7.81094H82.4128ZM77.2998 22.2099C77.2942 21.9061 77.2719 21.6028 77.233 21.3014C76.9301 19.9229 75.8211 18.7699 74.2379 18.7699C71.9174 18.7699 70.706 20.8586 70.706 23.4464C70.706 26.2389 72.0866 27.987 74.2045 27.987C74.9061 27.99 75.5865 27.7466 76.127 27.2993C76.6675 26.8519 77.0338 26.229 77.162 25.5392C77.2596 25.1551 77.3046 24.7595 77.2956 24.3633L77.2998 22.2099ZM86.5169 20.6622C86.5169 18.2394 86.4501 16.6583 86.3832 15.2464H90.7902L90.9573 18.2729H91.0931C91.9285 15.8856 93.9524 14.8747 95.5335 14.8747C95.8935 14.8599 96.254 14.883 96.6091 14.9436V19.7474C96.1549 19.6596 95.6933 19.6149 95.2306 19.6138C93.3509 19.6138 92.0685 20.6226 91.7322 22.2036C91.6609 22.5809 91.6266 22.9643 91.6299 23.3482V31.6902H86.5169V20.6622ZM108.282 31.6964L107.98 30.0485H107.879C106.804 31.3602 105.12 32.0661 103.169 32.0661C99.8381 32.0661 97.854 29.6454 97.854 27.02C97.854 22.7488 101.689 20.6957 107.51 20.7291V20.4931C107.51 19.62 107.038 18.3752 104.515 18.3752C102.918 18.3932 101.354 18.8249 99.9739 19.6284L99.0319 16.3304C100.174 15.6913 102.43 14.883 105.423 14.883C110.908 14.883 112.656 18.1141 112.656 21.9843V27.703C112.656 29.2841 112.723 30.7983 112.892 31.7069L108.282 31.6964ZM107.677 23.9247C104.987 23.8912 102.9 24.5304 102.9 26.5167C102.9 27.8283 103.775 28.4674 104.918 28.4674C105.502 28.4712 106.072 28.2919 106.549 27.9548C107.026 27.6176 107.385 27.1395 107.576 26.5877C107.645 26.301 107.678 26.0072 107.677 25.7125V23.9247ZM122.143 10.5366V15.2464H125.81V19.006H122.143V24.9606C122.143 26.9448 122.615 27.8534 124.16 27.8534C124.668 27.8552 125.175 27.8097 125.674 27.7176L125.708 31.5878C125.035 31.8573 123.828 32.0244 122.379 32.0244C120.729 32.0244 119.35 31.4521 118.544 30.6124C117.602 29.6371 117.13 28.056 117.13 25.7334V19.0143H114.943V15.2548H117.13V11.6791L122.143 10.5366ZM134.048 10.6703C134.048 12.0843 132.972 13.2267 131.291 13.2267C129.676 13.2267 128.598 12.0843 128.632 10.6703C128.598 9.18944 129.676 8.08038 131.324 8.08038C132.972 8.08038 134.016 9.18944 134.05 10.6703H134.048ZM128.77 31.6964V15.2464H133.883V31.6964H128.77Z" fill="white"/>
<path d="M36.8181 27.8534C36.8995 27.8534 36.9789 27.8659 37.0604 27.8659C36.9789 27.8659 36.8995 27.8659 36.8181 27.8534C35.7346 27.7911 34.7158 27.3172 33.97 26.5287C33.2242 25.7403 32.8078 24.6967 32.8058 23.6114V17.5544C32.8058 17.4917 32.8163 17.427 32.8163 17.3622C32.816 17.2987 32.8125 17.2353 32.8058 17.1722C32.7569 16.6383 32.5101 16.142 32.114 15.7807C31.7179 15.4194 31.2011 15.2191 30.665 15.2193H28.5158V19.3151C28.516 21.539 29.3835 23.6751 30.9338 25.2695C32.4841 26.8639 34.5951 27.7908 36.8181 27.8534Z" fill="white"/>
<path d="M43.4557 15.2193C42.9183 15.2193 42.4004 15.4207 42.0041 15.7838C41.6078 16.1468 41.3619 16.6451 41.3149 17.1805C41.3149 17.2432 41.3045 17.3058 41.3045 17.3685C41.3048 17.432 41.3082 17.4954 41.3149 17.5586V23.6156C41.313 24.7005 40.8969 25.7438 40.1515 26.5322C39.4062 27.3207 38.3879 27.7947 37.3047 27.8576C39.5274 27.7945 41.6378 26.8673 43.1877 25.273C44.7376 23.6786 45.6047 21.5428 45.6049 19.3193V15.2193H43.4557Z" fill="white"/>
<path d="M37.3047 27.8534C37.2233 27.8534 37.1418 27.8659 37.0604 27.8659C36.9789 27.8659 36.8995 27.8659 36.8181 27.8534C34.5951 27.7908 32.4841 26.8639 30.9338 25.2695C29.3835 23.6751 28.516 21.5389 28.5158 19.3151V23.6114C28.5158 25.8775 29.416 28.0509 31.0185 29.6533C32.6209 31.2557 34.7942 32.1559 37.0604 32.1559C39.3265 32.1559 41.4999 31.2557 43.1023 29.6533C44.7047 28.0509 45.6049 25.8775 45.6049 23.6114V19.3151C45.6047 21.5386 44.7376 23.6744 43.1877 25.2687C41.6378 26.8631 39.5274 27.7903 37.3047 27.8534Z" fill="white"/>
<path fill-rule="evenodd" clip-rule="evenodd" d="M24.4764 0.601013L12.5796 21.199L11.6982 22.73L7.62121 29.7916V29.802L0.691162 41.8074H8.85141L15.7815 29.802L17.2226 27.3061L25.5959 41.8074H33.7561L26.8261 29.802V29.7916L22.7449 22.7216L21.8656 21.199L22.7449 19.6743L26.8261 12.6064L33.7561 0.601013H24.4764Z" fill="#FF0000"/>
<path fill-rule="evenodd" clip-rule="evenodd" d="M2.74014 0.601013L2.73596 18.0139V19.7829V25.7334L4.46952 22.73L5.35092 21.199L10.7772 11.8086V11.6122V3.45198V0.601013H2.74014Z" fill="#FF0000"/>
</svg>
