<svg width="34" height="34" viewBox="0 0 34 34" fill="none" xmlns="http://www.w3.org/2000/svg">
<path d="M29.7498 7.08333C28.1773 6.5875 26.449 6.375 24.7915 6.375C22.029 6.375 19.054 6.94167 16.9998 8.5C14.9457 6.94167 11.9707 6.375 9.20817 6.375C6.44567 6.375 3.47067 6.94167 1.4165 8.5V29.2542C1.4165 29.6083 1.77067 29.9625 2.12484 29.9625C2.2665 29.9625 2.33734 29.8917 2.479 29.8917C4.3915 28.9708 7.154 28.3333 9.20817 28.3333C11.9707 28.3333 14.9457 28.9 16.9998 30.4583C18.9123 29.2542 22.3832 28.3333 24.7915 28.3333C27.129 28.3333 29.5373 28.7583 31.5207 29.8208C31.6623 29.8917 31.7332 29.8917 31.8748 29.8917C32.229 29.8917 32.5832 29.5375 32.5832 29.1833V8.5C31.7332 7.8625 30.8123 7.4375 29.7498 7.08333ZM29.7498 26.2083C28.1915 25.7125 26.4915 25.5 24.7915 25.5C22.3832 25.5 18.9123 26.4208 16.9998 27.625V11.3333C18.9123 10.1292 22.3832 9.20833 24.7915 9.20833C26.4915 9.20833 28.1915 9.42083 29.7498 9.91667V26.2083Z" fill="#FFCB14"/>
</svg>
