<svg width="154" height="60" viewBox="0 0 154 60" fill="none" xmlns="http://www.w3.org/2000/svg">
<path fill-rule="evenodd" clip-rule="evenodd" d="M90.8168 53.8636C108.828 43.8143 129.655 39.4396 153.298 40.7394C135.746 41.0741 114.919 45.4489 90.8168 53.8636Z" fill="white"/>
<path d="M137.88 30.0937C137.728 29.6248 137.472 29.1966 137.13 28.8419C136.76 28.4675 136.313 28.1779 135.819 27.9934C135.21 27.7721 134.565 27.6677 133.917 27.6855H127.452V40.6607H130.213V35.5061H133.92C134.584 35.5239 135.244 35.4066 135.861 35.1613C136.354 34.9586 136.798 34.6527 137.163 34.2643C137.492 33.9061 137.741 33.4823 137.893 33.0208C138.042 32.5695 138.119 32.0971 138.119 31.6217C138.121 31.1029 138.04 30.5871 137.88 30.0937ZM135.035 32.41C134.932 32.5187 134.809 32.6046 134.671 32.6623C134.534 32.72 134.385 32.748 134.236 32.7447H130.22V30.4385H134.261C134.408 30.4374 134.553 30.4675 134.688 30.527C134.822 30.5864 134.942 30.6738 135.04 30.7833C135.25 31.0016 135.368 31.2932 135.368 31.5966C135.368 31.9 135.25 32.1916 135.04 32.41H135.035ZM122.913 27.6855H125.674V40.6607H122.913V27.6855ZM118.379 27.6855H121.139V40.6607H118.379V35.5061H113.226V40.6524H110.471V27.6855H113.226V32.7531H118.374L118.379 27.6855ZM107.75 33.7488C108.5 34.4183 108.875 35.4046 108.875 36.7077C108.875 38.0109 108.503 38.9966 107.76 39.665C107.017 40.3344 105.982 40.6691 104.654 40.6691H98.0099V37.8943H105.069C105.211 37.8976 105.351 37.8681 105.479 37.808C105.607 37.7479 105.719 37.6588 105.807 37.5479C106 37.3119 106.105 37.016 106.103 36.7111C106.117 36.4025 106.015 36.0998 105.817 35.8626C105.728 35.75 105.614 35.6594 105.485 35.5979C105.355 35.5364 105.213 35.5055 105.069 35.5078H101.578C100.907 35.527 100.239 35.4062 99.6166 35.153C99.1245 34.9439 98.6812 34.635 98.3145 34.2459C97.9862 33.89 97.7404 33.4659 97.5949 33.0041C97.4501 32.5381 97.3773 32.0528 97.379 31.5648C97.3789 31.0656 97.4585 30.5695 97.6149 30.0954C97.7646 29.628 98.0174 29.2001 98.3547 28.8436C98.7198 28.4678 99.164 28.178 99.655 27.9951C100.271 27.7722 100.923 27.6671 101.578 27.6855H108.046V30.4469H101.243C101.096 30.4458 100.951 30.476 100.816 30.5354C100.682 30.5949 100.562 30.6822 100.463 30.7916C100.252 31.0111 100.135 31.3051 100.139 31.61C100.136 31.7596 100.163 31.9082 100.219 32.047C100.275 32.1859 100.358 32.3121 100.463 32.4183C100.566 32.5269 100.69 32.6128 100.828 32.6704C100.966 32.7281 101.114 32.7562 101.263 32.7531H104.691C105.981 32.7475 107 33.0766 107.75 33.7405V33.7488Z" fill="url(#paint0_linear_342_2456)"/>
<path fill-rule="evenodd" clip-rule="evenodd" d="M91.7976 34.8166L96.6292 27.6771H93.2971L90.4185 32.666L87.5383 27.6771H84.2062L89.0378 34.9739V40.6523H91.7976V34.8166ZM72.1196 27.6854H77.5219C81.4649 27.6854 83.4369 29.8415 83.438 34.1538V34.2123C83.399 38.5112 81.4202 40.6607 77.5018 40.6607H72.1196V27.6854ZM80.0256 36.9938C80.4596 36.3891 80.6766 35.4357 80.6766 34.1337L80.6833 33.968C80.6844 31.6149 79.817 30.4384 78.0809 30.4384H74.8743V37.8942H78.0541C78.9344 37.8987 79.5916 37.5986 80.0256 36.9938ZM64.6069 27.6854H59.2029V40.6607H64.5868C68.5041 40.6607 70.4823 38.5112 70.5213 34.2123V34.1538C70.5213 29.8415 68.5499 27.6854 64.6069 27.6854ZM67.7616 34.1337C67.7616 35.4357 67.5446 36.3891 67.1106 36.9938C66.6766 37.5986 66.0194 37.8987 65.1391 37.8942H61.9593V30.4384H65.1542C66.888 30.4384 67.7555 31.6149 67.7566 33.968L67.7616 34.1337ZM49.5228 31.5923C49.5265 31.2914 49.6423 31.0028 49.8476 30.7828C49.9472 30.674 50.0689 30.5878 50.2046 30.5298C50.3402 30.4718 50.4867 30.4433 50.6342 30.4464H57.4289V27.685H50.9689C49.9123 27.685 49.1168 27.8312 48.5823 28.1235C48.0325 28.4425 47.5758 28.8998 47.2575 29.45C46.9393 30.0002 46.7706 30.6241 46.7682 31.2598C46.7525 31.8285 46.8393 32.3953 47.0242 32.9334C47.1949 33.3874 47.5698 33.7852 48.1489 34.1266C47.6767 34.3978 47.2984 34.8064 47.0644 35.2981C46.8695 35.7394 46.7686 36.2165 46.7682 36.6989C46.7686 37.1835 46.842 37.6653 46.9858 38.1282C47.1286 38.6001 47.3744 39.0345 47.7054 39.4001C48.067 39.7942 48.511 40.1039 49.0058 40.3072C49.6301 40.5537 50.2979 40.6709 50.9689 40.6519H57.4289V37.8922H50.6542C50.5042 37.8946 50.3554 37.8649 50.2177 37.8052C50.08 37.7454 49.9567 37.657 49.8559 37.5457C49.6468 37.3129 49.5312 37.011 49.5312 36.6981C49.5312 36.3851 49.6468 36.0832 49.8559 35.8504C49.9539 35.7412 50.0739 35.654 50.2081 35.5946C50.3422 35.5351 50.4874 35.5048 50.6342 35.5056H57.4289V32.7442H50.6459C50.4933 32.7512 50.3411 32.7249 50.1998 32.6671C50.0584 32.6093 49.9314 32.5214 49.8275 32.4095C49.6277 32.1845 49.519 31.8931 49.5228 31.5923Z" fill="url(#paint1_linear_342_2456)"/>
<path d="M12.5702 41.7051C12.1786 41.3017 11.146 40.7511 9.46401 40.9201C7.78206 41.0892 6.70427 42.8598 6.77121 42.9385C6.83816 43.0171 7.6465 42.6038 7.98289 42.669C7.60805 42.8901 7.30367 43.213 7.10517 43.6002C6.90667 43.9874 6.8222 44.4231 6.86159 44.8564C6.90845 45.7233 7.42224 46.3827 7.51094 46.4162C7.59964 46.4497 7.78038 45.6647 8.02807 45.4622C8.2289 47.0019 9.67655 47.5275 9.75521 47.3919C9.83387 47.2563 9.56442 46.8195 9.49748 46.5551C9.76693 46.9584 11.1008 47.5593 11.9761 47.0706C12.7392 46.0681 12.5702 41.7051 12.5702 41.7051Z" fill="#00DC39"/>
<path d="M9.49246 41.1678C10.9083 41.0273 12.0781 41.5812 12.5802 42.0615C12.5802 41.8373 12.5702 41.7051 12.5702 41.7051C12.1786 41.3017 11.146 40.7511 9.46401 40.9201C7.78206 41.0892 6.70427 42.8598 6.77121 42.9385C6.93523 42.7762 7.84398 41.3335 9.49246 41.1678Z" fill="#0C4207"/>
<path d="M6.86156 44.8564C6.90842 45.7234 7.42221 46.3828 7.51091 46.4162C7.59961 46.4497 7.78036 45.6648 8.02805 45.4623C8.22888 47.002 9.67652 47.5275 9.75518 47.3919C9.83384 47.2564 9.56439 46.8196 9.49745 46.5551C9.7669 46.9585 11.1007 47.5593 11.976 47.0706C12.1718 46.8162 12.3107 46.3426 12.3961 45.7769C11.3133 46.8196 9.32173 45.7903 9.15604 45.3C8.86149 45.7451 9.01546 46.1367 8.90333 46.2422C8.7912 46.3476 8.20712 45.4907 8.29247 44.5251C7.75358 44.7728 7.5176 45.243 7.39376 45.233C7.26991 45.223 6.85654 43.7117 8.09332 42.6523L7.81215 42.7896C7.48682 43.0209 7.22783 43.3335 7.06104 43.6962C6.89424 44.0588 6.82546 44.4589 6.86156 44.8564Z" fill="#0C4207"/>
<path d="M9.69332 47.4555C9.66461 47.4549 9.63603 47.4515 9.60796 47.4454C9.17953 47.3584 8.19713 46.7643 7.99798 45.5526C7.88163 45.7292 7.78828 45.9198 7.72016 46.12C7.61975 46.371 7.57456 46.4848 7.49758 46.4547C7.37206 46.4078 6.86664 45.7133 6.8181 44.8581C6.77941 44.4391 6.85518 44.0174 7.03733 43.6381C7.21948 43.2588 7.50117 42.936 7.85238 42.7042C7.62321 42.7385 7.39865 42.7986 7.18294 42.8833C6.90178 42.9803 6.78631 43.0171 6.74112 42.9653C6.69593 42.9134 6.7294 42.895 6.74112 42.8531C6.95309 42.4509 7.23666 42.0908 7.57791 41.7904C8.09282 41.2924 8.75392 40.9727 9.46404 40.8783C10.1541 40.7959 10.8538 40.8569 11.5192 41.0574C11.9246 41.1764 12.297 41.3878 12.607 41.6749L12.6171 41.6866V41.7034C12.6171 41.7134 12.6572 42.8096 12.6054 44.0129C12.5334 45.6363 12.3342 46.6723 12.0129 47.0923C11.218 47.5392 10.0665 47.1074 9.61633 46.7158L9.6816 46.8697C9.78034 47.1007 9.86737 47.2998 9.80712 47.4019C9.79622 47.4217 9.77935 47.4376 9.75891 47.4472C9.73847 47.4568 9.71551 47.4597 9.69332 47.4555ZM8.0599 45.3819L8.06994 45.4572C8.11527 45.8402 8.25489 46.2059 8.47628 46.5216C8.69768 46.8374 8.99394 47.0933 9.33852 47.2664C9.4535 47.3368 9.5853 47.3749 9.72009 47.3768C9.75357 47.3065 9.66319 47.094 9.58956 46.9233C9.53703 46.8087 9.4923 46.6908 9.45567 46.5702L9.39709 46.3342L9.53265 46.5367C9.6498 46.7141 10.0347 46.9685 10.5217 47.1141C10.8397 47.2078 11.4456 47.3216 11.9476 47.0438C12.6639 46.0848 12.5401 42.023 12.53 41.7318C12.0815 41.28 11.0238 40.8147 9.46738 40.9704C8.6172 41.0557 7.9461 41.5544 7.53272 41.9578C7.23724 42.2306 6.99394 42.555 6.81476 42.9151C6.92867 42.89 7.04055 42.8564 7.14947 42.8146C7.43063 42.7176 7.78209 42.5954 7.98626 42.6372L8.08835 42.6573L7.99965 42.7126C7.63122 42.9299 7.33211 43.2474 7.13716 43.6281C6.9422 44.0089 6.85941 44.4371 6.89843 44.8631C6.92985 45.4192 7.14534 45.9491 7.51097 46.3693C7.56015 46.2796 7.60212 46.1862 7.63648 46.0898C7.73188 45.8488 7.84903 45.551 7.99631 45.4305L8.0599 45.3819Z" fill="#351200"/>
<path d="M28.1696 23.7057C28.8089 24.0253 29.8867 25.0546 29.8867 25.0546C30.3319 24.1843 30.7453 23.4865 30.7453 23.4865C31.737 23.8146 32.6731 24.2915 33.5217 24.9006C34.8506 25.8763 35.2874 26.8018 35.2874 26.8018C35.3884 27.7767 35.3631 28.7605 35.2121 29.7289C35.0447 30.7649 34.6481 31.0929 34.5861 31.0678C34.5242 31.0427 34.5025 30.4954 34.3401 30.0753C34.2803 30.6015 34.0829 31.1025 33.7678 31.528C33.505 31.9364 32.9661 32.3648 32.9042 32.3179C32.8423 32.2711 33.0046 31.8159 33.0381 31.4092C32.669 31.8166 32.1571 32.0659 31.6088 32.1054C30.5511 32.2477 29.3261 31.7573 28.6466 31.3305C28.0995 30.8684 27.603 30.3495 27.1655 29.7825C27.1655 29.7825 26.8743 25.9583 26.886 25.9131C26.8977 25.868 28.1696 23.7057 28.1696 23.7057Z" fill="#00DC39"/>
<path d="M29.7645 25.304C29.6173 25.6002 29.3127 26.6428 29.4901 27.1298C29.5725 26.5221 29.7522 25.9316 30.0223 25.3809C30.2967 24.832 30.6315 24.1207 30.834 23.9567C30.7687 23.8982 30.6666 23.8981 30.5126 23.8915C30.3453 24.1776 30.1244 24.5927 29.8867 25.0546C29.8867 25.0546 28.8089 24.0253 28.1696 23.7057L28.0491 23.9099C28.6661 24.316 29.2408 24.7831 29.7645 25.304Z" fill="#BD7543"/>
<path d="M28.6466 31.3272C29.3261 31.7539 30.5511 32.2443 31.6089 32.102C32.1571 32.0626 32.669 31.8132 33.0381 31.4058C33.0046 31.8158 32.8423 32.2711 32.9042 32.3146C32.9661 32.3581 33.505 31.933 33.7678 31.5246C34.0829 31.0991 34.2803 30.5981 34.3401 30.072C34.5075 30.492 34.5259 31.036 34.5862 31.0644C34.6464 31.0929 35.0531 30.7648 35.2121 29.7255C35.3631 28.7572 35.3884 27.7733 35.2874 26.7984C35.113 26.4729 34.8963 26.1719 34.6431 25.9031C34.6849 26.8386 34.7016 28.1992 34.5142 29.0661C34.3955 28.7299 34.2194 28.4167 33.9937 28.1407C33.9937 28.1407 34.0439 29.5716 33.4548 30.5975C33.4635 30.462 33.444 30.3262 33.3976 30.1986C33.3513 30.071 33.279 29.9544 33.1854 29.8561C32.9327 30.564 31.8733 31.3372 30.4256 31.041C29.5152 30.8552 28.0575 29.7188 27.1002 28.9021C27.1387 29.4042 27.1655 29.7757 27.1655 29.7757C27.6028 30.3439 28.0993 30.864 28.6466 31.3272Z" fill="#92471D"/>
<path d="M32.9159 32.3597C32.903 32.36 32.8902 32.3565 32.8791 32.3497C32.8272 32.3112 32.844 32.2191 32.9009 31.9564C32.9293 31.8275 32.9628 31.6735 32.9846 31.5196C32.5913 31.8995 32.2298 32.0601 31.6139 32.1438C31.0609 32.2019 30.5019 32.142 29.9738 31.9681C29.5003 31.8249 29.047 31.6219 28.6249 31.3639C28.076 30.8991 27.5774 30.378 27.1371 29.8092V29.7991V29.7857C27.0049 28.0385 26.8475 25.9449 26.8576 25.903C26.8676 25.8612 27.763 24.3382 28.1479 23.6872L28.1663 23.6537L28.2015 23.6705C28.7772 23.9583 29.6826 24.7951 29.8884 24.9893C30.3202 24.1525 30.7169 23.4747 30.7252 23.468L30.742 23.4395L30.7738 23.4496C31.769 23.7802 32.7089 24.2587 33.5619 24.8688C34.8858 25.8411 35.3376 26.7766 35.3426 26.7867C35.4424 27.7655 35.4171 28.7531 35.2673 29.7255C35.1301 30.6142 34.8138 31.0008 34.6648 31.0811C34.6529 31.0891 34.6394 31.0943 34.6252 31.0963C34.611 31.0983 34.5965 31.0971 34.5828 31.0928C34.5376 31.0727 34.5226 31.0008 34.4841 30.7765C34.4557 30.5949 34.4171 30.4149 34.3686 30.2376C34.292 30.6973 34.1092 31.1329 33.8347 31.5095L33.8163 31.5363C33.577 31.9095 33.0917 32.3212 32.9477 32.348L32.9159 32.3597ZM33.0833 31.2936L33.0733 31.4091C33.054 31.5997 33.0216 31.7887 32.9762 31.9748C32.951 32.0725 32.9342 32.1721 32.926 32.2727C33.2472 32.0771 33.5219 31.8138 33.731 31.5012L33.7494 31.4727C34.0513 31.0592 34.2399 30.574 34.2967 30.0652L34.3184 29.8979L34.377 30.0502C34.458 30.2823 34.5169 30.5216 34.5527 30.7648C34.5638 30.8491 34.5811 30.9324 34.6046 31.0142C34.6816 30.9773 35.0213 30.6677 35.1686 29.7154C35.3172 28.753 35.3431 27.7757 35.2456 26.8068C35.2054 26.7264 34.7435 25.8444 33.495 24.9273C32.6581 24.329 31.7371 23.8581 30.762 23.5299C30.68 23.6705 30.3118 24.3064 29.9253 25.0679L29.9001 25.1181L29.8583 25.078C29.8483 25.0679 28.8173 24.0855 28.1847 23.7541C27.6927 24.5909 26.9764 25.8093 26.9262 25.9131C26.9262 26.0721 27.1253 28.7197 27.2057 29.7623C27.6387 30.3223 28.1295 30.835 28.6701 31.292C29.4299 31.7689 30.6298 32.1907 31.6005 32.0585C32.1399 32.0217 32.644 31.7769 33.0063 31.3756L33.0833 31.2936Z" fill="#351200"/>
<path d="M29.4165 26.3801C29.4987 25.9162 29.644 25.4657 29.8483 25.0412L29.9253 25.0763C29.552 25.8797 29.3981 26.611 29.4901 27.1332C29.4901 27.1298 29.3579 26.9374 29.4165 26.3801Z" fill="#351200"/>
<path d="M15.2328 30.8234C15.4002 33.1112 14.2086 38.3847 13.9291 39.1913C13.6496 39.998 13.427 40.393 13.1877 40.6842C12.9484 40.9754 11.8187 41.941 11.3702 43.6966C11.007 45.1225 11.3367 46.9835 12.6271 48.5768C13.9174 50.17 14.7592 50.7524 14.7592 50.7524L22.4326 51.062L31.1168 37.7822C31.654 35.0593 30.2516 32.815 29.398 31.4226C28.5445 30.0301 26.9513 26.9558 26.2182 24.8102C25.4852 22.6647 24.0961 16.8373 24.0961 16.8373L14.0295 22.1442L13.6797 25.4646L15.2328 30.8234Z" fill="#00DC39"/>
<path d="M29.3981 31.4293C28.5462 30.0385 26.9513 26.9625 26.2183 24.817C26.4124 25.391 26.0509 26.2763 26.2183 26.9792C26.6651 28.9105 27.8918 30.6276 28.5228 31.6469C29.3596 33.0192 31.2005 36.373 29.7612 39.8591L31.1152 37.7872C31.654 35.0643 30.2516 32.82 29.3981 31.4293Z" fill="#0C4207"/>
<path d="M13.0706 48.4044C11.7802 46.8112 11.4505 45.2531 11.8154 43.8272C12.2639 42.0649 13.2162 41.2231 13.4521 40.9319C13.6881 40.6407 13.9341 40.1185 14.2153 39.3119C14.227 39.2767 13.9542 39.1144 13.9693 39.0659C13.9542 39.1194 13.9392 39.1646 13.9274 39.1997C13.6463 40.0081 13.4254 40.4014 13.186 40.6926C12.9467 40.9838 11.8171 41.9494 11.3685 43.705C11.0054 45.1309 11.3351 46.9919 12.6254 48.5852C13.9157 50.1784 14.7575 50.7609 14.7575 50.7609L15.268 50.7826C14.4855 50.0376 13.7516 49.2432 13.0706 48.4044Z" fill="#0C4207"/>
<path d="M22.456 51.1156H22.4309L14.7441 50.8059H14.7341C14.7257 50.8059 13.8739 50.2001 12.5936 48.6219C11.9912 47.8842 11.5623 47.0205 11.3384 46.0948C11.1468 45.3074 11.1468 44.4856 11.3384 43.6982C11.6294 42.6193 12.2024 41.6373 12.9986 40.8531C13.0722 40.7762 13.1291 40.7159 13.1659 40.6724C13.3551 40.4364 13.5927 40.0766 13.899 39.193C14.1701 38.4114 15.3634 33.1279 15.201 30.8451L13.6496 25.4897L14.0027 22.1425L14.0212 22.1325L24.1363 16.8004L24.148 16.8523C24.1631 16.9109 25.5454 22.7098 26.2684 24.8219C26.9914 26.934 28.573 30.01 29.4482 31.4259L29.4784 31.4761C30.0274 32.3179 30.4857 33.2155 30.8457 34.1538C31.2904 35.3215 31.4033 36.5894 31.172 37.8173V37.8256L22.456 51.1156ZM14.7726 50.7206L22.4108 51.0285L31.0766 37.7754C31.6005 35.0977 30.2716 32.9388 29.393 31.5062L29.3629 31.456C28.4876 30.0301 26.896 26.9373 26.1831 24.837C25.4952 22.8287 24.2133 17.5 24.0727 16.9109L14.0747 22.1827L13.7283 25.4729L15.278 30.82C15.3684 32.0601 15.0638 34.0885 14.7927 35.5696C14.5815 36.7952 14.3072 38.009 13.9709 39.2063C13.7216 39.9277 13.504 40.3628 13.2245 40.7126C13.186 40.7578 13.1291 40.8197 13.0572 40.8967C12.2704 41.6735 11.7043 42.6456 11.4171 43.7133C11.0154 45.2865 11.4823 47.0973 12.6656 48.5567C13.8488 50.016 14.6755 50.6453 14.7726 50.7156V50.7206Z" fill="#351200"/>
<path d="M17.4001 37.3923C16.7013 38.6064 16.2924 39.9655 16.2052 41.3637C16.088 43.1477 16.4361 44.5268 18.0562 46.4798C19.5072 48.2271 21.5556 49.4069 21.5556 49.4069L21.9874 31.1833L17.4001 37.3923Z" fill="#1C8911"/>
<path d="M21.5958 49.4721L21.5339 49.4369C21.5138 49.4252 19.4636 48.232 18.0193 46.4998C17.221 45.5375 16.7173 44.7007 16.4345 43.8656C16.172 43.0564 16.078 42.2021 16.1583 41.3552C16.2448 39.951 16.6555 38.5859 17.3583 37.3671L22.0242 31.051L21.5958 49.4721ZM17.4353 37.4089C16.7403 38.617 16.3337 39.9692 16.247 41.3602C16.1366 43.0338 16.4027 44.4145 18.088 46.4462C19.3766 47.9977 21.1607 49.1156 21.5138 49.3282L21.9405 31.3087L17.4353 37.4089Z" fill="#1C8911"/>
<path d="M29.9253 45.1827C30.9051 45.4916 31.8149 45.9897 32.603 46.6488C33.6071 47.5324 33.9151 48.2136 33.89 48.2989C33.8649 48.3843 33.2841 48.0713 32.8373 47.9642C33.582 48.4897 33.7678 48.9567 33.9017 49.3684C34.0356 49.7801 33.987 50.647 33.9017 50.6269C33.8163 50.6068 33.5268 50.1549 33.2323 49.9156C33.2162 51.066 32.8826 52.1896 32.2683 53.1624C30.3169 54.6435 27.6927 54.2401 27.6927 54.2401C27.6927 54.2401 25.8317 49.5357 25.7965 49.442C25.7614 49.3483 26.2015 46.145 26.2015 46.145L28.163 44.6974L29.9253 45.1827Z" fill="#00DC39"/>
<path d="M33.2289 49.9223C33.5318 50.1616 33.8264 50.6118 33.8983 50.6335C33.9703 50.6553 34.0289 49.7867 33.8983 49.375C33.7678 48.9633 33.5787 48.4964 32.8339 47.9709C33.2808 48.0713 33.8615 48.3826 33.8866 48.3056C33.9117 48.2286 33.6021 47.5391 32.5996 46.6554C31.8115 45.9964 30.9018 45.4983 29.9219 45.1894L28.5027 44.7911L28.2517 45.3065C30.1194 45.8354 32.6766 47.1575 32.5929 47.3835C32.5093 47.6094 31.9369 47.3834 31.1921 47.5023C32.3637 47.9725 33.2573 48.9449 33.1737 49.1759C33.09 49.4068 32.6599 49.0252 32.2063 48.9232C32.8758 50.3022 32.3737 52.5398 31.2323 53.7765C31.5957 53.6188 31.939 53.4182 32.2549 53.1791C32.8745 52.2044 33.2117 51.0771 33.2289 49.9223Z" fill="#0C4207"/>
<path d="M28.5211 54.3389C28.2386 54.3408 27.9562 54.324 27.6759 54.2887H27.6508V54.2653C27.5755 54.0728 25.7998 49.5524 25.7664 49.4504C25.758 49.4269 25.7413 49.3784 25.9538 47.745C26.0576 46.9417 26.1663 46.1417 26.168 46.1333V46.1166L28.1613 44.6455L29.9453 45.1476C30.9246 45.4618 31.8339 45.9625 32.623 46.622C33.6138 47.4939 33.9619 48.1952 33.9234 48.3157C33.9177 48.3314 33.9063 48.3445 33.8916 48.3525C33.8364 48.3776 33.7242 48.3341 33.4615 48.2337C33.3343 48.1835 33.1837 48.1232 33.0364 48.0764C33.4704 48.3952 33.7865 48.849 33.9351 49.3667C34.0606 49.7516 34.0339 50.5666 33.9435 50.662C33.9366 50.6695 33.9279 50.675 33.9181 50.6779C33.9084 50.6809 33.8981 50.6812 33.8883 50.6788C33.8431 50.6671 33.7845 50.5984 33.6573 50.4445C33.5348 50.2925 33.4023 50.1488 33.2607 50.0144C33.2323 51.1421 32.8985 52.2411 32.295 53.1942V53.2025C31.2775 53.9724 30.0792 54.2268 29.2524 54.3037C28.978 54.3305 28.7336 54.3389 28.5211 54.3389ZM27.7127 54.2084C28.219 54.2667 28.7301 54.2712 29.2374 54.2217C30.0507 54.1448 31.2289 53.8954 32.2264 53.1406C32.8355 52.1759 33.1657 51.0614 33.1803 49.9206V49.837L33.2456 49.8888C33.4193 50.04 33.5774 50.2082 33.7175 50.3909C33.7811 50.4662 33.8514 50.5583 33.8849 50.5851C33.9563 50.1897 33.9438 49.7837 33.8481 49.3935C33.7042 48.9533 33.5134 48.5148 32.8004 48.0094L32.6331 47.8872L32.8406 47.9341C33.0631 47.9923 33.2812 48.0662 33.4933 48.155C33.606 48.2042 33.7224 48.2445 33.8414 48.2755C33.8163 48.1433 33.4966 47.5023 32.5678 46.6856C31.639 45.8689 30.6197 45.4739 29.9135 45.2279L28.1713 44.7392L26.24 46.1651C26.0726 47.4186 25.8233 49.3048 25.8383 49.4286C25.8869 49.5625 27.5722 53.8536 27.706 54.2084H27.7127Z" fill="#0C4207"/>
<path d="M31.7795 43.7033H37.9651L46.9037 22.1727H59.4757L62.7659 14.2449H50.1923H40.611L38.986 18.1628" fill="white"/>
<path d="M31.7795 43.7033H37.9651L46.9037 22.1727H59.4757L62.7659 14.2449H50.1923H40.611L38.986 18.1628" fill="url(#paint2_linear_342_2456)"/>
<path d="M30.2448 47.5529H21.7486L30.4403 26.7148L30.7291 26.0223H29.9788H18.1588L21.0487 19.0945H33.2891H42.1183L30.2448 47.5529Z" fill="white" stroke="url(#paint3_linear_342_2456)"/>
<path d="M15.1542 48.8763C14.9738 49.1883 14.7612 49.4805 14.5199 49.7482C13.5994 50.8118 12.8255 51.9938 12.2187 53.2628C11.0472 55.7347 11.1912 57.4367 11.7167 58.24C12.3459 59.2057 14.9601 60.024 15.6881 59.4416C15.9575 59.8567 17.4052 60.2332 17.6629 59.6241C18.1349 59.8567 19.4135 59.9169 19.4135 59.0266C19.7951 59.0366 20.108 58.9362 20.2653 58.476C20.4226 58.0157 20.1314 56.4125 18.3926 55.6158C18.9298 55.3681 19.6829 54.5046 19.8737 53.5406C20.1197 53.8435 20.0863 54.3908 20.2319 54.4192C20.3775 54.4477 20.7473 54.0845 20.759 53.1356C20.7708 52.1867 20.5682 51.7231 20.3892 51.4536C20.6687 51.5775 21.0737 52.262 21.2076 52.272C21.3414 52.282 21.4318 50.893 20.6586 49.8604C20.9716 49.9173 21.3766 50.2085 21.5339 50.0963C21.6912 49.9842 21.308 48.6956 19.4704 47.0103C17.6997 45.3852 16.1466 44.9819 16.0713 44.9735L15.1542 48.8763Z" fill="#00DC39"/>
<path d="M12.5334 53.3515C13.1125 52.1007 13.8536 50.9314 14.7375 49.8738C15.0722 49.4755 15.186 49.1675 15.1475 48.8696C14.9671 49.1816 14.7545 49.4738 14.5132 49.7416C13.5927 50.8051 12.8188 51.9871 12.212 53.2561C11.3183 55.1439 11.1895 56.5832 11.4121 57.5154C11.4238 56.3037 11.6397 55.2393 12.5334 53.3515Z" fill="#0C4207"/>
<path d="M19.4285 47.6128C20.0796 48.3977 20.5431 49.1324 20.4979 49.268C20.4528 49.4035 20.0712 49.3199 19.5323 49.3282C19.8921 49.6629 20.6268 50.642 20.5599 50.8344C20.4929 51.0269 19.9088 50.7842 19.375 50.8077C19.9591 51.4135 20.1197 51.8252 20.2034 52.1951C20.2871 52.5649 20.3959 53.2126 20.2503 53.1858C20.1047 53.159 19.9808 52.8059 19.4754 52.5951C19.3917 53.4067 18.4361 54.8962 17.288 55.3079C17.6678 55.345 18.0382 55.448 18.3825 55.6125C18.9198 55.3648 19.6729 54.5013 19.8637 53.5373C20.1097 53.8402 20.0762 54.3875 20.2218 54.4159C20.3674 54.4444 20.7373 54.0812 20.749 53.1323C20.7607 52.1833 20.5582 51.7198 20.3791 51.4503C20.6586 51.5742 21.0636 52.2587 21.1975 52.2687C21.3314 52.2787 21.4218 50.8897 20.6486 49.8571C20.9615 49.914 21.3665 50.2052 21.5239 50.093C21.6812 49.9809 21.2979 48.6923 19.4603 47.007C17.6897 45.3819 16.1366 44.9786 16.0613 44.9702C17.0855 45.402 18.7775 46.8279 19.4285 47.6128Z" fill="#0C4207"/>
<path d="M15.678 59.4416C15.9474 59.8567 17.3951 60.2332 17.6528 59.6241C18.1248 59.8567 19.4034 59.9169 19.4034 59.0266C19.785 59.0366 20.0979 58.9362 20.2552 58.476C20.3231 58.1309 20.2852 57.7733 20.1465 57.4501C19.9942 58.076 19.4503 58.2417 18.975 57.8233C19.1423 58.5764 18.1382 58.8994 17.365 58.4325C17.1976 58.804 16.0261 59.0885 15.3349 58.4325C15.0872 58.8626 14.0831 58.8592 13.0856 58.568C12.299 58.3388 11.7233 58.0107 11.412 57.5639C11.4693 57.8009 11.5648 58.027 11.6949 58.2333C12.3359 59.2057 14.95 60.024 15.678 59.4416Z" fill="#0C4207"/>
<path d="M16.9817 59.9856C16.4897 59.9856 15.8788 59.763 15.6696 59.5003C15.4102 59.6793 14.9466 59.7245 14.3559 59.6291C13.3701 59.4718 12.0982 58.9162 11.6781 58.2635C11.3853 57.8133 11.248 57.1439 11.2899 56.3757C11.3401 55.4402 11.6396 54.3875 12.1802 53.2444C12.8268 51.9021 13.6552 50.6553 14.6421 49.5391C14.8329 49.3322 15.0044 49.1081 15.1542 48.8697C15.1542 48.8697 15.1692 49.0738 14.7057 49.586C13.7252 50.696 12.9009 51.9348 12.2555 53.2678C11.72 54.3992 11.4187 55.4435 11.3735 56.3656C11.3317 57.1171 11.4656 57.7698 11.7484 58.2066C12.1618 58.8392 13.4086 59.3781 14.376 59.5354C14.9718 59.6308 15.427 59.5823 15.6596 59.3965L15.6947 59.3681L15.7198 59.4065C15.8872 59.6559 16.5683 59.9321 17.1089 59.8852C17.2124 59.8873 17.3145 59.8615 17.4046 59.8105C17.4947 59.7596 17.5695 59.6854 17.621 59.5957L17.6378 59.5555L17.6779 59.5756C17.9993 59.7329 18.6821 59.8032 19.0754 59.5605C19.1689 59.5045 19.2455 59.4241 19.297 59.3281C19.3486 59.232 19.3732 59.1238 19.3683 59.0149V58.9815H19.4101C19.8502 58.9948 20.0929 58.8392 20.2218 58.461C20.3891 57.994 20.0544 56.4225 18.3708 55.6527L18.2871 55.6142L18.3708 55.5757C18.9298 55.3197 19.6494 54.436 19.8285 53.5306L19.8452 53.4419L19.9021 53.5122C20.0237 53.6894 20.1032 53.892 20.1348 54.1046C20.1632 54.2285 20.195 54.3691 20.2368 54.3774C20.2767 54.3761 20.3145 54.3593 20.3423 54.3306C20.5096 54.19 20.7054 53.8017 20.7138 53.134C20.7138 52.3976 20.6034 51.8553 20.3506 51.4754L20.2703 51.3549L20.4025 51.4135C20.6074 51.5498 20.7841 51.7242 20.923 51.9273C21.0028 52.0378 21.0955 52.1384 21.1992 52.2269C21.2845 52.1097 21.3581 50.8663 20.6218 49.8839L20.5565 49.7985L20.6619 49.8169C20.8022 49.8496 20.9385 49.8973 21.0686 49.9592C21.246 50.0345 21.4301 50.1131 21.5054 50.0596C21.5054 50.0596 21.5171 50.0445 21.5188 50.0094C21.5288 49.8604 21.4234 49.5073 21.0971 48.9684C20.635 48.2524 20.077 47.6032 19.4385 47.0388C17.6897 45.4372 16.0914 44.9769 16.0679 44.9719C16.0445 44.9669 16.3541 44.9535 16.9215 45.2229L17.1257 45.3217C17.987 45.7634 18.7842 46.3202 19.4954 46.9769C21.1356 48.4831 21.6242 49.6713 21.6025 50.0144C21.6039 50.0358 21.6002 50.0573 21.5918 50.0771C21.5833 50.0969 21.5704 50.1144 21.554 50.1282C21.4401 50.2102 21.2527 50.1282 21.0351 50.0362C20.9414 49.996 20.846 49.9558 20.7557 49.9274C21.3933 50.8545 21.3966 52.0428 21.2745 52.2704C21.2689 52.2852 21.2587 52.2979 21.2455 52.3066C21.2323 52.3153 21.2166 52.3196 21.2008 52.3189C21.1255 52.3189 21.0335 52.2018 20.8577 51.9842C20.7553 51.8493 20.6434 51.7218 20.523 51.6026C20.7172 51.9809 20.8092 52.4863 20.8008 53.139C20.7925 53.8352 20.5883 54.2469 20.3992 54.3992C20.3763 54.422 20.3487 54.4395 20.3184 54.4505C20.288 54.4615 20.2556 54.4657 20.2235 54.4628C20.1281 54.4444 20.0979 54.3105 20.0561 54.1281C20.0258 53.9597 19.9693 53.797 19.8887 53.6461C19.7755 54.0925 19.5721 54.5111 19.2913 54.8762C19.0747 55.1753 18.7997 55.4276 18.4829 55.6176C19.1736 55.9335 19.7349 56.4771 20.0728 57.1572C20.349 57.7263 20.3841 58.2484 20.3004 58.4961C20.2509 58.6784 20.1378 58.837 19.9816 58.9431C19.8254 59.0493 19.6363 59.0962 19.4486 59.0752C19.4476 59.1917 19.4162 59.306 19.3575 59.4067C19.2988 59.5073 19.2148 59.5909 19.1139 59.6492C18.6988 59.9086 18.0177 59.8367 17.6729 59.686C17.6123 59.7797 17.529 59.8565 17.4306 59.9092C17.3323 59.9619 17.2222 59.9887 17.1106 59.9873C17.0688 59.9856 17.0252 59.9856 16.9817 59.9856Z" fill="#0C4207"/>
<path d="M18.3658 55.6544C17.3081 55.1858 15.7835 55.2059 15.2379 55.3197C15.2379 55.3197 15.4053 55.1992 16.0964 55.1691C16.7943 55.1691 17.6981 55.2678 18.3993 55.5774L18.3658 55.6544Z" fill="#351200"/>
<path d="M15.7149 59.4618L15.6429 59.4199C15.6574 59.2465 15.6226 59.0724 15.5425 58.9179C15.3902 58.5346 14.8881 57.6007 13.5526 57.2275C13.7802 57.2281 14.004 57.2856 14.2036 57.3949C14.4856 57.5372 14.7446 57.7211 14.9718 57.9405C15.2525 58.2103 15.4737 58.5358 15.6211 58.8961C15.7249 59.1488 15.7634 59.3798 15.7149 59.4618Z" fill="#351200"/>
<path d="M17.6896 59.6509L17.616 59.6107C17.6696 59.5086 17.6612 59.1672 17.4721 58.7271C17.3174 58.363 17.0818 58.039 16.7831 57.7798C16.4844 57.5205 16.1305 57.3328 15.7483 57.2309C16.0036 57.2346 16.2528 57.3094 16.4679 57.4468C16.9498 57.7399 17.3279 58.1765 17.5491 58.6953C17.7382 59.1254 17.7616 59.507 17.6896 59.6509Z" fill="#351200"/>
<path d="M19.3616 59.0283C19.3197 58.1129 18.5901 56.9682 17.0822 56.6217C17.0822 56.6217 17.4018 56.5849 17.9742 56.8627C18.3011 57.0366 18.5928 57.2699 18.8344 57.5506C19.1943 57.961 19.409 58.4786 19.4453 59.0233L19.3616 59.0283Z" fill="#351200"/>
<path d="M18.1465 4.84109C18.0009 4.30387 18.0896 2.75581 18.9833 1.53242C19.877 0.309029 21.7096 0.00108945 21.8937 0.146691C22.0259 0.250453 21.6644 0.623659 21.5858 0.859634C22.3516 0.673243 23.1554 0.716317 23.897 0.983483C25.0066 1.35837 25.6024 2.32235 25.512 2.44452C25.4216 2.56669 25.0969 2.47464 24.8275 2.51983C25.4133 2.96555 25.8418 3.58636 26.0509 4.29215C26.2417 4.93146 26.2634 6.08623 26.1295 6.06448C25.9956 6.04272 25.6693 5.45864 25.343 5.26785C25.4959 5.67544 25.5473 6.11419 25.4924 6.54609C25.4376 6.97798 25.2783 7.38999 25.0283 7.74643C24.3706 8.73886 22.9748 9.22755 22.9748 9.22755L18.1465 4.84109Z" fill="#00DC39"/>
<path d="M19.3967 1.85036C19.867 1.26962 20.5682 1.00185 21.405 0.799348C21.405 0.799348 21.0184 1.43866 20.9933 1.76668C21.5222 1.38845 22.7723 0.903108 23.5957 1.14745C24.3548 1.37239 25.0289 1.82018 25.5304 2.43276C25.584 2.27377 24.9915 1.34828 23.9104 0.983443C23.1688 0.716277 22.365 0.673204 21.5992 0.859595C21.6778 0.62362 22.0393 0.250414 21.9071 0.146652C21.723 0.00105033 19.8988 0.31401 18.9967 1.53238C18.3506 2.43745 18.04 3.53931 18.1181 4.64859C18.2404 4.72697 18.372 4.78993 18.5097 4.83603C18.4562 3.89715 18.4043 3.08379 19.3967 1.85036Z" fill="#0C4207"/>
<path d="M25.0283 7.74639C25.278 7.38981 25.437 6.97772 25.4916 6.54583C25.5461 6.11394 25.4945 5.67527 25.3413 5.26781C25.676 5.4586 25.9923 6.04268 26.1279 6.06444C26.2634 6.0862 26.24 4.93142 26.0492 4.29212C25.8398 3.58872 25.4134 2.96955 24.8308 2.52314L24.717 2.49469C25.4551 3.20764 25.763 4.57328 25.6291 4.67035C25.4952 4.76742 25.1856 4.56491 24.717 4.61512C24.8844 5.15401 25.0517 6.42258 24.4292 7.21921C23.9405 7.83676 22.9029 8.37398 22.0159 7.76815C22.0445 8.02394 22.1046 8.27521 22.1949 8.51624L22.9748 9.22416C22.9748 9.22416 24.3773 8.73882 25.0283 7.74639Z" fill="#0C4207"/>
<path d="M22.9715 9.27597L18.1098 4.86441V4.85269C17.9575 4.29539 18.0512 2.74063 18.9566 1.50553C19.6495 0.563302 20.8661 0.166662 21.4753 0.0880039C21.6092 0.0695945 21.8485 0.0495089 21.9289 0.111431C22.041 0.200131 21.9289 0.382552 21.7983 0.576687C21.7491 0.647997 21.7044 0.722343 21.6644 0.799277C22.4141 0.630642 23.1963 0.680003 23.9188 0.941532C24.8593 1.25951 25.4585 2.01429 25.5572 2.32893C25.5681 2.35046 25.5738 2.37425 25.5738 2.39838C25.5738 2.42251 25.5681 2.4463 25.5572 2.46784C25.4903 2.55821 25.3396 2.55319 25.1656 2.54817C25.0953 2.54817 25.0233 2.54817 24.9514 2.54817C25.4983 2.99801 25.8991 3.60038 26.1028 4.27866C26.2701 4.83763 26.327 5.93215 26.1965 6.07943C26.189 6.08881 26.1792 6.09606 26.1681 6.10046C26.1569 6.10487 26.1448 6.10627 26.1329 6.10453C26.0609 6.09281 25.9773 5.9924 25.8266 5.80329C25.7105 5.64848 25.5799 5.50503 25.4367 5.37485C25.5661 5.77439 25.6009 6.19851 25.5384 6.61381C25.476 7.0291 25.318 7.42423 25.0769 7.76807C24.4192 8.76051 23.0167 9.26091 23.0016 9.26593L22.9715 9.27597ZM18.1834 4.81922L22.9916 9.17891C23.1757 9.11029 24.4041 8.6216 24.9999 7.72456C25.2456 7.37316 25.4022 6.96728 25.4561 6.5419C25.5101 6.11652 25.4597 5.68441 25.3095 5.28281L25.2693 5.17235L25.3698 5.23092C25.569 5.37556 25.7432 5.55197 25.8852 5.75308C25.9553 5.85261 26.038 5.94262 26.1312 6.02085C26.1841 5.80639 26.1977 5.58412 26.1714 5.36481C26.1587 5.00648 26.1065 4.65065 26.0158 4.30376C25.8096 3.60739 25.3869 2.9948 24.8091 2.55486L24.7238 2.49462L24.8258 2.47788C24.9368 2.4632 25.0489 2.45928 25.1606 2.46616C25.3062 2.46616 25.4417 2.47453 25.4836 2.4193C25.4839 2.37702 25.4729 2.33543 25.4518 2.29881C25.3011 1.96409 24.7438 1.31306 23.8886 1.02186C23.1538 0.758216 22.3579 0.715744 21.5992 0.899693L21.5272 0.916424L21.5506 0.846137C21.5953 0.735717 21.6514 0.630266 21.718 0.531502C21.8034 0.400963 21.9205 0.220215 21.8686 0.180049C21.7411 0.144162 21.6062 0.144162 21.4787 0.180049C20.8812 0.262055 19.6913 0.643635 19.0168 1.56411C18.6134 2.12925 18.3386 2.77589 18.2118 3.4586C18.1138 3.90595 18.1041 4.36816 18.1834 4.81922Z" fill="#351200"/>
<path d="M20.9264 5.84346C20.8749 5.52538 20.905 5.19944 21.0139 4.89618C21.1228 4.59292 21.3069 4.32228 21.549 4.10963C22.0946 3.66445 22.9113 3.5791 23.3899 4.10963C23.8686 4.64015 23.9355 5.44849 23.6242 6.25516C23.3999 6.83087 22.3238 7.71117 22.3238 7.71117L20.9264 5.84346Z" fill="#00DC39"/>
<path d="M22.1548 4.30711C22.3583 4.17345 22.5962 4.10154 22.8397 4.10006C23.0832 4.09857 23.322 4.16758 23.5271 4.29874C23.483 4.23283 23.435 4.16967 23.3832 4.10963C22.9112 3.5791 22.0945 3.66445 21.5423 4.10963C21.3002 4.32228 21.1161 4.59292 21.0072 4.89618C20.8983 5.19944 20.8682 5.52538 20.9197 5.84346L21.492 6.6133C21.4978 6.60013 21.5007 6.58585 21.5004 6.57147C21.39 5.66271 21.4469 4.74559 22.1548 4.30711Z" fill="#0C4207"/>
<path d="M22.3104 7.76988L20.8862 5.85864V5.8486C20.8338 5.52337 20.8648 5.19015 20.9764 4.88017C21.0879 4.5702 21.2763 4.2936 21.5238 4.07628C21.7985 3.84961 22.1389 3.71756 22.4945 3.69972C22.6666 3.69048 22.8385 3.7198 22.9977 3.78553C23.157 3.85126 23.2995 3.95174 23.415 4.07963C23.6587 4.36105 23.8064 4.71276 23.8367 5.08378C23.8726 5.48996 23.8118 5.89887 23.6593 6.27704C23.4334 6.85777 22.3908 7.71465 22.3456 7.7498L22.3104 7.76988ZM20.9716 5.8235L22.3305 7.6477C22.5146 7.49374 23.3899 6.74063 23.5857 6.23855C23.8987 5.43523 23.8133 4.64865 23.3581 4.13653C22.9029 3.62442 22.0895 3.7265 21.5824 4.13653C21.3456 4.34321 21.1648 4.60636 21.0568 4.90157C20.9489 5.19678 20.9172 5.51447 20.9649 5.82518L20.9716 5.8235Z" fill="#351200"/>
<path d="M7.77034 8.10454C7.53436 7.62254 6.20219 6.3205 4.62902 6.11967C3.30355 5.95231 2.15547 6.523 1.25173 7.45853C0.5823 8.14303 0.235869 9.39654 0.329589 9.41328C0.42331 9.43001 0.799866 9.10199 1.33374 8.85765C0.639387 9.64729 0.268799 10.67 0.296118 11.7211C0.296118 12.6584 0.798193 13.5621 0.91367 13.5119C1.02915 13.4617 1.03082 12.6533 1.17307 12.3169C1.30027 13.855 2.6793 14.8491 2.84666 14.7738C3.01402 14.6985 2.6793 14.1043 2.74624 13.5286C2.98025 13.8705 3.29573 14.1486 3.66419 14.3379C4.03264 14.5273 4.44246 14.6219 4.85663 14.6131C5.33935 14.6307 5.82192 14.5743 6.28754 14.4457L7.77034 8.10454Z" fill="#00DC39"/>
<path d="M4.59223 6.73384C5.99134 6.8627 7.13272 7.76142 7.6917 8.43754L7.77036 8.10283C7.53438 7.62083 6.20221 6.31879 4.62904 6.11796C3.30357 5.9506 2.15549 6.52129 1.25175 7.45683C0.582321 8.14132 0.23589 9.39483 0.32961 9.41157C0.381491 9.35634 0.721229 8.28023 1.39903 7.61079C2.42159 6.59827 3.53285 6.6351 4.59223 6.73384Z" fill="#0C4207"/>
<path d="M0.292797 11.7178C0.292797 12.655 0.794872 13.5587 0.910349 13.5085C1.02583 13.4583 1.0275 12.65 1.16975 12.3136C1.29695 13.8516 2.67598 14.8457 2.84334 14.7704C3.0107 14.6951 2.67598 14.101 2.74292 13.5253C2.97693 13.8671 3.29241 14.1452 3.66087 14.3346C4.02932 14.5239 4.43914 14.6185 4.85331 14.6097C5.33603 14.6274 5.8186 14.5709 6.28422 14.4424L6.51518 13.46L6.35953 12.9579C6.35953 12.9579 5.58801 13.7947 4.46169 13.7646C4.04876 13.748 3.64848 13.6175 3.30522 13.3874C2.96196 13.1572 2.68913 12.8366 2.51699 12.4609C2.34963 12.9395 2.4718 13.3947 2.24587 13.4951C2.01993 13.5955 1.3756 12.491 1.42414 11.3914C1.08942 11.7111 0.922064 12.0609 0.80324 12.0374C0.684415 12.014 0.666006 11.5939 0.707845 10.9546C0.749685 10.3153 1.20992 9.2208 1.5028 8.7204L1.29527 8.86265L1.33042 8.84592C0.634076 9.6377 0.26335 10.6638 0.292797 11.7178Z" fill="#0C4207"/>
<path d="M2.82324 14.8156C2.74429 14.8065 2.6689 14.7777 2.604 14.7319C2.26358 14.5111 1.96871 14.2271 1.73541 13.8951C1.43618 13.4871 1.23619 13.0149 1.15133 12.5161C1.11786 12.665 1.09275 12.8508 1.07099 13.0182C1.02581 13.3529 1.0007 13.5202 0.927067 13.5487C0.914533 13.5542 0.900744 13.5561 0.887181 13.5543C0.873618 13.5526 0.860793 13.5471 0.850082 13.5386C0.682724 13.4282 0.25094 12.5847 0.25094 11.7211C0.230225 10.7321 0.552507 9.76648 1.16304 8.98817C0.963886 9.09193 0.793181 9.20239 0.660968 9.28774C0.463485 9.41493 0.381479 9.46514 0.326251 9.4551C0.315804 9.45291 0.306183 9.44782 0.298489 9.44042C0.290794 9.43302 0.285336 9.42361 0.282738 9.41326C0.229183 9.2459 0.617454 8.061 1.22664 7.43006C2.23079 6.39077 3.41401 5.92384 4.63907 6.08283C5.39974 6.20359 6.11855 6.51124 6.73105 6.97819C7.30676 7.40161 7.69503 7.85181 7.81219 8.09113V8.10451L6.31935 14.4775H6.29759C5.82809 14.6096 5.34055 14.6661 4.85329 14.6449C4.4527 14.6515 4.05613 14.5642 3.69543 14.3898C3.33473 14.2154 3.01995 13.9588 2.77638 13.6407C2.78174 13.8732 2.81546 14.1042 2.87679 14.3286C2.93537 14.5813 2.97553 14.7503 2.86006 14.8022C2.84858 14.8086 2.83615 14.8131 2.82324 14.8156ZM1.19819 12.1378L1.21158 12.3052C1.26279 12.7626 1.41021 13.2039 1.64413 13.6002C1.87806 13.9965 2.1932 14.3389 2.56885 14.6047C2.73621 14.7185 2.81487 14.7302 2.82826 14.7269C2.87846 14.7035 2.83663 14.5227 2.79646 14.3487C2.71833 14.077 2.68664 13.7941 2.70274 13.5119L2.71445 13.3947L2.77805 13.4935C3.00946 13.8291 3.32043 14.1021 3.68315 14.2881C4.04588 14.4742 4.44906 14.5674 4.85664 14.5595C5.32657 14.574 5.79613 14.5205 6.25073 14.4005L7.72516 8.10451C7.4484 7.68308 7.09194 7.31979 6.67582 7.03509C6.07444 6.57672 5.36898 6.2743 4.62234 6.15479C3.42573 6.0025 2.27932 6.45938 1.27517 7.4786C0.667662 8.10452 0.34466 9.17393 0.349681 9.35803C0.438939 9.31378 0.525052 9.26345 0.607413 9.2074C0.830171 9.05853 1.06341 8.92598 1.3053 8.81077L1.49609 8.72207L1.35383 8.87603C0.668725 9.65913 0.302598 10.6709 0.327924 11.7111C0.335444 12.1233 0.418841 12.5307 0.573941 12.9127C0.63961 13.1165 0.749312 13.3033 0.895269 13.46C0.944283 13.3102 0.975186 13.1552 0.987316 12.9981C1.00865 12.758 1.05693 12.5211 1.13124 12.2918L1.19819 12.1378Z" fill="#351200"/>
<path d="M6.39289 11.4564C6.48996 10.6005 5.76233 9.81512 4.7677 9.70232C3.77306 9.58953 2.88806 10.192 2.79099 11.0479C2.69393 11.9039 3.42154 12.6892 4.41618 12.802C5.41081 12.9148 6.29582 12.3124 6.39289 11.4564Z" fill="#00DC39"/>
<path d="M4.67928 10.3488C5.28846 10.409 5.97798 10.8374 6.40139 11.2826C6.38633 10.4994 5.69347 9.81154 4.76798 9.70778C3.77387 9.59397 2.88854 10.1965 2.79148 11.0466C2.77184 11.2258 2.78718 11.4072 2.83666 11.5805C3.0308 10.4475 3.95796 10.2801 4.67928 10.3488Z" fill="#0C4207"/>
<path d="M4.65415 12.8608C4.57309 12.8605 4.49209 12.856 4.41148 12.8474C3.39562 12.7319 2.65088 11.9253 2.74962 11.0466C2.84836 10.168 3.75377 9.55044 4.77298 9.66592C5.79219 9.7814 6.53359 10.5881 6.43485 11.465C6.3428 12.2717 5.56793 12.8608 4.65415 12.8608ZM4.53031 9.73621C3.65837 9.73621 2.92032 10.2935 2.8333 11.0567C2.73958 11.8935 3.45085 12.6533 4.42153 12.7637C4.49878 12.7723 4.57643 12.7768 4.65415 12.7771C5.52609 12.7771 6.26414 12.2198 6.35117 11.4567C6.44489 10.6199 5.73362 9.85838 4.76294 9.7496C4.68576 9.74019 4.60806 9.73572 4.53031 9.73621Z" fill="#351200"/>
<path d="M11.1912 5.50377C10.4983 5.77824 8.07662 6.43094 6.83984 7.93214C5.77712 9.21745 5.50098 10.4844 5.50098 12.1948C5.50098 13.6474 5.88925 14.8373 5.93109 16.0323C5.96121 17.0917 5.61478 19.1502 5.78214 20.2832C6.00138 21.6856 6.68587 22.5659 7.28836 22.9475C7.2791 22.566 7.32075 22.185 7.41221 21.8145C7.51262 22.5442 8.38791 23.868 9.48745 23.9349C9.27323 23.6002 9.13934 22.8471 9.13934 22.8471C9.65481 23.4647 12.7057 24.9692 15.9123 24.2881C19.1189 23.6069 23.1958 21.7693 24.2049 18.2029C24.4242 18.705 24.307 19.4815 24.307 19.4815C24.9631 18.9795 25.5689 17.9167 25.5522 16.2164C25.9081 16.4616 26.1645 16.8261 26.2752 17.244C26.7103 16.6482 27.0099 14.434 26.1078 12.5395C25.1672 10.5714 24.1664 9.61409 23.0368 8.06435C22.3121 7.07192 21.4904 5.51549 19.5223 4.58163C18.2135 3.96073 17.0119 3.54233 15.0387 3.81513C12.9785 4.10131 12.2572 4.81927 11.1912 5.50377Z" fill="#00DC39"/>
<path d="M6.1721 16.0724C6.13026 14.8775 5.85914 13.7445 5.85914 12.2918C5.85914 10.5814 6.07671 9.57392 7.13776 8.29028C8.34609 6.82925 9.75859 6.37069 10.4481 6.13304C10.3427 6.29036 9.80545 6.4778 9.77867 6.48449C10.736 6.37571 11.5794 5.61925 12.7911 5.05693C13.6279 4.66363 14.3275 4.38749 15.0806 4.29042C17.0504 4.01763 17.8972 4.01931 19.5306 4.58163C18.2219 3.96073 17.0203 3.54233 15.0471 3.81513C12.9769 4.10131 12.2589 4.81927 11.1979 5.50377C10.505 5.77824 8.08333 6.43094 6.84656 7.93214C5.78383 9.21745 5.50769 10.4844 5.50769 12.1948C5.50769 13.6474 5.89596 14.8373 5.9378 16.0323C5.96123 17.0917 5.6148 19.1502 5.78216 20.2832C5.6148 19.1502 6.20892 17.1419 6.1721 16.0724Z" fill="#0C4207"/>
<path d="M7.42226 21.8145C7.52268 22.5442 8.39796 23.868 9.4975 23.9349C9.28328 23.6002 9.1494 22.8471 9.1494 22.8471C9.66486 23.4646 12.7158 24.9692 15.9224 24.288C19.129 23.6069 23.2058 21.7693 24.215 18.2029C24.4342 18.705 24.3171 19.4815 24.3171 19.4815C24.9731 18.9794 25.579 17.9167 25.5622 16.2163C25.9181 16.4616 26.1746 16.8261 26.2852 17.2439C26.7203 16.6481 27.0199 14.434 26.1178 12.5395C25.1773 10.5714 24.1765 9.61406 23.0468 8.06433C22.3238 7.07356 21.5055 5.52382 19.5474 4.58997C20.3049 5.14075 20.9688 5.8098 21.5138 6.57149C21.9992 7.31121 22.3607 8.41243 23.0954 9.41658C23.7648 10.3354 24.5597 11.2575 25.2325 12.7838C25.5706 13.5849 25.7091 14.4562 25.6359 15.3227C24.9798 14.7888 24.4928 14.8206 24.4928 14.8206C24.8125 15.731 24.4593 16.9109 24.4593 16.9109C24.1899 16.2414 23.4318 15.8749 23.4318 15.8749C23.5991 17.1268 22.523 19.3476 21.564 20.3233C20.6051 21.299 17.8319 22.9441 16.2404 23.0278C14.6488 23.1115 12.3192 23.1801 12.3192 23.1801C10.8548 23.3023 9.30671 22.5458 8.65402 21.4965C8.49826 21.9722 8.49826 22.4852 8.65402 22.9609C8.0783 22.5157 7.53941 21.2873 7.57456 20.6781C6.84655 21.2706 6.93525 22.2697 7.29841 22.9458C7.28908 22.5649 7.33073 22.1844 7.42226 21.8145Z" fill="#0C4207"/>
<path d="M14.2354 24.5057C13.3133 24.5012 12.3967 24.3631 11.5142 24.0956C10.428 23.771 9.57949 23.3107 9.21967 22.981C9.27879 23.3057 9.38418 23.6202 9.53263 23.9149L9.57615 23.9835H9.49414C8.99207 23.9534 8.48999 23.6605 8.05319 23.1567C7.76494 22.8265 7.5494 22.4394 7.42057 22.0204C7.35972 22.3272 7.33278 22.6398 7.34024 22.9526V23.0329L7.2733 22.9911C6.89944 22.7433 6.58693 22.4136 6.35952 22.0271C6.041 21.4972 5.83213 20.9087 5.74532 20.2966C5.63821 19.6121 5.72189 18.5828 5.79552 17.6758C5.85114 17.1325 5.87907 16.5868 5.8792 16.0407C5.84811 15.4992 5.78215 14.9603 5.68172 14.4273C5.54113 13.691 5.46276 12.9442 5.44742 12.1948C5.44742 10.5999 5.6767 9.25932 6.798 7.90539C7.35757 7.27146 8.04105 6.75885 8.8063 6.39916C9.43514 6.09299 10.0837 5.8291 10.7477 5.60923C10.915 5.55066 11.0623 5.50045 11.1644 5.45861C11.3418 5.34648 11.5091 5.231 11.6665 5.12389C12.5032 4.55153 13.2915 4.01096 15.0253 3.77164C17.0872 3.48713 18.334 3.97247 19.534 4.54149C21.2075 5.33644 22.0443 6.55983 22.7221 7.54389C22.8426 7.71125 22.9548 7.87861 23.0669 8.0376C23.3866 8.47608 23.6962 8.87439 23.9974 9.2476C24.7522 10.2032 25.4668 11.1053 26.1413 12.5211C26.5531 13.416 26.7552 14.3931 26.732 15.3779C26.717 16.193 26.5496 16.9344 26.3053 17.2674L26.245 17.3494L26.23 17.249C26.1285 16.8694 25.9036 16.5343 25.5907 16.2967C25.5907 18.3234 24.7104 19.2205 24.3288 19.5134L24.2451 19.577L24.2618 19.4732C24.3152 19.0938 24.2965 18.7076 24.2066 18.3352C23.9485 19.1623 23.5255 19.9286 22.9631 20.5878C22.3692 21.2797 21.674 21.8777 20.9013 22.3618C20.1214 22.854 19.2931 23.2651 18.4294 23.5885C17.613 23.8992 16.7737 24.146 15.919 24.3266C15.3656 24.4449 14.8013 24.505 14.2354 24.5057ZM9.08077 22.6999L9.18118 22.822C9.44561 23.1367 10.3527 23.6588 11.5393 24.0153C12.955 24.4547 14.4579 24.5346 15.9123 24.2479C17.5474 23.8998 22.9732 22.4371 24.1748 18.1929L24.2066 18.0791L24.2535 18.1879C24.4208 18.5929 24.3957 19.1535 24.3706 19.3845C24.7773 19.0381 25.5421 18.1327 25.5204 16.2197V16.1377L25.5856 16.1796C25.9218 16.4134 26.174 16.749 26.3053 17.1369C26.4726 16.8323 26.64 16.203 26.6634 15.3763C26.6857 14.4043 26.4866 13.4399 26.081 12.5563C25.4116 11.1505 24.6986 10.2518 23.9455 9.30116C23.646 8.91958 23.3347 8.52796 23.0133 8.08781C22.9012 7.93384 22.7874 7.76648 22.6669 7.58573C21.9975 6.61004 21.1691 5.39669 19.5122 4.61178C18.3256 4.04946 17.0905 3.56913 15.0521 3.8503C13.3367 4.08794 12.5568 4.62182 11.7284 5.18916C11.561 5.30129 11.3937 5.41845 11.2163 5.53225C11.1108 5.57409 10.9635 5.62597 10.7928 5.68622C9.78869 6.03432 7.92432 6.69037 6.87833 7.9489C5.77377 9.28777 5.54783 10.6082 5.54783 12.1847C5.56271 12.9274 5.63997 13.6675 5.77879 14.3972C5.87943 14.9335 5.9454 15.4758 5.97627 16.0206C5.97624 16.57 5.94831 17.1191 5.89259 17.6657C5.81895 18.5695 5.73527 19.592 5.84071 20.2665C6.09509 21.8932 6.92519 22.6229 7.26493 22.8589C7.26368 22.5003 7.30583 22.1429 7.39045 21.7945L7.44568 21.5953L7.47413 21.7995C7.56785 22.4789 8.37619 23.7525 9.43055 23.8764C9.28476 23.5461 9.17967 23.1994 9.11759 22.8438L9.08077 22.6999Z" fill="#0C4207"/>
<path d="M8.49168 11.0717C7.91596 11.0717 7.05239 12.0072 6.73441 13.6541C6.52856 14.7201 6.88504 16.0406 8.04148 15.9017C9.10588 15.7762 9.62971 14.5745 9.57616 13.5151C9.5226 12.4558 9.377 11.0801 8.49168 11.0717Z" fill="#92471D"/>
<path d="M9.29665 11.7596C9.12929 11.3562 8.88997 11.0767 8.49166 11.0717C8.25508 11.0902 8.03297 11.1929 7.86574 11.3612C8.1787 11.1487 8.42472 11.1085 8.65902 11.1755C8.89332 11.2424 9.07407 11.4165 9.29665 11.7596Z" fill="#351200"/>
<path d="M8.40633 11.5354C7.83397 11.4969 6.99885 12.3287 6.73275 13.6542C6.52021 14.7186 6.88337 16.0407 8.03982 15.9018C9.10422 15.7763 9.57617 14.66 9.52429 13.6006C9.47241 12.5412 9.16447 11.5856 8.40633 11.5354Z" fill="black"/>
<path d="M8.43139 11.7864C7.8858 11.7446 7.05236 12.4926 6.79965 13.7545C6.59547 14.7704 6.9419 16.0289 8.04479 15.8984C9.04894 15.7762 9.50918 14.7135 9.4573 13.7043C9.40541 12.6952 9.08743 11.8416 8.43139 11.7864Z" fill="white"/>
<path d="M6.74945 14.4808C6.79631 15.2808 7.1963 16.0038 8.0448 15.9034C8.67742 15.8281 9.09079 15.3846 9.29999 14.8172C8.58035 15.4331 7.28834 15.7678 6.74945 14.4808Z" fill="#E2E2E2"/>
<path d="M7.89083 15.9536C7.74633 15.9557 7.60304 15.927 7.47056 15.8693C7.33807 15.8115 7.21946 15.7262 7.12266 15.6189C6.91658 15.3779 6.78413 15.0828 6.74108 14.7687C6.68464 14.4291 6.69031 14.082 6.75781 13.7445C6.86056 13.1923 7.1077 12.6772 7.47411 12.2516C7.78372 11.9169 8.14354 11.7194 8.43474 11.7495C8.75607 11.7746 9.02385 11.9889 9.20961 12.3721C9.39189 12.7954 9.49022 13.2502 9.49914 13.711C9.54935 14.6984 9.11589 15.8214 8.04982 15.9486C7.99627 15.9502 7.94271 15.9536 7.89083 15.9536ZM8.3929 11.8315C7.90422 11.8315 7.09755 12.501 6.84317 13.7679C6.70259 14.4708 6.84317 15.1938 7.18793 15.5687C7.29478 15.6849 7.42898 15.7725 7.57834 15.8237C7.72769 15.8748 7.88746 15.8878 8.04313 15.8615C9.05564 15.7394 9.46735 14.6616 9.41881 13.711C9.36191 12.578 8.99372 11.87 8.4314 11.8332L8.3929 11.8315Z" fill="black"/>
<path d="M9.37221 14.3313C9.41139 13.7874 9.15916 13.326 8.80884 13.3008C8.45851 13.2755 8.14276 13.696 8.10358 14.2399C8.0644 14.7839 8.31663 15.2452 8.66695 15.2705C9.01728 15.2957 9.33303 14.8752 9.37221 14.3313Z" fill="#542416"/>
<path d="M9.37197 14.3336C9.33348 14.8775 9.01718 15.2975 8.6674 15.2724C8.31762 15.2473 8.06491 14.7854 8.10507 14.2415C8.30256 14.8156 9.02052 14.9662 9.37197 14.3336Z" fill="#A74F45"/>
<path d="M9.1796 14.4498C9.20577 14.0866 9.03715 13.7785 8.80298 13.7616C8.56882 13.7447 8.35778 14.0255 8.33162 14.3888C8.30545 14.752 8.47407 15.0601 8.70823 15.077C8.9424 15.0939 9.15344 14.8131 9.1796 14.4498Z" fill="black"/>
<path d="M8.51508 14.2115C8.63893 14.2115 8.73934 14.1111 8.73934 13.9872C8.73934 13.8633 8.63893 13.7629 8.51508 13.7629C8.39122 13.7629 8.29082 13.8633 8.29082 13.9872C8.29082 14.1111 8.39122 14.2115 8.51508 14.2115Z" fill="white"/>
<path d="M8.91841 14.8842C8.9563 14.8842 8.98703 14.8535 8.98703 14.8156C8.98703 14.7777 8.9563 14.7469 8.91841 14.7469C8.88051 14.7469 8.84979 14.7777 8.84979 14.8156C8.84979 14.8535 8.88051 14.8842 8.91841 14.8842Z" fill="white"/>
<path d="M8.69753 15.316H8.66406C8.5644 15.303 8.46976 15.2646 8.38918 15.2045C8.3086 15.1445 8.24478 15.0647 8.20382 14.9729C8.09355 14.7453 8.04509 14.4926 8.0633 14.2403C8.08151 13.9879 8.16576 13.7448 8.30758 13.5353C8.36114 13.4509 8.43536 13.3815 8.52322 13.3338C8.61108 13.286 8.70967 13.2615 8.80966 13.2625C9.18119 13.2893 9.45232 13.7646 9.41048 14.3387C9.37533 14.8859 9.05568 15.316 8.69753 15.316ZM8.77954 13.3445C8.69798 13.3498 8.61881 13.3743 8.54845 13.4158C8.47809 13.4574 8.41851 13.515 8.37453 13.5839C8.24246 13.7805 8.16404 14.0083 8.14701 14.2446C8.12999 14.4809 8.17495 14.7175 8.27746 14.9311C8.3116 15.0107 8.36576 15.0802 8.43468 15.1327C8.5036 15.1851 8.58492 15.2189 8.67075 15.2307C8.9971 15.2541 9.29332 14.8508 9.33014 14.3303C9.36696 13.8098 9.13266 13.368 8.80631 13.3445H8.77954Z" fill="#200705"/>
<path d="M14.7676 9.49868C12.7124 10.2351 14.3927 14.096 14.7676 14.3521C15.3232 14.6399 17.7064 13.7964 17.8302 13.276C17.9993 12.5413 16.9048 8.73385 14.7676 9.49868Z" fill="#92471D"/>
<path d="M16.0847 9.61082C15.888 9.49348 15.6671 9.42254 15.4389 9.4034C15.2107 9.38426 14.9811 9.41742 14.7676 9.50036C14.5467 9.5766 14.3483 9.70663 14.1902 9.87872C14.0321 10.0508 13.9194 10.2596 13.8622 10.4861C14.1249 9.93215 14.3927 9.75474 14.7408 9.60412C15.1727 9.43198 15.6546 9.43438 16.0847 9.61082Z" fill="#351200"/>
<path d="M15.017 10.1664C12.9652 10.9078 14.3927 14.0959 14.7643 14.3503C15.3199 14.6382 17.7031 13.7947 17.8269 13.2742C17.9993 12.5412 17.109 9.40991 15.017 10.1664Z" fill="black"/>
<path d="M15.1392 10.4057C13.1208 11.0601 14.3927 14.1194 14.8479 14.3554C15.3902 14.6349 17.6679 13.8533 17.7868 13.3512C17.9558 12.6416 17.1474 9.75471 15.1392 10.4057Z" fill="white"/>
<path d="M14.3057 13.4599C14.4831 13.9285 14.7057 14.2783 14.8479 14.3536C15.3901 14.6331 17.6679 13.8515 17.7867 13.3494C17.8264 13.039 17.8002 12.7236 17.7097 12.424C17.6478 13.3444 15.1542 14.2866 14.3057 13.4599Z" fill="#E2E2E2"/>
<path d="M15.1893 14.4641C15.0661 14.4702 14.9431 14.4485 14.8295 14.4005C14.5098 14.2332 13.9124 12.9294 13.9927 11.865C14.0563 11.1086 14.4462 10.5931 15.1207 10.3739L15.1324 10.414L15.1207 10.3739C15.4096 10.2643 15.7238 10.2397 16.0263 10.3028C16.3287 10.366 16.6068 10.5143 16.8278 10.7304C17.2192 11.1248 17.5067 11.6101 17.6645 12.1429C17.8185 12.6182 17.8821 13.1102 17.8219 13.3662C17.7616 13.6223 17.3097 13.8466 17.0436 13.9687C16.4545 14.2432 15.683 14.4641 15.1893 14.4641ZM15.1542 10.4475C14.5048 10.6584 14.15 11.1354 14.0848 11.8667C14.0595 12.4053 14.1485 12.9431 14.3458 13.4449C14.5299 13.9369 14.7492 14.2566 14.8697 14.3185C15.2044 14.4859 16.2738 14.2348 17.0169 13.8934C17.447 13.6959 17.7131 13.4985 17.7482 13.3478C17.7878 12.9505 17.7346 12.5495 17.5926 12.1763C17.4383 11.656 17.1564 11.1826 16.7725 10.799C16.564 10.5928 16.301 10.4503 16.0144 10.388C15.7278 10.3258 15.4295 10.3464 15.1542 10.4475Z" fill="black"/>
<path d="M16.8039 13.4977C17.2056 13.39 17.4033 12.8257 17.2455 12.2374C17.0876 11.6491 16.634 11.2595 16.2323 11.3673C15.8305 11.4751 15.6328 12.0394 15.7907 12.6277C15.9485 13.216 16.4022 13.6055 16.8039 13.4977Z" fill="#542416"/>
<path d="M17.2428 12.2383C17.4102 12.8257 17.2043 13.3897 16.8027 13.4985C16.401 13.6073 15.9475 13.2157 15.7985 12.6282C16.3073 13.301 17.1407 13.0416 17.2428 12.2383Z" fill="#A74F45"/>
<path d="M16.7446 13.2584C17.0249 13.1832 17.1628 12.7893 17.0527 12.3786C16.9425 11.968 16.6259 11.6961 16.3456 11.7713C16.0653 11.8465 15.9274 12.2404 16.0376 12.651C16.1477 13.0617 16.4643 13.3336 16.7446 13.2584Z" fill="black"/>
<path d="M16.0964 12.4341C16.2351 12.4341 16.3475 12.3217 16.3475 12.183C16.3475 12.0444 16.2351 11.932 16.0964 11.932C15.9578 11.932 15.8454 12.0444 15.8454 12.183C15.8454 12.3217 15.9578 12.4341 16.0964 12.4341Z" fill="white"/>
<path d="M16.9114 12.9411C16.9604 12.9411 17.0001 12.9014 17.0001 12.8524C17.0001 12.8034 16.9604 12.7637 16.9114 12.7637C16.8624 12.7637 16.8227 12.8034 16.8227 12.8524C16.8227 12.9014 16.8624 12.9411 16.9114 12.9411Z" fill="white"/>
<path d="M16.6604 13.5571C16.2788 13.5571 15.8872 13.1789 15.7416 12.64C15.6632 12.3658 15.6678 12.0746 15.755 11.8032C15.7808 11.6895 15.8371 11.585 15.9179 11.5009C15.9987 11.4168 16.1009 11.3564 16.2135 11.3261C16.3261 11.2958 16.4448 11.2968 16.5569 11.3289C16.6689 11.3611 16.7701 11.4232 16.8495 11.5086C17.06 11.7005 17.209 11.9503 17.2779 12.2266C17.3564 12.5006 17.3523 12.7917 17.2662 13.0634C17.2352 13.1749 17.1769 13.2769 17.0965 13.3601C17.0162 13.4434 16.9163 13.5054 16.806 13.5403C16.7584 13.5525 16.7095 13.5581 16.6604 13.5571ZM16.3608 11.3931C16.3184 11.3929 16.2762 11.3986 16.2353 11.4099C16.1384 11.4415 16.0509 11.4967 15.9808 11.5707C15.9107 11.6446 15.8601 11.7349 15.8336 11.8333C15.7519 12.0898 15.7485 12.3648 15.8236 12.6232C15.9742 13.1872 16.406 13.5638 16.7842 13.46C16.881 13.4287 16.9684 13.3737 17.0386 13.3001C17.1087 13.2264 17.1594 13.1365 17.1859 13.0383C17.2666 12.7834 17.2701 12.5103 17.1959 12.2534C17.1315 11.9953 16.9917 11.7622 16.7943 11.5839C16.6796 11.4711 16.5281 11.4034 16.3675 11.3931H16.3608Z" fill="#200705"/>
<path d="M12.8396 8.99829C13.0756 8.30878 14.3207 7.43349 16.0998 8.55982C15.5441 7.26446 14.1417 6.749 13.2999 7.18581C12.4581 7.62261 12.8396 8.99829 12.8396 8.99829Z" fill="#391D12"/>
<path d="M12.8396 8.99828C13.0756 8.30877 14.3208 7.43349 16.0998 8.55981C15.5508 7.74979 14.3944 7.35817 13.5141 7.7113C12.8664 7.96903 12.8396 8.99828 12.8396 8.99828Z" fill="#2C100C"/>
<path d="M12.8379 9.13709L12.7994 9.0099C12.7339 8.76543 12.7019 8.51321 12.7041 8.26013C12.7041 7.72458 12.9133 7.33966 13.2814 7.14887C13.4953 7.05036 13.7271 6.99657 13.9625 6.99081C14.1979 6.98506 14.432 7.02745 14.6504 7.1154C14.9832 7.23876 15.2871 7.42932 15.5431 7.6752C15.799 7.92109 16.0016 8.21705 16.1382 8.54464L16.1918 8.66849L16.0763 8.59652C15.0487 7.94383 14.2755 8.00408 13.8069 8.16976C13.6009 8.23351 13.4112 8.34139 13.2511 8.4859C13.091 8.63042 12.9643 8.80809 12.8798 9.00655L12.8379 9.13709ZM13.9659 7.07524C13.7417 7.07209 13.5201 7.12319 13.3199 7.22418C12.6505 7.57396 12.7777 8.52456 12.8513 8.86262C13.0515 8.49692 13.3828 8.22065 13.7785 8.08943C14.2471 7.92207 15.0052 7.86014 16.0044 8.45259C15.7245 7.87012 15.2295 7.41896 14.6237 7.19406C14.4127 7.1175 14.1903 7.07732 13.9659 7.07524Z" fill="black"/>
<path d="M8.73769 9.92377C8.15528 9.70453 6.82311 10.0141 6.41141 11.907C5.94615 10.7873 6.50513 9.5037 7.31179 9.15057C8.11846 8.79744 8.73769 9.92377 8.73769 9.92377Z" fill="#391D12"/>
<path d="M8.73769 9.92373C8.15528 9.70449 6.82311 10.0141 6.41141 11.9069C6.28422 10.9965 6.86662 9.82666 7.36368 9.65261C7.59453 9.56094 7.84692 9.53776 8.09061 9.58584C8.3343 9.63393 8.55896 9.75124 8.73769 9.92373Z" fill="#2C100C"/>
<path d="M6.4231 12.0458L6.37289 11.9219C5.89592 10.7822 6.47665 9.47012 7.28834 9.10863C7.64314 8.95298 8.013 9.04168 8.35776 9.36636C8.5206 9.52301 8.65934 9.70292 8.76946 9.90023L8.81967 9.99897L8.71758 9.9588C8.53426 9.90869 8.34264 9.89651 8.15445 9.92298C7.96625 9.94945 7.78544 10.014 7.62305 10.1128C7.21972 10.332 6.68752 10.8257 6.45155 11.9236L6.4231 12.0458ZM7.64146 9.12034C7.53351 9.12121 7.42692 9.14458 7.3285 9.18896C6.57539 9.52368 6.03315 10.6952 6.40134 11.7629C6.66074 10.727 7.18458 10.2567 7.58624 10.0308C7.90624 9.84366 8.2836 9.77997 8.64729 9.8517C8.55326 9.69804 8.44086 9.55642 8.31257 9.42996C8.1378 9.24318 7.89698 9.13208 7.64146 9.12034Z" fill="black"/>
<path d="M9.78203 6.48444C9.78203 6.48444 10.2741 6.31708 11.1627 5.48029L11.2196 5.54053C10.9752 5.78118 10.7147 6.00484 10.4397 6.20997C10.0364 6.49113 9.78203 6.48444 9.78203 6.48444Z" fill="#351200"/>
<path d="M17.3851 14.9244C17.8553 14.9947 18.6269 15.48 18.9147 16.4691C19.2394 17.5837 19.2361 19.4046 18.7072 21.2873C18.2419 22.9475 17.5859 23.9918 15.6596 24.7232C14.2555 25.2554 12.2438 25.1583 11.8639 24.345C11.33 23.2002 12.2271 21.7978 11.33 20.161C12.3024 19.264 16.3508 15.6808 16.3508 15.6808L17.3851 14.9244Z" fill="#E0CEBD"/>
<path d="M18.9148 16.4724C18.6269 15.4833 17.8554 14.998 17.3851 14.9277L16.3575 15.6825L16.2203 15.803C16.4513 16.1764 16.6388 16.5751 16.7793 16.9912V16.9745C16.9132 17.1251 17.3165 17.259 17.3332 17.428C17.6679 18.1292 17.9039 19.6338 17.7516 20.8555C17.5123 22.7851 17.0086 23.9081 15.7249 24.7047C17.601 23.9734 18.247 22.9358 18.7072 21.294C19.2361 19.4045 19.2394 17.5837 18.9148 16.4724Z" fill="#AD9E8E"/>
<path d="M13.7718 25.0965C12.863 25.0965 12.0597 24.8638 11.8254 24.3618C11.5911 23.8597 11.6296 23.2873 11.6731 22.6882C11.7283 21.9367 11.7919 21.0866 11.2932 20.1778L11.2781 20.1494L11.3016 20.1276C12.2622 19.2406 16.2888 15.6809 16.3223 15.6457L17.365 14.8809H17.3817C17.8469 14.9495 18.6469 15.4282 18.9448 16.4558C19.1264 17.1517 19.1998 17.8714 19.1624 18.5896C19.1289 19.5059 18.9862 20.4149 18.7373 21.2974C18.4729 22.243 18.1783 22.8656 17.7532 23.3794C17.2696 23.9635 16.6052 24.4036 15.6629 24.7618C15.0569 24.9829 14.4169 25.0962 13.7718 25.0965ZM11.3836 20.1678C11.8756 21.0882 11.8137 21.9434 11.7568 22.6982C11.7149 23.2823 11.6731 23.8363 11.9024 24.3266C12.0697 24.6898 12.6103 24.9341 13.3818 24.9961C14.1497 25.0524 14.9208 24.9458 15.6445 24.6831C17.5792 23.9467 18.2185 22.8756 18.667 21.274C19.1523 19.5452 19.231 17.7076 18.8745 16.4792C18.7554 16.0556 18.5179 15.6748 18.19 15.3813C17.9668 15.1755 17.6931 15.0323 17.3968 14.9663L16.3842 15.7093C16.2888 15.8031 12.3777 19.254 11.3836 20.1678Z" fill="#7C552A"/>
<path d="M12.9083 24.6195C14.2287 24.5458 14.9166 24.0237 15.7232 23.0999C17.1039 21.5116 17.2161 19.5736 17.2897 18.3854L16.2856 17.6239L14.5534 17.7511L13.7953 17.9452C12.7794 18.8473 11.7535 19.7644 11.3251 20.1594C12.1903 21.7376 11.3903 23.0965 11.807 24.2178C11.9481 24.3639 12.1206 24.476 12.3114 24.5456C12.5022 24.6152 12.7063 24.6404 12.9083 24.6195Z" fill="#F7E2D0"/>
<path d="M12.8112 24.673C12.6201 24.6799 12.4296 24.6462 12.2525 24.5741C12.0754 24.502 11.9156 24.3931 11.7836 24.2546V24.2463C11.6062 23.771 11.6447 23.2538 11.6849 22.7066C11.7418 21.9551 11.8037 21.105 11.305 20.1962L11.2899 20.1677L11.3133 20.146C11.6765 19.8113 12.5083 19.0649 13.7835 17.9302L14.5601 17.7327L16.309 17.6038L16.3224 17.6139L17.3382 18.3887V18.4389C17.3088 19.1826 17.2085 19.9218 17.0387 20.6464C16.8199 21.5733 16.382 22.4342 15.7617 23.1568C14.9467 24.0956 14.2555 24.6178 12.9166 24.6914L12.8112 24.673ZM11.8506 24.2028C11.9866 24.3422 12.1523 24.4492 12.3355 24.5155C12.5187 24.5819 12.7145 24.606 12.9083 24.586C14.2137 24.514 14.8948 24.0019 15.6948 23.0798C17.0554 21.5167 17.1776 19.577 17.2495 18.4189L16.2805 17.6825L14.5668 17.808L13.8153 17.9787C12.5719 19.0849 11.7518 19.8196 11.3786 20.1627C11.8706 21.0832 11.8087 21.9384 11.7535 22.6932C11.7183 23.2338 11.6815 23.7392 11.8472 24.1944L11.8506 24.2028Z" fill="#7C552A"/>
<path d="M10.7309 19.5367C11.2187 19.949 11.6062 20.4669 11.8639 21.0513C12.2254 21.9048 12.0966 23.2002 13.0204 23.3291C13.9844 23.4646 15.519 22.6864 16.5349 20.8957C17.5508 19.1049 17.4202 16.7787 17.1073 15.9034C16.4194 16.1829 10.7309 19.5367 10.7309 19.5367Z" fill="#7F0000"/>
<path d="M16.5315 20.8957C16.7746 20.4579 16.9613 19.9912 17.0872 19.5066C16.9351 19.2757 16.7282 19.086 16.4849 18.9546C16.2416 18.8232 15.9696 18.7541 15.6931 18.7535C15.2557 18.7681 14.8398 18.9465 14.5277 19.2532C14.2156 19.56 14.0302 19.9728 14.0081 20.4099C13.986 20.8469 14.1288 21.2763 14.4084 21.613C14.6879 21.9497 15.0837 22.1692 15.5174 22.2278C15.9163 21.8336 16.2578 21.3852 16.5315 20.8957Z" fill="#590000"/>
<path d="M13.0204 23.3341C13.9843 23.4697 15.519 22.6898 16.5349 20.9007L16.6152 20.7518C15.6914 20.4171 14.7006 20.9191 14.2454 21.4948C13.2798 21.3275 12.6957 22.3015 12.5116 23.053C12.6381 23.2093 12.8206 23.3101 13.0204 23.3341Z" fill="#FFA9A9"/>
<path d="M15.4705 20.7049C16.001 21.0095 15.4956 21.9517 14.6873 22.5575C13.9777 23.0897 13.1727 23.3006 12.525 23.068C12.6535 23.2152 12.8328 23.3085 13.0271 23.3291C13.9911 23.4646 15.5257 22.6847 16.5416 20.8957L16.6219 20.7467C16.2518 20.6135 15.8493 20.5988 15.4705 20.7049Z" fill="#E28888"/>
<path d="M13.2396 23.386C13.164 23.3862 13.0886 23.3812 13.0137 23.371C12.8028 23.3463 12.6099 23.24 12.4765 23.0748L12.4631 23.058V23.0379C12.5613 22.6167 12.7613 22.226 13.0455 21.8999C13.1861 21.7308 13.3674 21.6003 13.5723 21.5207C13.7773 21.4411 13.9991 21.4149 14.217 21.4447C14.7057 20.8355 15.7065 20.3719 16.6186 20.7066L16.6621 20.7234L16.6403 20.7652C16.6119 20.8204 16.5851 20.869 16.56 20.9158C16.1319 21.7025 15.5183 22.3729 14.7726 22.8689C14.3188 23.1789 13.7884 23.3578 13.2396 23.386ZM13.0254 23.2873C13.5158 23.3559 14.14 23.1785 14.7358 22.7986C15.4691 22.3092 16.0722 21.6487 16.4931 20.874L16.55 20.7702C15.678 20.4774 14.7308 20.9376 14.2739 21.515L14.2588 21.5351H14.2337C14.0257 21.5021 13.8127 21.5239 13.6158 21.5985C13.4188 21.673 13.2448 21.7977 13.1107 21.9601C12.8405 22.2703 12.6492 22.6412 12.5534 23.0413C12.6731 23.1808 12.8411 23.2699 13.0237 23.2906L13.0254 23.2873Z" fill="#AA5050"/>
<path d="M14.0932 21.9953C14.0835 21.8122 14.1221 21.6298 14.2053 21.4664L14.2789 21.5066C14.1956 21.6605 14.1331 21.8249 14.0932 21.9953Z" fill="#AA5050"/>
<path d="M13.2396 23.3859C13.164 23.3861 13.0885 23.3811 13.0137 23.3709C12.8687 23.3508 12.7312 23.2942 12.6141 23.2063C12.497 23.1185 12.4041 23.0024 12.3442 22.8688C12.2132 22.5717 12.1209 22.2589 12.0698 21.9383C12.0167 21.6426 11.9365 21.3524 11.8304 21.0714C11.5759 20.4935 11.193 19.9812 10.7108 19.5735L10.6623 19.5367L10.7142 19.5049C10.9468 19.3677 16.4127 16.146 17.0922 15.8665L17.1323 15.8498L17.1474 15.8916C17.3537 16.5932 17.4275 17.327 17.365 18.0556C17.3168 19.057 17.0464 20.0351 16.5734 20.9191C16.1452 21.7057 15.5317 22.3761 14.786 22.8721C14.328 23.1832 13.7927 23.3611 13.2396 23.3859ZM10.8045 19.5367C11.2758 19.9476 11.6506 20.4573 11.9024 21.0295C12.0113 21.3146 12.0931 21.6094 12.1467 21.9098C12.2857 22.5793 12.4179 23.1968 13.0254 23.2805C13.5157 23.3491 14.14 23.1717 14.7358 22.7918C15.4683 22.3043 16.0713 21.6461 16.493 20.8739C16.9602 20.0014 17.2272 19.0358 17.2746 18.0472C17.3324 17.3454 17.2655 16.6388 17.0771 15.9602C16.2889 16.315 11.3702 19.2103 10.8029 19.5434L10.8045 19.5367Z" fill="#7C552A"/>
<path d="M17.0805 16.0657C16.8613 16.6883 15.5559 19.279 14.2036 19.8849C12.7175 20.5543 11.1075 19.6238 10.5853 19.5819C10.0632 20.0204 9.66821 20.7852 8.57703 20.6932C7.66493 20.6145 6.85157 19.0447 7.22478 17.6807C7.54443 16.5092 8.51344 15.8833 9.03058 15.1453C9.9728 13.798 9.91757 12.578 10.6456 12.2332C11.4656 11.8466 12.4514 13.0416 13.1258 13.6139C13.8003 14.1863 14.6321 14.8976 15.4588 14.9629C16.2856 15.0281 16.7491 14.7955 17.4956 14.9495L17.0805 16.0657Z" fill="white"/>
<path d="M8.58367 20.6932C9.66815 20.7852 10.0631 20.0237 10.592 19.5819C11.1141 19.6237 12.7241 20.5509 14.2103 19.8848C15.5625 19.279 16.8679 16.6883 17.0871 16.0657L17.5089 14.9444C16.7625 14.7971 16.2972 15.0214 15.4721 14.9578C14.8546 14.9076 14.227 14.4942 13.6663 14.0474C14.2119 15.0984 15.442 15.3862 15.7416 15.9536C16.0412 16.5209 15.6512 17.8046 14.8747 18.561C13.899 19.5116 13.3299 19.5819 12.6538 19.4949C11.6865 19.3677 10.9133 18.9777 10.433 19.0564C9.89241 19.1451 9.73509 20.0605 8.91002 20.2179C8.3159 20.3333 7.82888 20.099 7.28329 19.2823C7.51425 20.0488 8.02971 20.6463 8.58367 20.6932Z" fill="#AD9E8E"/>
<path d="M8.75774 20.7435C8.70084 20.7435 8.64059 20.7435 8.57867 20.7435C8.23223 20.7133 7.88748 20.4774 7.60799 20.074C7.37329 19.7247 7.21487 19.3298 7.14307 18.9152C7.07126 18.5005 7.08769 18.0753 7.19127 17.6674C7.4105 16.8624 7.93601 16.3085 8.39792 15.8181C8.6163 15.6002 8.81824 15.3663 9.00208 15.1186C9.3552 14.592 9.6366 14.0207 9.83887 13.4199C10.0564 12.8425 10.2271 12.3873 10.6355 12.1948C11.3267 11.8601 12.1183 12.6115 12.7543 13.2107C12.8982 13.3462 13.0337 13.4734 13.1593 13.5805C13.8287 14.1479 14.6655 14.8541 15.4688 14.9194C15.7836 14.9397 16.0997 14.9302 16.4127 14.8909C16.7775 14.8318 17.1499 14.8386 17.5122 14.911L17.4955 14.993C17.1413 14.9229 16.7775 14.9167 16.4211 14.9746C16.103 15.0139 15.782 15.0235 15.4621 15.0031C14.6253 14.9361 13.7885 14.2198 13.104 13.6441C12.9785 13.537 12.8413 13.4082 12.6957 13.2709C12.0781 12.6902 11.31 11.9672 10.6706 12.2668C10.2941 12.4458 10.1368 12.8659 9.91921 13.4466C9.71389 14.0539 9.42915 14.6312 9.07237 15.1637C8.88561 15.4148 8.68089 15.6519 8.45984 15.8733C8.00295 16.3553 7.48582 16.9026 7.2716 17.6858C7.16997 18.0829 7.15366 18.4971 7.22376 18.9009C7.29386 19.3048 7.44877 19.6892 7.67828 20.0288C7.94103 20.4071 8.26403 20.6297 8.58703 20.6581C9.40709 20.7284 9.81544 20.3033 10.2121 19.8933C10.3213 19.7754 10.4369 19.6636 10.5585 19.5586L10.5719 19.5469H10.5886C10.791 19.5834 10.9895 19.6395 11.1811 19.7142C11.9409 19.9686 13.089 20.3502 14.1935 19.8581C15.5324 19.2607 16.8344 16.6783 17.047 16.0641L17.1273 16.0909C16.8519 16.765 16.5105 17.4102 16.1081 18.0172C15.6562 18.7101 14.9617 19.6054 14.227 19.9351C13.7001 20.1614 13.1202 20.2351 12.5534 20.1477C12.0805 20.0758 11.6158 19.9575 11.166 19.7945C10.9855 19.7268 10.7996 19.6742 10.6104 19.6372C10.4999 19.7326 10.3945 19.8414 10.2757 19.9569C9.90916 20.3217 9.50248 20.7435 8.75774 20.7435Z" fill="#7C552A"/>
<path d="M16.1081 16.1126C16.4155 16.0033 16.7526 16.0122 17.0537 16.1377C17.3559 16.2482 17.6052 16.4687 17.7516 16.7553C17.7014 15.393 17.0972 15.3093 16.1081 16.1126Z" fill="#D9A86E"/>
<path d="M17.7516 16.7553C17.3516 16.1093 16.6152 16.0055 16.1081 16.1126C16.1081 16.1126 16.2755 15.9603 16.652 16.0021C16.7719 16.0147 16.8902 16.0394 17.0052 16.0758C17.161 16.1259 17.3079 16.2005 17.4403 16.2967C17.52 16.3487 17.5885 16.416 17.642 16.4947C17.6954 16.5735 17.7327 16.662 17.7516 16.7553Z" fill="#7C552A"/>
<path d="M9.57616 18.3435C8.64397 18.4154 7.4005 17.2372 7.45573 16.2163C7.52267 15.1067 10.1586 14.5227 10.9385 15.3394C11.4807 15.9084 10.9518 18.2347 9.57616 18.3435Z" fill="#3F3E3C"/>
<path d="M9.09708 15.8621C9.52347 15.7655 9.84944 15.6003 9.82514 15.493C9.80085 15.3857 9.4355 15.377 9.0091 15.4736C8.58271 15.5702 8.25674 15.7354 8.28103 15.8427C8.30533 15.95 8.67068 15.9586 9.09708 15.8621Z" fill="#ADADAB"/>
<path d="M9.57616 18.3435C8.64397 18.4155 7.4005 17.2373 7.45573 16.2164C7.72517 16.9628 8.45988 17.0381 9.22303 16.9059C10.2489 16.7285 10.9401 15.9603 10.9385 15.3394C11.4807 15.9084 10.9518 18.2347 9.57616 18.3435Z" fill="#2F2F2D"/>
<path d="M9.49582 18.3886C9.06068 18.3886 8.53853 18.1376 8.11176 17.7192C7.64483 17.2606 7.38375 16.7 7.41388 16.213C7.44066 15.7745 7.84734 15.3762 8.53016 15.1302C8.96465 14.9724 9.42546 14.8996 9.88743 14.9159C10.2222 14.9327 10.6874 15.0147 10.9686 15.3092C11.2497 15.6038 11.2648 16.3803 10.9903 17.0983C10.6958 17.8681 10.1803 18.3367 9.5795 18.3836L9.49582 18.3886ZM9.74685 15.0013C9.34227 15.0026 8.94091 15.0733 8.56028 15.2105C7.9193 15.4448 7.52099 15.8213 7.49756 16.2146C7.46911 16.6732 7.72182 17.2104 8.16699 17.6522C8.61216 18.0941 9.14269 18.3217 9.56945 18.2966C10.3761 18.233 10.7744 17.4146 10.9083 17.0648C11.1677 16.3853 11.1661 15.6389 10.9083 15.3645C10.6506 15.09 10.2238 15.0013 9.74685 15.0013Z" fill="black"/>
<path d="M35.5903 19.8347C35.2857 19.7393 35.1368 19.187 35.2556 18.4088C35.3409 17.818 35.7326 17.4046 36.0505 17.4615C36.6229 17.5552 36.6447 18.3803 36.4321 19.0062C36.2196 19.6322 35.7794 19.8932 35.5903 19.8347Z" fill="#00DC39"/>
<path d="M36.2748 17.5552C36.551 18.1862 36.2648 19.1451 35.8397 19.351C35.5736 19.4815 35.3811 19.3058 35.2121 18.9209C35.2121 19.423 35.3577 19.7577 35.5903 19.8347C35.7794 19.8932 36.2129 19.6322 36.4271 19.0062C36.6062 18.4807 36.6179 17.8113 36.2748 17.5552Z" fill="#0C4207"/>
<path d="M35.6506 19.8849C35.6262 19.8852 35.6019 19.8818 35.5786 19.8748C35.2439 19.7694 35.0933 19.192 35.2087 18.4021C35.2451 18.0622 35.4126 17.75 35.6757 17.5318C35.7278 17.4891 35.788 17.4572 35.8527 17.4383C35.9174 17.4193 35.9853 17.4135 36.0522 17.4214C36.1363 17.4335 36.2165 17.4646 36.2867 17.5125C36.3569 17.5604 36.4152 17.6236 36.4572 17.6975C36.6731 18.0573 36.5978 18.6347 36.4572 19.0196C36.2715 19.592 35.8882 19.8849 35.6506 19.8849ZM35.9853 17.5C35.8881 17.504 35.7948 17.5392 35.7192 17.6004C35.4769 17.8074 35.3225 18.0988 35.2874 18.4155C35.182 19.1368 35.3092 19.7041 35.5987 19.7945C35.7543 19.843 36.1744 19.6054 36.3819 18.9928C36.5158 18.5962 36.5677 18.054 36.3819 17.741C36.3459 17.6778 36.296 17.6236 36.236 17.5825C36.176 17.5413 36.1074 17.5143 36.0355 17.5034L35.9853 17.5Z" fill="black"/>
<path d="M34.7351 16.8506C34.4523 16.7971 33.9134 17.0414 33.6958 17.92C33.4615 18.8673 33.6138 19.6321 33.992 19.6924C34.3703 19.7526 34.8941 19.1903 35.1502 18.4673C35.4062 17.7443 35.1753 16.9343 34.7351 16.8506Z" fill="#00DC39"/>
<path d="M34.879 16.9125C35.2773 17.7677 34.7669 18.8941 34.2447 19.1518C33.8632 19.3409 33.6172 18.7535 33.592 18.469C33.5251 19.1484 33.6824 19.6405 33.9837 19.6924C34.3803 19.7526 34.8857 19.1903 35.1418 18.4673C35.366 17.8347 35.2221 17.1301 34.879 16.9125Z" fill="#0C4207"/>
<path d="M34.0439 19.7392C34.0217 19.7418 33.9992 19.7418 33.977 19.7392C33.9214 19.7293 33.8687 19.7074 33.8224 19.675C33.7762 19.6427 33.7375 19.6006 33.7092 19.5518C33.5017 19.2422 33.4783 18.5995 33.6473 17.9167C33.8716 17.0079 34.4322 16.7602 34.7351 16.8155C34.8184 16.8359 34.8962 16.8742 34.9633 16.9276C35.0303 16.9811 35.0849 17.0485 35.1234 17.1251C35.2247 17.3367 35.2821 17.5667 35.2921 17.8011C35.3022 18.0355 35.2647 18.2695 35.182 18.489C35.0653 18.8274 34.8834 19.1396 34.6464 19.4078C34.5727 19.5 34.4816 19.5767 34.3782 19.6336C34.2748 19.6904 34.1612 19.7263 34.0439 19.7392ZM34.6464 16.8941C34.3502 16.8941 33.9117 17.1954 33.7276 17.9384C33.5603 18.6079 33.5854 19.2154 33.7778 19.5066C33.8006 19.5455 33.8313 19.5791 33.8679 19.6053C33.9045 19.6316 33.9463 19.6498 33.9904 19.6589C34.3502 19.7141 34.8473 19.1769 35.1016 18.4623C35.1808 18.2543 35.2171 18.0325 35.2082 17.8101C35.1992 17.5878 35.1454 17.3695 35.0498 17.1686C35.0172 17.102 34.9703 17.0435 34.9124 16.9972C34.8545 16.9509 34.7871 16.918 34.715 16.9008C34.6927 16.8935 34.6697 16.8885 34.6464 16.8858V16.8941Z" fill="black"/>
<path d="M33.6875 17.9201C33.3812 18.6498 32.3938 19.4264 32.1026 19.2356C31.8114 19.0448 31.8515 18.0892 32.1444 17.403C32.5026 16.5662 33.1 16.1378 33.5151 16.3068C33.9301 16.4758 33.9753 17.2356 33.6875 17.9201Z" fill="#00DC39"/>
<path d="M33.6791 16.4222C33.7695 17.3293 33.0733 18.5243 32.5076 18.6749C32.0708 18.792 32.0474 18.2163 31.9804 17.9636C31.8616 18.5259 31.8951 19.0899 32.1126 19.2322C32.4038 19.4213 33.3912 18.6464 33.6975 17.9167C33.9301 17.341 33.9368 16.7051 33.6791 16.4222Z" fill="#0C4207"/>
<path d="M32.2147 19.3058C32.1671 19.3074 32.12 19.2951 32.0791 19.2706C31.7444 19.0547 31.8197 18.0556 32.1059 17.3879C32.4607 16.5628 33.0732 16.0825 33.5318 16.2682C33.6006 16.2987 33.6626 16.3427 33.7141 16.3976C33.7656 16.4525 33.8055 16.5172 33.8314 16.5879C33.9703 16.9226 33.9284 17.4531 33.7259 17.9368C33.4749 18.5359 32.7871 19.1518 32.3653 19.2757C32.3168 19.2928 32.2661 19.3029 32.2147 19.3058ZM33.326 16.3134C33.1445 16.3239 32.9716 16.3939 32.8339 16.5126C32.5461 16.7569 32.323 17.0684 32.1846 17.4197C31.8934 18.0891 31.8632 19.028 32.1243 19.1987C32.1583 19.2137 32.1951 19.2214 32.2323 19.2214C32.2694 19.2214 32.3062 19.2137 32.3402 19.1987C32.7369 19.0765 33.4096 18.4707 33.649 17.9016L33.6874 17.9184L33.649 17.9016C33.8431 17.4381 33.8849 16.9343 33.7527 16.6197C33.725 16.5288 33.6682 16.4495 33.5912 16.3939C33.5141 16.3383 33.421 16.3094 33.326 16.3117V16.3134Z" fill="black"/>
<path d="M15.6697 27.9566C16.2906 28.3566 16.7793 30.1439 15.8705 31.5564C16.7542 31.3807 19.3131 30.969 19.5608 30.733C19.7616 30.3381 19.3014 28.0637 19.5122 26.8353C19.7019 25.8691 20.2034 24.9919 20.9398 24.3383C21.3883 23.9349 21.887 23.8462 22.0276 24.0588C22.195 24.3065 21.5255 25.3374 21.3197 25.9098C21.714 25.5401 22.2049 25.2895 22.7355 25.1868C23.3146 25.1014 23.7079 25.3157 23.6527 25.5617C23.5974 25.8077 22.8477 26.2311 22.6117 26.7332C22.9698 26.6445 23.7614 26.7666 23.6577 27.0679C23.5539 27.3691 22.6335 27.8762 22.4427 28.6611C22.2519 29.4461 22.5665 30.3782 22.5096 31.3389C22.4527 32.2995 22.1749 32.7631 21.3381 33.3589C20.344 34.3798 19.4972 35.7923 18.0093 37.2182C16.5215 38.6441 15.2513 39.1127 14.0045 39.6064C12.7576 40.1001 10.8749 39.9093 10.269 39.6064C10.4498 39.9779 10.7309 40.3679 10.5669 40.4532C10.4029 40.5386 9.12764 39.9511 8.42976 38.9001C8.38792 39.2784 8.59712 39.8256 8.42976 39.9043C8.2624 39.9829 7.0591 38.8784 6.96537 37.3387C6.79802 37.5997 6.59551 38.2307 6.42815 38.214C6.2608 38.1972 5.71019 36.7077 6.47167 35.0341C7.26662 33.2919 7.95279 31.9029 8.87828 30.1205C9.80377 28.3381 10.6673 26.7482 11.7117 25.8796C12.6104 25.1299 13.812 24.8571 14.4798 25.2989L15.6697 27.9566Z" fill="#00DC39"/>
<path d="M6.73271 35.101C7.52766 33.3605 8.23893 32.1154 9.16777 30.3313C10.0966 28.5473 10.8614 27.0494 11.9041 26.1808C12.8028 25.4311 13.7099 25.0478 14.4814 25.2955C13.812 24.8537 12.612 25.1282 11.7133 25.8762C10.669 26.7448 9.80541 28.3331 8.87992 30.1171C7.95443 31.9011 7.26826 33.2969 6.4733 35.0307C5.71182 36.7043 6.26076 38.1938 6.42979 38.2106C6.16961 37.1701 6.27661 36.0717 6.73271 35.101Z" fill="#0C4207"/>
<path d="M12.6807 32.6827C12.0246 33.0827 11.5878 33.8827 11.4439 34.1254C11.3 34.368 11.0071 35.1195 10.6205 35.4743C11.233 35.1713 11.8171 34.4567 12.1418 34.0132C12.5046 33.5292 12.9705 33.1319 13.5057 32.8501C14.0764 32.5723 15.1542 32.2694 15.735 32.1254C16.3157 31.9815 17.524 31.6133 18.3742 31.4443C19.2244 31.2753 19.8235 31.1246 19.934 30.9656C20.0444 30.8066 19.8754 30.5171 19.8838 30.0201C19.8921 29.523 19.6946 28.7548 19.6846 27.6335C19.6746 26.606 19.934 26.1926 20.195 25.6252C20.4344 25.1048 21.1473 24.2864 21.5339 23.9801C21.3112 24.0543 21.1069 24.1752 20.9348 24.3349C20.1971 24.9891 19.695 25.8676 19.5055 26.8352C19.2947 28.0636 19.7549 30.338 19.5541 30.733C19.3064 30.969 16.7475 31.3807 15.8638 31.5564C15.8638 31.5564 15.6446 31.6016 14.6689 31.871C13.6932 32.1405 13.3384 32.2827 12.6807 32.6827Z" fill="#0C4207"/>
<path d="M13.6229 32.2041C14.0262 32.0217 15.8705 31.5581 15.8705 31.5581C16.7793 30.1456 16.2906 28.3582 15.6697 27.9583C16.1433 29.0645 15.7299 31.0945 13.6229 32.2041Z" fill="#0C4207"/>
<path d="M21.4034 24.8788C21.2126 25.2989 20.8678 26.0403 20.9013 26.467C21.017 26.2546 21.1592 26.0577 21.3247 25.8813C21.5356 25.3056 22.1849 24.3031 22.0226 24.0587C21.9777 24.0083 21.9193 23.9719 21.8543 23.9538C21.7893 23.9357 21.7205 23.9367 21.6561 23.9566C21.7531 24.114 21.5942 24.4621 21.4034 24.8788Z" fill="#0C4207"/>
<path d="M22.8025 25.8813C22.4687 26.2265 22.1909 26.6218 21.979 27.0528C22.1829 26.9334 22.3942 26.8272 22.6117 26.7348C22.8476 26.2327 23.5991 25.816 23.6526 25.5633C23.6895 25.3959 23.5271 25.2486 23.2426 25.1934C23.3547 25.3758 23.107 25.57 22.8025 25.8813Z" fill="#0C4207"/>
<path d="M8.43141 39.9026C8.59876 39.8273 8.38957 39.28 8.43141 38.8984C9.12929 39.9511 10.4046 40.5352 10.5686 40.4515C10.7326 40.3679 10.4514 39.9762 10.2707 39.6047C10.8765 39.9076 12.761 40.0984 14.0061 39.6047C15.2513 39.111 16.5315 38.6407 18.011 37.2165C19.4904 35.7923 20.3423 34.3798 21.3464 33.3589C22.1832 32.7631 22.461 32.3045 22.5179 31.3389C22.5749 30.3732 22.2602 29.4427 22.451 28.6611C22.6418 27.8796 23.5623 27.3708 23.666 27.0679C23.7146 26.929 23.574 26.8286 23.3731 26.7683C23.425 26.9039 23.3581 27.0227 23.2192 27.1131C22.9832 27.2637 22.3824 27.7172 22.1799 28.0888C21.9774 28.4603 21.9205 29.3306 21.9506 29.8979C21.9807 30.4653 21.9975 31.3891 21.6393 31.9614C21.2812 32.5338 21.067 32.5003 20.5398 32.9037C20.0126 33.307 18.9917 34.8768 17.862 36.0115C16.4696 37.3922 15.4772 38.3127 13.3802 38.8984C11.4924 39.4239 9.8506 38.8248 9.36359 38.4767C9.50919 38.8917 9.86567 39.3537 9.67488 39.4323C9.48409 39.511 8.46153 38.629 8.254 37.7989C7.99795 38.4315 8.18037 38.9871 8.05652 38.9704C7.93268 38.9537 7.1143 37.8759 6.99715 37.1947C6.96844 37.2578 6.94548 37.3233 6.92853 37.3905L6.962 37.3303C7.06074 38.875 8.26237 39.9779 8.43141 39.9026Z" fill="#0C4207"/>
<path d="M10.5267 40.5017C10.3694 40.5017 10.0247 40.3595 9.67822 40.1385C9.20941 39.8464 8.79909 39.4696 8.46822 39.0273C8.47358 39.1579 8.48643 39.2881 8.50671 39.4172C8.5452 39.6783 8.57533 39.8825 8.44814 39.9394C8.4102 39.9572 8.35163 39.9422 8.27241 39.8942C7.95356 39.6627 7.68628 39.3675 7.4875 39.0273C7.18923 38.5596 7.00096 38.0303 6.93689 37.4792L6.83982 37.6834C6.67246 38.0466 6.55866 38.2658 6.42477 38.2524C6.38461 38.2524 6.34277 38.2089 6.29758 38.1319C6.12876 37.7679 6.04083 37.3717 6.03985 36.9705C6.01856 36.296 6.15374 35.6258 6.43482 35.0124C7.18793 33.3622 7.86406 31.9849 8.8431 30.0971C9.78533 28.2812 10.6489 26.7064 11.6882 25.8428C12.1111 25.4814 12.6134 25.2251 13.1543 25.0947C13.4187 25.0305 13.6924 25.0141 13.9626 25.0462C14.1617 25.0594 14.3481 25.1486 14.4831 25.2955C14.0749 25.0992 13.6095 25.057 13.1727 25.1767C12.6455 25.3064 12.1556 25.5568 11.7417 25.9081C10.7175 26.7616 9.85729 28.3281 8.91841 30.1356C7.94104 32.0217 7.26659 33.399 6.51348 35.0475C5.91768 36.3529 6.1319 37.5478 6.32771 37.9964C6.38294 38.1269 6.42645 38.1637 6.43649 38.1637C6.52017 38.1721 6.66744 37.8541 6.77121 37.6432C6.82088 37.5287 6.87675 37.417 6.93857 37.3085L7.00886 37.1947V37.3269C7.04388 37.7976 7.17215 38.2566 7.3862 38.6772C7.60025 39.0978 7.8958 39.4717 8.25567 39.7771C8.35609 39.8507 8.40462 39.8607 8.42303 39.8574C8.48998 39.8273 8.45985 39.6131 8.43307 39.4239C8.39995 39.248 8.38815 39.0688 8.39793 38.8901L8.41132 38.7763L8.47491 38.8717C8.80765 39.3504 9.23551 39.7555 9.73177 40.0616C10.182 40.3444 10.505 40.4381 10.5585 40.4097C10.5641 40.4075 10.5691 40.4038 10.5729 40.3991C10.5767 40.3944 10.5793 40.3889 10.5803 40.3829C10.6071 40.2992 10.4949 40.0934 10.3861 39.8942C10.3376 39.8055 10.2857 39.7118 10.2422 39.6197L10.187 39.5093L10.2991 39.5645C10.8598 39.8457 12.7375 40.0666 13.9994 39.5645L14.1467 39.5059C15.3399 39.034 16.5751 38.547 17.9959 37.1847C18.7457 36.4404 19.442 35.644 20.0795 34.8015C20.4687 34.2887 20.8838 33.796 21.323 33.3254C22.1598 32.7313 22.4192 32.2844 22.4744 31.3389C22.488 30.9311 22.4667 30.5229 22.4108 30.1188C22.3539 29.5967 22.2987 29.1013 22.4108 28.6494C22.5347 28.1473 22.9581 27.7457 23.2677 27.4561C23.4109 27.3448 23.5323 27.2081 23.6259 27.0528C23.6336 27.0319 23.635 27.0092 23.63 26.9875C23.6249 26.9657 23.6136 26.946 23.5974 26.9306C23.4485 26.7633 22.9096 26.7014 22.6301 26.7633L22.5447 26.7834L22.5815 26.7047C22.7538 26.4127 22.9812 26.1569 23.251 25.9516C23.4317 25.7926 23.6024 25.6437 23.6242 25.5466C23.6304 25.5164 23.6287 25.4852 23.6193 25.4559C23.61 25.4266 23.5932 25.4002 23.5706 25.3792C23.4669 25.2671 23.1891 25.1583 22.7522 25.2202C22.2304 25.3236 21.748 25.5712 21.3598 25.9349L21.2393 26.0403L21.2912 25.8897C21.3889 25.6414 21.5007 25.3989 21.6259 25.1633C21.8485 24.7182 22.0996 24.2161 22.0058 24.0755C21.9858 24.0496 21.9606 24.0281 21.9317 24.0126C21.9029 23.997 21.8711 23.9877 21.8385 23.9851C21.6058 23.9567 21.2695 24.104 20.9816 24.3634C20.2419 25.0094 19.7394 25.8842 19.554 26.8486C19.4419 27.5013 19.5206 28.4369 19.5892 29.2636C19.6494 29.9899 19.6963 30.564 19.5975 30.7598C19.4118 30.9372 18.17 31.1748 16.6872 31.446C16.3642 31.5045 16.0847 31.5547 15.8872 31.5949L15.7901 31.6133L15.8437 31.5313C16.2444 30.8813 16.4054 30.1118 16.2989 29.3557C16.2035 28.6243 15.919 28.1206 15.678 27.9465C15.678 27.9465 15.8839 27.9565 16.1081 28.385C16.2484 28.6892 16.3409 29.0132 16.3826 29.3456C16.4865 30.0856 16.3398 30.8391 15.9659 31.4861L16.6604 31.3673C17.7198 31.1748 19.3164 30.8836 19.5222 30.7096C19.6059 30.5288 19.5574 29.9414 19.5005 29.2653C19.4319 28.4285 19.3532 27.493 19.467 26.8302C19.5669 26.268 19.7817 25.7325 20.0979 25.2571C20.3266 24.9082 20.5988 24.5899 20.908 24.3098C21.2142 24.0353 21.5774 23.878 21.8318 23.9115C21.8768 23.9137 21.9206 23.9262 21.9601 23.948C21.9995 23.9697 22.0335 24.0002 22.0594 24.037C22.1799 24.2178 21.9389 24.7065 21.6845 25.2085C21.5874 25.4027 21.4887 25.6018 21.4151 25.7725C21.7893 25.4525 22.2413 25.2366 22.7255 25.1466C23.1121 25.0897 23.4618 25.1617 23.6175 25.3307C23.6491 25.3617 23.6724 25.4002 23.6853 25.4426C23.6982 25.485 23.7002 25.53 23.6911 25.5734C23.6627 25.6972 23.4987 25.8411 23.2911 26.0219C23.0578 26.2074 22.8535 26.4268 22.6853 26.6729C22.9865 26.6311 23.4803 26.693 23.6476 26.8737C23.6739 26.9002 23.6923 26.9335 23.7006 26.9699C23.7089 27.0063 23.7067 27.0443 23.6945 27.0796C23.5984 27.2497 23.4692 27.3988 23.3146 27.5181C23.0117 27.7992 22.5983 28.1875 22.4778 28.6695C22.3707 29.108 22.4242 29.595 22.4778 30.1104C22.5335 30.5191 22.5553 30.9316 22.543 31.3439C22.4861 32.3079 22.2083 32.7865 21.3582 33.3923C20.9212 33.8592 20.509 34.3486 20.1231 34.8584C19.4831 35.704 18.7841 36.5032 18.0311 37.25C16.6018 38.624 15.3533 39.1143 14.1601 39.593L14.0128 39.6515C13.331 39.8905 12.6087 39.9928 11.8873 39.9528C11.3653 39.9468 10.8472 39.861 10.351 39.6984L10.4414 39.8658C10.5736 40.1101 10.679 40.3026 10.6422 40.4197C10.6346 40.4466 10.618 40.4701 10.5951 40.4863C10.5723 40.5024 10.5446 40.5102 10.5167 40.5084L10.5267 40.5017Z" fill="#0C4207"/>
<path d="M10.6205 35.4743C10.805 35.2242 10.9658 34.9575 11.1008 34.6776C11.4573 34.0082 11.8991 33.1848 12.592 32.6961C13.3668 32.1472 14.4948 31.8677 15.2412 31.6836C15.494 31.62 15.7132 31.5664 15.8571 31.5162L15.8856 31.5966C15.7366 31.6468 15.5157 31.702 15.2613 31.7639C14.5216 31.9463 13.402 32.2242 12.6405 32.7681C11.9711 33.245 11.5276 34.0634 11.1761 34.7211L11.0874 34.8885C10.8447 35.3538 10.6205 35.4743 10.6205 35.4743Z" fill="#351200"/>
<path d="M21.4033 28.0519C21.4079 27.845 21.4655 27.6427 21.5707 27.4644C21.8041 27.0908 22.1659 26.8152 22.5882 26.6896L22.6183 26.7682C22.2401 26.9155 21.7129 27.118 21.4033 28.0519Z" fill="#351200"/>
<path d="M20.6921 26.9792C20.7009 26.7908 20.7586 26.608 20.8595 26.4487C20.9832 26.248 21.1237 26.0582 21.2795 25.8813L21.3431 25.9382C21.0694 26.2464 20.8493 26.5982 20.6921 26.9792Z" fill="#351200"/>
<defs>
<linearGradient id="paint0_linear_342_2456" x1="97.379" y1="34.1639" x2="138.116" y2="34.1639" gradientUnits="userSpaceOnUse">
<stop stop-color="#00DC39"/>
<stop offset="0.44" stop-color="#069221"/>
<stop offset="0.82" stop-color="#0A580E"/>
<stop offset="1" stop-color="#0C4207"/>
</linearGradient>
<linearGradient id="paint1_linear_342_2456" x1="46.7664" y1="34.1565" x2="96.6251" y2="34.1565" gradientUnits="userSpaceOnUse">
<stop stop-color="#00DC39"/>
<stop offset="0.44" stop-color="#069221"/>
<stop offset="0.82" stop-color="#0A580E"/>
<stop offset="1" stop-color="#0C4207"/>
</linearGradient>
<linearGradient id="paint2_linear_342_2456" x1="31.7796" y1="28.9461" x2="62.7633" y2="28.9461" gradientUnits="userSpaceOnUse">
<stop stop-color="#00DC39"/>
<stop offset="0.44" stop-color="#069221"/>
<stop offset="0.82" stop-color="#0A580E"/>
<stop offset="1" stop-color="#0C4207"/>
</linearGradient>
<linearGradient id="paint3_linear_342_2456" x1="17.4085" y1="33.2957" x2="42.8666" y2="33.2957" gradientUnits="userSpaceOnUse">
<stop stop-color="#00DC39"/>
<stop offset="0.44" stop-color="#069221"/>
<stop offset="0.82" stop-color="#0A580E"/>
<stop offset="1" stop-color="#0C4207"/>
</linearGradient>
</defs>
</svg>
