<svg width="153" height="46" viewBox="0 0 153 46" fill="none" xmlns="http://www.w3.org/2000/svg">
<path fill-rule="evenodd" clip-rule="evenodd" d="M23.6271 45.9446C10.993 45.9446 0.750977 35.7026 0.750977 23.0685C0.750977 10.4344 10.993 0.192383 23.6271 0.192383C36.2612 0.192383 46.5032 10.4344 46.5032 23.0685C46.5032 35.7026 36.2612 45.9446 23.6271 45.9446Z" fill="black"/>
<path d="M35.3576 22.2867V16.0346H22.0676L18.9405 12.9085H11.9046V33.2278H21.2858" stroke="white" stroke-width="1.83009" stroke-linecap="round" stroke-linejoin="round"/>
<path d="M18.9394 12.9085H25.973L29.099 16.0332" stroke="white" stroke-width="1.83009" stroke-linecap="round" stroke-linejoin="round"/>
<path d="M29.1177 25.8138V31.304" stroke="white" stroke-width="1.83009" stroke-linecap="round" stroke-linejoin="round"/>
<path d="M31.8629 28.5586H26.3727" stroke="white" stroke-width="1.83009" stroke-linecap="round" stroke-linejoin="round"/>
<path d="M61.8589 17.9798V15.4276H73.8832V17.9798H69.4009V30.0684H66.3412V17.9798H61.8589ZM79.6206 30.2828C78.4911 30.2828 77.5188 30.0541 76.7039 29.5965C75.8937 29.1343 75.2694 28.4813 74.8309 27.6378C74.3924 26.7894 74.1732 25.7862 74.1732 24.6281C74.1732 23.4986 74.3924 22.5073 74.8309 21.6542C75.2694 20.8011 75.8865 20.1363 76.6824 19.6597C77.4831 19.1831 78.422 18.9448 79.4991 18.9448C80.2235 18.9448 80.8978 19.0616 81.5222 19.2951C82.1513 19.5239 82.6993 19.8694 83.1664 20.3317C83.6382 20.794 84.0052 21.3754 84.2673 22.076C84.5294 22.7718 84.6605 23.5868 84.6605 24.5209V25.3573H75.3885V23.47H81.7938C81.7938 23.0316 81.6985 22.6432 81.5079 22.3048C81.3172 21.9664 81.0527 21.7019 80.7143 21.5113C80.3807 21.3159 79.9923 21.2182 79.5491 21.2182C79.0868 21.2182 78.6769 21.3254 78.3195 21.5399C77.9668 21.7496 77.6904 22.0331 77.4902 22.3906C77.2901 22.7432 77.1876 23.1364 77.1828 23.5701V25.3645C77.1828 25.9078 77.2829 26.3772 77.4831 26.7728C77.688 27.1683 77.9764 27.4734 78.3481 27.6878C78.7198 27.9023 79.1607 28.0095 79.6706 28.0095C80.009 28.0095 80.3188 27.9619 80.6 27.8665C80.8811 27.7712 81.1218 27.6282 81.322 27.4376C81.5222 27.247 81.6747 27.0134 81.7795 26.737L84.5961 26.9229C84.4532 27.5996 84.1601 28.1906 83.7168 28.6958C83.2784 29.1962 82.7112 29.587 82.0154 29.8682C81.3244 30.1446 80.5261 30.2828 79.6206 30.2828ZM91.0967 30.2471C90.2626 30.2471 89.5073 30.0326 88.8305 29.6037C88.1585 29.17 87.6247 28.5338 87.2292 27.695C86.8384 26.8514 86.643 25.8172 86.643 24.5924C86.643 23.3342 86.8455 22.2881 87.2506 21.4541C87.6557 20.6153 88.1943 19.9886 88.8662 19.5739C89.543 19.1545 90.2841 18.9448 91.0895 18.9448C91.7043 18.9448 92.2166 19.0497 92.6265 19.2594C93.0411 19.4643 93.3747 19.7217 93.6273 20.0315C93.8847 20.3365 94.0801 20.6367 94.2135 20.9322H94.3065V15.4276H97.3447V30.0684H94.3422V28.3098H94.2135C94.0706 28.6148 93.868 28.9174 93.6059 29.2177C93.3485 29.5131 93.0125 29.7586 92.5979 29.954C92.1881 30.1494 91.6876 30.2471 91.0967 30.2471ZM92.0618 27.8236C92.5526 27.8236 92.9673 27.6902 93.3056 27.4233C93.6488 27.1517 93.9109 26.7728 94.092 26.2867C94.2779 25.8005 94.3708 25.231 94.3708 24.5781C94.3708 23.9252 94.2803 23.358 94.0992 22.8767C93.9181 22.3953 93.6559 22.0236 93.3128 21.7615C92.9697 21.4993 92.5526 21.3683 92.0618 21.3683C91.5613 21.3683 91.1396 21.5041 90.7964 21.7758C90.4533 22.0474 90.1935 22.4239 90.0172 22.9053C89.8409 23.3866 89.7527 23.9442 89.7527 24.5781C89.7527 25.2167 89.8409 25.7815 90.0172 26.2724C90.1983 26.7585 90.458 27.1397 90.7964 27.4162C91.1396 27.6878 91.5613 27.8236 92.0618 27.8236ZM104.297 30.2471C103.463 30.2471 102.708 30.0326 102.031 29.6037C101.359 29.17 100.825 28.5338 100.43 27.695C100.039 26.8514 99.8437 25.8172 99.8437 24.5924C99.8437 23.3342 100.046 22.2881 100.451 21.4541C100.856 20.6153 101.395 19.9886 102.067 19.5739C102.744 19.1545 103.485 18.9448 104.29 18.9448C104.905 18.9448 105.417 19.0497 105.827 19.2594C106.242 19.4643 106.575 19.7217 106.828 20.0315C107.085 20.3365 107.281 20.6367 107.414 20.9322H107.507V15.4276H110.545V30.0684H107.543V28.3098H107.414C107.271 28.6148 107.069 28.9174 106.807 29.2177C106.549 29.5131 106.213 29.7586 105.799 29.954C105.389 30.1494 104.888 30.2471 104.297 30.2471ZM105.262 27.8236C105.753 27.8236 106.168 27.6902 106.506 27.4233C106.85 27.1517 107.112 26.7728 107.293 26.2867C107.479 25.8005 107.572 25.231 107.572 24.5781C107.572 23.9252 107.481 23.358 107.3 22.8767C107.119 22.3953 106.857 22.0236 106.514 21.7615C106.17 21.4993 105.753 21.3683 105.262 21.3683C104.762 21.3683 104.34 21.5041 103.997 21.7758C103.654 22.0474 103.394 22.4239 103.218 22.9053C103.042 23.3866 102.953 23.9442 102.953 24.5781C102.953 25.2167 103.042 25.7815 103.218 26.2724C103.399 26.7585 103.659 27.1397 103.997 27.4162C104.34 27.6878 104.762 27.8236 105.262 27.8236ZM115.332 34.1861C114.946 34.1861 114.584 34.1551 114.245 34.0931C113.912 34.0359 113.635 33.9621 113.416 33.8715L114.102 31.5982C114.46 31.7078 114.782 31.7674 115.068 31.7769C115.358 31.7865 115.608 31.7197 115.818 31.5768C116.033 31.4338 116.207 31.1907 116.34 30.8476L116.519 30.3829L112.58 19.0878H115.782L118.056 27.1517H118.17L120.465 19.0878H123.689L119.421 31.2551C119.216 31.846 118.937 32.3607 118.585 32.7992C118.237 33.2424 117.796 33.5832 117.262 33.8215C116.728 34.0645 116.085 34.1861 115.332 34.1861ZM125.707 30.0684V15.4276H135.573V17.9798H128.803V21.4684H135.065V24.0205H128.803V27.5162H135.601V30.0684H125.707ZM143.626 30.0684H138.436V15.4276H143.669C145.142 15.4276 146.409 15.7207 147.472 16.3069C148.535 16.8884 149.352 17.7248 149.924 18.8162C150.501 19.9076 150.789 21.2134 150.789 22.7337C150.789 24.2588 150.501 25.5694 149.924 26.6655C149.352 27.7617 148.53 28.6029 147.458 29.1891C146.39 29.7753 145.113 30.0684 143.626 30.0684ZM141.532 27.4162H143.497C144.413 27.4162 145.182 27.2541 145.807 26.93C146.436 26.6012 146.907 26.0936 147.222 25.4074C147.541 24.7163 147.701 23.8251 147.701 22.7337C147.701 21.6519 147.541 20.7678 147.222 20.0815C146.907 19.3952 146.438 18.89 145.814 18.566C145.189 18.2419 144.42 18.0798 143.505 18.0798H141.532V27.4162Z" fill="black"/>
</svg>
