<svg width="395" height="96" viewBox="0 0 395 96" fill="none" xmlns="http://www.w3.org/2000/svg">
<path fill-rule="evenodd" clip-rule="evenodd" d="M4.8041 4.31124C4.8041 3.10705 5.78029 2.13086 6.98448 2.13086H70.9899H70.9978C74.8594 2.14486 78.5586 3.68567 81.2884 6.41706C84.0181 9.14845 85.5567 12.8487 85.5683 16.7103V16.7234C85.5567 20.585 84.0181 24.2852 81.2884 27.0166C78.5586 29.748 74.8594 31.2888 70.9978 31.3028L70.9899 31.3028H7.02958C5.82539 31.3028 4.84921 30.3266 4.84921 29.1225C4.84921 27.9183 5.82539 26.9421 7.02958 26.9421H70.9855C73.6943 26.9313 76.289 25.8501 78.2039 23.934C80.1181 22.0187 81.1977 19.4245 81.2076 16.7168C81.1977 14.0092 80.1181 11.415 78.2039 9.49965C76.2891 7.58364 73.6945 6.50242 70.9858 6.49162H6.98448C5.78029 6.49162 4.8041 5.51543 4.8041 4.31124ZM14.5794 33.423L14.586 33.423L78.5914 33.423C79.7956 33.423 80.7718 34.3992 80.7718 35.6034C80.7718 36.8075 79.7956 37.7837 78.5914 37.7837H14.5894C11.8794 37.7927 9.28298 38.8733 7.36665 40.7896C5.45113 42.7051 4.3707 45.3002 4.3608 48.009C4.3707 50.7177 5.45113 53.3128 7.36665 55.2283C9.28301 57.1447 11.8795 58.2252 14.5896 58.2342H78.5463C79.7505 58.2342 80.7267 59.2104 80.7267 60.4146C80.7267 61.6188 79.7505 62.5949 78.5463 62.5949H14.586L14.5794 62.5949C10.7163 62.5833 7.01478 61.0435 4.28313 58.3119C1.55149 55.5802 0.0116932 51.8787 3.98159e-05 48.0155L0 48.0024C0.0116932 44.1393 1.55149 40.4377 4.28313 37.7061C7.01478 34.9744 10.7163 33.4346 14.5794 33.423ZM6.98448 64.7151C5.78029 64.7151 4.8041 65.6913 4.8041 66.8955C4.8041 68.0997 5.78029 69.0758 6.98448 69.0758H70.9858C73.6944 69.0866 76.2891 70.1679 78.2039 72.0839C80.1181 73.9992 81.1977 76.5934 81.2076 79.3011C81.1977 82.0088 80.1181 84.6029 78.2039 86.5183C76.289 88.4343 73.6943 89.5156 70.9855 89.5263H7.02958C5.82539 89.5263 4.84921 90.5025 4.84921 91.7067C4.84921 92.9109 5.82539 93.8871 7.02958 93.8871H70.9899L70.9978 93.887C74.8594 93.8731 78.5586 92.3323 81.2884 89.6009C84.0181 86.8695 85.5567 83.1692 85.5683 79.3076V79.2945C85.5567 75.4329 84.0181 71.7327 81.2884 69.0013C78.5587 66.2699 74.8594 64.7291 70.9978 64.7151H70.9899H6.98448Z" fill="url(#paint0_linear_468_2553)"/>
<path fill-rule="evenodd" clip-rule="evenodd" d="M9.7063 8.30273H71.5765C73.5705 8.30273 75.4829 9.09486 76.8929 10.5049C78.3029 11.9149 79.095 13.8272 79.095 15.8213V17.6934C79.095 19.6874 78.3029 21.5998 76.8929 23.0098C75.4829 24.4198 73.5705 25.212 71.5765 25.212H9.7063V8.30273ZM75.8621 56.4285H13.9919C13.0046 56.4285 12.0269 56.234 11.1147 55.8562C10.2025 55.4783 9.3737 54.9245 8.67554 54.2263C7.97738 53.5282 7.42357 52.6993 7.04572 51.7871C6.66788 50.875 6.47339 49.8973 6.47339 48.9099V47.0378C6.47339 46.0505 6.66788 45.0728 7.04572 44.1606C7.42357 43.2484 7.97738 42.4195 8.67554 41.7214C9.3737 41.0232 10.2025 40.4694 11.1147 40.0916C12.0269 39.7137 13.0046 39.5193 13.9919 39.5193H75.8621V56.4285ZM71.5765 70.8801H9.7063V87.7894H71.5765C73.5705 87.7894 75.4829 86.9972 76.8929 85.5872C78.3029 84.1772 79.095 82.2648 79.095 80.2708V78.3987C79.095 76.4046 78.3029 74.4923 76.8929 73.0823C75.4829 71.6723 73.5705 70.8801 71.5765 70.8801Z" fill="#DE49F1"/>
<path fill-rule="evenodd" clip-rule="evenodd" d="M9.7063 8.30273H71.5765C73.5705 8.30273 75.4829 9.09486 76.8929 10.5049C78.3029 11.9149 79.095 13.8272 79.095 15.8213V17.6934C79.095 19.6874 78.3029 21.5998 76.8929 23.0098C75.4829 24.4198 73.5705 25.212 71.5765 25.212H9.7063V8.30273ZM75.8621 56.4285H13.9919C13.0046 56.4285 12.0269 56.234 11.1147 55.8562C10.2025 55.4783 9.3737 54.9245 8.67554 54.2263C7.97738 53.5282 7.42357 52.6993 7.04572 51.7871C6.66788 50.875 6.47339 49.8973 6.47339 48.9099V47.0378C6.47339 46.0505 6.66788 45.0728 7.04572 44.1606C7.42357 43.2484 7.97738 42.4195 8.67554 41.7214C9.3737 41.0232 10.2025 40.4694 11.1147 40.0916C12.0269 39.7137 13.0046 39.5193 13.9919 39.5193H75.8621V56.4285ZM71.5765 70.8801H9.7063V87.7894H71.5765C73.5705 87.7894 75.4829 86.9972 76.8929 85.5872C78.3029 84.1772 79.095 82.2648 79.095 80.2708V78.3987C79.095 76.4046 78.3029 74.4923 76.8929 73.0823C75.4829 71.6723 73.5705 70.8801 71.5765 70.8801Z" fill="url(#paint1_linear_468_2553)"/>
<path d="M107.876 0.348633H94.1547C91.3394 0.348633 89.0571 2.63089 89.0571 5.44621V90.5336C89.0571 93.349 91.3394 95.6312 94.1547 95.6312H107.876C110.691 95.6312 112.974 93.349 112.974 90.5336V5.44621C112.974 2.63089 110.691 0.348633 107.876 0.348633Z" fill="#1C375B"/>
<path d="M107.41 9.18262H94.6209C93.5454 9.18262 92.6736 10.0545 92.6736 11.1299V11.8968C92.6736 12.9723 93.5454 13.8441 94.6209 13.8441H107.41C108.485 13.8441 109.357 12.9723 109.357 11.8968V11.1299C109.357 10.0545 108.485 9.18262 107.41 9.18262Z" fill="#E7ECF3"/>
<path d="M107.41 17.251H94.6209C93.5454 17.251 92.6736 18.1228 92.6736 19.1983V19.9652C92.6736 21.0406 93.5454 21.9125 94.6209 21.9125H107.41C108.485 21.9125 109.357 21.0406 109.357 19.9652V19.1983C109.357 18.1228 108.485 17.251 107.41 17.251Z" fill="#E7ECF3"/>
<path d="M159.12 66.9603C159.12 67.3719 157.96 67.7088 155.639 67.9708C153.356 68.1953 151.054 68.3076 148.734 68.3076C146.451 68.3076 144.991 68.2141 144.355 68.0269C143.756 67.8024 143.457 67.4468 143.457 66.9603V42.82H135.653C135.242 42.82 134.886 42.296 134.587 41.2481C134.287 40.2001 134.137 38.6469 134.137 36.5884C134.137 34.4925 134.362 32.6212 134.811 30.9744C135.26 29.2902 135.859 28.4481 136.608 28.4481H166.979C167.541 28.4481 167.915 28.9721 168.102 30.02C168.327 31.068 168.439 32.5838 168.439 34.5674C168.439 36.551 168.233 38.4223 167.822 40.1814C167.41 41.9405 166.848 42.82 166.137 42.82H159.12V66.9603ZM187.154 55.6199C187.154 58.0527 188.315 59.2691 190.635 59.2691C191.982 59.2691 193.741 58.8199 195.912 57.9217C198.083 56.986 199.224 56.5182 199.337 56.5182C200.048 56.5182 200.984 57.5848 202.144 59.7182C203.304 61.8515 203.884 63.4234 203.884 64.4339C203.884 65.8936 202.387 66.9977 199.393 67.7462C196.399 68.4948 193.461 68.869 190.579 68.869C187.734 68.869 185.339 68.6445 183.393 68.1953C181.484 67.7462 179.912 67.1848 178.677 66.5111C177.48 65.8 176.413 64.9392 175.477 63.9287C174.579 62.9182 173.905 61.9638 173.456 61.0655C173.007 60.1299 172.651 59.1006 172.389 57.9778C172.015 56.3311 171.828 54.6281 171.828 52.8691C171.828 46.0574 173.606 41.3603 177.161 38.7779C178.92 37.468 180.885 36.551 183.056 36.027C185.227 35.5031 187.791 35.2411 190.747 35.2411C200.216 35.2411 204.951 38.5346 204.951 45.1217C204.951 52.1205 199.636 55.6199 189.007 55.6199H187.154ZM187.042 47.4235V51.1287C188.127 51.1287 189.007 50.6983 189.681 49.8375C190.392 48.9767 190.747 47.9287 190.747 46.6937C190.747 44.4481 190.167 43.3253 189.007 43.3253C187.697 43.3253 187.042 44.6913 187.042 47.4235ZM219.696 68.8129C218.311 68.8129 217.02 68.607 215.822 68.1953C214.625 67.7836 213.633 67.2784 212.847 66.6796C212.098 66.0807 211.443 65.276 210.882 64.2655C210.32 63.255 209.89 62.3006 209.591 61.4024C209.291 60.4667 209.067 59.3252 208.917 57.9778C208.692 55.9942 208.58 53.7299 208.58 51.1849C208.58 45.9826 209.535 42.034 211.443 39.3393C213.352 36.6071 215.972 35.2411 219.303 35.2411C222.709 35.2411 225.179 36.0457 226.713 37.6551C227.05 38.0294 227.312 38.4785 227.499 39.0025H227.949L227.275 35.1288V28.1113C227.275 27.2879 228.323 26.4832 230.419 25.6972C232.515 24.9113 234.779 24.5183 237.212 24.5183C239.757 24.5183 241.385 25.0049 242.096 25.978C242.358 26.3522 242.489 26.7265 242.489 27.1008V66.9603C242.489 67.3719 241.441 67.7088 239.345 67.9708C237.286 68.1953 235.284 68.3076 233.338 68.3076C231.429 68.3076 230.194 68.2515 229.633 68.1392C229.109 67.9895 228.772 67.8398 228.622 67.6901C228.51 67.5404 228.435 67.2971 228.398 66.9603L227.949 63.7603H227.499C227.163 65.0702 226.489 66.1743 225.478 67.0725C224.206 68.2328 222.278 68.8129 219.696 68.8129ZM225.984 60.6164C226.582 60.6164 227.032 60.2421 227.331 59.4936V44.5042C227.331 44.1299 227.125 43.8492 226.713 43.6621C226.339 43.4375 226.002 43.3253 225.703 43.3253C224.43 43.3253 223.794 46.2445 223.794 52.0831C223.794 55.1895 223.963 57.3977 224.299 58.7077C224.674 59.9802 225.235 60.6164 225.984 60.6164ZM257.819 68.8129C256.434 68.8129 255.143 68.607 253.945 68.1953C252.747 67.7836 251.755 67.2784 250.969 66.6796C250.221 66.0807 249.566 65.276 249.005 64.2655C248.443 63.255 248.013 62.3006 247.713 61.4024C247.414 60.4667 247.189 59.3252 247.04 57.9778C246.815 55.9942 246.703 53.7299 246.703 51.1849C246.703 45.9826 247.657 42.034 249.566 39.3393C251.475 36.6071 254.095 35.2411 257.426 35.2411C260.831 35.2411 263.302 36.0457 264.836 37.6551C265.173 38.0294 265.435 38.4785 265.622 39.0025H266.071L265.397 35.1288V28.1113C265.397 27.2879 266.445 26.4832 268.541 25.6972C270.637 24.9113 272.902 24.5183 275.334 24.5183C277.879 24.5183 279.507 25.0049 280.218 25.978C280.48 26.3522 280.611 26.7265 280.611 27.1008V66.9603C280.611 67.3719 279.564 67.7088 277.468 67.9708C275.409 68.1953 273.407 68.3076 271.461 68.3076C269.552 68.3076 268.317 68.2515 267.755 68.1392C267.231 67.9895 266.895 67.8398 266.745 67.6901C266.633 67.5404 266.558 67.2971 266.52 66.9603L266.071 63.7603H265.622C265.285 65.0702 264.612 66.1743 263.601 67.0725C262.328 68.2328 260.401 68.8129 257.819 68.8129ZM264.106 60.6164C264.705 60.6164 265.154 60.2421 265.454 59.4936V44.5042C265.454 44.1299 265.248 43.8492 264.836 43.6621C264.462 43.4375 264.125 43.3253 263.826 43.3253C262.553 43.3253 261.917 46.2445 261.917 52.0831C261.917 55.1895 262.085 57.3977 262.422 58.7077C262.796 59.9802 263.358 60.6164 264.106 60.6164ZM304.306 64.6585V61.3462H303.857C303.67 61.5334 303.389 61.7766 303.015 62.0761C302.641 62.3755 301.761 62.7685 300.376 63.255C298.992 63.7416 297.438 63.9848 295.717 63.9848C294.032 63.9848 292.535 63.7228 291.225 63.1989C289.953 62.6375 288.942 61.9076 288.194 61.0094C287.445 60.0737 286.865 58.8386 286.454 57.3041C285.742 54.8714 285.387 51.4281 285.387 46.9744V39.227C285.387 38.4411 286.491 37.6738 288.699 36.9253C290.907 36.1393 293.228 35.7463 295.661 35.7463C298.917 35.7463 300.545 36.5884 300.545 38.2726V45.3463C300.545 52.8317 301.144 56.5743 302.341 56.5743C303.052 56.5743 303.408 56.0691 303.408 55.0585V39.227C303.408 38.4411 304.587 37.6738 306.945 36.9253C309.303 36.1393 311.829 35.7463 314.524 35.7463C317.218 35.7463 318.566 36.4762 318.566 37.9358V64.4901C318.566 72.8363 312.914 77.0093 301.611 77.0093C295.661 77.0093 291.618 76.4292 289.485 75.269C288.549 74.745 288.082 74.2023 288.082 73.6409C288.082 72.7427 288.456 71.2269 289.204 69.0936C289.953 66.9977 290.645 65.9497 291.282 65.9497C291.431 65.9497 291.955 66.062 292.854 66.2866C295.623 67.0351 297.925 67.4094 299.759 67.4094C301.63 67.4094 302.846 67.2035 303.408 66.7918C304.007 66.3801 304.306 65.669 304.306 64.6585ZM352.089 68.3076H328.285C326.451 68.3076 325.216 68.1766 324.58 67.9146C323.944 67.6526 323.626 67.241 323.626 66.6796V31.1428C323.626 30.1697 324.056 29.4774 324.917 29.0657C325.815 28.654 327.406 28.4481 329.689 28.4481H352.257C353.043 28.4481 353.436 29.7581 353.436 32.3779C353.436 34.9604 353.268 36.944 352.931 38.3288C352.594 39.6761 352.145 40.3498 351.584 40.3498C349.151 40.3498 345.053 40.1066 339.289 39.62V43.3814C344.828 43.1568 348.44 43.0446 350.124 43.0446C351.134 43.0446 351.64 44.2235 351.64 46.5814C351.64 48.9393 351.434 50.7358 351.022 51.9708C350.648 53.1685 350.124 53.7673 349.45 53.7673L339.289 53.5428V57.1357C345.801 56.6492 350.292 56.4059 352.763 56.4059C353.548 56.4059 353.941 57.7158 353.941 60.3357C353.941 62.9556 353.773 64.9392 353.436 66.2866C353.099 67.6339 352.65 68.3076 352.089 68.3076ZM369.007 68.8129C367.622 68.8129 366.331 68.607 365.133 68.1953C363.935 67.7836 362.944 67.2784 362.158 66.6796C361.409 66.0807 360.754 65.276 360.193 64.2655C359.631 63.255 359.201 62.3006 358.902 61.4024C358.602 60.4667 358.378 59.3252 358.228 57.9778C358.003 55.9942 357.891 53.7299 357.891 51.1849C357.891 45.9826 358.845 42.034 360.754 39.3393C362.663 36.6071 365.283 35.2411 368.614 35.2411C372.02 35.2411 374.49 36.0457 376.024 37.6551C376.361 38.0294 376.623 38.4785 376.81 39.0025H377.259L376.586 35.1288V28.1113C376.586 27.2879 377.634 26.4832 379.73 25.6972C381.825 24.9113 384.09 24.5183 386.522 24.5183C389.068 24.5183 390.696 25.0049 391.407 25.978C391.669 26.3522 391.8 26.7265 391.8 27.1008V66.9603C391.8 67.3719 390.752 67.7088 388.656 67.9708C386.597 68.1953 384.595 68.3076 382.649 68.3076C380.74 68.3076 379.505 68.2515 378.944 68.1392C378.42 67.9895 378.083 67.8398 377.933 67.6901C377.821 67.5404 377.746 67.2971 377.708 66.9603L377.259 63.7603H376.81C376.473 65.0702 375.8 66.1743 374.789 67.0725C373.517 68.2328 371.589 68.8129 369.007 68.8129ZM375.294 60.6164C375.893 60.6164 376.342 60.2421 376.642 59.4936V44.5042C376.642 44.1299 376.436 43.8492 376.024 43.6621C375.65 43.4375 375.313 43.3253 375.014 43.3253C373.741 43.3253 373.105 46.2445 373.105 52.0831C373.105 55.1895 373.273 57.3977 373.61 58.7077C373.985 59.9802 374.546 60.6164 375.294 60.6164Z" fill="url(#paint2_linear_468_2553)"/>
<defs>
<linearGradient id="paint0_linear_468_2553" x1="42.7291" y1="2.23961" x2="42.7291" y2="93.7477" gradientUnits="userSpaceOnUse">
<stop offset="0.182292" stop-color="#1C375B"/>
<stop offset="1" stop-color="#CD4236"/>
</linearGradient>
<linearGradient id="paint1_linear_468_2553" x1="42.6406" y1="3.37312" x2="42.6406" y2="99.7978" gradientUnits="userSpaceOnUse">
<stop stop-color="#1C375B"/>
<stop offset="1" stop-color="#CD4236"/>
</linearGradient>
<linearGradient id="paint2_linear_468_2553" x1="133.015" y1="74.3076" x2="394.015" y2="74.3076" gradientUnits="userSpaceOnUse">
<stop offset="0.182292" stop-color="#1C375B"/>
<stop offset="1" stop-color="#CD4236"/>
</linearGradient>
</defs>
</svg>
