<svg width="154" height="60" viewBox="0 0 154 60" fill="none" xmlns="http://www.w3.org/2000/svg">
<path fill-rule="evenodd" clip-rule="evenodd" d="M90.8164 53.8641C108.828 43.8148 129.655 39.4401 153.298 40.7399C135.745 41.0746 114.918 45.4494 90.8164 53.8641Z" fill="white"/>
<path d="M137.88 30.0939C137.728 29.6249 137.472 29.1967 137.13 28.8421C136.76 28.4676 136.313 28.1781 135.819 27.9936C135.21 27.7723 134.565 27.6678 133.917 27.6856H127.452V40.6609H130.213V35.5063H133.92C134.584 35.5241 135.244 35.4068 135.861 35.1615C136.354 34.9588 136.798 34.6529 137.163 34.2645C137.492 33.9063 137.74 33.4825 137.893 33.021C138.042 32.5696 138.119 32.0973 138.119 31.6219C138.121 31.1031 138.04 30.5873 137.88 30.0939ZM135.035 32.4102C134.932 32.5188 134.809 32.6048 134.671 32.6625C134.533 32.7201 134.385 32.7482 134.236 32.7449H130.22V30.4387H134.261C134.408 30.4375 134.553 30.4677 134.688 30.5271C134.822 30.5866 134.942 30.674 135.04 30.7834C135.25 31.0018 135.368 31.2934 135.368 31.5968C135.368 31.9002 135.25 32.1918 135.04 32.4102H135.035ZM122.913 27.6856H125.674V40.6609H122.913V27.6856ZM118.379 27.6856H121.139V40.6609H118.379V35.5063H113.226V40.6526H110.471V27.6856H113.226V32.7532H118.374L118.379 27.6856ZM107.75 33.749C108.5 34.4185 108.875 35.4048 108.875 36.7079C108.875 38.0111 108.503 38.9968 107.76 39.6651C107.017 40.3346 105.982 40.6693 104.654 40.6693H98.0099V37.8945H105.069C105.21 37.8978 105.351 37.8683 105.479 37.8082C105.607 37.748 105.719 37.659 105.807 37.5481C106 37.3121 106.105 37.0162 106.103 36.7113C106.117 36.4026 106.015 36.1 105.817 35.8628C105.728 35.7502 105.614 35.6596 105.484 35.5981C105.355 35.5366 105.213 35.5057 105.069 35.508H101.578C100.907 35.5272 100.239 35.4064 99.6165 35.1532C99.1245 34.944 98.6811 34.6352 98.3145 34.2461C97.9861 33.8901 97.7404 33.4661 97.5948 33.0043C97.4501 32.5383 97.3773 32.0529 97.3789 31.565C97.3788 31.0658 97.4585 30.5697 97.6149 30.0956C97.7645 29.6281 98.0173 29.2003 98.3546 28.8438C98.7198 28.468 99.164 28.1782 99.655 27.9952C100.271 27.7724 100.923 27.6673 101.578 27.6856H108.046V30.447H101.243C101.096 30.446 100.951 30.4762 100.816 30.5356C100.682 30.595 100.562 30.6824 100.463 30.7918C100.252 31.0113 100.135 31.3053 100.139 31.6102C100.136 31.7598 100.163 31.9084 100.219 32.0472C100.275 32.1861 100.358 32.3123 100.463 32.4185C100.566 32.5271 100.69 32.613 100.828 32.6706C100.966 32.7283 101.114 32.7564 101.263 32.7532H104.691C105.981 32.7477 107 33.0768 107.75 33.7407V33.749Z" fill="url(#paint0_linear_2_7685)"/>
<path fill-rule="evenodd" clip-rule="evenodd" d="M91.7978 34.8172L96.6294 27.6777H93.2973L90.4188 32.6667L87.5385 27.6777H84.2064L89.0381 34.9746V40.653H91.7978V34.8172ZM72.1198 27.686H77.5221C81.4651 27.686 83.4371 29.8422 83.4383 34.1544V34.213C83.3992 38.5119 81.4205 40.6613 77.502 40.6613H72.1198V27.686ZM80.0258 36.9945C80.4598 36.3898 80.6768 35.4364 80.6768 34.1344L80.6835 33.9687C80.6846 31.6156 79.8172 30.4391 78.0811 30.4391H74.8745V37.8949H78.0543C78.9346 37.8994 79.5918 37.5992 80.0258 36.9945ZM64.6071 27.686H59.2031V40.6613H64.587C68.5043 40.6613 70.4825 38.5119 70.5216 34.213V34.1544C70.5216 29.8422 68.5501 27.686 64.6071 27.686ZM67.7618 34.1344C67.7618 35.4364 67.5448 36.3898 67.1108 36.9945C66.6768 37.5992 66.0196 37.8994 65.1393 37.8949H61.9595V30.4391H65.1544C66.8882 30.4391 67.7557 31.6156 67.7568 33.9687L67.7618 34.1344ZM49.523 31.5929C49.5267 31.2921 49.6425 31.0034 49.8478 30.7835C49.9474 30.6747 50.0692 30.5884 50.2048 30.5304C50.3404 30.4724 50.4869 30.444 50.6344 30.4471H57.4291V27.6857H50.9691C49.9125 27.6857 49.117 27.8318 48.5826 28.1241C48.0328 28.4431 47.576 28.9005 47.2578 29.4507C46.9395 30.0009 46.7708 30.6248 46.7684 31.2604C46.7528 31.8291 46.8395 32.396 47.0245 32.934C47.1952 33.3881 47.57 33.7859 48.1491 34.1273C47.6769 34.3984 47.2986 34.8071 47.0646 35.2988C46.8697 35.7401 46.7688 36.2172 46.7684 36.6996C46.7689 37.1842 46.8422 37.666 46.986 38.1288C47.1288 38.6008 47.3746 39.0352 47.7056 39.4007C48.0672 39.7949 48.5112 40.1046 49.006 40.3078C49.6303 40.5543 50.2981 40.6716 50.9691 40.6526H57.4291V37.8928H50.6545C50.5044 37.8952 50.3556 37.8656 50.2179 37.8058C50.0802 37.7461 49.9569 37.6576 49.8562 37.5464C49.647 37.3136 49.5314 37.0117 49.5314 36.6987C49.5314 36.3858 49.647 36.0839 49.8562 35.8511C49.9541 35.7419 50.0741 35.6547 50.2083 35.5952C50.3424 35.5358 50.4877 35.5055 50.6344 35.5063H57.4291V32.7449H50.6461C50.4936 32.7519 50.3413 32.7256 50.2 32.6678C50.0587 32.61 49.9316 32.5221 49.8277 32.4102C49.6279 32.1852 49.5193 31.8938 49.523 31.5929Z" fill="url(#paint1_linear_2_7685)"/>
<path d="M12.5705 41.7059C12.1788 41.3026 11.1462 40.752 9.4643 40.921C7.78235 41.09 6.70456 42.8607 6.7715 42.9393C6.83845 43.018 7.64679 42.6046 7.98318 42.6699C7.60834 42.8909 7.30396 43.2138 7.10546 43.601C6.90696 43.9883 6.82249 44.4239 6.86188 44.8573C6.90874 45.7242 7.42253 46.3836 7.51123 46.417C7.59993 46.4505 7.78067 45.6656 8.02836 45.4631C8.22919 47.0028 9.67684 47.5283 9.7555 47.3927C9.83416 47.2572 9.56471 46.8204 9.49777 46.556C9.76722 46.9593 11.1011 47.5601 11.9763 47.0714C12.7395 46.0689 12.5705 41.7059 12.5705 41.7059Z" fill="#00DC39"/>
<path d="M9.49275 41.1687C10.9086 41.0281 12.0784 41.5821 12.5805 42.0624C12.5805 41.8381 12.5705 41.7059 12.5705 41.7059C12.1788 41.3026 11.1462 40.752 9.4643 40.921C7.78235 41.09 6.70456 42.8607 6.7715 42.9393C6.93552 42.777 7.84427 41.3344 9.49275 41.1687Z" fill="#0C4207"/>
<path d="M6.86189 44.8574C6.90875 45.7243 7.42255 46.3837 7.51125 46.4172C7.59995 46.4507 7.78069 45.6658 8.02838 45.4633C8.22921 47.003 9.67686 47.5285 9.75552 47.3929C9.83418 47.2573 9.56473 46.8205 9.49779 46.5561C9.76723 46.9594 11.1011 47.5603 11.9764 47.0716C12.1722 46.8172 12.3111 46.3436 12.3964 45.7779C11.3136 46.8205 9.32206 45.7913 9.15638 45.3009C8.86183 45.7461 9.0158 46.1377 8.90367 46.2432C8.79154 46.3486 8.20746 45.4917 8.29281 44.5261C7.75391 44.7737 7.51794 45.244 7.39409 45.234C7.27025 45.2239 6.85687 43.7127 8.09365 42.6533L7.81249 42.7906C7.48716 43.0219 7.22817 43.3345 7.06137 43.6971C6.89457 44.0598 6.82579 44.4599 6.86189 44.8574Z" fill="#0C4207"/>
<path d="M9.69292 47.4565C9.66421 47.4559 9.63563 47.4526 9.60757 47.4465C9.17913 47.3595 8.19674 46.7653 7.99758 45.5537C7.88124 45.7302 7.78788 45.9209 7.71977 46.121C7.61935 46.372 7.57417 46.4859 7.49718 46.4557C7.37166 46.4089 6.86624 45.7143 6.81771 44.8591C6.77901 44.4401 6.85478 44.0185 7.03693 43.6391C7.21908 43.2598 7.50078 42.937 7.85198 42.7052C7.62281 42.7396 7.39825 42.7996 7.18255 42.8843C6.90139 42.9814 6.78591 43.0182 6.74072 42.9663C6.69553 42.9144 6.72901 42.896 6.74072 42.8542C6.95269 42.452 7.23626 42.0918 7.57751 41.7915C8.09242 41.2934 8.75353 40.9737 9.46364 40.8794C10.1537 40.797 10.8534 40.8579 11.5188 41.0584C11.9243 41.1775 12.2966 41.3888 12.6066 41.676L12.6167 41.6877V41.7044C12.6167 41.7145 12.6568 42.8107 12.605 44.014C12.533 45.6373 12.3338 46.6733 12.0125 47.0934C11.2176 47.5402 10.0661 47.1084 9.61594 46.7168L9.68121 46.8708C9.77995 47.1017 9.86697 47.3009 9.80672 47.403C9.79583 47.4228 9.77895 47.4386 9.75851 47.4482C9.73807 47.4578 9.71511 47.4607 9.69292 47.4565ZM8.0595 45.383L8.06955 45.4583C8.11488 45.8412 8.25449 46.2069 8.47589 46.5227C8.69728 46.8384 8.99354 47.0943 9.33812 47.2674C9.4531 47.3378 9.5849 47.3759 9.7197 47.3779C9.75317 47.3076 9.6628 47.095 9.58916 46.9243C9.53664 46.8098 9.49191 46.6918 9.45527 46.5712L9.3967 46.3352L9.53226 46.5377C9.64941 46.7151 10.0343 46.9695 10.5213 47.1151C10.8393 47.2088 11.4452 47.3226 11.9472 47.0448C12.6635 46.0859 12.5397 42.0241 12.5296 41.7329C12.0811 41.281 11.0234 40.8158 9.46699 40.9714C8.61681 41.0567 7.9457 41.5555 7.53233 41.9588C7.23684 42.2316 6.99354 42.556 6.81436 42.9161C6.92827 42.891 7.04016 42.8574 7.14907 42.8157C7.43024 42.7186 7.78169 42.5964 7.98587 42.6383L8.08795 42.6584L7.99926 42.7136C7.63083 42.9309 7.33172 43.2484 7.13676 43.6292C6.9418 44.0099 6.85901 44.4382 6.89804 44.8642C6.92946 45.4203 7.14494 45.9502 7.51057 46.3704C7.55975 46.2807 7.60172 46.1872 7.63609 46.0909C7.73148 45.8499 7.84863 45.552 7.99591 45.4315L8.0595 45.383Z" fill="#351200"/>
<path d="M28.1697 23.7065C28.809 24.0262 29.8868 25.0555 29.8868 25.0555C30.332 24.1852 30.7454 23.4873 30.7454 23.4873C31.7371 23.8155 32.6732 24.2923 33.5218 24.9015C34.8507 25.8772 35.2875 26.8027 35.2875 26.8027C35.3885 27.7775 35.3632 28.7614 35.2122 29.7298C35.0448 30.7657 34.6482 31.0937 34.5862 31.0686C34.5243 31.0435 34.5026 30.4963 34.3402 30.0762C34.2804 30.6023 34.083 31.1034 33.7679 31.5289C33.5051 31.9372 32.9662 32.3657 32.9043 32.3188C32.8424 32.2719 33.0047 31.8167 33.0382 31.41C32.6691 31.8174 32.1572 32.0668 31.6089 32.1063C30.5512 32.2485 29.3262 31.7582 28.6467 31.3314C28.0996 30.8692 27.6031 30.3503 27.1656 29.7833C27.1656 29.7833 26.8744 25.9592 26.8861 25.914C26.8978 25.8688 28.1697 23.7065 28.1697 23.7065Z" fill="#00DC39"/>
<path d="M29.7643 25.3043C29.617 25.6005 29.3124 26.6432 29.4898 27.1302C29.5722 26.5225 29.7519 25.932 30.022 25.3813C30.2964 24.8324 30.6312 24.1211 30.8337 23.9571C30.7684 23.8985 30.6663 23.8985 30.5123 23.8918C30.345 24.178 30.1241 24.5931 29.8864 25.055C29.8864 25.055 28.8086 24.0257 28.1693 23.7061L28.0488 23.9102C28.6658 24.3164 29.2405 24.7834 29.7643 25.3043Z" fill="#BD7543"/>
<path d="M28.647 31.3274C29.3264 31.7542 30.5515 32.2445 31.6092 32.1023C32.1575 32.0628 32.6694 31.8134 33.0385 31.4061C33.005 31.8161 32.8426 32.2713 32.9046 32.3148C32.9665 32.3583 33.5054 31.9332 33.7681 31.5249C34.0833 31.0994 34.2807 30.5983 34.3405 30.0722C34.5079 30.4923 34.5263 31.0362 34.5865 31.0646C34.6468 31.0931 35.0535 30.7651 35.2124 29.7258C35.3635 28.7574 35.3888 27.7736 35.2877 26.7987C35.1133 26.4732 34.8967 26.1721 34.6434 25.9033C34.6853 26.8389 34.702 28.1995 34.5146 29.0664C34.3959 28.7301 34.2198 28.417 33.9941 28.1409C33.9941 28.1409 34.0443 29.5718 33.4552 30.5977C33.4638 30.4622 33.4444 30.3264 33.398 30.1988C33.3516 30.0712 33.2794 29.9546 33.1857 29.8563C32.933 30.5642 31.8736 31.3374 30.426 31.0412C29.5156 30.8554 28.0579 29.7191 27.1006 28.9024C27.1391 29.4045 27.1659 29.776 27.1659 29.776C27.6032 30.3441 28.0997 30.8642 28.647 31.3274Z" fill="#92471D"/>
<path d="M32.9163 32.3606C32.9033 32.3609 32.8905 32.3574 32.8794 32.3506C32.8275 32.3121 32.8443 32.22 32.9012 31.9573C32.9296 31.8284 32.9631 31.6745 32.9849 31.5205C32.5916 31.9004 32.2301 32.0611 31.6142 32.1447C31.0612 32.2029 30.5022 32.143 29.9741 31.969C29.5006 31.8258 29.0473 31.6228 28.6252 31.3648C28.0763 30.9 27.5777 30.3789 27.1374 29.8101V29.8V29.7867C27.0052 28.0394 26.8478 25.9458 26.8579 25.9039C26.8679 25.8621 27.7633 24.3391 28.1482 23.6881L28.1666 23.6546L28.2018 23.6714C28.7775 23.9592 29.6829 24.796 29.8887 24.9902C30.3205 24.1534 30.7172 23.4756 30.7255 23.4689L30.7423 23.4404L30.7741 23.4505C31.7693 23.7812 32.7092 24.2596 33.5623 24.8697C34.8861 25.842 35.3379 26.7776 35.3429 26.7876C35.4427 27.7664 35.4174 28.754 35.2676 29.7264C35.1304 30.6151 34.8141 31.0017 34.6651 31.082C34.6532 31.09 34.6397 31.0952 34.6255 31.0972C34.6113 31.0993 34.5968 31.0981 34.5831 31.0937C34.538 31.0736 34.5229 31.0017 34.4844 30.7774C34.456 30.5958 34.4174 30.4159 34.3689 30.2385C34.2923 30.6983 34.1095 31.1338 33.835 31.5104L33.8166 31.5372C33.5773 31.9104 33.092 32.3221 32.948 32.3489L32.9163 32.3606ZM33.0836 31.2946L33.0736 31.41C33.0543 31.6006 33.0219 31.7896 32.9765 31.9757C32.9513 32.0734 32.9345 32.1731 32.9263 32.2736C33.2475 32.078 33.5222 31.8147 33.7313 31.5021L33.7497 31.4736C34.0516 31.0601 34.2402 30.575 34.297 30.0661L34.3187 29.8988L34.3773 30.0511C34.4583 30.2832 34.5172 30.5225 34.553 30.7657C34.5641 30.85 34.5814 30.9333 34.6049 31.0151C34.6819 30.9782 35.0216 30.6686 35.1689 29.7164C35.3175 28.754 35.3434 27.7766 35.2459 26.8077C35.2057 26.7273 34.7438 25.8454 33.4953 24.9282C32.6584 24.3299 31.7374 23.859 30.7623 23.5308C30.6803 23.6714 30.3122 24.3073 29.9256 25.0688L29.9005 25.119L29.8586 25.0789C29.8486 25.0688 28.8176 24.0864 28.185 23.7551C27.693 24.5919 26.9767 25.8102 26.9265 25.914C26.9265 26.073 27.1257 28.7206 27.206 29.7632C27.639 30.3232 28.1298 30.8359 28.6704 31.2929C29.4302 31.7698 30.6301 32.1916 31.6008 32.0594C32.1402 32.0226 32.6443 31.7778 33.0066 31.3766L33.0836 31.2946Z" fill="#351200"/>
<path d="M29.4163 26.3809C29.4986 25.917 29.6438 25.4665 29.8481 25.042L29.9251 25.0771C29.5519 25.8805 29.3979 26.6118 29.49 27.134C29.49 27.1306 29.3578 26.9382 29.4163 26.3809Z" fill="#351200"/>
<path d="M15.2324 30.824C15.3997 33.1118 14.2081 38.3853 13.9286 39.1919C13.6491 39.9986 13.4266 40.3936 13.1872 40.6848C12.9479 40.976 11.8182 41.9416 11.3697 43.6972C11.0066 45.1231 11.3363 46.9841 12.6266 48.5774C13.9169 50.1706 14.7587 50.753 14.7587 50.753L22.4321 51.0627L31.1163 37.7828C31.6535 35.0599 30.2511 32.8156 29.3976 31.4232C28.544 30.0307 26.9508 26.9564 26.2178 24.8108C25.4847 22.6653 24.0956 16.8379 24.0956 16.8379L14.029 22.1448L13.6793 25.4652L15.2324 30.824Z" fill="#00DC39"/>
<path d="M29.3983 31.4297C28.5464 30.039 26.9515 26.9629 26.2185 24.8174C26.4126 25.3914 26.0511 26.2767 26.2185 26.9797C26.6653 28.911 27.8921 30.6281 28.523 31.6473C29.3598 33.0196 31.2007 36.3735 29.7615 39.8595L31.1154 37.7876C31.6543 35.0647 30.2518 32.8205 29.3983 31.4297Z" fill="#0C4207"/>
<path d="M13.0708 48.405C11.7805 46.8117 11.4508 45.2536 11.8156 43.8278C12.2641 42.0655 13.2164 41.2237 13.4524 40.9325C13.6883 40.6413 13.9344 40.1191 14.2155 39.3124C14.2272 39.2773 13.9544 39.1149 13.9695 39.0664C13.9544 39.12 13.9394 39.1651 13.9277 39.2003C13.6465 40.0086 13.4256 40.4019 13.1863 40.6931C12.9469 40.9843 11.8173 41.95 11.3687 43.7056C11.0056 45.1315 11.3353 46.9925 12.6256 48.5857C13.9159 50.179 14.7578 50.7614 14.7578 50.7614L15.2682 50.7832C14.4858 50.0381 13.7518 49.2438 13.0708 48.405Z" fill="#0C4207"/>
<path d="M22.4557 51.1159H22.4306L14.7438 50.8063H14.7337C14.7254 50.8063 13.8735 50.2005 12.5932 48.6223C11.9909 47.8845 11.5619 47.0209 11.338 46.0952C11.1464 45.3078 11.1464 44.486 11.338 43.6986C11.629 42.6196 12.202 41.6376 12.9982 40.8535C13.0719 40.7765 13.1288 40.7163 13.1656 40.6728C13.3547 40.4368 13.5924 40.077 13.8986 39.1933C14.1697 38.4118 15.363 33.1283 15.2007 30.8455L13.6493 25.49L14.0024 22.1429L14.0208 22.1328L24.1359 16.8008L24.1476 16.8527C24.1627 16.9112 25.5451 22.7102 26.2681 24.8223C26.9911 26.9343 28.5726 30.0104 29.4479 31.4262L29.478 31.4764C30.027 32.3182 30.4853 33.2158 30.8453 34.1542C31.29 35.3218 31.403 36.5898 31.1717 37.8176V37.826L22.4557 51.1159ZM14.7722 50.721L22.4105 51.0289L31.0763 37.7758C31.6001 35.0981 30.2713 32.9391 29.3927 31.5066L29.3625 31.4563C28.4872 30.0305 26.8957 26.9377 26.1827 24.8373C25.4949 22.829 24.2129 17.5003 24.0723 16.9112L14.0744 22.183L13.7279 25.4733L15.2777 30.8204C15.368 32.0605 15.0634 34.0889 14.7923 35.57C14.5811 36.7956 14.3068 38.0094 13.9706 39.2067C13.7212 39.928 13.5037 40.3632 13.2242 40.7129C13.1857 40.7581 13.1288 40.82 13.0568 40.897C12.27 41.6738 11.704 42.646 11.4167 43.7137C11.015 45.2868 11.482 47.0977 12.6652 48.557C13.8484 50.0164 14.6752 50.6456 14.7722 50.7159V50.721Z" fill="#351200"/>
<path d="M17.4002 37.3926C16.7014 38.6067 16.2925 39.9658 16.2053 41.364C16.0882 43.148 16.4363 44.5271 18.0563 46.4801C19.5073 48.2274 21.5557 49.4072 21.5557 49.4072L21.9875 31.1836L17.4002 37.3926Z" fill="#1C8911"/>
<path d="M21.5962 49.4729L21.5342 49.4377C21.5142 49.426 19.464 48.2328 18.0197 46.5006C17.2214 45.5383 16.7177 44.7015 16.4348 43.8664C16.1723 43.0572 16.0784 42.2029 16.1587 41.356C16.2452 39.9518 16.6559 38.5867 17.3587 37.3679L22.0246 31.0518L21.5962 49.4729ZM17.4356 37.4097C16.7407 38.6178 16.3341 39.97 16.2474 41.361C16.1369 43.0346 16.403 44.4153 18.0883 46.447C19.377 47.9985 21.161 49.1164 21.5142 49.329L21.9409 31.3095L17.4356 37.4097Z" fill="#1C8911"/>
<path d="M29.9256 45.1836C30.9055 45.4925 31.8153 45.9906 32.6034 46.6496C33.6075 47.5333 33.9155 48.2144 33.8904 48.2998C33.8653 48.3851 33.2845 48.0722 32.8377 47.9651C33.5824 48.4906 33.7682 48.9575 33.9021 49.3692C34.036 49.7809 33.9874 50.6478 33.9021 50.6277C33.8167 50.6077 33.5272 50.1558 33.2326 49.9165C33.2166 51.0669 32.883 52.1904 32.2687 53.1632C30.3173 54.6443 27.6931 54.241 27.6931 54.241C27.6931 54.241 25.8321 49.5366 25.7969 49.4428C25.7618 49.3491 26.2019 46.1459 26.2019 46.1459L28.1634 44.6982L29.9256 45.1836Z" fill="#00DC39"/>
<path d="M33.2292 49.9232C33.5321 50.1625 33.8267 50.6127 33.8986 50.6345C33.9706 50.6562 34.0292 49.7876 33.8986 49.3759C33.7681 48.9642 33.579 48.4973 32.8342 47.9718C33.2811 48.0722 33.8618 48.3835 33.8869 48.3065C33.912 48.2295 33.6024 47.54 32.5999 46.6564C31.8118 45.9973 30.902 45.4992 29.9222 45.1903L28.503 44.792L28.252 45.3074C30.1197 45.8363 32.6769 47.1584 32.5932 47.3844C32.5095 47.6103 31.9372 47.3844 31.1924 47.5032C32.3639 47.9735 33.2576 48.9458 33.174 49.1768C33.0903 49.4077 32.6602 49.0262 32.2066 48.9241C32.8761 50.3031 32.374 52.5407 31.2326 53.7775C31.596 53.6197 31.9393 53.4191 32.2552 53.18C32.8748 52.2054 33.2119 51.078 33.2292 49.9232Z" fill="#0C4207"/>
<path d="M28.5206 54.3399C28.2381 54.3418 27.9558 54.325 27.6755 54.2897H27.6504V54.2662C27.5751 54.0738 25.7994 49.5534 25.7659 49.4513C25.7576 49.4279 25.7408 49.3794 25.9534 47.746C26.0571 46.9426 26.1659 46.1427 26.1676 46.1343V46.1176L28.1608 44.6465L29.9449 45.1486C30.9242 45.4628 31.8335 45.9634 32.6226 46.623C33.6134 47.4949 33.9615 48.1962 33.923 48.3166C33.9172 48.3324 33.9059 48.3455 33.8912 48.3535C33.8359 48.3786 33.7238 48.3351 33.4611 48.2346C33.3339 48.1844 33.1833 48.1242 33.036 48.0773C33.47 48.3962 33.7861 48.85 33.9347 49.3677C34.0602 49.7526 34.0334 50.5676 33.9431 50.663C33.9362 50.6705 33.9274 50.676 33.9177 50.6789C33.908 50.6818 33.8977 50.6821 33.8878 50.6797C33.8426 50.668 33.7841 50.5994 33.6569 50.4454C33.5343 50.2934 33.4018 50.1497 33.2602 50.0153C33.2318 51.1431 32.8981 52.242 32.2946 53.1951V53.2035C31.277 53.9734 30.0788 54.2277 29.252 54.3047C28.9775 54.3315 28.7332 54.3399 28.5206 54.3399ZM27.7123 54.2093C28.2186 54.2676 28.7297 54.2721 29.2369 54.2227C30.0503 54.1457 31.2285 53.8964 32.226 53.1416C32.8351 52.1769 33.1653 51.0624 33.1799 49.9216V49.8379L33.2452 49.8898C33.4189 50.041 33.577 50.2092 33.7171 50.3919C33.7807 50.4672 33.851 50.5593 33.8845 50.586C33.9559 50.1906 33.9433 49.7847 33.8477 49.3944C33.7037 48.9543 33.5129 48.5158 32.8 48.0104L32.6326 47.8882L32.8402 47.9351C33.0626 47.9933 33.2807 48.0671 33.4929 48.156C33.6056 48.2052 33.722 48.2455 33.841 48.2765C33.8159 48.1443 33.4962 47.5033 32.5674 46.6866C31.6385 45.8699 30.6193 45.4749 29.9131 45.2289L28.1709 44.7402L26.2396 46.1661C26.0722 47.4196 25.8228 49.3057 25.8379 49.4296C25.8864 49.5635 27.5717 53.8545 27.7056 54.2093H27.7123Z" fill="#0C4207"/>
<path d="M31.7793 43.7045H37.9649L46.9035 22.1739H59.4754L62.7657 14.2461H50.1921H40.6108L38.9857 18.164" fill="white"/>
<path d="M31.7793 43.7045H37.9649L46.9035 22.1739H59.4754L62.7657 14.2461H50.1921H40.6108L38.9857 18.164" fill="url(#paint2_linear_2_7685)"/>
<path d="M30.2445 47.5541H21.7483L30.4399 26.7159L30.7288 26.0235H29.9785H18.1585L21.0484 19.0957H33.2888H42.118L30.2445 47.5541Z" fill="white" stroke="url(#paint3_linear_2_7685)"/>
<path d="M15.1543 48.8774C14.9739 49.1894 14.7613 49.4816 14.52 49.7493C13.5996 50.8129 12.8256 51.9949 12.2189 53.2639C11.0474 55.7358 11.1913 57.4378 11.7168 58.2411C12.3461 59.2068 14.9602 60.0251 15.6882 59.4427C15.9577 59.8578 17.4053 60.2343 17.663 59.6252C18.135 59.8578 19.4136 59.918 19.4136 59.0277C19.7952 59.0377 20.1081 58.9373 20.2655 58.4771C20.4228 58.0168 20.1316 56.4136 18.3927 55.6169C18.9299 55.3692 19.683 54.5057 19.8738 53.5417C20.1199 53.8446 20.0864 54.3919 20.232 54.4203C20.3776 54.4488 20.7474 54.0856 20.7592 53.1367C20.7709 52.1878 20.5684 51.7242 20.3893 51.4547C20.6688 51.5786 21.0738 52.2631 21.2077 52.2731C21.3416 52.2831 21.4319 50.8941 20.6587 49.8615C20.9717 49.9184 21.3767 50.2096 21.534 50.0974C21.6913 49.9853 21.3081 48.6967 19.4705 47.0114C17.6998 45.3863 16.1468 44.983 16.0715 44.9746L15.1543 48.8774Z" fill="#00DC39"/>
<path d="M12.533 53.352C13.1122 52.1012 13.8532 50.9319 14.7371 49.8743C15.0718 49.476 15.1856 49.168 15.1472 48.8701C14.9667 49.1821 14.7541 49.4743 14.5129 49.742C13.5924 50.8056 12.8184 51.9876 12.2117 53.2566C11.318 55.1444 11.1891 56.5837 11.4117 57.5158C11.4234 56.3042 11.6393 55.2398 12.533 53.352Z" fill="#0C4207"/>
<path d="M19.4288 47.6133C20.0798 48.3982 20.5434 49.1329 20.4982 49.2685C20.453 49.404 20.0714 49.3203 19.5325 49.3287C19.8924 49.6634 20.6271 50.6425 20.5601 50.8349C20.4932 51.0274 19.9091 50.7847 19.3752 50.8081C19.9593 51.414 20.12 51.8257 20.2036 52.1956C20.2873 52.5654 20.3961 53.2131 20.2505 53.1863C20.1049 53.1595 19.9811 52.8064 19.4756 52.5955C19.392 53.4072 18.4363 54.8967 17.2883 55.3084C17.6681 55.3454 18.0385 55.4485 18.3828 55.613C18.92 55.3653 19.6731 54.5017 19.8639 53.5378C20.1099 53.8407 20.0764 54.3879 20.2221 54.4164C20.3677 54.4448 20.7375 54.0817 20.7492 53.1328C20.7609 52.1838 20.5584 51.7203 20.3794 51.4508C20.6589 51.5747 21.0639 52.2592 21.1977 52.2692C21.3316 52.2792 21.422 50.8902 20.6488 49.8576C20.9618 49.9145 21.3668 50.2057 21.5241 50.0935C21.6814 49.9814 21.2982 48.6927 19.4606 47.0075C17.6899 45.3824 16.1368 44.9791 16.0615 44.9707C17.0858 45.4025 18.7777 46.8284 19.4288 47.6133Z" fill="#0C4207"/>
<path d="M15.6781 59.4427C15.9475 59.8578 17.3952 60.2343 17.6529 59.6252C18.1248 59.8578 19.4035 59.918 19.4035 59.0277C19.785 59.0377 20.098 58.9373 20.2553 58.4771C20.3231 58.132 20.2852 57.7744 20.1465 57.4512C19.9942 58.0771 19.4503 58.2428 18.975 57.8244C19.1424 58.5775 18.1382 58.9005 17.365 58.4336C17.1977 58.8051 16.0262 59.0896 15.335 58.4336C15.0873 58.8637 14.0831 58.8603 13.0857 58.5691C12.2991 58.3399 11.7234 58.0118 11.4121 57.565C11.4694 57.802 11.5649 58.0281 11.6949 58.2344C12.3359 59.2068 14.9501 60.0251 15.6781 59.4427Z" fill="#0C4207"/>
<path d="M16.9814 59.9863C16.4894 59.9863 15.8786 59.7637 15.6694 59.5009C15.41 59.68 14.9464 59.7252 14.3556 59.6298C13.3699 59.4725 12.0979 58.9169 11.6779 58.2642C11.385 57.814 11.2478 57.1445 11.2896 56.3764C11.3398 55.4408 11.6394 54.3881 12.1799 53.2451C12.8265 51.9028 13.6549 50.656 14.6418 49.5398C14.8327 49.3328 15.0041 49.1087 15.1539 48.8703C15.1539 48.8703 15.169 49.0745 14.7054 49.5866C13.7249 50.6967 12.9006 51.9354 12.2553 53.2685C11.7197 54.3999 11.4185 55.4442 11.3733 56.3663C11.3314 57.1178 11.4653 57.7705 11.7482 58.2073C12.1615 58.8399 13.4084 59.3788 14.3757 59.5361C14.9715 59.6315 15.4267 59.5829 15.6593 59.3972L15.6945 59.3687L15.7196 59.4072C15.8869 59.6566 16.5681 59.9327 17.1086 59.8859C17.2121 59.8879 17.3142 59.8621 17.4043 59.8112C17.4944 59.7603 17.5692 59.6861 17.6208 59.5963L17.6375 59.5562L17.6777 59.5763C17.999 59.7336 18.6818 59.8039 19.0751 59.5612C19.1686 59.5051 19.2452 59.4248 19.2968 59.3288C19.3483 59.2327 19.3729 59.1245 19.368 59.0156V58.9821H19.4098C19.85 58.9955 20.0926 58.8399 20.2215 58.4616C20.3889 57.9947 20.0541 56.4232 18.3705 55.6534L18.2868 55.6149L18.3705 55.5764C18.9295 55.3203 19.6491 54.4367 19.8282 53.5313L19.8449 53.4426L19.9019 53.5129C20.0234 53.6901 20.103 53.8927 20.1345 54.1053C20.1629 54.2292 20.1947 54.3697 20.2366 54.3781C20.2765 54.3767 20.3143 54.3599 20.342 54.3312C20.5094 54.1907 20.7052 53.8024 20.7135 53.1346C20.7135 52.3983 20.6031 51.856 20.3504 51.4761L20.27 51.3556L20.4023 51.4142C20.6071 51.5505 20.7838 51.7249 20.9227 51.928C21.0025 52.0385 21.0952 52.1391 21.1989 52.2276C21.2842 52.1104 21.3579 50.8669 20.6215 49.8845L20.5562 49.7992L20.6617 49.8176C20.8019 49.8503 20.9383 49.898 21.0683 49.9598C21.2457 50.0352 21.4298 50.1138 21.5051 50.0603C21.5051 50.0603 21.5169 50.0452 21.5185 50.0101C21.5286 49.8611 21.4231 49.508 21.0968 48.9691C20.6347 48.2531 20.0767 47.6038 19.4383 47.0394C17.6894 45.4378 16.0911 44.9776 16.0677 44.9726C16.0442 44.9675 16.3539 44.9542 16.9212 45.2236L17.1254 45.3223C17.9867 45.7641 18.7839 46.3209 19.4952 46.9775C21.1353 48.4837 21.624 49.672 21.6022 50.0151C21.6036 50.0365 21.5999 50.058 21.5915 50.0778C21.5831 50.0975 21.5701 50.115 21.5537 50.1289C21.4399 50.2109 21.2524 50.1289 21.0349 50.0368C20.9411 49.9967 20.8458 49.9565 20.7554 49.9281C21.393 50.8552 21.3964 52.0435 21.2742 52.2711C21.2686 52.2859 21.2584 52.2985 21.2452 52.3072C21.232 52.3159 21.2164 52.3203 21.2006 52.3196C21.1252 52.3196 21.0332 52.2024 20.8575 51.9849C20.755 51.85 20.6431 51.7225 20.5228 51.6033C20.7169 51.9815 20.8089 52.487 20.8006 53.1397C20.7922 53.8359 20.588 54.2476 20.3989 54.3999C20.376 54.4227 20.3485 54.4402 20.3181 54.4512C20.2877 54.4621 20.2553 54.4663 20.2232 54.4635C20.1278 54.445 20.0977 54.3112 20.0558 54.1287C20.0255 53.9603 19.969 53.7977 19.8885 53.6467C19.7752 54.0932 19.5719 54.5118 19.291 54.8768C19.0744 55.176 18.7994 55.4282 18.4827 55.6182C19.1733 55.9342 19.7346 56.4777 20.0726 57.1579C20.3487 57.7269 20.3838 58.2491 20.3002 58.4968C20.2506 58.6791 20.1375 58.8376 19.9813 58.9438C19.8251 59.05 19.636 59.0968 19.4483 59.0759C19.4473 59.1924 19.4159 59.3066 19.3572 59.4073C19.2985 59.508 19.2145 59.5916 19.1136 59.6499C18.6985 59.9093 18.0174 59.8373 17.6726 59.6867C17.6121 59.7804 17.5287 59.8572 17.4303 59.9099C17.332 59.9625 17.2219 59.9894 17.1103 59.988C17.0685 59.9863 17.025 59.9863 16.9814 59.9863Z" fill="#0C4207"/>
<path d="M18.3662 55.6553C17.3085 55.1867 15.7839 55.2067 15.2383 55.3205C15.2383 55.3205 15.4056 55.2 16.0968 55.1699C16.7947 55.1699 17.6984 55.2687 18.3997 55.5783L18.3662 55.6553Z" fill="#351200"/>
<path d="M15.715 59.4627L15.643 59.4209C15.6575 59.2474 15.6227 59.0734 15.5426 58.9188C15.3903 58.5356 14.8883 57.6017 13.5527 57.2285C13.7803 57.229 14.0041 57.2866 14.2038 57.3959C14.4857 57.5382 14.7447 57.7221 14.9719 57.9415C15.2526 58.2113 15.4738 58.5368 15.6213 58.8971C15.725 59.1498 15.7635 59.3807 15.715 59.4627Z" fill="#351200"/>
<path d="M17.6894 59.6514L17.6158 59.6113C17.6693 59.5092 17.661 59.1678 17.4718 58.7276C17.3172 58.3636 17.0816 58.0396 16.7829 57.7803C16.4841 57.5211 16.1302 57.3333 15.748 57.2314C16.0033 57.2352 16.2525 57.3099 16.4677 57.4473C16.9496 57.7404 17.3276 58.177 17.5488 58.6958C17.7379 59.1259 17.7614 59.5075 17.6894 59.6514Z" fill="#351200"/>
<path d="M19.3614 59.0293C19.3196 58.1139 18.5899 56.9691 17.082 56.6227C17.082 56.6227 17.4017 56.5859 17.9741 56.8637C18.301 57.0376 18.5927 57.2709 18.8343 57.5515C19.1942 57.962 19.4089 58.4796 19.4451 59.0243L19.3614 59.0293Z" fill="#351200"/>
<path d="M18.1463 4.842C18.0007 4.30478 18.0894 2.75672 18.9831 1.53333C19.8768 0.309944 21.7094 0.00200497 21.8935 0.147607C22.0257 0.251369 21.6642 0.624574 21.5855 0.86055C22.3514 0.674158 23.1552 0.717232 23.8967 0.984398C25.0063 1.35928 25.6021 2.32326 25.5117 2.44543C25.4214 2.5676 25.0967 2.47556 24.8272 2.52075C25.4131 2.96647 25.8416 3.58728 26.0506 4.29307C26.2414 4.93238 26.2632 6.08715 26.1293 6.06539C25.9954 6.04364 25.6691 5.45955 25.3427 5.26877C25.4957 5.67636 25.547 6.11511 25.4922 6.547C25.4374 6.9789 25.2781 7.39091 25.0281 7.74734C24.3704 8.73978 22.9746 9.22846 22.9746 9.22846L18.1463 4.842Z" fill="#00DC39"/>
<path d="M19.3969 1.85103C19.8672 1.2703 20.5684 1.00252 21.4052 0.80002C21.4052 0.80002 21.0186 1.43933 20.9935 1.76735C21.5223 1.38912 22.7725 0.903779 23.5959 1.14812C24.355 1.37306 25.029 1.82085 25.5306 2.43343C25.5841 2.27444 24.9917 1.34896 23.9105 0.984115C23.169 0.716949 22.3652 0.673875 21.5993 0.860266C21.678 0.624291 22.0395 0.251086 21.9073 0.147323C21.7232 0.00172172 19.899 0.314681 18.9969 1.53305C18.3508 2.43813 18.0401 3.53998 18.1183 4.64926C18.2406 4.72764 18.3721 4.7906 18.5099 4.8367C18.4563 3.89782 18.4045 3.08446 19.3969 1.85103Z" fill="#0C4207"/>
<path d="M25.0281 7.74681C25.2778 7.39023 25.4368 6.97815 25.4913 6.54626C25.5459 6.11437 25.4943 5.6757 25.341 5.26824C25.6757 5.45903 25.9921 6.04311 26.1276 6.06487C26.2632 6.08662 26.2397 4.93185 26.049 4.29254C25.8396 3.58915 25.4131 2.96997 24.8306 2.52357L24.7168 2.49512C25.4548 3.20806 25.7628 4.57371 25.6289 4.67077C25.495 4.76784 25.1854 4.56534 24.7168 4.61554C24.8841 5.15444 25.0515 6.42301 24.4289 7.21964C23.9402 7.83719 22.9026 8.37441 22.0156 7.76857C22.0442 8.02437 22.1044 8.27564 22.1947 8.51666L22.9746 9.22459C22.9746 9.22459 24.3771 8.73925 25.0281 7.74681Z" fill="#0C4207"/>
<path d="M22.9719 9.2767L18.1101 4.86514V4.85343C17.9578 4.29612 18.0515 2.74137 18.9569 1.50626C19.6498 0.564034 20.8665 0.167395 21.4757 0.0887364C21.6096 0.070327 21.8489 0.0502413 21.9292 0.112164C22.0414 0.200864 21.9292 0.383284 21.7987 0.57742C21.7494 0.64873 21.7047 0.723075 21.6648 0.800009C22.4144 0.631374 23.1966 0.680736 23.9191 0.942265C24.8597 1.26025 25.4588 2.01503 25.5576 2.32966C25.5684 2.3512 25.5741 2.37499 25.5741 2.39912C25.5741 2.42324 25.5684 2.44704 25.5576 2.46857C25.4906 2.55894 25.34 2.55392 25.1659 2.5489C25.0956 2.5489 25.0237 2.5489 24.9517 2.5489C25.4987 2.99874 25.8995 3.60112 26.1031 4.27939C26.2705 4.83837 26.3274 5.93288 26.1969 6.08016C26.1894 6.08954 26.1796 6.09679 26.1684 6.1012C26.1573 6.1056 26.1451 6.107 26.1333 6.10526C26.0613 6.09355 25.9776 5.99313 25.827 5.80402C25.7108 5.64921 25.5803 5.50576 25.4371 5.37558C25.5664 5.77513 25.6012 6.19924 25.5388 6.61454C25.4764 7.02983 25.3184 7.42496 25.0772 7.7688C24.4195 8.76124 23.0171 9.26164 23.002 9.26666L22.9719 9.2767ZM18.1837 4.81995L22.9919 9.17964C23.176 9.11102 24.4045 8.62233 25.0002 7.72529C25.246 7.3739 25.4025 6.96801 25.4565 6.54263C25.5104 6.11725 25.4601 5.68514 25.3099 5.28354L25.2697 5.17308L25.3701 5.23165C25.5694 5.3763 25.7435 5.5527 25.8856 5.75381C25.9556 5.85335 26.0383 5.94335 26.1316 6.02158C26.1845 5.80712 26.1981 5.58486 26.1718 5.36554C26.159 5.00721 26.1068 4.65138 26.0161 4.30449C25.8099 3.60812 25.3873 2.99554 24.8095 2.5556L24.7241 2.49535L24.8262 2.47861C24.9371 2.46394 25.0492 2.46001 25.1609 2.4669C25.3065 2.4669 25.4421 2.47526 25.4839 2.42004C25.4842 2.37776 25.4732 2.33616 25.4521 2.29954C25.3015 1.96482 24.7442 1.3138 23.889 1.02259C23.1542 0.758949 22.3582 0.716477 21.5995 0.900425L21.5276 0.917157L21.551 0.846869C21.5957 0.73645 21.6518 0.630999 21.7184 0.532235C21.8037 0.401695 21.9209 0.220947 21.869 0.180781C21.7415 0.144894 21.6065 0.144894 21.479 0.180781C20.8816 0.262787 19.6916 0.644367 19.0172 1.56484C18.6137 2.12998 18.339 2.77663 18.2122 3.45933C18.1142 3.90668 18.1045 4.36889 18.1837 4.81995Z" fill="#351200"/>
<path d="M20.9268 5.84455C20.8753 5.52648 20.9054 5.20054 21.0143 4.89728C21.1232 4.59402 21.3073 4.32338 21.5494 4.11073C22.095 3.66555 22.9117 3.5802 23.3903 4.11073C23.869 4.64125 23.9359 5.44959 23.6246 6.25626C23.4004 6.83197 22.3243 7.71227 22.3243 7.71227L20.9268 5.84455Z" fill="#00DC39"/>
<path d="M22.1551 4.30821C22.3586 4.17455 22.5965 4.10264 22.84 4.10115C23.0835 4.09967 23.3223 4.16867 23.5274 4.29984C23.4834 4.23392 23.4353 4.17077 23.3835 4.11072C22.9115 3.5802 22.0948 3.66555 21.5426 4.11072C21.3005 4.32338 21.1164 4.59402 21.0075 4.89728C20.8986 5.20054 20.8685 5.52648 20.92 5.84455L21.4923 6.6144C21.4982 6.60123 21.501 6.58695 21.5007 6.57256C21.3903 5.66381 21.4472 4.74669 22.1551 4.30821Z" fill="#0C4207"/>
<path d="M22.3103 7.77006L20.8861 5.85883V5.84879C20.8337 5.52355 20.8647 5.19034 20.9763 4.88036C21.0878 4.57038 21.2761 4.29378 21.5237 4.07646C21.7984 3.8498 22.1388 3.71774 22.4944 3.69991C22.6664 3.69067 22.8384 3.71998 22.9976 3.78571C23.1569 3.85144 23.2994 3.95192 23.4149 4.07981C23.6586 4.36123 23.8063 4.71295 23.8366 5.08396C23.8725 5.49015 23.8117 5.89905 23.6592 6.27722C23.4333 6.85796 22.3906 7.71483 22.3455 7.74998L22.3103 7.77006ZM20.9714 5.82368L22.3304 7.64789C22.5145 7.49392 23.3898 6.74081 23.5856 6.23873C23.8985 5.43541 23.8132 4.64883 23.358 4.13671C22.9028 3.6246 22.0894 3.72669 21.5823 4.13671C21.3455 4.34339 21.1647 4.60654 21.0567 4.90175C20.9488 5.19696 20.9171 5.51466 20.9648 5.82536L20.9714 5.82368Z" fill="#351200"/>
<path d="M7.77055 8.10472C7.53458 7.62273 6.2024 6.32068 4.62924 6.11985C3.30376 5.95249 2.15568 6.52318 1.25195 7.45872C0.582514 8.14321 0.236082 9.39673 0.329803 9.41346C0.423523 9.4302 0.800079 9.10217 1.33395 8.85783C0.6396 9.64748 0.269013 10.6702 0.296332 11.7213C0.296332 12.6585 0.798406 13.5623 0.913883 13.5121C1.02936 13.4619 1.03103 12.6535 1.17329 12.3171C1.30048 13.8552 2.67951 14.8493 2.84687 14.7739C3.01423 14.6986 2.67951 14.1045 2.74646 13.5288C2.98046 13.8706 3.29594 14.1488 3.6644 14.3381C4.03286 14.5275 4.44268 14.622 4.85684 14.6133C5.33956 14.6309 5.82214 14.5745 6.28776 14.4459L7.77055 8.10472Z" fill="#00DC39"/>
<path d="M4.59218 6.73475C5.99129 6.86362 7.13268 7.76233 7.69166 8.43846L7.77031 8.10374C7.53434 7.62175 6.20217 6.3197 4.629 6.11887C3.30352 5.95152 2.15544 6.52221 1.25171 7.45774C0.582276 8.14224 0.235844 9.39575 0.329564 9.41248C0.381445 9.35726 0.721183 8.28114 1.39898 7.61171C2.42154 6.59919 3.5328 6.63601 4.59218 6.73475Z" fill="#0C4207"/>
<path d="M0.292644 11.7181C0.292644 12.6553 0.794719 13.559 0.910196 13.5088C1.02567 13.4586 1.02735 12.6503 1.1696 12.3139C1.29679 13.8519 2.67583 14.846 2.84318 14.7707C3.01054 14.6954 2.67583 14.1013 2.74277 13.5256C2.97677 13.8674 3.29226 14.1456 3.66071 14.3349C4.02917 14.5242 4.43899 14.6188 4.85316 14.61C5.33588 14.6277 5.81845 14.5712 6.28407 14.4427L6.51502 13.4603L6.35938 12.9582C6.35938 12.9582 5.58786 13.795 4.46154 13.7649C4.04861 13.7484 3.64833 13.6178 3.30507 13.3877C2.96181 13.1575 2.68898 12.8369 2.51684 12.4612C2.34948 12.9398 2.47165 13.395 2.24572 13.4954C2.01978 13.5958 1.37545 12.4913 1.42399 11.3917C1.08927 11.7114 0.921911 12.0612 0.803087 12.0377C0.684263 12.0143 0.665853 11.5942 0.707693 10.9549C0.749532 10.3156 1.20977 9.2211 1.50264 8.7207L1.29512 8.86296L1.33027 8.84622C0.633924 9.638 0.263198 10.6641 0.292644 11.7181Z" fill="#0C4207"/>
<path d="M2.82324 14.8159C2.74429 14.8068 2.6689 14.7781 2.604 14.7322C2.26358 14.5114 1.96871 14.2274 1.73541 13.8954C1.43618 13.4874 1.23619 13.0152 1.15133 12.5164C1.11786 12.6653 1.09275 12.8511 1.07099 13.0185C1.02581 13.3532 1.0007 13.5205 0.927067 13.549C0.914533 13.5545 0.900744 13.5564 0.887181 13.5546C0.873618 13.5529 0.860793 13.5474 0.850082 13.5389C0.682724 13.4285 0.25094 12.585 0.25094 11.7214C0.230225 10.7324 0.552507 9.76678 1.16304 8.98847C0.963886 9.09223 0.793181 9.20269 0.660968 9.28804C0.463485 9.41524 0.381479 9.46544 0.326251 9.4554C0.315804 9.45321 0.306183 9.44813 0.298489 9.44073C0.290794 9.43333 0.285336 9.42392 0.282738 9.41356C0.229183 9.2462 0.617454 8.06131 1.22664 7.43037C2.23079 6.39107 3.41401 5.92414 4.63907 6.08313C5.39974 6.2039 6.11855 6.51155 6.73105 6.9785C7.30676 7.40191 7.69503 7.85211 7.81219 8.09143V8.10482L6.31935 14.4778H6.29759C5.82809 14.6099 5.34055 14.6664 4.85329 14.6452C4.4527 14.6518 4.05613 14.5645 3.69543 14.3901C3.33473 14.2157 3.01995 13.9591 2.77638 13.641C2.78174 13.8735 2.81546 14.1045 2.87679 14.3289C2.93537 14.5816 2.97553 14.7506 2.86006 14.8025C2.84858 14.8089 2.83615 14.8134 2.82324 14.8159ZM1.19819 12.1382L1.21158 12.3055C1.26279 12.7629 1.41021 13.2042 1.64413 13.6005C1.87806 13.9968 2.1932 14.3392 2.56885 14.605C2.73621 14.7188 2.81487 14.7305 2.82826 14.7272C2.87846 14.7038 2.83663 14.523 2.79646 14.349C2.71833 14.0773 2.68664 13.7944 2.70274 13.5122L2.71445 13.395L2.77805 13.4938C3.00946 13.8294 3.32043 14.1024 3.68315 14.2884C4.04588 14.4745 4.44906 14.5677 4.85664 14.5598C5.32657 14.5743 5.79613 14.5208 6.25073 14.4008L7.72516 8.10482C7.4484 7.68338 7.09194 7.3201 6.67582 7.0354C6.07444 6.57703 5.36898 6.27461 4.62234 6.1551C3.42573 6.0028 2.27932 6.45969 1.27517 7.4789C0.667662 8.10482 0.34466 9.17424 0.349681 9.35833C0.438939 9.31408 0.525052 9.26376 0.607413 9.20771C0.830171 9.05884 1.06341 8.92628 1.3053 8.81107L1.49609 8.72237L1.35383 8.87634C0.668725 9.65943 0.302598 10.6712 0.327924 11.7114C0.335444 12.1236 0.418841 12.531 0.573941 12.913C0.63961 13.1168 0.749312 13.3036 0.895269 13.4603C0.944283 13.3105 0.975186 13.1555 0.987316 12.9984C1.00865 12.7583 1.05693 12.5214 1.13124 12.2921L1.19819 12.1382Z" fill="#351200"/>
<path d="M6.39289 11.4573C6.48996 10.6013 5.76233 9.81598 4.7677 9.70318C3.77306 9.59038 2.88806 10.1928 2.79099 11.0488C2.69393 11.9047 3.42154 12.6901 4.41618 12.8029C5.41081 12.9157 6.29582 12.3132 6.39289 11.4573Z" fill="#00DC39"/>
<path d="M4.67929 10.3491C5.28848 10.4094 5.97799 10.8378 6.40141 11.283C6.38635 10.4997 5.69348 9.8119 4.76799 9.70814C3.77388 9.59434 2.88856 10.1968 2.79149 11.047C2.77185 11.2262 2.7872 11.4075 2.83668 11.5809C3.03081 10.4479 3.95798 10.2805 4.67929 10.3491Z" fill="#0C4207"/>
<path d="M4.65454 12.8611C4.57347 12.8608 4.49248 12.8563 4.41187 12.8477C3.396 12.7322 2.65126 11.9256 2.75 11.0469C2.84874 10.1683 3.75415 9.55075 4.77336 9.66623C5.79257 9.7817 6.53397 10.5884 6.43523 11.4653C6.34318 12.272 5.56831 12.8611 4.65454 12.8611ZM4.53069 9.73652C3.65875 9.73652 2.9207 10.2938 2.83368 11.057C2.73996 11.8938 3.45123 12.6536 4.42191 12.764C4.49916 12.7726 4.57681 12.7771 4.65454 12.7774C5.52647 12.7774 6.26452 12.2201 6.35155 11.457C6.44527 10.6202 5.734 9.85869 4.76332 9.74991C4.68614 9.74049 4.60844 9.73602 4.53069 9.73652Z" fill="#351200"/>
<path d="M11.1912 5.50408C10.4983 5.77854 8.07662 6.43124 6.83984 7.93245C5.77712 9.21776 5.50098 10.4847 5.50098 12.1951C5.50098 13.6477 5.88925 14.8376 5.93109 16.0326C5.96121 17.092 5.61478 19.1505 5.78214 20.2835C6.00138 21.6859 6.68587 22.5663 7.28836 22.9478C7.2791 22.5663 7.32075 22.1853 7.41221 21.8148C7.51262 22.5445 8.38791 23.8683 9.48745 23.9352C9.27323 23.6005 9.13934 22.8474 9.13934 22.8474C9.65481 23.465 12.7057 24.9695 15.9123 24.2884C19.1189 23.6072 23.1958 21.7696 24.2049 18.2032C24.4242 18.7053 24.307 19.4818 24.307 19.4818C24.9631 18.9798 25.5689 17.917 25.5522 16.2167C25.9081 16.4619 26.1645 16.8264 26.2752 17.2443C26.7103 16.6485 27.0099 14.4343 26.1078 12.5398C25.1672 10.5717 24.1664 9.6144 23.0368 8.06466C22.3121 7.07223 21.4904 5.51579 19.5223 4.58193C18.2135 3.96104 17.0119 3.54264 15.0387 3.81543C12.9785 4.10161 12.2572 4.81958 11.1912 5.50408Z" fill="#00DC39"/>
<path d="M6.17222 16.0727C6.13039 14.8778 5.85926 13.7448 5.85926 12.2921C5.85926 10.5817 6.07683 9.57423 7.13788 8.29059C8.34621 6.82955 9.75871 6.37099 10.4482 6.13334C10.3428 6.29066 9.80557 6.4781 9.77879 6.4848C10.7361 6.37601 11.5796 5.61956 12.7912 5.05723C13.628 4.66394 14.3276 4.3878 15.0807 4.29073C17.0505 4.01793 17.8973 4.01961 19.5308 4.58193C18.222 3.96104 17.0204 3.54264 15.0472 3.81543C12.977 4.10161 12.259 4.81958 11.198 5.50408C10.5051 5.77854 8.08346 6.43124 6.84668 7.93245C5.78395 9.21776 5.50781 10.4847 5.50781 12.1951C5.50781 13.6477 5.89608 14.8376 5.93792 16.0326C5.96135 17.092 5.61492 19.1505 5.78228 20.2835C5.61492 19.1505 6.20904 17.1422 6.17222 16.0727Z" fill="#0C4207"/>
<path d="M7.42244 21.8153C7.52286 22.545 8.39814 23.8688 9.49768 23.9358C9.28347 23.601 9.14958 22.8479 9.14958 22.8479C9.66504 23.4655 12.716 24.97 15.9226 24.2889C19.1292 23.6077 23.206 21.7701 24.2152 18.2037C24.4344 18.7058 24.3173 19.4824 24.3173 19.4824C24.9733 18.9803 25.5791 17.9176 25.5624 16.2172C25.9183 16.4625 26.1748 16.8269 26.2854 17.2448C26.7205 16.649 27.0201 14.4348 26.118 12.5403C25.1775 10.5722 24.1767 9.61492 23.047 8.06518C22.324 7.07442 21.5056 5.52468 19.5475 4.59082C20.3051 5.1416 20.969 5.81066 21.514 6.57234C21.9993 7.31207 22.3608 8.41328 23.0955 9.41743C23.765 10.3362 24.5599 11.2584 25.2327 12.7847C25.5708 13.5858 25.7092 14.4571 25.636 15.3235C24.98 14.7896 24.493 14.8214 24.493 14.8214C24.8126 15.7319 24.4595 16.9117 24.4595 16.9117C24.1901 16.2423 23.4319 15.8758 23.4319 15.8758C23.5993 17.1276 22.5232 19.3485 21.5642 20.3242C20.6053 21.2999 17.8321 22.945 16.2406 23.0287C14.649 23.1124 12.3193 23.181 12.3193 23.181C10.855 23.3031 9.3069 22.5467 8.6542 21.4974C8.49844 21.9731 8.49844 22.486 8.6542 22.9617C8.07849 22.5166 7.53959 21.2882 7.57474 20.679C6.84673 21.2714 6.93543 22.2705 7.2986 22.9467C7.28926 22.5657 7.33092 22.1852 7.42244 21.8153Z" fill="#0C4207"/>
<path d="M14.2352 24.5063C13.3131 24.5019 12.3965 24.3638 11.514 24.0963C10.4278 23.7716 9.57934 23.3114 9.21952 22.9817C9.27863 23.3064 9.38403 23.6208 9.53248 23.9156L9.57599 23.9842H9.49399C8.99191 23.954 8.48984 23.6612 8.05303 23.1574C7.76479 22.8272 7.54925 22.44 7.42042 22.0211C7.35957 22.3279 7.33263 22.6405 7.34009 22.9532V23.0336L7.27315 22.9917C6.89928 22.744 6.58678 22.4143 6.35937 22.0278C6.04084 21.4979 5.83198 20.9094 5.74516 20.2973C5.63805 19.6128 5.72173 18.5835 5.79537 17.6764C5.85099 17.1332 5.87892 16.5874 5.87905 16.0413C5.84796 15.4999 5.782 14.961 5.68157 14.428C5.54098 13.6917 5.4626 12.9449 5.44727 12.1955C5.44727 10.6005 5.67655 9.25999 6.79785 7.90606C7.35742 7.27213 8.0409 6.75953 8.80615 6.39984C9.43499 6.09366 10.0835 5.82977 10.7475 5.6099C10.9149 5.55133 11.0621 5.50112 11.1642 5.45928C11.3416 5.34715 11.509 5.23168 11.6663 5.12457C12.5031 4.5522 13.2913 4.01163 15.0252 3.77231C17.087 3.4878 18.3339 3.97314 19.5338 4.54216C21.2074 5.33711 22.0442 6.5605 22.722 7.54457C22.8425 7.71192 22.9546 7.87928 23.0667 8.03827C23.3864 8.47675 23.696 8.87506 23.9973 9.24827C24.752 10.2039 25.4667 11.106 26.1411 12.5218C26.553 13.4167 26.755 14.3938 26.7319 15.3786C26.7168 16.1936 26.5495 16.935 26.3051 17.2681L26.2449 17.3501L26.2298 17.2497C26.1284 16.8701 25.9035 16.535 25.5905 16.2974C25.5905 18.3241 24.7102 19.2212 24.3286 19.514L24.2449 19.5776L24.2617 19.4739C24.3151 19.0944 24.2963 18.7083 24.2065 18.3358C23.9483 19.163 23.5253 19.9293 22.963 20.5885C22.369 21.2803 21.6739 21.8784 20.9011 22.3625C20.1212 22.8547 19.2929 23.2658 18.4292 23.5892C17.6129 23.8999 16.7735 24.1467 15.9189 24.3273C15.3655 24.4456 14.8012 24.5056 14.2352 24.5063ZM9.08061 22.7005L9.18103 22.8227C9.44545 23.1373 10.3525 23.6595 11.5391 24.016C12.9549 24.4553 14.4578 24.5353 15.9122 24.2486C17.5473 23.9005 22.973 22.4378 24.1747 18.1936L24.2065 18.0798L24.2533 18.1886C24.4207 18.5936 24.3956 19.1542 24.3705 19.3852C24.7771 19.0387 25.542 18.1333 25.5202 16.2204V16.1384L25.5855 16.1803C25.9216 16.4141 26.1739 16.7496 26.3051 17.1375C26.4725 16.833 26.6398 16.2037 26.6633 15.3769C26.6856 14.4049 26.4864 13.4406 26.0809 12.5569C25.4114 11.1511 24.6985 10.2524 23.9454 9.30183C23.6458 8.92025 23.3345 8.52863 23.0132 8.08848C22.9011 7.93451 22.7873 7.76715 22.6668 7.58641C21.9973 6.61071 21.1689 5.39736 19.5121 4.61245C18.3255 4.05013 17.0904 3.56981 15.052 3.85097C13.3365 4.08862 12.5566 4.62249 11.7282 5.18983C11.5609 5.30196 11.3935 5.41912 11.2161 5.53292C11.1107 5.57476 10.9634 5.62664 10.7927 5.68689C9.78854 6.03499 7.92417 6.69104 6.87818 7.94957C5.77361 9.28844 5.54768 10.6089 5.54768 12.1854C5.56256 12.9281 5.63982 13.6682 5.77864 14.3979C5.87928 14.9342 5.94525 15.4765 5.97612 16.0213C5.97608 16.5707 5.94815 17.1198 5.89244 17.6664C5.8188 18.5701 5.73512 19.5927 5.84056 20.2671C6.09494 21.8939 6.92504 22.6235 7.26478 22.8595C7.26353 22.501 7.30568 22.1436 7.3903 21.7951L7.44552 21.596L7.47397 21.8001C7.5677 22.4796 8.37604 23.7532 9.43039 23.8771C9.28461 23.5468 9.17952 23.2001 9.11743 22.8445L9.08061 22.7005Z" fill="#0C4207"/>
<path d="M8.49209 11.0723C7.91638 11.0723 7.05281 12.0078 6.73483 13.6546C6.52898 14.7207 6.88545 16.0411 8.04189 15.9022C9.10629 15.7767 9.63012 14.5751 9.57657 13.5157C9.52301 12.4563 9.37741 11.0806 8.49209 11.0723Z" fill="#92471D"/>
<path d="M9.29712 11.7601C9.12977 11.3568 8.89044 11.0773 8.49213 11.0723C8.25555 11.0907 8.03345 11.1934 7.86621 11.3618C8.17917 11.1492 8.42519 11.1091 8.65949 11.176C8.89379 11.243 9.07454 11.417 9.29712 11.7601Z" fill="#351200"/>
<path d="M8.40594 11.5364C7.83357 11.4979 6.99845 12.3297 6.73235 13.6552C6.51981 14.7196 6.88298 16.0417 8.03942 15.9028C9.10382 15.7773 9.57577 14.661 9.52389 13.6016C9.47201 12.5423 9.16407 11.5866 8.40594 11.5364Z" fill="black"/>
<path d="M8.43142 11.7868C7.88583 11.745 7.05239 12.4931 6.79968 13.755C6.5955 14.7708 6.94193 16.0294 8.04482 15.8988C9.04897 15.7766 9.50921 14.7139 9.45733 13.7047C9.40545 12.6956 9.08747 11.8421 8.43142 11.7868Z" fill="white"/>
<path d="M6.74902 14.4814C6.79588 15.2814 7.19587 16.0044 8.04438 15.904C8.67699 15.8287 9.09037 15.3852 9.29956 14.8178C8.57992 15.4337 7.28792 15.7684 6.74902 14.4814Z" fill="#E2E2E2"/>
<path d="M7.89039 15.9541C7.74589 15.9563 7.6026 15.9275 7.47012 15.8698C7.33763 15.8121 7.21902 15.7267 7.12221 15.6194C6.91614 15.3785 6.78369 15.0833 6.74064 14.7692C6.6842 14.4296 6.68987 14.0826 6.75737 13.745C6.86012 13.1929 7.10726 12.6778 7.47367 12.2522C7.78328 11.9174 8.1431 11.72 8.4343 11.7501C8.75563 11.7752 9.0234 11.9894 9.20917 12.3727C9.39145 12.796 9.48978 13.2507 9.4987 13.7115C9.54891 14.6989 9.11545 15.8219 8.04938 15.9491C7.99582 15.9508 7.94227 15.9541 7.89039 15.9541ZM8.39246 11.8321C7.90378 11.8321 7.09711 12.5015 6.84272 13.7684C6.70214 14.4713 6.84272 15.1943 7.18748 15.5692C7.29433 15.6854 7.42854 15.7731 7.57789 15.8242C7.72725 15.8754 7.88702 15.8884 8.04268 15.8621C9.0552 15.7399 9.4669 14.6621 9.41837 13.7115C9.36147 12.5785 8.99328 11.8706 8.43095 11.8338L8.39246 11.8321Z" fill="black"/>
<path d="M9.3718 14.3321C9.41098 13.7882 9.15875 13.3268 8.80843 13.3016C8.4581 13.2763 8.14235 13.6968 8.10317 14.2407C8.06399 14.7846 8.31622 15.246 8.66654 15.2713C9.01687 15.2965 9.33262 14.876 9.3718 14.3321Z" fill="#542416"/>
<path d="M9.37168 14.3342C9.33319 14.8781 9.01689 15.2982 8.66711 15.2731C8.31733 15.248 8.06462 14.7861 8.10478 14.2422C8.30227 14.8162 9.02023 14.9668 9.37168 14.3342Z" fill="#A74F45"/>
<path d="M9.17954 14.4503C9.2057 14.087 9.03709 13.7789 8.80292 13.762C8.56876 13.7452 8.35772 14.026 8.33155 14.3892C8.30539 14.7524 8.47401 15.0605 8.70817 15.0774C8.94234 15.0943 9.15338 14.8135 9.17954 14.4503Z" fill="black"/>
<path d="M8.51528 14.2122C8.63913 14.2122 8.73954 14.1118 8.73954 13.9879C8.73954 13.8641 8.63913 13.7637 8.51528 13.7637C8.39142 13.7637 8.29102 13.8641 8.29102 13.9879C8.29102 14.1118 8.39142 14.2122 8.51528 14.2122Z" fill="white"/>
<path d="M8.91823 14.8853C8.95612 14.8853 8.98684 14.8546 8.98684 14.8167C8.98684 14.7788 8.95612 14.748 8.91823 14.748C8.88033 14.748 8.84961 14.7788 8.84961 14.8167C8.84961 14.8546 8.88033 14.8853 8.91823 14.8853Z" fill="white"/>
<path d="M8.69754 15.3172H8.66407C8.56442 15.3041 8.46977 15.2658 8.38919 15.2057C8.30861 15.1456 8.24479 15.0659 8.20384 14.9741C8.09356 14.7464 8.0451 14.4937 8.06331 14.2414C8.08153 13.9891 8.16577 13.746 8.3076 13.5365C8.36115 13.4521 8.43537 13.3827 8.52323 13.3349C8.61109 13.2872 8.70969 13.2627 8.80967 13.2637C9.18121 13.2905 9.45233 13.7658 9.41049 14.3398C9.37535 14.8871 9.05569 15.3172 8.69754 15.3172ZM8.77955 13.3457C8.69799 13.351 8.61883 13.3754 8.54847 13.417C8.4781 13.4586 8.41852 13.5161 8.37454 13.585C8.24248 13.7817 8.16405 14.0095 8.14703 14.2458C8.13 14.482 8.17497 14.7187 8.27748 14.9323C8.31162 15.0119 8.36578 15.0813 8.43469 15.1338C8.50361 15.1863 8.58494 15.2201 8.67077 15.2318C8.99712 15.2553 9.29334 14.8519 9.33016 14.3314C9.36698 13.811 9.13268 13.3691 8.80633 13.3457H8.77955Z" fill="#200705"/>
<path d="M14.7672 9.49941C12.712 10.2358 14.3923 14.0967 14.7672 14.3528C15.3228 14.6407 17.706 13.7972 17.8299 13.2767C17.9989 12.542 16.9044 8.73458 14.7672 9.49941Z" fill="#92471D"/>
<path d="M16.0848 9.61112C15.8881 9.49378 15.6673 9.42285 15.439 9.40371C15.2108 9.38457 14.9812 9.41773 14.7677 9.50067C14.5468 9.5769 14.3484 9.70693 14.1903 9.87902C14.0323 10.0511 13.9195 10.2599 13.8623 10.4864C14.1251 9.93245 14.3928 9.75505 14.7409 9.60443C15.1728 9.43228 15.6547 9.43468 16.0848 9.61112Z" fill="#351200"/>
<path d="M15.0169 10.1668C12.9651 10.9082 14.3927 14.0964 14.7642 14.3508C15.3198 14.6386 17.703 13.7951 17.8269 13.2746C17.9993 12.5416 17.1089 9.41034 15.0169 10.1668Z" fill="black"/>
<path d="M15.1396 10.4064C13.1213 11.0608 14.3932 14.1201 14.8484 14.3561C15.3906 14.6356 17.6684 13.854 17.7872 13.3519C17.9562 12.6423 17.1479 9.75538 15.1396 10.4064Z" fill="white"/>
<path d="M14.3057 13.4608C14.4831 13.9294 14.7057 14.2791 14.8479 14.3544C15.3901 14.6339 17.6679 13.8524 17.7867 13.3503C17.8264 13.0398 17.8002 12.7245 17.7097 12.4248C17.6478 13.3453 15.1542 14.2875 14.3057 13.4608Z" fill="#E2E2E2"/>
<path d="M15.1893 14.465C15.0661 14.4712 14.9431 14.4494 14.8295 14.4014C14.5098 14.2341 13.9124 12.9304 13.9927 11.866C14.0563 11.1095 14.4462 10.594 15.1207 10.3748L15.1324 10.415L15.1207 10.3748C15.4096 10.2652 15.7238 10.2406 16.0263 10.3037C16.3287 10.3669 16.6068 10.5152 16.8278 10.7313C17.2192 11.1257 17.5067 11.611 17.6645 12.1438C17.8185 12.6191 17.8821 13.1111 17.8219 13.3672C17.7616 13.6232 17.3097 13.8475 17.0436 13.9696C16.4545 14.2441 15.683 14.465 15.1893 14.465ZM15.1542 10.4484C14.5048 10.6593 14.15 11.1363 14.0848 11.8676C14.0595 12.4062 14.1485 12.9441 14.3458 13.4458C14.5299 13.9379 14.7492 14.2575 14.8697 14.3194C15.2044 14.4868 16.2738 14.2357 17.0169 13.8943C17.447 13.6969 17.7131 13.4994 17.7482 13.3487C17.7878 12.9515 17.7346 12.5504 17.5926 12.1772C17.4383 11.6569 17.1564 11.1835 16.7725 10.7999C16.564 10.5937 16.301 10.4512 16.0144 10.389C15.7278 10.3267 15.4295 10.3473 15.1542 10.4484Z" fill="black"/>
<path d="M16.8039 13.4987C17.2056 13.3909 17.4033 12.8266 17.2455 12.2383C17.0876 11.65 16.634 11.2605 16.2323 11.3683C15.8305 11.4761 15.6328 12.0404 15.7907 12.6287C15.9486 13.217 16.4022 13.6065 16.8039 13.4987Z" fill="#542416"/>
<path d="M17.2431 12.2393C17.4105 12.8267 17.2046 13.3907 16.803 13.4995C16.4013 13.6082 15.9478 13.2166 15.7988 12.6292C16.3076 13.302 17.141 13.0426 17.2431 12.2393Z" fill="#A74F45"/>
<path d="M16.7445 13.2591C17.0248 13.1839 17.1627 12.79 17.0525 12.3794C16.9423 11.9687 16.6258 11.6968 16.3454 11.772C16.0651 11.8472 15.9272 12.2411 16.0374 12.6517C16.1476 13.0624 16.4641 13.3343 16.7445 13.2591Z" fill="black"/>
<path d="M16.0967 12.4347C16.2354 12.4347 16.3478 12.3223 16.3478 12.1837C16.3478 12.045 16.2354 11.9326 16.0967 11.9326C15.9581 11.9326 15.8457 12.045 15.8457 12.1837C15.8457 12.3223 15.9581 12.4347 16.0967 12.4347Z" fill="white"/>
<path d="M16.911 12.942C16.96 12.942 16.9997 12.9023 16.9997 12.8533C16.9997 12.8044 16.96 12.7646 16.911 12.7646C16.862 12.7646 16.8223 12.8044 16.8223 12.8533C16.8223 12.9023 16.862 12.942 16.911 12.942Z" fill="white"/>
<path d="M16.6599 13.5577C16.2783 13.5577 15.8867 13.1795 15.7411 12.6406C15.6627 12.3665 15.6674 12.0752 15.7545 11.8038C15.7803 11.6901 15.8367 11.5856 15.9175 11.5015C15.9982 11.4174 16.1004 11.357 16.213 11.3267C16.3256 11.2964 16.4443 11.2974 16.5564 11.3296C16.6685 11.3617 16.7697 11.4238 16.849 11.5092C17.0595 11.7011 17.2086 11.9509 17.2775 12.2272C17.3559 12.5012 17.3519 12.7923 17.2658 13.064C17.2347 13.1755 17.1764 13.2775 17.096 13.3608C17.0157 13.444 16.9158 13.506 16.8055 13.541C16.758 13.5531 16.709 13.5587 16.6599 13.5577ZM16.3604 11.3937C16.3179 11.3935 16.2757 11.3992 16.2348 11.4105C16.1379 11.4421 16.0505 11.4973 15.9803 11.5713C15.9102 11.6452 15.8596 11.7355 15.8332 11.8339C15.7515 12.0904 15.748 12.3654 15.8231 12.6238C15.9738 13.1878 16.4055 13.5644 16.7838 13.4606C16.8805 13.4293 16.968 13.3744 17.0381 13.3007C17.1082 13.2271 17.1589 13.1371 17.1854 13.0389C17.2661 12.784 17.2696 12.5109 17.1955 12.254C17.1311 11.9959 16.9912 11.7628 16.7938 11.5845C16.6791 11.4717 16.5276 11.404 16.367 11.3937H16.3604Z" fill="#200705"/>
<path d="M12.8392 8.99909C13.0752 8.30957 14.3203 7.43429 16.0993 8.56061C15.5437 7.26526 14.1413 6.74979 13.2994 7.1866C12.4576 7.6234 12.8392 8.99909 12.8392 8.99909Z" fill="#391D12"/>
<path d="M12.8398 8.99932C13.0758 8.30981 14.321 7.43452 16.1 8.56084C15.551 7.75083 14.3946 7.35921 13.5143 7.71234C12.8666 7.97007 12.8398 8.99932 12.8398 8.99932Z" fill="#2C100C"/>
<path d="M12.8381 9.13801L12.7996 9.01081C12.7341 8.76634 12.702 8.51413 12.7042 8.26105C12.7042 7.7255 12.9134 7.34058 13.2816 7.14979C13.4955 7.05127 13.7272 6.99748 13.9626 6.99173C14.198 6.98597 14.4321 7.02837 14.6506 7.11632C14.9834 7.23967 15.2872 7.43023 15.5432 7.67612C15.7992 7.92201 16.0018 8.21797 16.1384 8.54556L16.192 8.6694L16.0765 8.59744C15.0489 7.94474 14.2757 8.00499 13.8071 8.17068C13.601 8.23442 13.4114 8.3423 13.2512 8.48682C13.0911 8.63133 12.9644 8.80901 12.8799 9.00747L12.8381 9.13801ZM13.9661 7.07615C13.7419 7.073 13.5203 7.1241 13.3201 7.2251C12.6507 7.57488 12.7778 8.52547 12.8515 8.86354C13.0516 8.49784 13.3829 8.22156 13.7786 8.09034C14.2472 7.92298 15.0054 7.86106 16.0045 8.45351C15.7246 7.87104 15.2296 7.41987 14.6238 7.19498C14.4129 7.11841 14.1905 7.07823 13.9661 7.07615Z" fill="black"/>
<path d="M8.7375 9.92474C8.1551 9.7055 6.82292 10.0151 6.41122 11.9079C5.94597 10.7883 6.50494 9.50467 7.31161 9.15155C8.11828 8.79842 8.7375 9.92474 8.7375 9.92474Z" fill="#391D12"/>
<path d="M8.73755 9.92482C8.15515 9.70558 6.82298 10.0152 6.41127 11.908C6.28408 10.9976 6.86649 9.82776 7.36354 9.6537C7.5944 9.56204 7.84678 9.53886 8.09047 9.58694C8.33416 9.63503 8.55882 9.75234 8.73755 9.92482Z" fill="#2C100C"/>
<path d="M6.42273 12.0459L6.37252 11.9221C5.89555 10.7824 6.47628 9.4703 7.28797 9.10881C7.64277 8.95317 8.01263 9.04187 8.35739 9.36654C8.52024 9.52319 8.65898 9.7031 8.76909 9.90042L8.8193 9.99916L8.71721 9.95899C8.53389 9.90888 8.34227 9.89669 8.15408 9.92316C7.96589 9.94964 7.78507 10.0142 7.62269 10.113C7.21936 10.3322 6.68716 10.8259 6.45118 11.9238L6.42273 12.0459ZM7.6411 9.12053C7.53314 9.12139 7.42655 9.14476 7.32814 9.18914C6.57503 9.52386 6.03278 10.6954 6.40097 11.7631C6.66038 10.7272 7.18421 10.2569 7.58587 10.031C7.90587 9.84385 8.28323 9.78016 8.64692 9.85188C8.55289 9.69823 8.44049 9.5566 8.31221 9.43014C8.13744 9.24337 7.89662 9.13226 7.6411 9.12053Z" fill="black"/>
<path d="M9.78223 6.48559C9.78223 6.48559 10.2743 6.31824 11.1629 5.48145L11.2198 5.54169C10.9754 5.78234 10.7148 6.006 10.4399 6.21112C10.0366 6.49229 9.78223 6.48559 9.78223 6.48559Z" fill="#351200"/>
<path d="M17.3851 14.9248C17.8554 14.9951 18.6269 15.4804 18.9148 16.4695C19.2394 17.5841 19.2361 19.405 18.7072 21.2878C18.242 22.948 17.5859 23.9923 15.6596 24.7236C14.2555 25.2558 12.2439 25.1588 11.864 24.3454C11.3301 23.2007 12.2271 21.7982 11.3301 20.1614C12.3024 19.2644 16.3508 15.6813 16.3508 15.6813L17.3851 14.9248Z" fill="#E0CEBD"/>
<path d="M18.9145 16.4734C18.6266 15.4843 17.8551 14.999 17.3848 14.9287L16.3572 15.6835L16.22 15.804C16.451 16.1775 16.6385 16.5761 16.779 16.9922V16.9755C16.9129 17.1261 17.3162 17.26 17.3329 17.429C17.6676 18.1303 17.9036 19.6348 17.7513 20.8565C17.512 22.7862 17.0082 23.9092 15.7246 24.7058C17.6007 23.9744 18.2467 22.9368 18.7069 21.295C19.2358 19.4055 19.2391 17.5847 18.9145 16.4734Z" fill="#AD9E8E"/>
<path d="M13.772 25.0974C12.8632 25.0974 12.0599 24.8648 11.8256 24.3627C11.5913 23.8606 11.6298 23.2882 11.6733 22.6891C11.7285 21.9377 11.7921 21.0875 11.2934 20.1787L11.2783 20.1503L11.3018 20.1285C12.2624 19.2415 16.289 15.6818 16.3225 15.6467L17.3651 14.8818H17.3819C17.8471 14.9505 18.6471 15.4291 18.945 16.4567C19.1266 17.1526 19.2 17.8723 19.1626 18.5905C19.1291 19.5068 18.9864 20.4159 18.7375 21.2984C18.4731 22.2439 18.1785 22.8665 17.7534 23.3803C17.2697 23.9644 16.6053 24.4045 15.6631 24.7627C15.0571 24.9838 14.4171 25.0971 13.772 25.0974ZM11.3838 20.1687C11.8758 21.0892 11.8139 21.9444 11.757 22.6991C11.7151 23.2832 11.6733 23.8372 11.9026 24.3275C12.0699 24.6907 12.6105 24.935 13.382 24.997C14.1499 25.0533 14.921 24.9467 15.6447 24.684C17.5794 23.9476 18.2187 22.8765 18.6672 21.2749C19.1525 19.5461 19.2312 17.7085 18.8747 16.4801C18.7555 16.0565 18.5181 15.6757 18.1902 15.3822C17.967 15.1764 17.6933 15.0332 17.3969 14.9672L16.3844 15.7103C16.289 15.804 12.3779 19.2549 11.3838 20.1687Z" fill="#7C552A"/>
<path d="M12.9084 24.6206C14.2289 24.5469 14.9167 24.0248 15.7234 23.101C17.1041 21.5127 17.2162 19.5747 17.2898 18.3865L16.2857 17.625L14.5535 17.7522L13.7954 17.9463C12.7795 18.8484 11.7536 19.7655 11.3252 20.1605C12.1904 21.7387 11.3905 23.0976 11.8072 24.2189C11.9483 24.365 12.1207 24.4771 12.3115 24.5467C12.5023 24.6163 12.7064 24.6415 12.9084 24.6206Z" fill="#F7E2D0"/>
<path d="M12.8113 24.6737C12.6202 24.6806 12.4298 24.6469 12.2526 24.5747C12.0755 24.5026 11.9157 24.3937 11.7837 24.2553V24.2469C11.6063 23.7716 11.6448 23.2545 11.685 22.7072C11.7419 21.9558 11.8038 21.1056 11.3051 20.1969L11.29 20.1684L11.3135 20.1467C11.6766 19.8119 12.5084 19.0655 13.7837 17.9308L14.5602 17.7334L16.3091 17.6045L16.3225 17.6145L17.3384 18.3894V18.4396C17.309 19.1833 17.2087 19.9225 17.0388 20.6471C16.8201 21.574 16.3822 22.4348 15.7619 23.1574C14.9468 24.0963 14.2556 24.6185 12.9168 24.6921L12.8113 24.6737ZM11.8507 24.2034C11.9867 24.3429 12.1525 24.4499 12.3356 24.5162C12.5188 24.5826 12.7146 24.6067 12.9084 24.5867C14.2138 24.5147 14.8949 24.0026 15.6949 23.0805C17.0555 21.5173 17.1777 19.5776 17.2497 18.4195L16.2807 17.6832L14.5669 17.8087L13.8155 17.9794C12.572 19.0856 11.7519 19.8203 11.3787 20.1634C11.8708 21.0839 11.8088 21.9391 11.7536 22.6939C11.7185 23.2344 11.6817 23.7398 11.8473 24.1951L11.8507 24.2034Z" fill="#7C552A"/>
<path d="M10.7305 19.5376C11.2183 19.9499 11.6058 20.4679 11.8635 21.0522C12.225 21.9058 12.0961 23.2011 13.0199 23.33C13.9839 23.4655 15.5186 22.6873 16.5345 20.8966C17.5503 19.1059 17.4198 16.7796 17.1068 15.9043C16.419 16.1838 10.7305 19.5376 10.7305 19.5376Z" fill="#7F0000"/>
<path d="M16.5316 20.8961C16.7746 20.4584 16.9613 19.9916 17.0872 19.507C16.9351 19.2761 16.7282 19.0864 16.4849 18.955C16.2416 18.8236 15.9696 18.7545 15.6931 18.7539C15.2557 18.7685 14.8398 18.9469 14.5277 19.2537C14.2157 19.5604 14.0302 19.9733 14.0081 20.4103C13.986 20.8474 14.1288 21.2768 14.4084 21.6135C14.6879 21.9502 15.0837 22.1696 15.5174 22.2283C15.9163 21.8341 16.2578 21.3856 16.5316 20.8961Z" fill="#590000"/>
<path d="M13.0205 23.3344C13.9845 23.47 15.5191 22.6901 16.535 20.901L16.6153 20.7521C15.6915 20.4174 14.7008 20.9194 14.2456 21.4952C13.2799 21.3278 12.6958 22.3018 12.5117 23.0533C12.6383 23.2096 12.8208 23.3104 13.0205 23.3344Z" fill="#FFA9A9"/>
<path d="M15.4709 20.7058C16.0014 21.0104 15.496 21.9526 14.6877 22.5585C13.9781 23.0907 13.1731 23.3015 12.5254 23.0689C12.6538 23.2161 12.8332 23.3094 13.0275 23.33C13.9914 23.4655 15.5261 22.6857 16.542 20.8966L16.6223 20.7477C16.2522 20.6144 15.8497 20.5998 15.4709 20.7058Z" fill="#E28888"/>
<path d="M13.2394 23.3863C13.1639 23.3866 13.0884 23.3815 13.0135 23.3713C12.8026 23.3466 12.6097 23.2403 12.4763 23.0751L12.4629 23.0583V23.0382C12.5612 22.617 12.7611 22.2263 13.0453 21.9002C13.1859 21.7311 13.3672 21.6006 13.5721 21.521C13.7771 21.4414 13.9989 21.4152 14.2168 21.445C14.7055 20.8358 15.7063 20.3722 16.6184 20.7069L16.6619 20.7237L16.6402 20.7655C16.6117 20.8207 16.5849 20.8693 16.5598 20.9161C16.1317 21.7028 15.5182 22.3732 14.7724 22.8692C14.3187 23.1792 13.7882 23.3581 13.2394 23.3863ZM13.0252 23.2876C13.5156 23.3562 14.1398 23.1788 14.7356 22.7989C15.4689 22.3095 16.072 21.649 16.4929 20.8743L16.5498 20.7705C15.6778 20.4777 14.7306 20.9379 14.2737 21.5153L14.2586 21.5354H14.2335C14.0256 21.5024 13.8126 21.5242 13.6156 21.5988C13.4187 21.6733 13.2446 21.798 13.1106 21.9605C12.8403 22.2706 12.6491 22.6415 12.5533 23.0416C12.6729 23.1811 12.8409 23.2702 13.0235 23.2909L13.0252 23.2876Z" fill="#AA5050"/>
<path d="M14.0933 21.9956C14.0836 21.8126 14.1222 21.6302 14.2054 21.4668L14.279 21.507C14.1956 21.6609 14.1332 21.8252 14.0933 21.9956Z" fill="#AA5050"/>
<path d="M13.2394 23.3867C13.1639 23.3869 13.0884 23.3819 13.0135 23.3717C12.8685 23.3516 12.731 23.295 12.6139 23.2071C12.4968 23.1193 12.4039 23.0032 12.3441 22.8696C12.213 22.5725 12.1208 22.2597 12.0696 21.9391C12.0165 21.6434 11.9364 21.3532 11.8303 21.0722C11.5758 20.4943 11.1929 19.982 10.7106 19.5743L10.6621 19.5375L10.714 19.5057C10.9466 19.3685 16.4125 16.1468 17.092 15.8673L17.1322 15.8506L17.1472 15.8924C17.3536 16.594 17.4273 17.3278 17.3648 18.0564C17.3166 19.0578 17.0462 20.0359 16.5732 20.9199C16.1451 21.7065 15.5315 22.3769 14.7858 22.8729C14.3278 23.184 13.7925 23.3619 13.2394 23.3867ZM10.8044 19.5375C11.2756 19.9483 11.6505 20.4581 11.9022 21.0303C12.0111 21.3154 12.0929 21.6102 12.1466 21.9106C12.2855 22.5801 12.4177 23.1976 13.0252 23.2813C13.5156 23.3499 14.1398 23.1725 14.7356 22.7926C15.4681 22.3051 16.0711 21.6469 16.4929 20.8747C16.9601 20.0022 17.227 19.0366 17.2744 18.048C17.3322 17.3461 17.2654 16.6396 17.077 15.961C16.2887 16.3158 11.37 19.2111 10.8027 19.5442L10.8044 19.5375Z" fill="#7C552A"/>
<path d="M17.0804 16.0662C16.8611 16.6888 15.5557 19.2795 14.2035 19.8853C12.7173 20.5548 11.1074 19.6243 10.5852 19.5824C10.063 20.0209 9.66807 20.7857 8.5769 20.6937C7.66479 20.615 6.85143 19.0452 7.22464 17.6812C7.5443 16.5097 8.5133 15.8838 9.03044 15.1458C9.97267 13.7985 9.91744 12.5785 10.6454 12.2337C11.4655 11.8471 12.4512 13.0421 13.1257 13.6144C13.8001 14.1868 14.6319 14.8981 15.4587 14.9633C16.2854 15.0286 16.749 14.796 17.4954 14.9499L17.0804 16.0662Z" fill="white"/>
<path d="M8.58358 20.6936C9.66806 20.7857 10.063 20.0242 10.5919 19.5824C11.114 19.6242 12.724 20.5514 14.2102 19.8853C15.5624 19.2795 16.8678 16.6888 17.0871 16.0662L17.5088 14.9449C16.7624 14.7976 16.2971 15.0219 15.472 14.9583C14.8545 14.9081 14.2269 14.4947 13.6662 14.0479C14.2118 15.0989 15.4419 15.3867 15.7415 15.9541C16.0411 16.5214 15.6511 17.805 14.8746 18.5615C13.8989 19.5121 13.3299 19.5824 12.6537 19.4954C11.6864 19.3682 10.9132 18.9782 10.4329 19.0569C9.89232 19.1456 9.735 20.061 8.90993 20.2183C8.3158 20.3338 7.82879 20.0995 7.2832 19.2828C7.51416 20.0493 8.02962 20.6468 8.58358 20.6936Z" fill="#AD9E8E"/>
<path d="M8.75818 20.7446C8.70128 20.7446 8.64103 20.7446 8.57911 20.7446C8.23268 20.7144 7.88792 20.4785 7.60843 20.0751C7.37373 19.7258 7.21531 19.3309 7.14351 18.9163C7.07171 18.5016 7.08813 18.0764 7.19171 17.6685C7.41095 16.8635 7.93645 16.3096 8.39836 15.8192C8.61675 15.6013 8.81869 15.3674 9.00252 15.1197C9.35564 14.5931 9.63705 14.0218 9.83932 13.421C10.0569 12.8436 10.2276 12.3884 10.6359 12.1959C11.3271 11.8612 12.1187 12.6126 12.7547 13.2118C12.8986 13.3473 13.0342 13.4745 13.1597 13.5816C13.8291 14.149 14.6659 14.8552 15.4692 14.9205C15.7841 14.9408 16.1001 14.9313 16.4131 14.892C16.7779 14.8329 17.1503 14.8397 17.5127 14.9121L17.496 14.9941C17.1418 14.924 16.7779 14.9178 16.4215 14.9757C16.1034 15.015 15.7824 15.0246 15.4626 15.0042C14.6258 14.9372 13.789 14.2209 13.1045 13.6452C12.979 13.5381 12.8417 13.4092 12.6961 13.272C12.0786 12.6913 11.3104 11.9683 10.6711 12.2679C10.2945 12.4469 10.1372 12.867 9.91965 13.4477C9.71434 14.055 9.42959 14.6323 9.07282 15.1648C8.88605 15.4159 8.68134 15.653 8.46028 15.8744C8.0034 16.3564 7.48626 16.9037 7.27204 17.6869C7.17041 18.084 7.1541 18.4982 7.2242 18.902C7.2943 19.3059 7.44921 19.6903 7.67872 20.0299C7.94147 20.4082 8.26447 20.6308 8.58748 20.6592C9.40753 20.7295 9.81589 20.3044 10.2125 19.8944C10.3217 19.7765 10.4374 19.6647 10.559 19.5597L10.5723 19.548H10.5891C10.7915 19.5845 10.9899 19.6406 11.1815 19.7153C11.9413 19.9697 13.0894 20.3513 14.194 19.8592C15.5328 19.2618 16.8349 16.6794 17.0474 16.0652L17.1278 16.092C16.8523 16.7661 16.5109 17.4113 16.1086 18.0183C15.6567 18.7112 14.9622 19.6065 14.2275 19.9362C13.7005 20.1625 13.1206 20.2362 12.5539 20.1488C12.0809 20.0769 11.6162 19.9586 11.1665 19.7956C10.9859 19.7279 10.8001 19.6753 10.6108 19.6383C10.5004 19.7337 10.3949 19.8425 10.2761 19.958C9.90961 20.3228 9.50293 20.7446 8.75818 20.7446Z" fill="#7C552A"/>
<path d="M16.1084 16.1135C16.4158 16.0041 16.7528 16.0131 17.054 16.1386C17.3562 16.249 17.6055 16.4696 17.7519 16.7561C17.7017 15.3938 17.0975 15.3101 16.1084 16.1135Z" fill="#D9A86E"/>
<path d="M17.7519 16.7555C17.3519 16.1095 16.6155 16.0057 16.1084 16.1128C16.1084 16.1128 16.2758 15.9606 16.6523 16.0024C16.7722 16.015 16.8905 16.0396 17.0054 16.076C17.1613 16.1262 17.3081 16.2007 17.4406 16.2969C17.5203 16.3489 17.5888 16.4163 17.6422 16.495C17.6957 16.5737 17.7329 16.6623 17.7519 16.7555Z" fill="#7C552A"/>
<path d="M9.57631 18.3446C8.64412 18.4165 7.40065 17.2383 7.45588 16.2174C7.52282 15.1078 10.1587 14.5238 10.9386 15.3405C11.4808 15.9095 10.952 18.2358 9.57631 18.3446Z" fill="#3F3E3C"/>
<path d="M9.09733 15.8631C9.52373 15.7665 9.8497 15.6012 9.8254 15.494C9.80111 15.3867 9.43575 15.378 9.00936 15.4746C8.58297 15.5711 8.257 15.7364 8.28129 15.8437C8.30559 15.9509 8.67094 15.9596 9.09733 15.8631Z" fill="#ADADAB"/>
<path d="M9.57631 18.3439C8.64412 18.4159 7.40065 17.2377 7.45588 16.2168C7.72533 16.9632 8.46003 17.0385 9.22318 16.9063C10.2491 16.7289 10.9403 15.9607 10.9386 15.3398C11.4808 15.9089 10.952 18.2351 9.57631 18.3439Z" fill="#2F2F2D"/>
<path d="M9.49542 18.389C9.06029 18.389 8.53813 18.138 8.11137 17.7196C7.64444 17.261 7.38336 16.7003 7.41348 16.2133C7.44026 15.7749 7.84694 15.3765 8.52976 15.1305C8.96426 14.9727 9.42506 14.9 9.88704 14.9163C10.2218 14.933 10.687 15.015 10.9682 15.3096C11.2493 15.6041 11.2644 16.3807 10.9899 17.0987C10.6954 17.8685 10.1799 18.3371 9.5791 18.384L9.49542 18.389ZM9.74646 15.0017C9.34187 15.0029 8.94051 15.0737 8.55989 15.2109C7.9189 15.4452 7.52059 15.8217 7.49716 16.215C7.46871 16.6736 7.72142 17.2108 8.16659 17.6526C8.61177 18.0944 9.14229 18.322 9.56906 18.2969C10.3757 18.2333 10.774 17.415 10.9079 17.0652C11.1673 16.3857 11.1657 15.6393 10.9079 15.3648C10.6502 15.0904 10.2234 15.0017 9.74646 15.0017Z" fill="black"/>
<path d="M35.5904 19.8354C35.2858 19.74 35.1369 19.1877 35.2557 18.4095C35.3411 17.8187 35.7327 17.4054 36.0507 17.4623C36.623 17.556 36.6448 18.3811 36.4322 19.007C36.2197 19.6329 35.7795 19.894 35.5904 19.8354Z" fill="#00DC39"/>
<path d="M36.2746 17.5557C36.5508 18.1866 36.2646 19.1456 35.8395 19.3514C35.5734 19.482 35.3809 19.3062 35.2119 18.9213C35.2119 19.4234 35.3575 19.7581 35.5901 19.8351C35.7793 19.8937 36.2127 19.6326 36.4269 19.0067C36.606 18.4812 36.6177 17.8117 36.2746 17.5557Z" fill="#0C4207"/>
<path d="M35.6502 19.8858C35.6259 19.8862 35.6016 19.8828 35.5783 19.8758C35.2435 19.7704 35.0929 19.193 35.2084 18.403C35.2448 18.0632 35.4123 17.751 35.6753 17.5328C35.7275 17.49 35.7877 17.4582 35.8524 17.4392C35.9171 17.4203 35.9849 17.4145 36.0519 17.4223C36.136 17.4344 36.2162 17.4656 36.2864 17.5135C36.3566 17.5613 36.4149 17.6246 36.4569 17.6985C36.6728 18.0583 36.5975 18.6357 36.4569 19.0206C36.2711 19.593 35.8879 19.8858 35.6502 19.8858ZM35.9849 17.501C35.8877 17.5049 35.7944 17.5402 35.7188 17.6014C35.4766 17.8083 35.3222 18.0998 35.287 18.4164C35.1816 19.1377 35.3088 19.7051 35.5983 19.7955C35.754 19.844 36.174 19.6064 36.3816 18.9938C36.5155 18.5972 36.5673 18.0549 36.3816 17.742C36.3455 17.6788 36.2956 17.6246 36.2356 17.5834C36.1756 17.5423 36.1071 17.5152 36.0351 17.5043L35.9849 17.501Z" fill="black"/>
<path d="M34.7347 16.8517C34.4519 16.7982 33.913 17.0425 33.6954 17.9211C33.4611 18.8684 33.6134 19.6332 33.9917 19.6935C34.3699 19.7537 34.8937 19.1914 35.1498 18.4684C35.4058 17.7454 35.1749 16.9354 34.7347 16.8517Z" fill="#00DC39"/>
<path d="M34.8794 16.9131C35.2777 17.7683 34.7673 18.8946 34.2451 19.1523C33.8635 19.3415 33.6175 18.754 33.5924 18.4695C33.5255 19.149 33.6828 19.641 33.984 19.6929C34.3807 19.7532 34.8861 19.1908 35.1422 18.4678C35.3664 17.8352 35.2225 17.1307 34.8794 16.9131Z" fill="#0C4207"/>
<path d="M34.0439 19.7396C34.0216 19.7422 33.9992 19.7422 33.9769 19.7396C33.9213 19.7297 33.8686 19.7078 33.8223 19.6755C33.7761 19.6431 33.7375 19.601 33.7091 19.5522C33.5016 19.2426 33.4782 18.5999 33.6472 17.9171C33.8715 17.0084 34.4321 16.7607 34.735 16.8159C34.8183 16.8363 34.8962 16.8746 34.9632 16.9281C35.0302 16.9815 35.0849 17.0489 35.1233 17.1255C35.2246 17.3371 35.282 17.5671 35.2921 17.8015C35.3021 18.0359 35.2647 18.2699 35.1819 18.4895C35.0653 18.8279 34.8833 19.14 34.6463 19.4083C34.5726 19.5004 34.4815 19.5771 34.3781 19.634C34.2747 19.6908 34.1611 19.7267 34.0439 19.7396ZM34.6463 16.8946C34.3501 16.8946 33.9116 17.1958 33.7275 17.9389C33.5602 18.6083 33.5853 19.2158 33.7778 19.507C33.8005 19.5459 33.8312 19.5795 33.8678 19.6058C33.9045 19.632 33.9462 19.6502 33.9903 19.6593C34.3501 19.7145 34.8472 19.1773 35.1016 18.4627C35.1808 18.2548 35.217 18.0329 35.2081 17.8105C35.1992 17.5882 35.1453 17.37 35.0497 17.169C35.0171 17.1025 34.9702 17.0439 34.9123 16.9976C34.8545 16.9513 34.7871 16.9184 34.715 16.9012C34.6926 16.894 34.6697 16.8889 34.6463 16.8862V16.8946Z" fill="black"/>
<path d="M33.6874 17.9212C33.3811 18.6509 32.3937 19.4275 32.1025 19.2367C31.8113 19.0459 31.8515 18.0903 32.1443 17.4041C32.5025 16.5673 33.1 16.1389 33.515 16.3079C33.9301 16.4769 33.9752 17.2367 33.6874 17.9212Z" fill="#00DC39"/>
<path d="M33.6795 16.4229C33.7699 17.3299 33.0737 18.5249 32.508 18.6755C32.0712 18.7926 32.0478 18.2169 31.9808 17.9642C31.862 18.5265 31.8955 19.0905 32.1131 19.2328C32.4043 19.4219 33.3917 18.647 33.6979 17.9174C33.9306 17.3416 33.9373 16.7057 33.6795 16.4229Z" fill="#0C4207"/>
<path d="M32.215 19.3068C32.1673 19.3084 32.1203 19.2962 32.0794 19.2717C31.7447 19.0558 31.82 18.0567 32.1062 17.3889C32.461 16.5638 33.0735 16.0835 33.5321 16.2693C33.6009 16.2997 33.6629 16.3437 33.7144 16.3986C33.7658 16.4535 33.8057 16.5183 33.8316 16.5889C33.9706 16.9236 33.9287 17.4542 33.7262 17.9378C33.4752 18.537 32.7873 19.1529 32.3656 19.2767C32.3171 19.2938 32.2664 19.304 32.215 19.3068ZM33.3262 16.3145C33.1448 16.325 32.9719 16.3949 32.8342 16.5136C32.5464 16.7579 32.3233 17.0695 32.1848 17.4207C31.8936 18.0901 31.8635 19.029 32.1246 19.1997C32.1586 19.2147 32.1954 19.2224 32.2325 19.2224C32.2697 19.2224 32.3065 19.2147 32.3405 19.1997C32.7371 19.0775 33.4099 18.4717 33.6492 17.9027L33.6877 17.9194L33.6492 17.9027C33.8434 17.4391 33.8852 16.9354 33.753 16.6207C33.7252 16.5298 33.6685 16.4505 33.5914 16.3949C33.5144 16.3393 33.4212 16.3105 33.3262 16.3128V16.3145Z" fill="black"/>
<path d="M15.6699 27.9569C16.2908 28.3569 16.7795 30.1443 15.8708 31.5568C16.7544 31.3811 19.3133 30.9694 19.561 30.7334C19.7618 30.3384 19.3016 28.064 19.5125 26.8356C19.7021 25.8695 20.2037 24.9922 20.94 24.3386C21.3886 23.9353 21.8873 23.8466 22.0279 24.0592C22.1952 24.3068 21.5258 25.3378 21.3199 25.9101C21.7143 25.5405 22.2051 25.2899 22.7358 25.1872C23.3148 25.1018 23.7081 25.316 23.6529 25.562C23.5977 25.8081 22.8479 26.2315 22.6119 26.7335C22.9701 26.6448 23.7617 26.767 23.6579 27.0683C23.5542 27.3695 22.6337 27.8766 22.4429 28.6615C22.2521 29.4464 22.5668 30.3786 22.5099 31.3392C22.453 32.2999 22.1751 32.7635 21.3383 33.3593C20.3442 34.3801 19.4974 35.7927 18.0096 37.2185C16.5218 38.6444 15.2515 39.113 14.0047 39.6067C12.7579 40.1004 10.8751 39.9097 10.2693 39.6067C10.45 39.9783 10.7312 40.3682 10.5672 40.4536C10.4032 40.5389 9.12789 39.9515 8.43 38.9005C8.38816 39.2787 8.59736 39.826 8.43 39.9046C8.26265 39.9833 7.05934 38.8787 6.96562 37.339C6.79826 37.6001 6.59576 38.2311 6.4284 38.2143C6.26104 38.1976 5.71043 36.7081 6.47191 35.0345C7.26686 33.2923 7.95303 31.9032 8.87852 30.1209C9.80401 28.3385 10.6676 26.7486 11.7119 25.88C12.6106 25.1302 13.8122 24.8575 14.48 25.2993L15.6699 27.9569Z" fill="#00DC39"/>
<path d="M6.73276 35.1016C7.52771 33.3611 8.23898 32.116 9.16782 30.3319C10.0967 28.5479 10.8615 27.05 11.9041 26.1815C12.8028 25.4317 13.7099 25.0484 14.4814 25.2961C13.812 24.8543 12.6121 25.1288 11.7133 25.8769C10.669 26.7454 9.80545 28.3337 8.87996 30.1177C7.95447 31.9018 7.2683 33.2975 6.47335 35.0314C5.71187 36.7049 6.26081 38.1944 6.42984 38.2112C6.16966 37.1707 6.27666 36.0723 6.73276 35.1016Z" fill="#0C4207"/>
<path d="M12.6803 32.6831C12.0243 33.0831 11.5874 33.8831 11.4435 34.1257C11.2996 34.3684 11.0067 35.1198 10.6201 35.4746C11.2326 35.1717 11.8167 34.4571 12.1414 34.0136C12.5042 33.5296 12.9701 33.1323 13.5054 32.8505C14.0761 32.5726 15.1539 32.2697 15.7346 32.1258C16.3153 31.9819 17.5236 31.6137 18.3738 31.4446C19.224 31.2756 19.8231 31.125 19.9336 30.966C20.0441 30.807 19.875 30.5175 19.8834 30.0204C19.8918 29.5234 19.6943 28.7552 19.6842 27.6339C19.6742 26.6063 19.9336 26.1929 20.1947 25.6256C20.434 25.1051 21.147 24.2867 21.5335 23.9805C21.3108 24.0546 21.1065 24.1756 20.9344 24.3353C20.1968 24.9895 19.6946 25.868 19.5052 26.8356C19.2943 28.064 19.7545 30.3384 19.5537 30.7334C19.306 30.9694 16.7471 31.3811 15.8635 31.5568C15.8635 31.5568 15.6442 31.602 14.6685 31.8714C13.6928 32.1409 13.338 32.2831 12.6803 32.6831Z" fill="#0C4207"/>
<path d="M13.623 32.2049C14.0264 32.0224 15.8707 31.5589 15.8707 31.5589C16.7794 30.1464 16.2907 28.359 15.6698 27.959C16.1435 29.0652 15.7301 31.0953 13.623 32.2049Z" fill="#0C4207"/>
<path d="M21.4038 24.8793C21.213 25.2993 20.8682 26.0407 20.9017 26.4675C21.0173 26.2551 21.1596 26.0582 21.3251 25.8818C21.536 25.306 22.1853 24.3036 22.023 24.0592C21.9781 24.0088 21.9197 23.9724 21.8547 23.9543C21.7897 23.9362 21.7209 23.9372 21.6565 23.9571C21.7535 24.1145 21.5945 24.4626 21.4038 24.8793Z" fill="#0C4207"/>
<path d="M22.8029 25.8822C22.4691 26.2275 22.1913 26.6227 21.9795 27.0537C22.1834 26.9343 22.3947 26.8281 22.6121 26.7357C22.8481 26.2336 23.5995 25.8169 23.6531 25.5642C23.6899 25.3968 23.5276 25.2496 23.243 25.1943C23.3552 25.3768 23.1075 25.5709 22.8029 25.8822Z" fill="#0C4207"/>
<path d="M8.43159 39.9028C8.59895 39.8275 8.38975 39.2803 8.43159 38.8987C9.12947 39.9514 10.4047 40.5355 10.5688 40.4518C10.7328 40.3681 10.4516 39.9765 10.2709 39.6049C10.8767 39.9079 12.7611 40.0986 14.0063 39.6049C15.2514 39.1112 16.5317 38.641 18.0112 37.2167C19.4906 35.7925 20.3425 34.38 21.3466 33.3591C22.1834 32.7633 22.4612 32.3048 22.5181 31.3391C22.575 30.3735 22.2604 29.4429 22.4512 28.6614C22.642 27.8798 23.5624 27.371 23.6662 27.0681C23.7147 26.9292 23.5742 26.8288 23.3733 26.7686C23.4252 26.9041 23.3583 27.0229 23.2194 27.1133C22.9834 27.2639 22.3826 27.7175 22.1801 28.089C21.9776 28.4605 21.9207 29.3308 21.9508 29.8982C21.9809 30.4655 21.9976 31.3893 21.6395 31.9617C21.2814 32.534 21.0671 32.5006 20.54 32.9039C20.0128 33.3072 18.9919 34.8771 17.8622 36.0118C16.4698 37.3925 15.4774 38.3129 13.3804 38.8987C11.4926 39.4242 9.85079 38.825 9.36377 38.4769C9.50938 38.892 9.86585 39.3539 9.67506 39.4326C9.48427 39.5112 8.46171 38.6292 8.25419 37.7991C7.99813 38.4318 8.18055 38.9874 8.05671 38.9706C7.93286 38.9539 7.11448 37.8761 6.99733 37.195C6.96863 37.2581 6.94566 37.3236 6.92871 37.3908L6.96218 37.3305C7.06092 38.8753 8.26256 39.9781 8.43159 39.9028Z" fill="#0C4207"/>
<path d="M10.5271 40.5019C10.3698 40.5019 10.0251 40.3596 9.67863 40.1387C9.20983 39.8466 8.7995 39.4698 8.46863 39.0275C8.47399 39.1581 8.48685 39.2883 8.50712 39.4174C8.54562 39.6785 8.57574 39.8827 8.44855 39.9396C8.41061 39.9574 8.35204 39.9424 8.27282 39.8944C7.95398 39.6629 7.6867 39.3677 7.48791 39.0275C7.18964 38.5598 7.00138 38.0304 6.9373 37.4794L6.84024 37.6836C6.67288 38.0468 6.55907 38.266 6.42519 38.2526C6.38502 38.2526 6.34318 38.2091 6.29799 38.1321C6.12917 37.7681 6.04124 37.3719 6.04026 36.9706C6.01897 36.2962 6.15415 35.626 6.43523 35.0126C7.18834 33.3624 7.86447 31.985 8.84351 30.0972C9.78574 28.2814 10.6493 26.7066 11.6886 25.843C12.1115 25.4816 12.6139 25.2252 13.1547 25.0949C13.4191 25.0307 13.6928 25.0142 13.963 25.0464C14.1621 25.0595 14.3485 25.1488 14.4835 25.2957C14.0753 25.0994 13.6099 25.0572 13.1731 25.1769C12.6459 25.3066 12.156 25.5569 11.7422 25.9083C10.7179 26.7618 9.8577 28.3283 8.91882 30.1357C7.94145 32.0219 7.267 33.3992 6.51389 35.0477C5.91809 36.3531 6.13231 37.548 6.32812 37.9965C6.38335 38.1271 6.42686 38.1639 6.4369 38.1639C6.52058 38.1723 6.66786 37.8543 6.77162 37.6434C6.8213 37.5289 6.87716 37.4172 6.93898 37.3087L7.00927 37.1949V37.3271C7.04429 37.7978 7.17256 38.2568 7.38661 38.6774C7.60066 39.098 7.89622 39.4719 8.25609 39.7772C8.3565 39.8509 8.40504 39.8609 8.42344 39.8576C8.49039 39.8274 8.46026 39.6132 8.43349 39.4241C8.40036 39.2482 8.38856 39.069 8.39834 38.8902L8.41173 38.7764L8.47533 38.8718C8.80806 39.3506 9.23592 39.7557 9.73219 40.0618C10.1824 40.3446 10.5054 40.4383 10.5589 40.4099C10.5646 40.4076 10.5695 40.404 10.5733 40.3993C10.5771 40.3946 10.5797 40.389 10.5807 40.3831C10.6075 40.2994 10.4953 40.0936 10.3866 39.8944C10.338 39.8057 10.2861 39.712 10.2426 39.6199L10.1874 39.5095L10.2995 39.5647C10.8602 39.8459 12.7379 40.0668 13.9998 39.5647L14.1471 39.5061C15.3404 39.0342 16.5755 38.5472 17.9963 37.1849C18.7461 36.4405 19.4424 35.6442 20.0799 34.8017C20.4691 34.2889 20.8842 33.7962 21.3234 33.3256C22.1602 32.7315 22.4196 32.2846 22.4748 31.339C22.4884 30.9313 22.4671 30.5231 22.4112 30.119C22.3543 29.5968 22.2991 29.1015 22.4112 28.6496C22.5351 28.1475 22.9585 27.7459 23.2681 27.4563C23.4113 27.345 23.5327 27.2083 23.6263 27.053C23.634 27.0321 23.6355 27.0094 23.6304 26.9876C23.6253 26.9659 23.614 26.9462 23.5978 26.9308C23.4489 26.7635 22.91 26.7015 22.6305 26.7635L22.5451 26.7835L22.582 26.7049C22.7543 26.4129 22.9816 26.1571 23.2514 25.9518C23.4321 25.7928 23.6028 25.6438 23.6246 25.5468C23.6308 25.5166 23.6291 25.4854 23.6198 25.4561C23.6104 25.4268 23.5936 25.4004 23.571 25.3794C23.4673 25.2673 23.1895 25.1585 22.7527 25.2204C22.2308 25.3238 21.7484 25.5713 21.3602 25.935L21.2397 26.0405L21.2916 25.8899C21.3894 25.6416 21.5011 25.3991 21.6263 25.1635C21.8489 24.7183 22.1 24.2163 22.0062 24.0757C21.9862 24.0498 21.961 24.0283 21.9321 24.0128C21.9033 23.9972 21.8715 23.9878 21.8389 23.9853C21.6063 23.9569 21.2699 24.1041 20.982 24.3635C20.2423 25.0096 19.7398 25.8844 19.5544 26.8488C19.4423 27.5015 19.521 28.437 19.5896 29.2638C19.6498 29.9901 19.6967 30.5642 19.598 30.76C19.4122 30.9374 18.1704 31.175 16.6876 31.4461C16.3646 31.5047 16.0851 31.5549 15.8876 31.5951L15.7906 31.6135L15.8441 31.5315C16.2448 30.8815 16.4058 30.112 16.2993 29.3558C16.2039 28.6245 15.9194 28.1207 15.6784 27.9467C15.6784 27.9467 15.8843 27.9567 16.1085 28.3852C16.2488 28.6894 16.3413 29.0134 16.383 29.3458C16.4869 30.0858 16.3402 30.8393 15.9663 31.4863L16.6608 31.3675C17.7202 31.175 19.3168 30.8838 19.5226 30.7098C19.6063 30.529 19.5578 29.9416 19.5009 29.2655C19.4323 28.4287 19.3536 27.4931 19.4674 26.8304C19.5673 26.2682 19.7821 25.7327 20.0984 25.2572C20.327 24.9084 20.5992 24.5901 20.9084 24.31C21.2146 24.0355 21.5778 23.8782 21.8322 23.9117C21.8772 23.9139 21.9211 23.9264 21.9605 23.9481C21.9999 23.9699 22.0339 24.0004 22.0598 24.0372C22.1803 24.2179 21.9393 24.7066 21.6849 25.2087C21.5878 25.4028 21.4891 25.602 21.4155 25.7727C21.7898 25.4526 22.2417 25.2368 22.7259 25.1468C23.1125 25.0899 23.4623 25.1618 23.6179 25.3309C23.6495 25.3619 23.6728 25.4004 23.6857 25.4428C23.6986 25.4852 23.7006 25.5302 23.6915 25.5735C23.6631 25.6974 23.4991 25.8413 23.2916 26.0221C23.0582 26.2075 22.854 26.427 22.6857 26.6731C22.987 26.6313 23.4807 26.6932 23.648 26.8739C23.6743 26.9004 23.6927 26.9337 23.701 26.9701C23.7093 27.0065 23.7072 27.0445 23.6949 27.0798C23.5988 27.2499 23.4697 27.399 23.315 27.5183C23.0121 27.7994 22.5987 28.1877 22.4782 28.6697C22.3711 29.1082 22.4246 29.5952 22.4782 30.1106C22.5339 30.5193 22.5557 30.9318 22.5435 31.3441C22.4866 32.308 22.2087 32.7867 21.3586 33.3925C20.9216 33.8594 20.5094 34.3487 20.1235 34.8586C19.4836 35.7042 18.7845 36.5034 18.0315 37.2501C16.6022 38.6242 15.3538 39.1145 14.1605 39.5932L14.0132 39.6517C13.3314 39.8907 12.6091 39.993 11.8878 39.953C11.3657 39.9469 10.8476 39.8612 10.3514 39.6986L10.4418 39.8659C10.574 40.1103 10.6794 40.3028 10.6426 40.4199C10.635 40.4468 10.6184 40.4703 10.5956 40.4865C10.5727 40.5026 10.545 40.5104 10.5171 40.5086L10.5271 40.5019Z" fill="#0C4207"/>
<path d="M10.6201 35.4746C10.8046 35.2246 10.9654 34.9579 11.1004 34.678C11.4569 34.0086 11.8987 33.1852 12.5916 32.6965C13.3665 32.1475 14.4945 31.8681 15.2409 31.684C15.4936 31.6204 15.7128 31.5668 15.8568 31.5166L15.8852 31.5969C15.7363 31.6471 15.5153 31.7024 15.261 31.7643C14.5212 31.9467 13.4016 32.2245 12.6401 32.7684C11.9707 33.2454 11.5272 34.0638 11.1757 34.7215L11.087 34.8889C10.8444 35.3541 10.6201 35.4746 10.6201 35.4746Z" fill="#351200"/>
<path d="M21.4033 28.0527C21.4079 27.8458 21.4655 27.6435 21.5707 27.4653C21.8041 27.0916 22.1659 26.8161 22.5882 26.6904L22.6183 26.7691C22.2401 26.9164 21.7129 27.1189 21.4033 28.0527Z" fill="#351200"/>
<path d="M20.6924 26.9797C20.7012 26.7913 20.7588 26.6085 20.8597 26.4492C20.9835 26.2485 21.124 26.0587 21.2798 25.8818L21.3434 25.9387C21.0697 26.2468 20.8496 26.5987 20.6924 26.9797Z" fill="#351200"/>
<defs>
<linearGradient id="paint0_linear_2_7685" x1="97.3789" y1="34.1641" x2="138.116" y2="34.1641" gradientUnits="userSpaceOnUse">
<stop stop-color="#00DC39"/>
<stop offset="0.44" stop-color="#069221"/>
<stop offset="0.82" stop-color="#0A580E"/>
<stop offset="1" stop-color="#0C4207"/>
</linearGradient>
<linearGradient id="paint1_linear_2_7685" x1="46.7666" y1="34.1572" x2="96.6253" y2="34.1572" gradientUnits="userSpaceOnUse">
<stop stop-color="#00DC39"/>
<stop offset="0.44" stop-color="#069221"/>
<stop offset="0.82" stop-color="#0A580E"/>
<stop offset="1" stop-color="#0C4207"/>
</linearGradient>
<linearGradient id="paint2_linear_2_7685" x1="31.7793" y1="28.9472" x2="62.7631" y2="28.9472" gradientUnits="userSpaceOnUse">
<stop stop-color="#00DC39"/>
<stop offset="0.44" stop-color="#069221"/>
<stop offset="0.82" stop-color="#0A580E"/>
<stop offset="1" stop-color="#0C4207"/>
</linearGradient>
<linearGradient id="paint3_linear_2_7685" x1="17.4082" y1="33.2968" x2="42.8663" y2="33.2968" gradientUnits="userSpaceOnUse">
<stop stop-color="#00DC39"/>
<stop offset="0.44" stop-color="#069221"/>
<stop offset="0.82" stop-color="#0A580E"/>
<stop offset="1" stop-color="#0C4207"/>
</linearGradient>
</defs>
</svg>
