<svg width="43" height="43" viewBox="0 0 43 43" fill="none" xmlns="http://www.w3.org/2000/svg">
<circle cx="21.2872" cy="21.1397" r="21.1397" fill="#222222"/>
<path fill-rule="evenodd" clip-rule="evenodd" d="M32.8439 14.5398C32.0125 14.9015 31.1237 15.1458 30.1872 15.2586C31.1428 14.6948 31.8787 13.8023 32.2228 12.7406C31.3292 13.262 30.3401 13.6425 29.2841 13.8445C28.4383 12.9567 27.2342 12.4023 25.9058 12.4023C23.3494 12.4023 21.2803 14.4412 21.2803 16.9544C21.2803 17.3115 21.3186 17.6591 21.3998 17.9926C17.5532 17.8047 14.1415 15.9914 11.8622 13.2338C11.4656 13.9056 11.2363 14.6901 11.2363 15.5216C11.2363 17.1001 12.0581 18.4953 13.3005 19.3127C12.536 19.2939 11.8192 19.0872 11.198 18.7443C11.198 18.763 11.198 18.7818 11.198 18.8006C11.198 21.0086 12.794 22.8454 14.9108 23.2635C14.5238 23.3668 14.1128 23.4232 13.6923 23.4232C13.3961 23.4232 13.1046 23.395 12.8227 23.3386C13.4104 25.1472 15.1211 26.4626 17.1471 26.5002C15.5654 27.7216 13.5681 28.4497 11.3987 28.4497C11.026 28.4497 10.6581 28.4262 10.2949 28.384C12.3353 29.6899 14.7675 30.4416 17.3764 30.4416C25.8962 30.4416 30.5503 23.503 30.5503 17.4853C30.5503 17.288 30.5456 17.0907 30.536 16.8981C31.4391 16.2545 32.2228 15.4559 32.8439 14.5398Z" fill="white"/>
</svg>
