<svg width="48" height="53" viewBox="0 0 48 53" fill="none" xmlns="http://www.w3.org/2000/svg">
<rect x="0.281738" y="0.737305" width="47.4192" height="51.8648" rx="9.63203" fill="#B70F88"/>
<path d="M28.0291 28.5221C28.1032 27.9108 28.1588 27.2996 28.1588 26.6698C28.1588 26.04 28.1032 25.4287 28.0291 24.8175H31.1595C31.3077 25.4102 31.4003 26.0307 31.4003 26.6698C31.4003 27.3088 31.3077 27.9293 31.1595 28.5221M26.3898 33.6715C26.9455 32.6435 27.3715 31.5321 27.6679 30.3744H30.4001C29.5028 31.9195 28.0792 33.0899 26.3898 33.6715ZM26.1583 28.5221H21.8239C21.7312 27.9108 21.6757 27.2996 21.6757 26.6698C21.6757 26.04 21.7312 25.4195 21.8239 24.8175H26.1583C26.2416 25.4195 26.3065 26.04 26.3065 26.6698C26.3065 27.2996 26.2416 27.9108 26.1583 28.5221ZM23.9911 34.042C23.2224 32.9306 22.6018 31.6988 22.2221 30.3744H25.76C25.3803 31.6988 24.7598 32.9306 23.9911 34.042ZM20.2864 22.9651H17.5821C18.4701 21.4159 19.8926 20.2436 21.5831 19.668C21.0274 20.6961 20.6106 21.8074 20.2864 22.9651ZM17.5821 30.3744H20.2864C20.6106 31.5321 21.0274 32.6435 21.5831 33.6715C19.8962 33.0896 18.4757 31.919 17.5821 30.3744ZM16.8226 28.5221C16.6744 27.9293 16.5818 27.3088 16.5818 26.6698C16.5818 26.0307 16.6744 25.4102 16.8226 24.8175H19.953C19.8789 25.4287 19.8234 26.04 19.8234 26.6698C19.8234 27.2996 19.8789 27.9108 19.953 28.5221M23.9911 19.2883C24.7598 20.3997 25.3803 21.6407 25.76 22.9651H22.2221C22.6018 21.6407 23.2224 20.3997 23.9911 19.2883ZM30.4001 22.9651H27.6679C27.378 21.8181 26.9488 20.7108 26.3898 19.668C28.0939 20.2515 29.511 21.4277 30.4001 22.9651ZM23.9911 17.4082C18.8694 17.4082 14.7295 21.5759 14.7295 26.6698C14.7295 29.1261 15.7053 31.4818 17.4421 33.2187C18.3022 34.0787 19.3231 34.7609 20.4468 35.2264C21.5705 35.6918 22.7748 35.9313 23.9911 35.9313C26.4474 35.9313 28.8031 34.9556 30.54 33.2187C32.2769 31.4818 33.2526 29.1261 33.2526 26.6698C33.2526 25.4535 33.0131 24.2492 32.5476 23.1255C32.0822 22.0019 31.4 20.9809 30.54 20.1209C29.68 19.2608 28.659 18.5786 27.5353 18.1132C26.4116 17.6478 25.2073 17.4082 23.9911 17.4082Z" fill="white"/>
</svg>
